<svg xmlns="http://www.w3.org/2000/svg" xmlns:xlink="http://www.w3.org/1999/xlink" version="1.1" x="0px" y="0px" viewBox="0 0 100 100" style="enable-background:new 0 0 100 100;" xml:space="preserve"><g><path d="M50,56.5c-6.1,0-10.7-5-13.6-15c0-0.1-0.1-0.3-0.1-0.4c-1.8-0.2-3.2-1.6-3.4-3.4l-0.4-3.6c-0.1-1.2,0.3-2.4,1-3.3   c0.4-0.4,0.8-0.8,1.4-1C35.5,21.4,42.8,17,50,17s14.5,4.4,15.1,12.9c0.5,0.2,1,0.6,1.4,1l0,0c0.8,0.9,1.2,2.1,1,3.3l-0.4,3.6   c-0.2,1.8-1.6,3.2-3.4,3.4c0,0.1-0.1,0.2-0.1,0.4C60.7,51.5,56.1,56.5,50,56.5z M50,20c-5.9,0-12.2,3.5-12.2,11.1v1.3l-1.3,0.2   c-0.3,0-0.6,0.2-0.8,0.4c-0.2,0.3-0.3,0.6-0.3,1l0.4,3.6c0,0.4,0.4,0.7,0.8,0.7c1,0,1.9,0.6,2.3,1.6c0.1,0.2,0.2,0.5,0.3,0.9   c2.5,8.5,6.1,12.8,10.7,12.8s8.2-4.3,10.7-12.8c0.1-0.4,0.2-0.8,0.3-0.9c0.4-1,1.3-1.6,2.3-1.6c0.4,0,0.8-0.3,0.8-0.7l0.4-3.6   c0-0.3-0.1-0.7-0.3-1c-0.2-0.2-0.5-0.4-0.8-0.4L62,32.4v-1.3C62.2,23.5,55.9,20,50,20z"></path></g><g><path d="M79.4,83H20.6c-1.1,0-2.2-0.5-2.9-1.4c-0.7-0.9-0.9-2-0.5-3.1c3-9.7,16.1-19.7,32.8-19.7c16.8,0,29.9,10,32.8,19.7   c0.3,1.1,0.1,2.2-0.5,3.1C81.6,82.5,80.6,83,79.4,83z M50,61.7c-15.2,0-27.4,9.1-30,17.6c-0.1,0.2,0,0.3,0.1,0.4   c0,0.1,0.2,0.2,0.4,0.2h58.9c0.2,0,0.4-0.2,0.4-0.2c0.1-0.1,0.1-0.2,0.1-0.4C77.4,70.9,65.2,61.7,50,61.7z"></path></g></svg>