<?xml version="1.0" standalone="no"?>
<!DOCTYPE svg PUBLIC "-//W3C//DTD SVG 1.1//EN" "http://www.w3.org/Graphics/SVG/1.1/DTD/svg11.dtd" >
<svg xmlns="http://www.w3.org/2000/svg" xmlns:xlink="http://www.w3.org/1999/xlink" version="1.1">
<metadata>
Created by FontForge 20161003 at Sat Apr  8 12:23:50 2017
 By www-data
Copyright (c) 2011 By Svetoslav Simov (c) Fontfabric, LLC. All rights reserved.
</metadata>
<defs>
<font id="SolomonSansBook" horiz-adv-x="564" >
  <font-face 
    font-family="SolomonSansBook"
    font-weight="400"
    font-stretch="normal"
    units-per-em="1000"
    panose-1="2 0 0 0 0 0 0 0 0 0"
    ascent="750"
    descent="-250"
    x-height="507"
    cap-height="700"
    bbox="-117 -206 1678 884"
    underline-thickness="50"
    underline-position="-150"
    unicode-range="U+0020-FB04"
  />
<missing-glyph horiz-adv-x="612" 
d="M58 0v699h498v-699h-498zM307 376l188 284h-375zM325 350l195 -293v586zM96 58l192 292l-192 293v-585zM119 40h376l-188 279z" />
    <glyph glyph-name="f_f" unicode="ff" horiz-adv-x="613" 
d="M572 701v-44q-56 0 -80 -25t-24 -73v-52h100v-46h-100v-461h-52v461h-252v-461h-52v461h-50v46h50v52q0 72 43.5 108.5t112.5 33.5v-44q-56 0 -80 -25t-24 -73v-52h252v52q0 72 43.5 108.5t112.5 33.5z" />
    <glyph glyph-name="fi" unicode="fi" horiz-adv-x="525" 
d="M430 0h-53v461h-216v-461h-52v461h-50v46h50v52q0 72 43.5 108.5t112.5 33.5v-44q-56 0 -80 -25t-24 -73v-52h269v-507zM431 699v-77h-55v77h55z" />
    <glyph glyph-name="fl" unicode="fl" horiz-adv-x="542" 
d="M265 701v-44q-56 0 -80 -25t-24 -73v-52h100v-46h-100v-461h-52v461h-50v46h50v52q0 72 43.5 108.5t112.5 33.5zM505 45v-46q-65 -3 -99.5 33t-34.5 109v559h53v-559q0 -48 18 -72.5t63 -23.5z" />
    <glyph glyph-name="f_f_i" unicode="ffi" horiz-adv-x="830" 
d="M735 0h-53v461h-215v-461h-52v461h-252v-461h-52v461h-50v46h50v52q0 72 43.5 108.5t112.5 33.5v-44q-56 0 -80 -25t-24 -73v-52h252v52q0 72 43.5 108.5t112.5 33.5v-44q-56 0 -80 -25t-24 -73v-52h268v-507zM736 699v-77h-55v77h55z" />
    <glyph glyph-name="f_f_l" unicode="ffl" horiz-adv-x="854" 
d="M561 701v-44q-56 0 -80 -25t-24 -73v-52h100v-46h-100v-461h-52v461h-242v-461h-52v461h-50v46h50v52q0 72 43.5 108.5t112.5 33.5v-44q-56 0 -80 -25t-24 -73v-52h242v52q0 72 43.5 108.5t112.5 33.5zM816 45v-46q-65 -3 -99.5 33t-34.5 109v559h53v-559q0 -48 18 -72.5
t63 -23.5z" />
    <glyph glyph-name="f_j" unicode="fj" 
d="M466 702v-73h-55v73h55zM311 -189v45q50 0 76.5 26t26.5 71v509h-239v-462h-52v462h-50v45h50v52q0 72 43.5 108.5t112.5 33.5v-44q-56 0 -80 -25t-24 -73v-52h292v-554q0 -71 -43 -108t-113 -34z" />
    <glyph glyph-name=".notdef" horiz-adv-x="612" 
d="M58 0v699h498v-699h-498zM307 376l188 284h-375zM325 350l195 -293v586zM96 58l192 292l-192 293v-585zM119 40h376l-188 279z" />
    <glyph glyph-name=".null" horiz-adv-x="0" 
 />
    <glyph glyph-name="nonmarkingreturn" horiz-adv-x="333" 
 />
    <glyph glyph-name="space" unicode=" " horiz-adv-x="257" 
 />
    <glyph glyph-name="exclam" unicode="!" horiz-adv-x="323" 
d="M188 152h-52v549h53zM192 0h-60v78h60v-78z" />
    <glyph glyph-name="quotedbl" unicode="&#x22;" horiz-adv-x="330" 
d="M83 517v184h50v-184h-50zM198 517v184h49v-184h-49z" />
    <glyph glyph-name="numbersign" unicode="#" horiz-adv-x="603" 
d="M545 486v-48h-96l-27 -174h88v-45h-95l-38 -219h-43l38 219h-158l-38 -219h-46l38 219h-98v45h105l26 174h-97v48h104l35 214h46l-35 -214h158l35 214h44l-35 -214h89zM405 438h-158l-26 -174h158z" />
    <glyph glyph-name="dollar" unicode="$" horiz-adv-x="566" 
d="M140 530q-2 -35 11.5 -62t39 -44t48.5 -26.5t51 -16.5q35 -9 61 -18.5t55 -27t47 -39t29.5 -56t9.5 -76.5q-4 -76 -57.5 -121t-130.5 -55v-90h-47v89q-62 9 -112.5 43.5t-74.5 92.5l43 22q23 -49 68 -79.5t99 -30.5q68 -1 111 35t47 97q3 39 -11 69.5t-41.5 49
t-52.5 28.5t-58 19q-39 11 -68.5 24.5t-60 36t-46 58t-14.5 81.5q2 76 51 124t120 58v89h47v-88q128 -19 172 -121l-40 -20q-23 41 -65.5 65.5t-86.5 25.5q-56 0 -98 -36t-46 -100z" />
    <glyph glyph-name="percent" unicode="%" horiz-adv-x="840" 
d="M382 542q0 -66 -47 -113t-112 -47t-112 47t-47 113q0 67 47 114t112 47t112 -47t47 -114zM771 158q0 -66 -47 -113t-112 -47q-66 0 -113 47t-47 113t47 113t113 47q65 0 112 -47t47 -113zM722 158q0 48 -31.5 81.5t-78.5 33.5q-48 0 -80 -33.5t-32 -81.5t32 -80.5
t80 -32.5q47 0 78.5 32.5t31.5 80.5zM610 732h58q-73 -124 -225.5 -375t-230.5 -384h-56q72 123 224 374t230 385zM336 542q0 49 -32 82t-81 33q-48 0 -80.5 -33t-32.5 -82q0 -48 32.5 -81t80.5 -33t80.5 33t32.5 81z" />
    <glyph glyph-name="ampersand" unicode="&#x26;" horiz-adv-x="655" 
d="M300 376l164 -175l61 97q11 -6 23.5 -13t19.5 -11l-70 -107l131 -151h-67l-94 107q-47 -60 -93 -90.5t-105 -30.5q-118 0 -173 95q-34 57 -27 111.5t45 100.5t102 83q-76 90 -76 156q0 70 48 111.5t115 41.5q59 0 103 -40.5t44 -102.5q0 -61 -40.5 -102.5t-110.5 -79.5z
M435 162l-182 195q-75 -39 -112.5 -100.5t-0.5 -127.5q19 -35 57 -55.5t81 -20.5q77 0 157 109zM301 653q-43 0 -75.5 -31t-32.5 -73q0 -53 75 -139q132 68 132 145q0 40 -29.5 69t-69.5 29z" />
    <glyph glyph-name="quotesingle" unicode="'" horiz-adv-x="212" 
d="M82 512v189h47v-189h-47z" />
    <glyph glyph-name="parenleft" unicode="(" horiz-adv-x="394" 
d="M142 352q0 -122 58.5 -240t160.5 -183v-59q-123 71 -197 204t-74 278q0 146 74 279t197 204v-58q-104 -67 -161.5 -183.5t-57.5 -241.5z" />
    <glyph glyph-name="parenright" unicode=")" horiz-adv-x="393" 
d="M248 352q0 125 -57.5 241.5t-161.5 183.5v58q123 -71 197 -204t74 -279q0 -145 -74 -278t-197 -204v59q102 65 160.5 183t58.5 240z" />
    <glyph glyph-name="asterisk" unicode="*" horiz-adv-x="474" 
d="M408 562l-146 -43l95 -126l-36 -24l-90 129l-89 -130l-34 25l91 126l-141 43l14 41l141 -50l-1 151h42l-3 -151l143 49z" />
    <glyph glyph-name="plus" unicode="+" horiz-adv-x="656" 
d="M97 307v47h212v209h48v-209h202v-47h-202v-213h-48v213h-212z" />
    <glyph glyph-name="comma" unicode="," horiz-adv-x="237" 
d="M36 -130l59 196h61l-80 -196h-40z" />
    <glyph glyph-name="hyphen" unicode="-" horiz-adv-x="462" 
d="M110 287v50h244v-50h-244z" />
    <glyph glyph-name="period" unicode="." horiz-adv-x="268" 
d="M159 -1h-63v78h63v-78z" />
    <glyph glyph-name="slash" unicode="/" horiz-adv-x="415" 
d="M383 768l-281 -823h-52q48 140 141 412t141 411h51z" />
    <glyph glyph-name="zero" unicode="0" horiz-adv-x="615" 
d="M133 509v-319q0 -71 52.5 -111.5t122.5 -40.5q69 0 121 40.5t52 111.5v319q0 70 -54 111t-123 40t-120 -41.5t-51 -109.5zM82 190v319q0 93 65.5 145.5t155.5 53.5q93 2 161.5 -50.5t68.5 -148.5v-319q1 -93 -65 -146.5t-160 -53.5q-95 -2 -161.5 52t-64.5 148z" />
    <glyph glyph-name="one" unicode="1" horiz-adv-x="330" 
d="M159 652h-92v48h143v-700h-51v652z" />
    <glyph glyph-name="two" unicode="2" horiz-adv-x="573" 
d="M288 662h1q-54 2 -98.5 -26.5t-68.5 -75.5l-43 21q27 62 84 95t126 34q94 -1 148.5 -54.5t56.5 -135.5q0 -81 -76 -165l-277 -306h370v-49h-417q-3 8 -11.5 24t-11.5 24l311 344q60 67 59 127q0 60 -41 100.5t-112 42.5z" />
    <glyph glyph-name="three" unicode="3" horiz-adv-x="563" 
d="M61 118l43 23q56 -103 169 -103q61 0 111 45t50 115q0 65 -45 110t-105 45h-43v50h43q55 0 92 32.5t37 90.5t-37 95t-85 43t-97.5 -16t-72.5 -70l-39 21q29 63 94 91.5t129 19.5t113 -58t49 -126q0 -43 -25 -86.5t-65 -61.5q108 -59 108 -181q-1 -95 -65.5 -152.5
t-149.5 -57.5q-63 0 -121 34.5t-88 96.5z" />
    <glyph glyph-name="four" unicode="4" horiz-adv-x="546" 
d="M433 700v-499h62v-48h-62v-153h-51v153h-298l-44 51l328 496h65zM382 201l1 431l-288 -431h287z" />
    <glyph glyph-name="five" unicode="5" horiz-adv-x="586" 
d="M68 118l40 26q30 -51 77.5 -78.5t101.5 -27.5q82 0 130.5 59t47.5 130q0 69 -46.5 123t-128.5 54q-89 0 -171 -46q-16 0 -24 -1l51 343h333v-46h-292l-36 -231q76 30 141 30q72 -1 124.5 -35t76.5 -84t24 -108q0 -93 -62 -165t-170 -72q-65 0 -125 34.5t-92 94.5z" />
    <glyph glyph-name="six" unicode="6" horiz-adv-x="607" 
d="M308 -9q-107 0 -168.5 69.5t-61.5 162.5q0 78 38 137l212 340h60l-178 -275q48 29 98 29q111 0 170.5 -69t59.5 -162t-61 -162.5t-169 -69.5zM308 405q-72 0 -124.5 -53.5t-53.5 -127.5q0 -71 48 -128t130 -57t131 57t48 128q0 69 -48.5 125t-130.5 56z" />
    <glyph glyph-name="seven" unicode="7" horiz-adv-x="505" 
d="M412 652h-367v48h398l27 -40l-343 -660h-56z" />
    <glyph glyph-name="eight" unicode="8" horiz-adv-x="591" 
d="M293 -10q-86 0 -150.5 56.5t-65.5 152.5q-1 55 29 103t80 79q-81 58 -81 147q0 83 56.5 132.5t131.5 49.5q76 0 132 -49.5t56 -132.5q0 -40 -21 -80t-59 -67q111 -68 109 -182q-1 -96 -65.5 -152.5t-151.5 -56.5zM293 661q-62 0 -100 -40.5t-38 -90.5t38 -90t100 -40
t99 39.5t37 89.5t-37 91t-99 41zM293 356q-75 0 -119 -48t-44 -110q0 -63 44 -112t119 -48q76 1 120.5 50.5t44.5 111.5q0 61 -44.5 108.5t-120.5 47.5z" />
    <glyph glyph-name="nine" unicode="9" horiz-adv-x="609" 
d="M301 709q107 0 168.5 -69.5t61.5 -162.5q0 -78 -38 -137l-212 -340h-60l178 275q-44 -27 -98 -27q-111 0 -170.5 68.5t-59.5 160.5q0 93 61 162.5t169 69.5zM301 295q72 0 124.5 53.5t53.5 127.5q0 71 -48 128t-130 57t-131 -57t-48 -128q0 -77 44.5 -129t134.5 -52z" />
    <glyph glyph-name="colon" unicode=":" horiz-adv-x="306" 
d="M182 -1h-64v80h64v-80zM183 407h-65v80h65v-80z" />
    <glyph glyph-name="semicolon" unicode=";" horiz-adv-x="307" 
d="M183 407h-65v80h65v-80zM64 -130l59 196h61l-80 -196h-40z" />
    <glyph glyph-name="less" unicode="&#x3c;" horiz-adv-x="509" 
d="M431 510v-58l-323 -166l323 -164v-57l-375 196v50z" />
    <glyph glyph-name="equal" unicode="=" horiz-adv-x="639" 
d="M116 351v50h407v-50h-407zM116 153v51h407v-51h-407z" />
    <glyph glyph-name="greater" unicode="&#x3e;" horiz-adv-x="508" 
d="M79 452v58l375 -199v-50l-375 -196v57l323 164z" />
    <glyph glyph-name="question" unicode="?" horiz-adv-x="534" 
d="M44 621l3 4q31 40 80.5 61.5t103.5 21.5q87 0 151 -53.5t63 -145.5q-1 -85 -55.5 -140t-144.5 -71l-6 -143h-41l-6 181q84 6 143.5 51.5t58.5 122.5q-1 72 -50 110.5t-115 38.5q-40 0 -80.5 -17.5t-67.5 -46.5q-9 7 -20.5 14.5t-16.5 11.5zM250 1h-57v73h57v-73z" />
    <glyph glyph-name="at" unicode="@" horiz-adv-x="813" 
d="M656 432l4 -5q-39 50 -100 78t-127 28q-90 0 -161.5 -47.5t-107.5 -119t-38 -150.5q-2 -130 67.5 -206.5t214.5 -76.5q55 0 100 17l21 -43q-62 -22 -121 -22q-86 0 -152 28t-104.5 75t-57.5 105t-18 124q2 92 43 174t123.5 136.5t188.5 54.5q137 0 228.5 -82t91.5 -203
q0 -113 -68 -193t-151 -80q-21 0 -36.5 20.5t-12.5 57.5q-50 -78 -131 -78q-51 0 -87 42t-36 95q0 106 59.5 187t157.5 81q31 0 62.5 -22t36.5 -68q1 3 4.5 14.5t8 24.5t7.5 22h24.5t23.5 -1l-80 -261v-1q-24 -66 21 -66q60 0 104.5 72.5t44.5 153.5q0 75 -47 135zM278 163
q0 -39 23 -66.5t59 -27.5q62 0 110.5 74t48.5 141q0 45 -20 70.5t-57 25.5q-79 1 -121.5 -62.5t-42.5 -154.5z" />
    <glyph glyph-name="A" unicode="A" horiz-adv-x="636" 
d="M28 0l248 707h81q41 -116 125.5 -354t126.5 -353h-57l-84 234h-301l-81 -234h-58zM186 284h265l-134 388z" />
    <glyph glyph-name="B" unicode="B" horiz-adv-x="613" 
d="M508 519q0 -107 -101 -146q71 -25 102 -72t30 -103q0 -95 -64.5 -146.5t-162.5 -51.5h-196v700h197q81 0 138 -50.5t57 -130.5zM170 395h143q67 0 105 37.5t38 87.5q0 51 -38 92.5t-105 41.5h-143v-259zM313 347h-143v-299h143q81 0 127 47t46 105q0 57 -46 102t-127 45z
" />
    <glyph glyph-name="C" unicode="C" horiz-adv-x="733" 
d="M650 615l-36 -36q-90 85 -202 82q-90 -1 -158 -49t-100 -117.5t-32 -146.5q0 -76 32.5 -145.5t100.5 -116.5t157 -47q59 0 119 27t102 70l38 -31q-50 -54 -117.5 -86t-141.5 -32q-81 0 -148 31.5t-109 83t-65 115t-23 131.5t23 132t65 116t109 84t148 32q138 0 238 -97z
" />
    <glyph glyph-name="D" unicode="D" horiz-adv-x="729" 
d="M116 700h203q105 1 183.5 -49.5t116 -127t39.5 -164.5q2 -67 -19.5 -130t-62.5 -114.5t-107.5 -83t-148.5 -31.5h-204v700zM171 51h148q69 -1 125.5 26t90.5 71.5t52 99t16 110.5q-2 74 -32.5 139t-96 109t-153.5 44h-150v-599z" />
    <glyph glyph-name="E" unicode="E" horiz-adv-x="531" 
d="M461 701v-52h-294v-272h290v-51h-291v-273h295v-52h-349v700h349z" />
    <glyph glyph-name="F" unicode="F" horiz-adv-x="522" 
d="M465 700v-51h-296v-278h292v-52h-292v-319h-53v700h349z" />
    <glyph glyph-name="G" unicode="G" horiz-adv-x="825" 
d="M413 713q75 0 142.5 -30.5t115.5 -84.5l-40 -33q-41 45 -98.5 70.5t-119.5 25.5q-88 0 -156.5 -48.5t-101.5 -118.5t-33 -145t33 -144t101 -115.5t157 -46.5q99 0 183 71t94 174h-314v52h377q-3 -148 -97.5 -248.5t-242.5 -100.5q-107 0 -187.5 53.5t-118.5 133.5
t-39 171q0 67 23 131t65 116.5t109 84.5t148 32z" />
    <glyph glyph-name="H" unicode="H" horiz-adv-x="688" 
d="M522 0v323h-354v-323h-54v700h54v-326h354v326h53v-700h-53z" />
    <glyph glyph-name="I" unicode="I" horiz-adv-x="286" 
d="M116 0v700h54v-700h-54z" />
    <glyph glyph-name="J" unicode="J" horiz-adv-x="549" 
d="M51 154l49 13q17 -65 58.5 -94t94.5 -29q57 0 99 40t42 108v458h-135v50h189v-508q0 -94 -57.5 -147t-136.5 -53q-72 0 -127 39t-76 123z" />
    <glyph glyph-name="K" unicode="K" horiz-adv-x="634" 
d="M116 700h53v-375l347 375h61l-275 -310l292 -390h-64l-267 353l-94 -92v-261h-53v700z" />
    <glyph glyph-name="L" unicode="L" horiz-adv-x="471" 
d="M426 52v-52h-327v700h54v-648h273z" />
    <glyph glyph-name="M" unicode="M" horiz-adv-x="855" 
d="M455 107h-53l-233 533v-640h-53v701h82l230 -534q37 83 114.5 267t113.5 267h84v-701h-53l1 640z" />
    <glyph glyph-name="N" unicode="N" horiz-adv-x="737" 
d="M116 700h67l384 -648v648h54v-700h-84l-367 620v-620h-54v700z" />
    <glyph glyph-name="O" unicode="O" horiz-adv-x="824" 
d="M412 711q-152 0 -249 -106.5t-97 -255.5q0 -86 29.5 -156t78.5 -113t110 -66t127 -23t127.5 23t111 66t79 113t29.5 156q0 96 -43.5 178.5t-123.5 133t-179 50.5zM120 349q0 74 25 134.5t66 98t93.5 57.5t107.5 20.5t107.5 -19.5t93.5 -57.5t66 -98t25 -135.5t-25 -135.5
t-67.5 -97.5t-94.5 -56.5t-108 -18.5q-118 2 -203.5 83t-85.5 225z" />
    <glyph glyph-name="P" unicode="P" horiz-adv-x="601" 
d="M169 267v-267h-53v701h197q106 -1 165 -67.5t58 -155.5q-1 -87 -59.5 -149t-162.5 -62h-145zM169 317h144q82 3 126.5 51t43.5 113t-46 115t-124 54h-144v-333z" />
    <glyph glyph-name="Q" unicode="Q" horiz-adv-x="833" 
d="M487 234l36 36l113 -113q64 93 64 191q0 140 -86 222.5t-206 82.5q-119 0 -204 -83t-85 -222t87.5 -221.5t203.5 -82.5q96 0 191 76zM678 128l-6 -7l66 -65l-37 -36l-63 63q-101 -91 -228 -91q-142 0 -243 105.5t-101 250.5q0 146 99 251.5t245 105.5q145 0 244.5 -105.5
t99.5 -251.5q0 -127 -76 -220z" />
    <glyph glyph-name="R" unicode="R" horiz-adv-x="628" 
d="M331 297l232 -297h-68l-231 297h-95v-297h-53v700h210q99 0 162 -53t64 -150q1 -94 -59.5 -145t-161.5 -55zM169 346h158q80 0 126 38.5t46 112.5q0 75 -47 113.5t-125 38.5h-158v-303z" />
    <glyph glyph-name="S" unicode="S" 
d="M131 529q-2 -28 8 -50.5t24 -36.5t38 -25.5t40.5 -17t40.5 -11.5q210 -53 202 -220q-7 -82 -71 -129.5t-143 -47.5q-64 0 -122 36t-85 100q7 4 22 12t21 11q23 -49 67 -78t98 -29q68 -1 112 35t48 94q3 38 -11 68t-42 48.5t-53 29t-58 19.5q-40 11 -68 23t-59.5 34
t-47 57t-14.5 81q3 85 61 132t135 47q62 0 115.5 -32t78.5 -90l-42 -21q-22 42 -64 66t-86 24q-57 1 -99 -32.5t-46 -96.5z" />
    <glyph glyph-name="T" unicode="T" horiz-adv-x="455" 
d="M25 700h405v-45h-176v-655h-53v655h-176v45z" />
    <glyph glyph-name="U" unicode="U" horiz-adv-x="659" 
d="M106 700h54v-502q0 -72 50.5 -113.5t118.5 -41.5t119.5 42t51.5 113v502h53v-502q0 -98 -66.5 -152.5t-157.5 -54.5t-157 54.5t-66 152.5v502z" />
    <glyph glyph-name="V" unicode="V" horiz-adv-x="631" 
d="M358 -5h-81l-251 705h56l236 -669l232 669h56q-41 -116 -124 -352.5t-124 -352.5z" />
    <glyph glyph-name="W" unicode="W" horiz-adv-x="958" 
d="M511 604l170 -574l174 670h57q-24 -88 -90 -331.5t-101 -373.5h-80l-157 526l-158 -525h-80q-31 116 -95.5 351.5t-96.5 352.5h55l178 -670q25 80 84 281.5t87 292.5h53z" />
    <glyph glyph-name="X" unicode="X" horiz-adv-x="647" 
d="M600 700l-237 -350l240 -350h-62l-212 311l-213 -311h-62l241 350l-237 350h62l209 -312l208 312h63z" />
    <glyph glyph-name="Y" unicode="Y" horiz-adv-x="593" 
d="M560 700l-238 -420v-280h-53v281l-236 419h59l204 -370l205 370h59z" />
    <glyph glyph-name="Z" unicode="Z" horiz-adv-x="572" 
d="M67 0v53l363 601h-345v47h413v-28l-379 -625h385v-48h-437z" />
    <glyph glyph-name="bracketleft" unicode="[" horiz-adv-x="315" 
d="M262 777v-49h-90l-1 -755h90v-48h-141q0 144 0.5 426.5t0.5 425.5h141z" />
    <glyph glyph-name="backslash" unicode="\" horiz-adv-x="420" 
d="M319 -55l-280 823h51l282 -823h-53z" />
    <glyph glyph-name="bracketright" unicode="]" horiz-adv-x="316" 
d="M51 728v49h141l1 -852h-141v48h90l-1 755h-90z" />
    <glyph glyph-name="asciicircum" unicode="^" horiz-adv-x="613" 
d="M91 323l198 379h35l197 -379h-54l-160 328l-164 -328h-52z" />
    <glyph glyph-name="underscore" unicode="_" horiz-adv-x="592" 
d="M54 -10h485v-48h-485v48z" />
    <glyph glyph-name="grave" unicode="`" horiz-adv-x="513" 
d="M279 762l-76 104h62l60 -104h-46z" />
    <glyph glyph-name="a" unicode="a" 
d="M429 105v139q-63 40 -145 40q-84 0 -129.5 -34.5t-45.5 -88.5q0 -56 42.5 -90.5t122.5 -34.5q41 0 84.5 18.5t70.5 50.5zM478 0h-40l-10 54q-66 -63 -154 -65q-106 -1 -161 48t-55 127q0 71 59.5 119.5t165.5 49.5q75 0 146 -42v42q0 135 -161 135q-75 0 -146 -45l-23 37
q74 56 172 56q88 0 147.5 -44t59.5 -139v-333z" />
    <glyph glyph-name="b" unicode="b" horiz-adv-x="583" 
d="M279 509q113 1 176 -76.5t63 -182.5q0 -103 -61 -178.5t-170 -76.5q-93 -2 -139 59l-8 -54h-43v701h53v-242q51 50 129 50zM277 41q88 1 138 62.5t52 144.5t-45 146t-133 69q-90 3 -140 -57v-294q53 -71 128 -71z" />
    <glyph glyph-name="c" unicode="c" horiz-adv-x="530" 
d="M467 454l-28 -34q-54 45 -134 45q-79 1 -137 -58.5t-59 -156.5q0 -81 53 -144.5t144 -63.5q75 0 136 50q7 -9 17.5 -20.5t13.5 -15.5q-70 -64 -167 -64q-115 0 -182 78t-67 181t67.5 182.5t181.5 80.5q98 0 161 -60z" />
    <glyph glyph-name="d" unicode="d" horiz-adv-x="582" 
d="M303 509q78 0 129 -50v242h53v-701h-43l-8 54q-46 -61 -139 -59q-50 1 -92 19t-68.5 48t-45.5 68.5t-22.5 81t1 85t24 80.5t47 67.5t70.5 47t94 17.5zM305 42q76 0 128 70v294q-50 60 -140 57q-58 -4 -99.5 -36t-60 -78.5t-17.5 -100t21 -98.5t64 -76t104 -32z" />
    <glyph glyph-name="e" unicode="e" horiz-adv-x="603" 
d="M306 42q100 0 153 66l39 -27q-72 -88 -192 -88q-59 0 -107 23.5t-77.5 62t-45 85t-15.5 94.5q0 102 65.5 178.5t178.5 77.5q102 1 168.5 -69.5t66.5 -173.5q0 -7 -2 -33h-429q6 -80 58.5 -138t138.5 -58zM109 282h385q-4 81 -57 131.5t-132 52.5q-85 -1 -135 -52
t-61 -132z" />
    <glyph glyph-name="f" unicode="f" horiz-adv-x="300" 
d="M162 559v-52h112v-45h-112v-462h-52v462h-87v45h87v52q0 75 47 113.5t128 28.5v-44q-68 5 -95.5 -21.5t-27.5 -76.5z" />
    <glyph glyph-name="g" unicode="g" horiz-adv-x="584" 
d="M306 511q77 0 130 -52l9 48h43v-514q0 -99 -60 -145t-150 -45q-121 2 -190 80l30 34q28 -31 70.5 -48.5t86.5 -17.5q162 0 162 142v61q-46 -61 -139 -59q-50 1 -92.5 19t-69.5 48t-46 69t-23 81.5t0.5 85t24.5 81t48 68t71 47t95 17.5zM308 42q76 0 128 70v294
q-51 62 -140 59q-58 -4 -101 -36.5t-61.5 -79t-18 -100t21 -99t65.5 -76.5t106 -32z" />
    <glyph glyph-name="h" unicode="h" horiz-adv-x="610" 
d="M148 409v-409h-52v700h52v-239q55 53 141 53q102 -2 167 -62t65 -164v-288h-52v288q-1 78 -52.5 126.5t-129.5 51.5q-91 2 -139 -57z" />
    <glyph glyph-name="i" unicode="i" horiz-adv-x="245" 
d="M148 0h-52v508h52v-508zM149 699v-77h-54v77h54z" />
    <glyph glyph-name="j" unicode="j" horiz-adv-x="245" 
d="M-7 -189v45q50 0 76.5 26t26.5 71v555h53v-555q0 -71 -43 -108t-113 -34zM148 700v-75h-55v75h55z" />
    <glyph glyph-name="k" unicode="k" horiz-adv-x="522" 
d="M96 700h49v-460l264 267h62l-217 -220q34 -42 113 -141t117 -146h-57l-206 252l-76 -69v-183h-49v700z" />
    <glyph glyph-name="l" unicode="l" horiz-adv-x="276" 
d="M224 45v-46q-65 -3 -99.5 33t-34.5 109v559h53v-559q0 -48 18 -72.5t63 -23.5z" />
    <glyph glyph-name="m" unicode="m" horiz-adv-x="927" 
d="M287 469q-90 2 -139 -58v-411h-52v507h45l7 -43q53 52 141 52q70 -3 112 -25t64 -76q30 61 72.5 80.5t102.5 19.5q88 0 143 -52t55 -161v-302h-52v302q0 83 -41.5 124.5t-104.5 41.5q-147 0 -148 -156v-312h-49l-2 312q-6 157 -154 157z" />
    <glyph glyph-name="n" unicode="n" horiz-adv-x="620" 
d="M148 411v-411h-52v507h45l7 -43q55 53 141 53q103 -2 172 -62.5t69 -163.5v-291h-52v291q-1 77 -56.5 126t-134.5 52q-90 2 -139 -58z" />
    <glyph glyph-name="o" unicode="o" horiz-adv-x="614" 
d="M107 253q0 -99 60 -159.5t139 -60.5t139.5 60.5t60.5 159.5t-60 158t-140 59q-79 0 -139 -59t-60 -158zM558 253q0 -108 -72.5 -186.5t-179.5 -78.5q-106 0 -178.5 78.5t-72.5 186.5t72.5 186.5t178.5 78.5q107 0 179.5 -78.5t72.5 -186.5z" />
    <glyph glyph-name="p" unicode="p" horiz-adv-x="583" 
d="M278 510q51 0 94 -17.5t70.5 -47t47 -68t24 -81t1 -85t-22.5 -81t-45.5 -68.5t-68.5 -48t-92 -19q-94 -2 -139 56v-247h-51v703h44l8 -48q52 51 130 51zM276 42q60 1 104 32t64 76.5t21 99t-17.5 99.5t-60 78.5t-99.5 36.5q-90 3 -140 -58v-294q52 -70 128 -70z" />
    <glyph glyph-name="q" unicode="q" horiz-adv-x="582" 
d="M305 510q78 0 130 -51l8 48h44v-703h-52v247q-45 -58 -138 -56q-50 1 -92 19t-68.5 48t-45.5 68.5t-22.5 81t1 85t24 81t47 68t70.5 47t94 17.5zM307 42q76 0 128 70v294q-50 61 -140 58q-58 -4 -99.5 -36.5t-60 -78.5t-17.5 -99.5t21 -99t64 -76.5t104 -32z" />
    <glyph glyph-name="r" unicode="r" horiz-adv-x="408" 
d="M96 507h42l8 -66q28 44 76 60.5t88 11.5t74 -20l-21 -43q-74 36 -146 -1.5t-70 -123.5v-325h-51v507z" />
    <glyph glyph-name="s" unicode="s" horiz-adv-x="443" 
d="M229 279q68 -14 112.5 -48.5t44.5 -93.5q0 -69 -53.5 -107.5t-117.5 -38.5q-99 0 -155 73q23 23 31 32q30 -41 87 -54t105 12.5t52 83.5q-1 38 -36.5 62t-79.5 33q-64 11 -106 45t-43 92q0 71 54.5 110.5t126 34.5t118.5 -49l-31 -34q-32 31 -84 35.5t-92.5 -22
t-40.5 -75.5q1 -69 108 -91z" />
    <glyph glyph-name="t" unicode="t" horiz-adv-x="317" 
d="M258 43v-47q-69 -3 -112 33.5t-43 108.5v326h-75v43h75v124l51 11v-135h103v-43h-103v-326q0 -45 27.5 -70.5t76.5 -24.5z" />
    <glyph glyph-name="u" unicode="u" horiz-adv-x="619" 
d="M471 108v399h52v-507h-45l-7 59q-23 -30 -63.5 -49t-78.5 -19q-108 2 -174 54.5t-66 166.5v295h52v-295q0 -50 15 -84.5t43 -52.5t59.5 -26t73.5 -10q87 -2 139 69z" />
    <glyph glyph-name="v" unicode="v" horiz-adv-x="488" 
d="M85 507l159 -469h4l157 469h55l-177 -511h-74l-178 511h54z" />
    <glyph glyph-name="w" unicode="w" horiz-adv-x="722" 
d="M325 504h70l107 -460h4l125 463h56l-148 -508h-73l-104 453h-3l-103 -453h-74l-145 508h54l125 -463h4z" />
    <glyph glyph-name="x" unicode="x" horiz-adv-x="518" 
d="M257 286l146 221h62l-174 -253q32 -44 95.5 -134.5t83.5 -119.5h-60l-153 224l-150 -224h-61l176 254q-32 45 -93 134.5t-81 118.5h63z" />
    <glyph glyph-name="y" unicode="y" horiz-adv-x="508" 
d="M104 -181v43q42 -1 63 13t34 46l29 77l-207 509h56l179 -455l171 455h56l-235 -603q-31 -85 -130 -85h-16z" />
    <glyph glyph-name="z" unicode="z" horiz-adv-x="464" 
d="M411 45v-45h-355v32l290 430h-280v45h338v-34l-289 -428h296z" />
    <glyph glyph-name="braceleft" unicode="{" horiz-adv-x="316" 
d="M266 771v-44h-1q-41 1 -59.5 -10t-18.5 -53v-166q0 -104 -64 -149q63 -44 63 -149v-164q0 -43 19.5 -55.5t59.5 -11.5h1v-42h-34q-45 0 -70 29t-25 77v148q0 125 -67 140v56q67 7 67 140v148q0 48 25 77t70 29h34z" />
    <glyph glyph-name="bar" unicode="|" horiz-adv-x="289" 
d="M118 -149v931h48v-931h-48z" />
    <glyph glyph-name="braceright" unicode="}" horiz-adv-x="316" 
d="M47 727v44h34q45 0 70 -29t25 -77v-148q0 -133 67 -140v-56q-67 -15 -67 -140v-148q0 -48 -25 -77t-70 -29h-34v42h1q40 -1 59.5 11.5t19.5 55.5v164q0 105 63 149q-64 45 -64 149v166q0 42 -18.5 53t-59.5 10h-1z" />
    <glyph glyph-name="asciitilde" unicode="~" horiz-adv-x="600" 
d="M484 367l34 -21q-45 -89 -126 -89q-43 0 -101 37q-44 28 -83 28q-52 0 -97 -66q-7 6 -16 11.5t-16 11.5q54 94 130 94q47 0 110 -41q41 -26 72 -26q50 0 93 61z" />
    <glyph glyph-name="uni00A0" unicode="&#xa0;" horiz-adv-x="257" 
 />
    <glyph glyph-name="exclamdown" unicode="&#xa1;" horiz-adv-x="295" 
d="M120 343h52v-544h-53zM116 495h60v-78h-60v78z" />
    <glyph glyph-name="cent" unicode="&#xa2;" horiz-adv-x="561" 
d="M299 -1v88q-101 9 -163 88t-62 175q1 94 64.5 174.5t161.5 90.5v85h40v-85q85 -9 141 -59l-28 -35q-48 41 -106.5 46t-106.5 -19.5t-80.5 -78t-33.5 -121.5q0 -82 51.5 -149t142.5 -67q72 0 137 53q7 -8 16.5 -18.5t13.5 -15.5q-57 -51 -147 -63v-89h-41z" />
    <glyph glyph-name="sterling" unicode="&#xa3;" horiz-adv-x="596" 
d="M530 544l-43 -7q-14 55 -60.5 88.5t-98.5 33.5q-61 0 -103 -37t-42 -114v-142h225v-43h-225v-276h354v-47h-461v47h57v276h-55v43h55v142q0 93 57 146t136 53q69 0 126.5 -43t77.5 -120z" />
    <glyph glyph-name="yen" unicode="&#xa5;" horiz-adv-x="617" 
d="M579 700l-175 -314h91v-38h-115l-42 -72v-25h157v-40h-157v-211h-49v211h-157v40h157v25l-44 72h-113v38h91l-176 314h55l212 -376l208 376h57z" />
    <glyph glyph-name="brokenbar" unicode="&#xa6;" horiz-adv-x="287" 
d="M119 -149v390h48v-390h-48zM167 782v-387h-48v387h48z" />
    <glyph glyph-name="section" unicode="&#xa7;" horiz-adv-x="469" 
d="M234 273h1q35 -5 66 -18q54 30 54 80q0 24 -12.5 41t-35 27t-42.5 16t-47.5 11.5t-38.5 8.5q-58 -30 -57 -80q0 -63 112 -86zM142 458l-7 5q-45 33 -45 96q0 66 49 104.5t116 38.5q81 0 134 -50l-29 -34q-48 35 -107 37q-46 1 -80.5 -26t-33.5 -70q0 -64 111 -87
q155 -32 155 -137q0 -73 -68 -102q29 -22 41.5 -44t12.5 -55q0 -69 -54 -106t-118 -37q-100 0 -156 73l32 31q54 -56 124 -56q45 -1 82.5 24.5t36.5 70.5q0 70 -116 93q-148 25 -148 132q0 31 19 59t49 40z" />
    <glyph glyph-name="dieresis" unicode="&#xa8;" horiz-adv-x="513" 
d="M202 792h-61v62h61v-62zM375 792h-61v62h61v-62z" />
    <glyph glyph-name="copyright" unicode="&#xa9;" horiz-adv-x="835" 
d="M74 350q0 148 100 251.5t242 103.5q144 0 244.5 -103.5t100.5 -251.5t-100.5 -251.5t-244.5 -103.5q-142 0 -242 103.5t-100 251.5zM425 208q55 0 93 32l28 -32q-52 -46 -121 -46q-49 0 -91.5 24t-66.5 66q-24 44 -24 98t24 97q50 92 158 92q72 0 122 -47l-30 -31
q-40 32 -92 32q-80 0 -116 -65q-19 -32 -19 -78.5t23 -83.5q38 -58 112 -58zM123 350q0 -129 84.5 -217t208.5 -88q125 0 210.5 88t85.5 217t-85.5 217t-210.5 88q-124 0 -208.5 -88t-84.5 -217z" />
    <glyph glyph-name="ordfeminine" unicode="&#xaa;" horiz-adv-x="481" 
d="M358 341l-5 43q-40 -46 -108 -46q-15 0 -30 3q-61 13 -101 61.5t-40 117.5q0 76 53 130.5t128 56.5q79 3 142 -27v-339h-39zM399 272l-1 -45h-307v45h308zM352 430l1 228q-43 15 -97 11q-59 -5 -98.5 -48t-39.5 -101q0 -48 30.5 -87.5t77.5 -50.5q37 -8 70.5 4.5
t55.5 43.5z" />
    <glyph glyph-name="guillemotleft" unicode="&#xab;" horiz-adv-x="541" 
d="M222 87l-156 195l156 196h56l-153 -196l154 -195h-57zM414 87l-156 195l156 196h56l-153 -196l154 -195h-57z" />
    <glyph glyph-name="logicalnot" unicode="&#xac;" horiz-adv-x="628" 
d="M80 362v46h451v-247h-43v201h-408z" />
    <glyph glyph-name="uni00AD" unicode="&#xad;" horiz-adv-x="445" 
d="M83 263v48h280v-48h-280z" />
    <glyph glyph-name="registered" unicode="&#xae;" horiz-adv-x="835" 
d="M443 319l121 -154h-51l-114 150h-49v-150h-43v377h117q56 0 91.5 -30.5t36.5 -84.5q0 -45 -29.5 -72.5t-79.5 -35.5zM75 348q0 148 100 251.5t242 103.5q144 0 244.5 -103.5t100.5 -251.5t-100.5 -251.5t-244.5 -103.5q-142 0 -242 103.5t-100 251.5zM122 348
q0 -130 85 -218.5t210 -88.5q126 0 212 88.5t86 218.5t-86 218.5t-212 88.5q-125 0 -210 -88.5t-85 -218.5zM350 503v-148h74q33 1 55.5 16.5t27.5 37t-0.5 43t-28 36.5t-54.5 15h-74z" />
    <glyph glyph-name="macron" unicode="&#xaf;" horiz-adv-x="513" 
d="M132 767v41h247v-41h-247z" />
    <glyph glyph-name="degree" unicode="&#xb0;" horiz-adv-x="396" 
d="M193 457q-52 0 -89 37t-37 89t37 89t89 37t89.5 -37t37.5 -89t-37.5 -89t-89.5 -37zM193 501q36 0 60.5 23.5t24.5 58.5q0 34 -24.5 58.5t-60.5 24.5t-60.5 -24.5t-24.5 -58.5q0 -35 24.5 -58.5t60.5 -23.5z" />
    <glyph glyph-name="plusminus" unicode="&#xb1;" horiz-adv-x="695" 
d="M120 52h455v-46h-455v46zM113 355v49h206v209h47v-209h209v-49h-209v-211h-47v211h-206z" />
    <glyph glyph-name="twosuperior" unicode="&#xb2;" horiz-adv-x="409" 
d="M302 535l-184 -168h239v-42h-288l-17 36l219 206q58 50 30 103q-22 42 -92 44h1q-79 4 -111 -52q-9 4 -20.5 9.5t-17.5 8.5q18 39 60 59.5t89 20.5q48 0 87 -24t52 -67q21 -70 -47 -134z" />
    <glyph glyph-name="threesuperior" unicode="&#xb3;" horiz-adv-x="426" 
d="M279 536l25 -7q61 -31 61 -101q-1 -60 -46.5 -94.5t-106.5 -34.5q-43 0 -83.5 21.5t-63.5 58.5l31 24q45 -59 118 -59q41 0 72 23t31 62q0 37 -28 62t-67 25h-32v39h32q35 0 58.5 16.5t23.5 50.5q0 35 -26.5 54.5t-63.5 19.5q-66 0 -95 -43l-37 16q19 33 54 51.5t75 18.5
q56 0 98.5 -32t42.5 -87q0 -24 -14 -46.5t-34 -31.5z" />
    <glyph glyph-name="acute" unicode="&#xb4;" horiz-adv-x="489" 
d="M316 866l-76 -104h-46l60 104h62z" />
    <glyph glyph-name="mu" unicode="&#xb5;" horiz-adv-x="577" 
d="M476 507v-508h-43l-6 92q-30 -40 -72 -59.5t-80 -19.5q-79 0 -119 60v-257h-49v692h50v-310q0 -56 29 -95.5t88 -39.5q62 0 107 45t45 127v273h50z" />
    <glyph glyph-name="mu" unicode="&#x3bc;" horiz-adv-x="577" 
d="M476 507v-508h-43l-6 92q-30 -40 -72 -59.5t-80 -19.5q-79 0 -119 60v-257h-49v692h50v-310q0 -56 29 -95.5t88 -39.5q62 0 107 45t45 127v273h50z" />
    <glyph glyph-name="paragraph" unicode="&#xb6;" horiz-adv-x="604" 
d="M270 -95v387q-98 4 -153 63.5t-55 138.5q0 84 58.5 145.5t163.5 61.5h207v-796h-48v747h-124v-747h-49z" />
    <glyph glyph-name="periodcentered" unicode="&#xb7;" horiz-adv-x="274" 
d="M108 260v72h65v-72h-65z" />
    <glyph glyph-name="cedilla" unicode="&#xb8;" horiz-adv-x="513" 
d="M286 5l-31 -57q60 -3 79 -39t-8 -70.5t-80 -34.5q-33 0 -70 17l7 34q26 -19 69.5 -13.5t43.5 36.5q0 32 -58 34q-16 0 -25 -3l-10 9q8 14 24 45t22 42h37z" />
    <glyph glyph-name="onesuperior" unicode="&#xb9;" horiz-adv-x="308" 
d="M133 269v388h-64v43h110v-431h-46z" />
    <glyph glyph-name="ordmasculine" unicode="&#xba;" horiz-adv-x="481" 
d="M240 409q-64 0 -107 42.5t-43 107.5q0 63 43 105t106 42t107 -42t44 -105q0 -65 -43.5 -107.5t-106.5 -42.5zM240 451q44 0 74.5 30.5t30.5 77.5q0 46 -30.5 75.5t-74.5 29.5q-45 0 -75.5 -29.5t-30.5 -75.5q0 -47 30.5 -77.5t75.5 -30.5zM98 274v47h286v-47h-286z" />
    <glyph glyph-name="guillemotright" unicode="&#xbb;" horiz-adv-x="562" 
d="M487 282l-156 -195h-57l154 195l-153 196h56zM295 282l-156 -195h-57l154 195l-153 196h56z" />
    <glyph glyph-name="onequarter" unicode="&#xbc;" horiz-adv-x="927" 
d="M283 -22h-47l366 766h47zM815 433v-300h39v-40h-39v-93h-43v93h-199l-31 43q42 55 114.5 154t106.5 143h52zM591 133h181v245zM169 301v356h-64v43h110v-399h-46z" />
    <glyph glyph-name="onehalf" unicode="&#xbd;" horiz-adv-x="948" 
d="M241 -20h-48l367 760h47zM157 301v356h-64v43h110v-399h-46zM811 209l-184 -168h239v-42h-288l-17 36l219 206q58 50 30 103q-22 42 -92 44h1q-79 4 -111 -52q-9 4 -20.5 9.5t-17.5 8.5q18 39 60 59.5t89 20.5q48 0 87 -24t52 -67q21 -70 -47 -134z" />
    <glyph glyph-name="threequarters" unicode="&#xbe;" horiz-adv-x="993" 
d="M345 -26h-47l371 766h47zM850 433v-300h39v-40h-39v-93h-43v93h-199l-31 43q42 55 114.5 154t106.5 143h52zM626 133h181v245zM285 516l19 -7q61 -31 61 -101q-1 -60 -46.5 -94.5t-106.5 -34.5q-43 0 -83.5 21.5t-63.5 58.5l31 24q45 -59 118 -59q41 0 72.5 23t31.5 62
q0 37 -28.5 62t-67.5 25h-32v39h32q36 0 60 16.5t24 50.5q0 35 -27 54.5t-65 19.5q-66 0 -95 -43l-37 16q19 33 54 51.5t75 18.5q56 0 98.5 -32t42.5 -87q0 -24 -14 -46.5t-34 -31.5z" />
    <glyph glyph-name="questiondown" unicode="&#xbf;" horiz-adv-x="498" 
d="M457 -98l-3 -4q-31 -40 -80.5 -61.5t-103.5 -21.5q-87 0 -151 53.5t-63 145.5q1 85 55.5 140t144.5 71l6 143h41l6 -181q-84 -6 -143.5 -51.5t-58.5 -122.5q1 -72 50 -110.5t115 -38.5q40 0 80.5 17.5t67.5 46.5q9 -7 20.5 -14.5t16.5 -11.5zM251 522h57v-73h-57v73z" />
    <glyph glyph-name="Agrave" unicode="&#xc0;" horiz-adv-x="636" 
d="M28 0l248 707h81q41 -116 125.5 -354t126.5 -353h-57l-84 234h-301l-81 -234h-58zM186 284h265l-134 388zM294 748l-76 104h62l60 -104h-46z" />
    <glyph glyph-name="Aacute" unicode="&#xc1;" horiz-adv-x="636" 
d="M276 707l-248 -707h58l81 234h301l84 -234h57q-42 115 -126.5 353t-125.5 354h-81zM451 284h-265l131 388zM411 852l-76 -104h-46l60 104h62z" />
    <glyph glyph-name="Acircumflex" unicode="&#xc2;" horiz-adv-x="636" 
d="M28 0l248 707h81q41 -116 125.5 -354t126.5 -353h-57l-84 234h-301l-81 -234h-58zM186 284h265l-134 388zM198 742l84 100h69l82 -100h-48l-69 78l-70 -78h-48z" />
    <glyph glyph-name="Atilde" unicode="&#xc3;" horiz-adv-x="636" 
d="M28 0l248 707h81q41 -116 125.5 -354t126.5 -353h-57l-84 234h-301l-81 -234h-58zM186 284h265l-134 388zM416 820l22 -19q-25 -53 -70 -53q-29 0 -51 18q-58 47 -97 -16q-16 11 -24 18q32 56 75 56q27 0 57 -24q24 -18 48 -13t40 33z" />
    <glyph glyph-name="Adieresis" unicode="&#xc4;" horiz-adv-x="636" 
d="M28 0l248 707h81q41 -116 125.5 -354t126.5 -353h-57l-84 234h-301l-81 -234h-58zM186 284h265l-134 388zM258 744h-61v62h61v-62zM431 744h-61v62h61v-62z" />
    <glyph glyph-name="Aring" unicode="&#xc5;" horiz-adv-x="636" 
d="M28 0l248 707h81q41 -116 125.5 -354t126.5 -353h-57l-84 234h-301l-81 -234h-58zM186 284h265l-134 388zM248 813q-1 42 32.5 59.5t67 0t33.5 -59.5t-33.5 -60t-67 -0.5t-32.5 60.5zM277 813q0 -25 19 -35.5t38 0t19 35.5q0 15 -8 25t-19 13t-22.5 0.5t-19 -13
t-7.5 -25.5z" />
    <glyph glyph-name="AE" unicode="&#xc6;" horiz-adv-x="869" 
d="M26 0l373 700h405v-48h-300v-275h297v-49h-297v-278h300v-50h-352v247h-235l-131 -247h-60zM452 294v362h-24l-187 -362h211z" />
    <glyph glyph-name="Ccedilla" unicode="&#xc7;" horiz-adv-x="733" 
d="M426 -12l-22 -42q60 -3 79 -39t-8 -70.5t-80 -34.5q-33 0 -70 17l7 34q26 -19 69.5 -13.5t43.5 36.5q0 32 -58 34q-16 0 -25 -3l-10 9l38 72q-150 9 -236.5 115.5t-86.5 244.5q0 68 23 132t65 116t109 84t148 32q138 0 238 -97l-36 -36q-90 85 -202 82q-90 -1 -158 -49
t-100 -117.5t-32 -146.5q0 -76 32.5 -145.5t100.5 -116.5t157 -47q59 0 119 27t102 70l38 -31q-101 -111 -245 -117z" />
    <glyph glyph-name="Egrave" unicode="&#xc8;" horiz-adv-x="531" 
d="M461 701v-52h-294v-272h290v-51h-291v-273h295v-52h-349v700h349zM279 746l-76 104h62l60 -104h-46z" />
    <glyph glyph-name="Eacute" unicode="&#xc9;" horiz-adv-x="531" 
d="M461 649v52h-349v-700h349v52h-295v273h291v51h-290v272h294zM386 849l-76 -104h-46l60 104h62z" />
    <glyph glyph-name="Ecircumflex" unicode="&#xca;" horiz-adv-x="531" 
d="M461 701v-51h-294v-273h290v-51h-291v-273h295v-52h-349v700h349zM170 745l84 100h69l82 -100h-48l-69 78l-70 -78h-48z" />
    <glyph glyph-name="Edieresis" unicode="&#xcb;" horiz-adv-x="531" 
d="M461 701v-52h-294v-272h290v-51h-291v-274h295v-52h-349v701h349zM241 750h-61v62h61v-62zM414 750h-61v62h61v-62z" />
    <glyph glyph-name="Igrave" unicode="&#xcc;" horiz-adv-x="286" 
d="M116 0v700h54v-700h-54zM118 752l-76 104h62l60 -104h-46z" />
    <glyph glyph-name="Iacute" unicode="&#xcd;" horiz-adv-x="286" 
d="M116 700v-700h54v700h-54zM240 853l-76 -104h-46l60 104h62z" />
    <glyph glyph-name="Icircumflex" unicode="&#xce;" horiz-adv-x="286" 
d="M116 0v700h54v-700h-54zM24 741l84 100h69l82 -100h-48l-69 78l-70 -78h-48z" />
    <glyph glyph-name="Idieresis" unicode="&#xcf;" horiz-adv-x="286" 
d="M116 0v700h54v-700h-54zM87 743h-61v62h61v-62zM260 743h-61v62h61v-62z" />
    <glyph glyph-name="Eth" unicode="&#xd0;" horiz-adv-x="735" 
d="M61 326v45h61v329h203q105 1 183.5 -49.5t115.5 -127t39 -164.5q2 -67 -19.5 -130t-62 -114.5t-107 -83t-148.5 -31.5h-204v326h-61zM174 48h151q92 -1 159.5 46.5t97.5 117t28 146.5q-2 74 -33 139.5t-96.5 110t-153.5 44.5h-153v-281h136v-45h-136v-278z" />
    <glyph glyph-name="Ntilde" unicode="&#xd1;" horiz-adv-x="737" 
d="M116 700h67l384 -648v648h54v-700h-84l-367 620v-620h-54v700zM476 824l25 -22q-29 -59 -79 -59q-32 0 -56 21q-66 52 -109 -19q-12 9 -26 21q35 62 83 62q32 0 64 -27q26 -20 52.5 -14t45.5 37z" />
    <glyph glyph-name="Ograve" unicode="&#xd2;" horiz-adv-x="824" 
d="M412 711q99 0 179 -50.5t123.5 -133t43.5 -178.5q0 -86 -29.5 -156t-78.5 -113t-111 -66.5t-127 -23.5t-127 23.5t-111 66.5t-78.5 113t-29.5 156q0 149 97 255.5t249 106.5zM120 349q0 -74 25 -134t66 -97t93.5 -57t107.5 -20t107.5 20t93.5 56.5t66 97t25 134.5
q0 75 -25 135.5t-66 98t-93.5 57.5t-107.5 19.5t-107.5 -20.5t-93.5 -57.5t-66 -98t-25 -134.5zM393 748l-76 104h62l60 -104h-46z" />
    <glyph glyph-name="Oacute" unicode="&#xd3;" horiz-adv-x="824" 
d="M412 711q-152 0 -249 -106.5t-97 -255.5q0 -86 29.5 -156t78.5 -113t111 -66.5t127 -23.5t127 23.5t111 66.5t78.5 113t29.5 156q0 96 -43.5 178.5t-123.5 133t-179 50.5zM120 349q0 74 25 134.5t66 98t93.5 57.5t107.5 20.5t107.5 -19.5t93.5 -57.5t66 -98t25 -135.5
q0 -74 -25 -134.5t-66 -97t-93.5 -56.5t-107.5 -20t-107.5 20t-93.5 57t-66 97t-25 134zM506 852l-76 -104h-46l60 104h62z" />
    <glyph glyph-name="Ocircumflex" unicode="&#xd4;" horiz-adv-x="824" 
d="M412 711q99 0 179 -50.5t123.5 -133t43.5 -178.5q0 -86 -29.5 -156t-78.5 -113t-111 -66.5t-127 -23.5t-127 23.5t-111 66.5t-78.5 113t-29.5 156q0 149 97 255.5t249 106.5zM120 349q0 -74 25 -134t66 -97t93.5 -57t107.5 -20t107.5 20t93.5 56.5t66 97t25 134.5
q0 75 -25 135.5t-66 98t-93.5 57.5t-107.5 19.5t-107.5 -20.5t-93.5 -57.5t-66 -98t-25 -134.5zM292 746l84 100h69l82 -100h-48l-69 78l-70 -78h-48z" />
    <glyph glyph-name="Otilde" unicode="&#xd5;" horiz-adv-x="824" 
d="M412 711q99 0 179 -50.5t123.5 -133t43.5 -178.5q0 -86 -29.5 -156t-78.5 -113t-111 -66.5t-127 -23.5t-127 23.5t-111 66.5t-78.5 113t-29.5 156q0 149 97 255.5t249 106.5zM120 349q0 -74 25 -134t66 -97t93.5 -57t107.5 -20t107.5 20t93.5 56.5t66 97t25 134.5
q0 75 -25 135.5t-66 98t-93.5 57.5t-107.5 19.5t-107.5 -20.5t-93.5 -57.5t-66 -98t-25 -134.5zM524 824l25 -20q-28 -55 -78 -55q-33 0 -56 19q-65 49 -108 -17q-4 3 -26 19q35 58 83 58q30 0 63 -25q26 -19 52.5 -13t44.5 34z" />
    <glyph glyph-name="Odieresis" unicode="&#xd6;" horiz-adv-x="824" 
d="M412 711q99 0 179 -50.5t123.5 -133t43.5 -178.5q0 -86 -29.5 -156t-78.5 -113t-111 -66.5t-127 -23.5t-127 23.5t-111 66.5t-78.5 113t-29.5 156q0 149 97 255.5t249 106.5zM120 349q0 -74 25 -134t66 -97t93.5 -57t107.5 -20t107.5 20t93.5 56.5t66 97t25 134.5
q0 75 -25 135.5t-66 98t-93.5 57.5t-107.5 19.5t-107.5 -20.5t-93.5 -57.5t-66 -98t-25 -134.5zM353 752h-61v62h61v-62zM526 752h-61v62h61v-62z" />
    <glyph glyph-name="multiply" unicode="&#xd7;" horiz-adv-x="523" 
d="M84 442l32 32l152 -151l146 145l32 -33l-147 -145l152 -150l-33 -31l-150 149l-154 -154l-32 34l154 153z" />
    <glyph glyph-name="Oslash" unicode="&#xd8;" horiz-adv-x="824" 
d="M412 704q94 0 164 -45l49 82h49l-63 -105q67 -53 106 -128.5t39 -158.5q0 -145 -101 -249t-243 -104q-73 0 -159 42q-7 -12 -24.5 -39.5l-24.5 -38.5h-48l62 100q-69 53 -109.5 128.5t-40.5 160.5q0 145 101 250t243 105zM120 349q0 -152 122 -250l308 521
q-57 35 -139 35q-116 -1 -203.5 -84t-87.5 -222zM704 349q0 75 -32 140t-85 109l-308 -521q74 -32 133 -32q116 0 204 81.5t88 222.5z" />
    <glyph glyph-name="Ugrave" unicode="&#xd9;" horiz-adv-x="659" 
d="M106 700h54v-502q0 -72 50.5 -113.5t118.5 -41.5t119.5 42t51.5 113v502h53v-502q0 -98 -66.5 -152.5t-157.5 -54.5t-157 54.5t-66 152.5v502zM313 746l-76 104h62l60 -104h-46z" />
    <glyph glyph-name="Uacute" unicode="&#xda;" horiz-adv-x="659" 
d="M160 700h-54v-502q0 -98 66 -152.5t157 -54.5t157.5 54.5t66.5 152.5v502h-53v-502q0 -71 -51.5 -113t-119.5 -42t-118.5 41.5t-50.5 113.5v502zM412 847l-76 -104h-46l60 104h62z" />
    <glyph glyph-name="Ucircumflex" unicode="&#xdb;" horiz-adv-x="659" 
d="M106 700h54v-502q0 -72 50.5 -113.5t118.5 -41.5t119.5 42t51.5 113v502h53v-502q0 -98 -66.5 -152.5t-157.5 -54.5t-157 54.5t-66 152.5v502zM212 742l84 100h69l82 -100h-48l-69 78l-70 -78h-48z" />
    <glyph glyph-name="Udieresis" unicode="&#xdc;" horiz-adv-x="659" 
d="M106 700h54v-502q0 -72 50.5 -113.5t118.5 -41.5t119.5 42t51.5 113v502h53v-502q0 -98 -66.5 -152.5t-157.5 -54.5t-157 54.5t-66 152.5v502zM271 748h-61v62h61v-62zM444 748h-61v62h61v-62z" />
    <glyph glyph-name="Yacute" unicode="&#xdd;" horiz-adv-x="593" 
d="M322 280l238 420h-59l-205 -370l-204 370h-59l236 -419v-281h53v280zM381 851l-76 -104h-46l60 104h62z" />
    <glyph glyph-name="Thorn" unicode="&#xde;" horiz-adv-x="584" 
d="M165 153v-154h-52v701h52v-124h144q105 0 164 -64t59 -150q0 -87 -58.5 -148t-163.5 -61h-145zM165 202h144q79 0 125 49t46 111q0 63 -46 114t-125 51h-144v-325z" />
    <glyph glyph-name="germandbls" unicode="&#xdf;" horiz-adv-x="585" 
d="M145 533v-534h-51v534q0 48 20.5 86t53.5 58t73.5 29.5t81 1t74 -27.5t54.5 -57t21 -86q0 -45 -25 -89.5t-77 -66.5q68 -24 107.5 -73t38.5 -112q2 -96 -60.5 -151.5t-149.5 -55.5q-42 0 -88 13v44q30 -10 73 -10q86 0 129.5 47t43.5 113q0 60 -47 108t-126 48h-46v49h46
q61 0 97 44.5t33 94.5q0 81 -69 112t-138 -4t-69 -115z" />
    <glyph glyph-name="agrave" unicode="&#xe0;" 
d="M427 105v138q-63 40 -143 40q-110 0 -155 -61.5t-2.5 -123.5t147.5 -62q41 0 83.5 18.5t69.5 50.5zM478 0h-40l-10 54q-66 -63 -154 -65q-82 -1 -138.5 34t-69.5 85.5t1 101t72.5 86.5t143.5 37q73 0 144 -42v21q0 76 -45 112.5t-114 36.5q-75 0 -146 -44l-26 36
q75 57 175 57q86 0 146.5 -51t60.5 -147v-312zM259 588l-76 104h62l60 -104h-46z" />
    <glyph glyph-name="aacute" unicode="&#xe1;" 
d="M427 243v-138q-27 -32 -69.5 -50.5t-83.5 -18.5q-105 0 -147.5 62t2.5 123.5t155 61.5q80 0 143 -40zM438 0h40v312q0 96 -60.5 147t-146.5 51q-100 0 -175 -57l26 -36q71 44 146 44q69 0 114 -36.5t45 -112.5v-21q-71 42 -144 42q-85 -1 -143.5 -37t-72.5 -86.5t-1 -101
t69.5 -85.5t138.5 -34q88 2 154 65zM364 690l-76 -104h-46l60 104h62z" />
    <glyph glyph-name="acircumflex" unicode="&#xe2;" 
d="M427 105v138q-63 40 -143 40q-110 0 -155 -61.5t-2.5 -123.5t147.5 -62q41 0 83.5 18.5t69.5 50.5zM478 0h-40l-10 54q-66 -63 -154 -65q-82 -1 -138.5 34t-69.5 85.5t1 101t72.5 86.5t143.5 37q73 0 144 -42v21q0 76 -45 112.5t-114 36.5q-75 0 -146 -44l-26 36
q75 57 175 57q86 0 146.5 -51t60.5 -147v-312zM161 587l84 100h69l82 -100h-48l-69 78l-70 -78h-48z" />
    <glyph glyph-name="atilde" unicode="&#xe3;" 
d="M427 105v138q-63 40 -143 40q-110 0 -155 -61.5t-2.5 -123.5t147.5 -62q41 0 83.5 18.5t69.5 50.5zM478 0h-40l-10 54q-66 -63 -154 -65q-82 -1 -138.5 34t-69.5 85.5t1 101t72.5 86.5t143.5 37q73 0 144 -42v21q0 76 -45 112.5t-114 36.5q-75 0 -146 -44l-26 36
q75 57 175 57q86 0 146.5 -51t60.5 -147v-312zM383 677l24 -19q-27 -55 -76 -55q-32 0 -54 19q-63 49 -105 -17q-6 4 -14.5 11t-10.5 8q33 57 81 57q27 0 61 -24q26 -19 51 -13.5t43 33.5z" />
    <glyph glyph-name="adieresis" unicode="&#xe4;" 
d="M427 105v138q-63 40 -143 40q-110 0 -155 -61.5t-2.5 -123.5t147.5 -62q41 0 83.5 18.5t69.5 50.5zM478 0h-40l-10 54q-66 -63 -154 -65q-82 -1 -138.5 34t-69.5 85.5t1 101t72.5 86.5t143.5 37q73 0 144 -42v21q0 76 -45 112.5t-114 36.5q-75 0 -146 -44l-26 36
q75 57 175 57q86 0 146.5 -51t60.5 -147v-312zM224 618h-61v62h61v-62zM397 618h-61v62h61v-62z" />
    <glyph glyph-name="aring" unicode="&#xe5;" 
d="M427 105v138q-63 40 -143 40q-110 0 -155 -61.5t-2.5 -123.5t147.5 -62q41 0 83.5 18.5t69.5 50.5zM478 0h-40l-10 54q-66 -63 -154 -65q-82 -1 -138.5 34t-69.5 85.5t1 101t72.5 86.5t143.5 37q73 0 144 -42v21q0 76 -45 112.5t-114 36.5q-75 0 -146 -44l-26 36
q75 57 175 57q86 0 146.5 -51t60.5 -147v-312zM211 632q-1 42 32.5 59.5t67 0t33.5 -59.5t-33.5 -60t-67 -0.5t-32.5 60.5zM240 632q0 -25 19 -35.5t38 0t19 35.5q0 15 -8 25t-19 13t-22.5 0.5t-19 -13t-7.5 -25.5z" />
    <glyph glyph-name="ae" unicode="&#xe6;" horiz-adv-x="979" 
d="M680 42q100 0 153 66l39 -27q-72 -88 -192 -88q-118 0 -188 91q-89 -95 -213 -95q-82 -1 -138.5 34t-69.5 85.5t1 101t72.5 86.5t143.5 37q79 0 150 -42v21q0 76 -48 115t-117 39q-72 0 -146 -46l-26 36q75 57 175 57q68 0 121.5 -31.5t70.5 -96.5q27 61 82.5 94.5
t128.5 34.5q102 1 168.5 -69.5t66.5 -173.5q0 -7 -2 -33h-429q6 -80 58.5 -138t138.5 -58zM289 283q-110 0 -155 -61.5t-2.5 -123.5t147.5 -62q42 0 100.5 23.5t88.5 62.5q-27 53 -30 120v1q-63 40 -149 40zM483 282h385q-4 81 -57 131.5t-132 52.5q-86 -1 -137.5 -51.5
t-58.5 -132.5z" />
    <glyph glyph-name="ccedilla" unicode="&#xe7;" horiz-adv-x="530" 
d="M467 454l-28 -34q-54 45 -134 45q-79 1 -137 -58.5t-59 -156.5q0 -81 53 -144.5t144 -63.5q75 0 136 50q7 -9 17.5 -20.5t13.5 -15.5q-66 -59 -153 -64l-21 -34q36 -1 59 -15.5t26 -34t-4.5 -39t-32 -33t-56.5 -13.5q-28 0 -71 18l9 34q26 -17 69 -13.5t43 32.5
q0 30 -59 32q-16 0 -25 -2l-10 8l36 61q-105 8 -165.5 84t-60.5 174q0 103 67.5 182.5t181.5 80.5q98 0 161 -60z" />
    <glyph glyph-name="egrave" unicode="&#xe8;" horiz-adv-x="603" 
d="M306 42q100 0 153 66l39 -27q-72 -88 -192 -88q-59 0 -107 23.5t-77.5 62t-45 85t-15.5 94.5q0 102 65.5 178.5t178.5 77.5q102 1 168.5 -69.5t66.5 -173.5q0 -7 -2 -33h-429q6 -80 58.5 -138t138.5 -58zM109 282h385q-4 81 -57 131.5t-132 52.5q-85 -1 -135 -52
t-61 -132zM289 590l-76 104h62l60 -104h-46z" />
    <glyph glyph-name="eacute" unicode="&#xe9;" horiz-adv-x="603" 
d="M306 42q-86 0 -138.5 58t-58.5 138h429q2 26 2 33q0 103 -66.5 173.5t-168.5 69.5q-113 -1 -178.5 -77.5t-65.5 -178.5q0 -48 15.5 -94.5t45 -85t77.5 -62t107 -23.5q120 0 192 88l-39 27q-53 -66 -153 -66zM494 282h-385q11 81 61 132t135 52q79 -2 132 -52.5t57 -131.5
zM389 692l-76 -104h-46l60 104h62z" />
    <glyph glyph-name="ecircumflex" unicode="&#xea;" horiz-adv-x="603" 
d="M306 42q100 0 153 66l39 -27q-72 -88 -192 -88q-59 0 -107 23.5t-77.5 62t-45 85t-15.5 94.5q0 102 65.5 178.5t178.5 77.5q102 1 168.5 -69.5t66.5 -173.5q0 -7 -2 -33h-429q6 -80 58.5 -138t138.5 -58zM109 282h385q-4 81 -57 131.5t-132 52.5q-85 -1 -135 -52
t-61 -132zM188 587l84 100h69l82 -100h-48l-69 78l-70 -78h-48z" />
    <glyph glyph-name="edieresis" unicode="&#xeb;" horiz-adv-x="603" 
d="M306 42q100 0 153 66l39 -27q-72 -88 -192 -88q-59 0 -107 23.5t-77.5 62t-45 85t-15.5 94.5q0 102 65.5 178.5t178.5 77.5q102 1 168.5 -69.5t66.5 -173.5q0 -7 -2 -33h-429q6 -80 58.5 -138t138.5 -58zM109 282h385q-4 81 -57 131.5t-132 52.5q-85 -1 -135 -52
t-61 -132zM253 621h-61v62h61v-62zM426 621h-61v62h61v-62z" />
    <glyph glyph-name="igrave" unicode="&#xec;" horiz-adv-x="244" 
d="M147 0h-51v507h51v-507zM105 589l-76 104h62l60 -104h-46z" />
    <glyph glyph-name="iacute" unicode="&#xed;" horiz-adv-x="244" 
d="M96 0h51v507h-51v-507zM218 695l-76 -104h-46l60 104h62z" />
    <glyph glyph-name="icircumflex" unicode="&#xee;" horiz-adv-x="244" 
d="M147 0h-51v507h51v-507zM4 593l84 100h69l82 -100h-48l-69 75l-70 -75h-48z" />
    <glyph glyph-name="idieresis" unicode="&#xef;" horiz-adv-x="244" 
d="M80 629h-61v62h61v-62zM229 629h-61v62h61v-62zM147 0h-51v507h51v-507z" />
    <glyph glyph-name="eth" unicode="&#xf0;" horiz-adv-x="617" 
d="M221 506l-21 30l114 71q-71 39 -163 37l5 46q124 -3 208 -55l96 60l21 -31l-87 -52q87 -62 121 -153.5t30 -226.5q-1 -99 -63.5 -170t-178.5 -71q-115 0 -179 72.5t-62 166.5q2 58 28 108.5t82 84.5t131 34q116 -2 183 -85l7 1q-14 75 -46.5 123t-94.5 88zM303 409
q-88 0 -137.5 -54.5t-51.5 -125.5q-2 -73 48 -131.5t141 -58.5q92 0 143.5 59t49.5 132q-2 71 -53 125t-140 54z" />
    <glyph glyph-name="ntilde" unicode="&#xf1;" horiz-adv-x="620" 
d="M409 683l25 -20q-21 -41 -62.5 -52.5t-71.5 12.5q-67 50 -108 -13q-4 3 -26 19q35 58 83 58q30 0 63 -25q26 -19 52.5 -13t44.5 34zM148 411v-411h-52v507h45l7 -43q55 53 141 53q103 -2 172 -62.5t69 -163.5v-291h-52v291q-1 77 -56.5 126t-134.5 52q-90 2 -139 -58z
" />
    <glyph glyph-name="ograve" unicode="&#xf2;" horiz-adv-x="614" 
d="M107 253q0 -99 60 -159.5t139 -60.5t139.5 60.5t60.5 159.5t-60 158t-140 59q-79 0 -139 -59t-60 -158zM558 253q0 -108 -72.5 -186.5t-179.5 -78.5q-106 0 -178.5 78.5t-72.5 186.5t72.5 186.5t178.5 78.5q107 0 179.5 -78.5t72.5 -186.5zM296 588l-76 104h62l60 -104
h-46z" />
    <glyph glyph-name="oacute" unicode="&#xf3;" horiz-adv-x="614" 
d="M107 253q0 99 60 158t139 59q80 0 140 -59t60 -158t-60.5 -159.5t-139.5 -60.5t-139 60.5t-60 159.5zM558 253q0 108 -72.5 186.5t-179.5 78.5q-106 0 -178.5 -78.5t-72.5 -186.5t72.5 -186.5t178.5 -78.5q107 0 179.5 78.5t72.5 186.5zM406 691l-76 -104h-46l60 104h62z
" />
    <glyph glyph-name="ocircumflex" unicode="&#xf4;" horiz-adv-x="614" 
d="M107 253q0 -99 60 -159.5t139 -60.5t139.5 60.5t60.5 159.5t-60 158t-140 59q-79 0 -139 -59t-60 -158zM558 253q0 -108 -72.5 -186.5t-179.5 -78.5q-106 0 -178.5 78.5t-72.5 186.5t72.5 186.5t178.5 78.5q107 0 179.5 -78.5t72.5 -186.5zM193 589l84 100h69l82 -100
h-48l-69 78l-70 -78h-48z" />
    <glyph glyph-name="otilde" unicode="&#xf5;" horiz-adv-x="614" 
d="M107 253q0 -99 60 -159.5t139 -60.5t139.5 60.5t60.5 159.5t-60 158t-140 59q-79 0 -139 -59t-60 -158zM558 253q0 -108 -72.5 -186.5t-179.5 -78.5q-106 0 -178.5 78.5t-72.5 186.5t72.5 186.5t178.5 78.5q107 0 179.5 -78.5t72.5 -186.5zM409 683l25 -19
q-21 -43 -58 -53.5t-72 17.5q-63 48 -104 -17q-11 7 -25 19q55 96 141 33q26 -19 51 -13.5t42 33.5z" />
    <glyph glyph-name="odieresis" unicode="&#xf6;" horiz-adv-x="614" 
d="M107 253q0 -99 60 -159.5t139 -60.5t139.5 60.5t60.5 159.5t-60 158t-140 59q-79 0 -139 -59t-60 -158zM558 253q0 -108 -72.5 -186.5t-179.5 -78.5q-106 0 -178.5 78.5t-72.5 186.5t72.5 186.5t178.5 78.5q107 0 179.5 -78.5t72.5 -186.5zM252 627h-61v62h61v-62z
M425 627h-61v62h61v-62z" />
    <glyph glyph-name="divide" unicode="&#xf7;" horiz-adv-x="619" 
d="M270 492v62h64v-62h-64zM85 305v49h446v-49h-446zM270 109v64h65v-64h-65z" />
    <glyph glyph-name="oslash" unicode="&#xf8;" horiz-adv-x="609" 
d="M144 -44h-49l57 92q-92 78 -92 205q0 108 68.5 181t175.5 73q57 0 116 -28l44 73h49l-59 -95q95 -79 95 -204q0 -108 -69 -181.5t-176 -73.5q-53 0 -117 27zM499 253q0 100 -69 165l-221 -355q48 -21 95 -21q80 0 137.5 56t57.5 155zM112 253q0 -100 65 -165l218 353
q-46 20 -91 20q-79 0 -135.5 -54.5t-56.5 -153.5z" />
    <glyph glyph-name="ugrave" unicode="&#xf9;" horiz-adv-x="619" 
d="M301 591l-76 104h62l60 -104h-46zM471 97v410h52v-507h-45l-7 45q-56 -54 -142 -54q-103 2 -171.5 60t-68.5 161v295h52v-295q1 -80 55.5 -125t135.5 -48q90 -2 139 58z" />
    <glyph glyph-name="uacute" unicode="&#xfa;" horiz-adv-x="619" 
d="M389 693l-76 -104h-46l60 104h62zM471 97q-49 -60 -139 -58q-81 3 -135.5 48t-55.5 125v295h-52v-295q0 -103 68.5 -161t171.5 -60q86 0 142 54l7 -45h45v507h-52v-410z" />
    <glyph glyph-name="ucircumflex" unicode="&#xfb;" horiz-adv-x="619" 
d="M189 591l84 100h69l82 -100h-48l-69 78l-70 -78h-48zM471 97v410h52v-507h-45l-7 45q-56 -54 -142 -54q-103 2 -171.5 60t-68.5 161v295h52v-295q1 -80 55.5 -125t135.5 -48q90 -2 139 58z" />
    <glyph glyph-name="udieresis" unicode="&#xfc;" horiz-adv-x="619" 
d="M254 632h-61v62h61v-62zM427 632h-61v62h61v-62zM471 97v410h52v-507h-45l-7 45q-56 -54 -142 -54q-103 2 -171.5 60t-68.5 161v295h52v-295q1 -80 55.5 -125t135.5 -48q90 -2 139 58z" />
    <glyph glyph-name="yacute" unicode="&#xfd;" horiz-adv-x="508" 
d="M104 -138v-43h16q99 0 130 85l235 603h-56l-171 -455l-179 455h-56l207 -509l-29 -77q-13 -32 -34 -46t-63 -13zM335 693l-76 -104h-46l60 104h62z" />
    <glyph glyph-name="thorn" unicode="&#xfe;" horiz-adv-x="575" 
d="M96 -196v896h51v-235l1 -6q52 51 130 51q51 0 94 -17.5t70.5 -47t47 -68t24 -81t1 -85t-22.5 -81t-45.5 -68.5t-68.5 -48t-92 -19q-94 -2 -139 56v-247h-51zM276 42q60 1 104 32t64 76.5t21 99t-17.5 99.5t-60 78.5t-99.5 36.5q-90 3 -140 -58v-297q50 -67 128 -67z" />
    <glyph glyph-name="ydieresis" unicode="&#xff;" horiz-adv-x="508" 
d="M104 -181v43q42 -1 63 13t34 46l29 77l-207 509h56l179 -455l171 455h56l-235 -603q-31 -85 -130 -85h-16zM207 623h-61v62h61v-62zM380 623h-61v62h61v-62z" />
    <glyph glyph-name="Amacron" unicode="&#x100;" horiz-adv-x="636" 
d="M203 764v45h226v-45h-226zM28 0l248 707h81q41 -116 125.5 -354t126.5 -353h-57l-84 234h-301l-81 -234h-58zM186 284h265l-134 388z" />
    <glyph glyph-name="amacron" unicode="&#x101;" 
d="M165 617v40h219v-40h-219zM427 105v138q-63 40 -143 40q-110 0 -155 -61.5t-2.5 -123.5t147.5 -62q41 0 83.5 18.5t69.5 50.5zM478 0h-40l-10 54q-66 -63 -154 -65q-82 -1 -138.5 34t-69.5 85.5t1 101t72.5 86.5t143.5 37q73 0 144 -42v24q0 77 -45.5 114.5t-113.5 37.5
q-75 0 -146 -44l-26 36q75 57 175 57q85 0 146 -52.5t61 -148.5v-315z" />
    <glyph glyph-name="Abreve" unicode="&#x102;" horiz-adv-x="636" 
d="M315 754q-49 0 -80 27t-38 72h40q3 -27 27 -42.5t52 -15.5t51.5 15.5t25.5 42.5h41q-2 -47 -38.5 -73t-80.5 -26zM28 0l248 707h81q41 -116 125.5 -354t126.5 -353h-57l-84 234h-301l-81 -234h-58zM186 284h265l-134 388z" />
    <glyph glyph-name="abreve" unicode="&#x103;" horiz-adv-x="563" 
d="M427 105v138q-63 40 -143 40q-110 0 -155 -61.5t-2.5 -123.5t147.5 -62q41 0 83.5 18.5t69.5 50.5zM478 0h-40l-10 54q-66 -63 -154 -65q-82 -1 -138.5 34t-69.5 85.5t1 101t72.5 86.5t143.5 37q73 0 144 -42v24q0 77 -45.5 114.5t-113.5 37.5q-75 0 -146 -44l-26 36
q75 57 175 57q85 0 146 -52.5t61 -148.5v-315zM276 589q-49 0 -80 27t-38 72h40q4 -29 25.5 -44t51.5 -15q31 0 54 15t25 44h41q-2 -47 -38.5 -73t-80.5 -26z" />
    <glyph glyph-name="Aogonek" unicode="&#x104;" horiz-adv-x="636" 
d="M28 0l248 707h81q41 -116 125.5 -354t126.5 -353q-76 -63 -76 -97q0 -23 20.5 -37t51.5 -16l-17 -31q-4 0 -10.5 0.5t-24 4t-31 9.5t-26 19.5t-15.5 32.5v1q-4 28 18 60t53 54l-84 234h-301l-81 -234h-58zM186 284h265l-134 388z" />
    <glyph glyph-name="aogonek" unicode="&#x105;" horiz-adv-x="563" 
d="M438 0l-10 54q-66 -63 -154 -65q-82 -1 -138.5 34t-69.5 85.5t1 101t72.5 86.5t143.5 37q73 0 144 -42v24q0 77 -45.5 114.5t-113.5 37.5q-75 0 -146 -44l-26 36q75 57 175 57q85 0 146 -52.5t61 -148.5v-315q-23 -14 -40.5 -36t-23.5 -43.5t9.5 -38.5t53.5 -21
q-4 -7 -9 -17.5t-7 -14.5h-9t-21 3.5t-27 9.5t-23 19.5t-14 32.5v1q-9 62 71 105zM427 105v138q-63 40 -143 40q-110 0 -155 -61.5t-2.5 -123.5t147.5 -62q41 0 83.5 18.5t69.5 50.5z" />
    <glyph glyph-name="Cacute" unicode="&#x106;" horiz-adv-x="732" 
d="M507 866l-74 -105h-44q9 16 26.5 51t28.5 54h63zM650 615l-36 -36q-90 85 -202 82q-90 -1 -158 -49t-100 -117.5t-32 -146.5q0 -76 32.5 -145.5t100.5 -116.5t157 -47q59 0 119 27t102 70l38 -31q-50 -54 -117.5 -86t-141.5 -32q-81 0 -148 31.5t-109 83t-65 115
t-23 131.5t23 132t65 116t109 84t148 32q138 0 238 -97z" />
    <glyph glyph-name="cacute" unicode="&#x107;" horiz-adv-x="530" 
d="M388 700l-69 -103h-46q9 16 26 50t28 53h61zM467 454l-28 -34q-54 45 -134 45q-79 1 -137 -58.5t-59 -156.5q0 -81 53 -144.5t144 -63.5q75 0 136 50q7 -9 17.5 -20.5t13.5 -15.5q-70 -64 -167 -64q-115 0 -182 78t-67 181t67.5 182.5t181.5 80.5q98 0 161 -60z" />
    <glyph glyph-name="Ccircumflex" unicode="&#x108;" horiz-adv-x="732" 
d="M291 755l80 97h76l79 -97h-50l-67 73l-70 -73h-48zM650 615l-36 -36q-90 85 -202 82q-90 -1 -158 -49t-100 -117.5t-32 -146.5q0 -76 32.5 -145.5t100.5 -116.5t157 -47q59 0 119 27t102 70l38 -31q-50 -54 -117.5 -86t-141.5 -32q-81 0 -148 31.5t-109 83t-65 115
t-23 131.5t23 132t65 116t109 84t148 32q138 0 238 -97z" />
    <glyph glyph-name="ccircumflex" unicode="&#x109;" horiz-adv-x="529" 
d="M467 454l-28 -34q-54 45 -134 45q-79 1 -137 -58.5t-59 -156.5q0 -81 53 -144.5t144 -63.5q75 0 136 50q7 -9 17.5 -20.5t13.5 -15.5q-70 -64 -167 -64q-115 0 -182 78t-67 181t67.5 182.5t181.5 80.5q98 0 161 -60zM184 589l80 97h76l79 -97h-50l-67 73l-70 -73h-48z
" />
    <glyph glyph-name="Cdotaccent" unicode="&#x10a;" horiz-adv-x="730" 
d="M380 785v65h61v-65h-61zM650 615l-36 -36q-90 85 -202 82q-90 -1 -158 -49t-100 -117.5t-32 -146.5q0 -76 32.5 -145.5t100.5 -116.5t157 -47q59 0 119 27t102 70l38 -31q-50 -54 -117.5 -86t-141.5 -32q-81 0 -148 31.5t-109 83t-65 115t-23 131.5t23 132t65 116t109 84
t148 32q138 0 238 -97z" />
    <glyph glyph-name="cdotaccent" unicode="&#x10b;" horiz-adv-x="529" 
d="M269 622v69h61v-69h-61zM467 454l-28 -34q-54 45 -134 45q-79 1 -137 -58.5t-59 -156.5q0 -81 53 -144.5t144 -63.5q75 0 136 50q7 -9 17.5 -20.5t13.5 -15.5q-70 -64 -167 -64q-115 0 -182 78t-67 181t67.5 182.5t181.5 80.5q98 0 161 -60z" />
    <glyph glyph-name="Ccaron" unicode="&#x10c;" horiz-adv-x="732" 
d="M650 615l-36 -36q-90 85 -202 82q-90 -1 -158 -49t-100 -117.5t-32 -146.5q0 -76 32.5 -145.5t100.5 -116.5t157 -47q59 0 119 27t102 70l38 -31q-50 -54 -117.5 -86t-141.5 -32q-81 0 -148 31.5t-109 83t-65 115t-23 131.5t23 132t65 116t109 84t148 32q138 0 238 -97z
M532 852l-80 -97h-76l-79 97h50l67 -73l70 73h48z" />
    <glyph glyph-name="ccaron" unicode="&#x10d;" horiz-adv-x="529" 
d="M467 454l-28 -34q-54 45 -134 45q-79 1 -137 -58.5t-59 -156.5q0 -81 53 -144.5t144 -63.5q75 0 136 50q7 -9 17.5 -20.5t13.5 -15.5q-70 -64 -167 -64q-115 0 -182 78t-67 181t67.5 182.5t181.5 80.5q98 0 161 -60zM424 680l-82 -97h-73l-80 97h50l67 -72l70 72h48z" />
    <glyph glyph-name="Dcaron" unicode="&#x10e;" horiz-adv-x="730" 
d="M116 700h203q105 1 183.5 -49.5t116 -127t39.5 -164.5q2 -67 -19.5 -130t-62.5 -114.5t-107.5 -83t-148.5 -31.5h-204v700zM171 51h148q69 -1 125.5 26t90.5 71.5t52 99t16 110.5q-2 74 -32.5 139t-96 109t-153.5 44h-150v-599zM449 852l-80 -97h-76l-79 97h50l67 -73
l70 73h48z" />
    <glyph glyph-name="dcaron" unicode="&#x10f;" horiz-adv-x="616" 
d="M622 700h-46q17 -56 -7 -129h29q45 66 24 129zM303 509q78 0 129 -50v242h53v-701h-43l-8 54q-46 -61 -139 -59q-50 1 -92 19t-68.5 48t-45.5 68.5t-22.5 81t1 85t24 80.5t47 67.5t70.5 47t94 17.5zM305 42q76 0 128 70v294q-50 60 -140 57q-58 -4 -99.5 -36t-60 -78.5
t-17.5 -100t21 -98.5t64 -76t104 -32z" />
    <glyph glyph-name="Dcroat" unicode="&#x110;" horiz-adv-x="734" 
d="M62 330v44h54v326h203q105 1 183.5 -49.5t116 -127t39.5 -164.5q2 -67 -19.5 -130t-62.5 -114.5t-107.5 -83t-148.5 -31.5h-204v330h-54zM171 51h148q69 -1 125.5 26t90.5 71.5t52 99t16 110.5q-2 74 -32.5 139t-96 109t-153.5 44h-150v-276h138v-44h-138v-279z" />
    <glyph glyph-name="dcroat" unicode="&#x111;" horiz-adv-x="587" 
d="M324 589v39h108v73h53v-73h80v-39h-80v-589h-43l-8 54q-46 -61 -139 -59q-50 1 -92 19t-68.5 48t-45.5 68.5t-22.5 81t1 85t24 80.5t47 67.5t70.5 47t94 17.5q78 0 129 -50v130h-108zM305 42q76 0 128 70v294q-50 60 -140 57q-58 -4 -99.5 -36t-60 -78.5t-17.5 -100
t21 -98.5t64 -76t104 -32z" />
    <glyph glyph-name="Emacron" unicode="&#x112;" horiz-adv-x="534" 
d="M189 773v44h217v-44h-217zM464 700v-52h-297v-271h293v-51h-294v-274h298v-52h-352v700h352z" />
    <glyph glyph-name="emacron" unicode="&#x113;" horiz-adv-x="604" 
d="M190 622v43h226v-43h-226zM306 42q100 0 153 66l39 -27q-72 -88 -192 -88q-59 0 -107 23.5t-77.5 62t-45 85t-15.5 94.5q0 102 65.5 178.5t178.5 77.5q102 1 168.5 -69.5t66.5 -173.5q0 -7 -2 -33h-429q6 -80 58.5 -138t138.5 -58zM109 282h385q-4 81 -57 131.5
t-132 52.5q-85 -1 -135 -52t-61 -132z" />
    <glyph glyph-name="Ebreve" unicode="&#x114;" horiz-adv-x="534" 
d="M298 755q-46 0 -79 28t-40 73h43q4 -37 40.5 -53t73 -1t40.5 54h40q-2 -48 -36.5 -74.5t-81.5 -26.5zM464 700v-52h-297v-272h293v-51h-294v-273h298v-52h-352v700h352z" />
    <glyph glyph-name="ebreve" unicode="&#x115;" horiz-adv-x="604" 
d="M304 585q-49 0 -80.5 27.5t-38.5 72.5h38q5 -28 29 -44t51.5 -16.5t51.5 15.5t29 45h38q-2 -47 -37 -73.5t-81 -26.5zM306 42q100 0 153 66l39 -27q-72 -88 -192 -88q-59 0 -107 23.5t-77.5 62t-45 85t-15.5 94.5q0 102 65.5 178.5t178.5 77.5q102 1 168.5 -69.5
t66.5 -173.5q0 -7 -2 -33h-429q6 -80 58.5 -138t138.5 -58zM109 282h385q-4 81 -57 131.5t-132 52.5q-85 -1 -135 -52t-61 -132z" />
    <glyph glyph-name="Edotaccent" unicode="&#x116;" horiz-adv-x="532" 
d="M271 762v70h61v-70h-61zM464 700v-52h-299v-272h295v-51h-296v-273h300v-52h-352v700h352z" />
    <glyph glyph-name="edotaccent" unicode="&#x117;" horiz-adv-x="604" 
d="M274 613v61h61v-61h-61zM306 42q100 0 153 66l39 -27q-72 -88 -192 -88q-59 0 -107 23.5t-77.5 62t-45 85t-15.5 94.5q0 102 65.5 178.5t178.5 77.5q102 1 168.5 -69.5t66.5 -173.5q0 -7 -2 -33h-429q6 -80 58.5 -138t138.5 -58zM109 282h385q-4 81 -57 131.5t-132 52.5
q-85 -1 -135 -52t-61 -132z" />
    <glyph glyph-name="Eogonek" unicode="&#x118;" horiz-adv-x="534" 
d="M464 700v-52h-297v-272h293v-51h-294v-273h298v-56q-26 -10 -44.5 -33t-24 -46.5t10 -43t52.5 -24.5l-14 -31q-12 0 -32 -0.5t-41.5 15.5t-26.5 46q-5 34 18.5 68.5t57.5 52.5h-308v700h352z" />
    <glyph glyph-name="eogonek" unicode="&#x119;" horiz-adv-x="604" 
d="M306 42q100 0 153 66l39 -27q-12 -22 -46 -42.5t-59 -42.5t-25 -54q0 -20 21 -34.5t44 -20.5q-4 -7 -8 -15l-6 -12q-4 0 -10 0.5t-22 4t-29 9.5t-25 19t-15 30q-7 29 33 74q-20 -4 -45 -4q-59 0 -107 23.5t-77.5 62t-45 85t-15.5 94.5q0 102 65.5 178.5t178.5 77.5
q102 1 168.5 -69.5t66.5 -173.5q0 -7 -2 -33h-429q6 -80 58.5 -138t138.5 -58zM109 282h385q-4 81 -57 131.5t-132 52.5q-85 -1 -135 -52t-61 -132z" />
    <glyph glyph-name="Ecaron" unicode="&#x11a;" horiz-adv-x="534" 
d="M464 700v-52h-297v-272h293v-51h-294v-273h298v-52h-352v700h352zM409 852l-80 -97h-76l-79 97h50l67 -73l70 73h48z" />
    <glyph glyph-name="ecaron" unicode="&#x11b;" horiz-adv-x="604" 
d="M306 42q100 0 153 66l39 -27q-72 -88 -192 -88q-59 0 -107 23.5t-77.5 62t-45 85t-15.5 94.5q0 102 65.5 178.5t178.5 77.5q102 1 168.5 -69.5t66.5 -173.5q0 -7 -2 -33h-429q6 -80 58.5 -138t138.5 -58zM109 282h385q-4 81 -57 131.5t-132 52.5q-85 -1 -135 -52
t-61 -132zM425 687l-80 -97h-76l-79 97h50l67 -73l70 73h48z" />
    <glyph glyph-name="Gcircumflex" unicode="&#x11c;" horiz-adv-x="826" 
d="M413 713q75 0 142.5 -30.5t115.5 -84.5l-40 -33q-41 45 -98.5 70.5t-119.5 25.5q-88 0 -156.5 -48.5t-101.5 -118.5t-33 -145t33 -144t101 -115.5t157 -46.5q99 0 183 71t94 174h-314v52h377q-3 -148 -97.5 -248.5t-242.5 -100.5q-107 0 -187.5 53.5t-118.5 133.5
t-39 171q0 67 23 131t65 116.5t109 84.5t148 32zM295 758l80 97h76l79 -97h-50l-67 73l-70 -73h-48z" />
    <glyph glyph-name="gcircumflex" unicode="&#x11d;" horiz-adv-x="585" 
d="M201 592l80 97h76l79 -97h-50l-67 73l-70 -73h-48zM306 511q77 0 130 -52l9 48h43v-502q0 -84 -46 -136t-109.5 -63t-132 9.5t-112.5 69.5l30 34q35 -37 89 -54.5t105 -11.5t88 45.5t37 106.5v49q-46 -61 -139 -59q-50 1 -92.5 19t-69.5 48t-46 69t-23 81.5t0.5 85
t24.5 81t48 68t71 47t95 17.5zM308 42q76 0 128 70v294q-51 62 -140 59q-58 -4 -101 -36.5t-61.5 -79t-18 -100t21 -99t65.5 -76.5t106 -32z" />
    <glyph glyph-name="Gbreve" unicode="&#x11e;" horiz-adv-x="826" 
d="M413 713q75 0 142.5 -30.5t115.5 -84.5l-40 -33q-41 45 -98.5 70.5t-119.5 25.5q-88 0 -156.5 -48.5t-101.5 -118.5t-33 -145t33 -144t101 -115.5t157 -46.5q99 0 183 71t94 174h-314v52h377q-3 -148 -97.5 -248.5t-242.5 -100.5q-107 0 -187.5 53.5t-118.5 133.5
t-39 171q0 67 23 131t65 116.5t109 84.5t148 32zM415 758q-46 0 -79 28t-40 73h43q4 -37 40.5 -53t73 -1t40.5 54h40q-2 -48 -36.5 -74.5t-81.5 -26.5z" />
    <glyph glyph-name="gbreve" unicode="&#x11f;" horiz-adv-x="585" 
d="M316 589q-46 0 -79 28t-40 73h43q4 -37 40.5 -53t73 -1t40.5 54h40q-2 -48 -36.5 -74.5t-81.5 -26.5zM306 511q77 0 130 -52l9 48h43v-502q0 -84 -46 -136t-109.5 -63t-132 9.5t-112.5 69.5l30 34q35 -37 89 -54.5t105 -11.5t88 45.5t37 106.5v49q-46 -61 -139 -59
q-50 1 -92.5 19t-69.5 48t-46 69t-23 81.5t0.5 85t24.5 81t48 68t71 47t95 17.5zM308 42q76 0 128 70v294q-51 62 -140 59q-58 -4 -101 -36.5t-61.5 -79t-18 -100t21 -99t65.5 -76.5t106 -32z" />
    <glyph glyph-name="Gdotaccent" unicode="&#x120;" horiz-adv-x="826" 
d="M375 787v75h61v-75h-61zM413 713q75 0 142.5 -30.5t115.5 -84.5l-40 -33q-41 45 -98.5 70.5t-119.5 25.5q-88 0 -156.5 -48.5t-101.5 -118.5t-33 -145t33 -144t101 -115.5t157 -46.5q99 0 183 71t94 174h-314v52h377q-3 -148 -97.5 -248.5t-242.5 -100.5
q-107 0 -187.5 53.5t-118.5 133.5t-39 171q0 67 23 131t65 116.5t109 84.5t148 32z" />
    <glyph glyph-name="gdotaccent" unicode="&#x121;" horiz-adv-x="585" 
d="M280 614v77h61v-77h-61zM306 511q77 0 130 -52l9 48h43v-502q0 -84 -46 -136t-109.5 -63t-132 9.5t-112.5 69.5l30 34q35 -37 89 -54.5t105 -11.5t88 45.5t37 106.5v49q-46 -61 -139 -59q-50 1 -92.5 19t-69.5 48t-46 69t-23 81.5t0.5 85t24.5 81t48 68t71 47t95 17.5z
M308 42q76 0 128 70v294q-51 62 -140 59q-58 -4 -101 -36.5t-61.5 -79t-18 -100t21 -99t65.5 -76.5t106 -32z" />
    <glyph glyph-name="Gcommaaccent" unicode="&#x122;" horiz-adv-x="826" 
d="M375 -60h57q10 -32 4.5 -70t-25.5 -65q-7 0 -22 0.5t-21 0.5q25 75 7 134zM413 713q75 0 142.5 -30.5t115.5 -84.5l-40 -33q-41 45 -98.5 70.5t-119.5 25.5q-88 0 -156.5 -48.5t-101.5 -118.5t-33 -145t33 -144t101 -115.5t157 -46.5q99 0 183 71t94 174h-314v52h377
q-3 -148 -97.5 -248.5t-242.5 -100.5q-107 0 -187.5 53.5t-118.5 133.5t-39 171q0 67 23 131t65 116.5t109 84.5t148 32z" />
    <glyph glyph-name="gcommaaccent" unicode="&#x123;" horiz-adv-x="585" 
d="M336 575h-52q-14 56 16 125h43q-25 -66 -7 -125zM306 511q77 0 130 -52l9 48h43v-502q0 -84 -46 -136t-109.5 -63t-132 9.5t-112.5 69.5l30 34q35 -37 89 -54.5t105 -11.5t88 45.5t37 106.5v49q-46 -61 -139 -59q-50 1 -92.5 19t-69.5 48t-46 69t-23 81.5t0.5 85t24.5 81
t48 68t71 47t95 17.5zM308 42q76 0 128 70v294q-51 62 -140 59q-58 -4 -101 -36.5t-61.5 -79t-18 -100t21 -99t65.5 -76.5t106 -32z" />
    <glyph glyph-name="Hcircumflex" unicode="&#x124;" horiz-adv-x="692" 
d="M522 0v323h-354v-323h-54v700h54v-326h354v326h53v-700h-53zM228 755l80 97h76l79 -97h-50l-67 73l-70 -73h-48z" />
    <glyph glyph-name="hcircumflex" unicode="&#x125;" horiz-adv-x="611" 
d="M8 753l80 97h76l79 -97h-50l-67 73l-70 -73h-48zM148 409v-409h-52v700h52v-239q55 53 141 53q102 -2 167 -62t65 -164v-288h-52v288q-1 78 -52.5 126.5t-129.5 51.5q-91 2 -139 -57z" />
    <glyph glyph-name="Hbar" unicode="&#x126;" horiz-adv-x="692" 
d="M61 530v42h53v128h54v-128h354v128h53v-128h55v-42h-55v-530h-53v323h-354v-323h-54v530h-53zM168 374h354v156h-354v-156z" />
    <glyph glyph-name="hbar" unicode="&#x127;" horiz-adv-x="617" 
d="M148 409v-409h-52v584h-64v38h64v78h52v-78h121v-38h-121v-123q55 53 141 53q102 -2 167 -62t65 -164v-288h-52v288q-1 78 -52.5 126.5t-129.5 51.5q-91 2 -139 -57z" />
    <glyph glyph-name="Itilde" unicode="&#x128;" horiz-adv-x="287" 
d="M249 835l23 -18q-22 -41 -57 -51.5t-71 13.5q-58 38 -103 -11q-4 2 -23 16q55 89 138 33q55 -36 93 18zM116 0v700h54v-700h-54z" />
    <glyph glyph-name="itilde" unicode="&#x129;" horiz-adv-x="244" 
d="M226 679l21 -18q-22 -40 -55 -50.5t-68 13.5q-30 20 -53 17.5t-47 -29.5q-4 2 -23 16q54 88 135 33q52 -35 90 18zM147 0h-51v507h51v-507z" />
    <glyph glyph-name="Imacron" unicode="&#x12a;" horiz-adv-x="287" 
d="M35 787v43h224v-43h-224zM116 0v700h54v-700h-54z" />
    <glyph glyph-name="imacron" unicode="&#x12b;" horiz-adv-x="244" 
d="M19 627v41h222v-41h-222zM147 0h-51v507h51v-507z" />
    <glyph glyph-name="Ibreve" unicode="&#x12c;" horiz-adv-x="287" 
d="M143 761q-106 -1 -117 97h38q4 -28 27 -44t50.5 -16.5t52 15.5t29.5 45h40q-2 -47 -37 -72t-83 -25zM116 0v700h54v-700h-54z" />
    <glyph glyph-name="ibreve" unicode="&#x12d;" horiz-adv-x="244" 
d="M123 584q-54 0 -84 25.5t-32 72.5h37q7 -38 43 -53.5t72.5 -0.5t43.5 54h38q-2 -48 -36 -73t-82 -25zM147 0h-51v507h51v-507z" />
    <glyph glyph-name="Iogonek" unicode="&#x12e;" horiz-adv-x="289" 
d="M116 -8v708h54v-700q-65 -55 -65 -91t63 -54q-4 -7 -8 -16t-6 -13q-87 0 -99 67q-6 48 61 99z" />
    <glyph glyph-name="iogonek" unicode="&#x12f;" horiz-adv-x="244" 
d="M95 617v79h60v-79h-60zM100 0h-4v507h51v-5h1l-1 -502q-49 -49 -49 -87t50 -55l-15 -25q-3 0 -8 0.5t-18.5 4t-24 9.5t-20 18.5t-12.5 29.5q-8 53 50 105z" />
    <glyph glyph-name="Idotaccent" unicode="&#x130;" horiz-adv-x="287" 
d="M116 781v68h55v-68h-55zM116 0v700h54v-700h-54z" />
    <glyph glyph-name="dotlessi" unicode="&#x131;" horiz-adv-x="244" 
d="M147 0h-51v507h51v-507z" />
    <glyph glyph-name="IJ" unicode="&#x132;" horiz-adv-x="607" 
d="M115 0v700h54v-700h-54zM279 -7v49q64 -9 114.5 33t50.5 117v458h-135v50h189v-508q0 -102 -66 -155t-153 -44z" />
    <glyph glyph-name="ij" unicode="&#x133;" horiz-adv-x="513" 
d="M153 0h-53v507h53v-507zM154 699v-75h-55v75h55zM245 -189v45q50 0 76.5 26t26.5 71v554h53v-554q0 -71 -43 -108t-113 -34zM400 700v-75h-55v75h55z" />
    <glyph glyph-name="Jcircumflex" unicode="&#x134;" horiz-adv-x="549" 
d="M51 154l49 13q15 -55 59.5 -89t93.5 -34q57 0 99 40t42 108v458h-135v50h189v-508q0 -94 -57.5 -147t-136.5 -53q-69 0 -126 42.5t-77 119.5zM199 756l80 97h76l79 -97h-50l-67 73l-70 -73h-48z" />
    <glyph glyph-name="jcircumflex" unicode="&#x135;" horiz-adv-x="244" 
d="M-7 -189v45q50 0 76.5 26t26.5 71v555h53v-555q0 -71 -43 -108t-113 -34zM1 586l80 97h76l79 -97h-50l-67 73l-70 -73h-48z" />
    <glyph glyph-name="Kcommaaccent" unicode="&#x136;" horiz-adv-x="638" 
d="M315 -38h52q17 -78 -26 -132h-39q15 43 18 66.5t-5 65.5zM116 700h53v-375l347 375h61l-275 -310l292 -390h-64l-267 353l-94 -92v-261h-53v700z" />
    <glyph glyph-name="kcommaaccent" unicode="&#x137;" horiz-adv-x="521" 
d="M255 -43h52q16 -78 -21 -131h-38q24 67 7 131zM96 700h49v-460l264 267h62l-217 -220q34 -42 113 -141t117 -146h-57l-206 252l-76 -69v-183h-49v700z" />
    <glyph glyph-name="kgreenlandic" unicode="&#x138;" horiz-adv-x="521" 
d="M96 507h49v-267l264 267h62l-217 -220q34 -42 113 -141t117 -146h-57l-206 252l-76 -69v-183h-49v507z" />
    <glyph glyph-name="Lacute" unicode="&#x139;" horiz-adv-x="483" 
d="M245 860l-74 -102h-48l59 102h63zM443 52v-52h-327v700h54v-648h273z" />
    <glyph glyph-name="lacute" unicode="&#x13a;" horiz-adv-x="271" 
d="M215 859l-75 -104h-47q11 20 31 54t29 50h62zM224 45v-46q-65 -3 -99.5 33t-34.5 109v559h53v-559q0 -48 18 -72.5t63 -23.5z" />
    <glyph glyph-name="Lcommaaccent" unicode="&#x13b;" horiz-adv-x="483" 
d="M265 -58h57q11 -62 -21 -131h-45q25 71 9 131zM443 52v-52h-327v700h54v-648h273z" />
    <glyph glyph-name="lcommaaccent" unicode="&#x13c;" horiz-adv-x="271" 
d="M140 -71h53q16 -66 -15 -122h-44q23 63 6 122zM224 45v-46q-65 -3 -99.5 33t-34.5 109v559h53v-559q0 -48 18 -72.5t63 -23.5z" />
    <glyph glyph-name="Lcaron" unicode="&#x13d;" horiz-adv-x="483" 
d="M304 701h52q16 -62 -20 -130h-39q23 69 7 130zM443 52v-52h-327v700h54v-648h273z" />
    <glyph glyph-name="lcaron" unicode="&#x13e;" horiz-adv-x="302" 
d="M252 700h47q14 -61 -19 -125h-35q22 67 7 125zM224 45v-46q-65 -3 -99.5 33t-34.5 109v559h53v-559q0 -48 18 -72.5t63 -23.5z" />
    <glyph glyph-name="Ldot" unicode="&#x13f;" horiz-adv-x="483" 
d="M296 340v75h64v-75h-64zM443 52v-52h-327v700h54v-648h273z" />
    <glyph glyph-name="ldot" unicode="&#x140;" horiz-adv-x="308" 
d="M225 349v72h61v-72h-61zM224 45v-46q-65 -3 -99.5 33t-34.5 109v559h53v-559q0 -48 18 -72.5t63 -23.5z" />
    <glyph glyph-name="Lslash" unicode="&#x141;" horiz-adv-x="483" 
d="M443 52v-52h-327v321l-66 -37v49l66 38v329h54v-297l121 70v-52l-121 -69v-300h273z" />
    <glyph glyph-name="lslash" unicode="&#x142;" horiz-adv-x="271" 
d="M224 45v-46q-65 -3 -99.5 33t-34.5 109v168l-41 -23v46l41 23v345h53v-314l84 49v-49l-84 -47v-198q0 -48 18 -72.5t63 -23.5z" />
    <glyph glyph-name="Nacute" unicode="&#x143;" horiz-adv-x="736" 
d="M472 855l-76 -102h-48q10 19 31 52t30 50h63zM116 700h67l384 -648v648h54v-700h-84l-367 620v-620h-54v700z" />
    <glyph glyph-name="nacute" unicode="&#x144;" horiz-adv-x="620" 
d="M396 687l-71 -101h-48q4 7 56 101h63zM148 411v-411h-52v507h45l7 -43q55 53 141 53q103 -2 172 -62.5t69 -163.5v-291h-52v291q-1 77 -56.5 126t-134.5 52q-90 2 -139 -58z" />
    <glyph glyph-name="Ncommaaccent" unicode="&#x145;" horiz-adv-x="736" 
d="M347 -39h58q13 -69 -16 -131h-49q13 38 14.5 65.5t-7.5 65.5zM116 700h67l384 -648v648h54v-700h-84l-367 620v-620h-54v700z" />
    <glyph glyph-name="ncommaaccent" unicode="&#x146;" horiz-adv-x="620" 
d="M291 -28h51q5 -25 5 -41q0 -33 -23 -84h-40q15 43 15 76q0 25 -8 49zM148 411v-411h-52v507h45l7 -43q55 53 141 53q103 -2 172 -62.5t69 -163.5v-291h-52v291q-1 77 -56.5 126t-134.5 52q-90 2 -139 -58z" />
    <glyph glyph-name="Ncaron" unicode="&#x147;" horiz-adv-x="736" 
d="M116 700h67l384 -648v648h54v-700h-84l-367 620v-620h-54v700zM491 853l-80 -97h-76l-79 97h50l67 -73l70 73h48z" />
    <glyph glyph-name="ncaron" unicode="&#x148;" horiz-adv-x="620" 
d="M415 686l-80 -97h-76l-79 97h50l67 -73l70 73h48zM148 411v-411h-52v507h45l7 -43q55 53 141 53q103 -2 172 -62.5t69 -163.5v-291h-52v291q-1 77 -56.5 126t-134.5 52q-90 2 -139 -58z" />
    <glyph glyph-name="napostrophe" unicode="&#x149;" horiz-adv-x="613" 
d="M30 696h53q15 -56 -20 -125h-40q26 74 7 125zM148 411v-411h-52v507h45l7 -43q55 53 141 53q103 -2 172 -62.5t69 -163.5v-291h-52v291q-1 77 -56.5 126t-134.5 52q-90 2 -139 -58z" />
    <glyph glyph-name="Eng" unicode="&#x14a;" horiz-adv-x="736" 
d="M116 700h67l384 -626v626h53v-749q0 -71 -42.5 -108t-112.5 -34v50q47 0 67.5 23t20.5 69v49l-383 620v-620h-54v700z" />
    <glyph glyph-name="eng" unicode="&#x14b;" horiz-adv-x="617" 
d="M148 411v-411h-52v507h45l7 -43q55 53 141 53q103 -2 172 -62.5t69 -163.5v-340q0 -72 -40.5 -108.5t-108.5 -33.5v46q47 0 72 25t25 71v340q-1 77 -56.5 126t-134.5 52q-90 2 -139 -58z" />
    <glyph glyph-name="Omacron" unicode="&#x14c;" horiz-adv-x="824" 
d="M298 794v43h229v-43h-229zM412 711q99 0 179 -50.5t123.5 -133t43.5 -178.5q0 -86 -29.5 -156t-78.5 -113t-111 -66.5t-127 -23.5t-127 23.5t-111 66.5t-78.5 113t-29.5 156q0 149 97 255.5t249 106.5zM120 349q0 -74 25 -134t66 -97t93.5 -57t107.5 -20t107.5 20
t93.5 56.5t66 97t25 134.5q0 75 -25 135.5t-66 98t-93.5 57.5t-107.5 19.5t-107.5 -20.5t-93.5 -57.5t-66 -98t-25 -134.5z" />
    <glyph glyph-name="omacron" unicode="&#x14d;" horiz-adv-x="609" 
d="M187 620v43h229v-43h-229zM107 253q0 -99 60 -159.5t139 -60.5t139.5 60.5t60.5 159.5t-60 158t-140 59q-79 0 -139 -59t-60 -158zM558 253q0 -108 -72.5 -186.5t-179.5 -78.5q-106 0 -178.5 78.5t-72.5 186.5t72.5 186.5t178.5 78.5q107 0 179.5 -78.5t72.5 -186.5z" />
    <glyph glyph-name="Obreve" unicode="&#x14e;" horiz-adv-x="824" 
d="M412 711q99 0 179 -50.5t123.5 -133t43.5 -178.5q0 -86 -29.5 -156t-78.5 -113t-111 -66.5t-127 -23.5t-127 23.5t-111 66.5t-78.5 113t-29.5 156q0 149 97 255.5t249 106.5zM120 349q0 -74 25 -134t66 -97t93.5 -57t107.5 -20t107.5 20t93.5 56.5t66 97t25 134.5
q0 75 -25 135.5t-66 98t-93.5 57.5t-107.5 19.5t-107.5 -20.5t-93.5 -57.5t-66 -98t-25 -134.5zM413 761q-106 -1 -117 97h38q4 -28 27 -44t50.5 -16.5t52 15.5t29.5 45h40q-2 -47 -37 -72t-83 -25z" />
    <glyph glyph-name="obreve" unicode="&#x14f;" horiz-adv-x="609" 
d="M304 584q-104 0 -119 97h41q3 -30 25.5 -44.5t52.5 -14.5q28 0 51.5 14.5t26.5 44.5h40q-2 -47 -36 -72t-82 -25zM106 253q0 -99 60 -159.5t139 -60.5t139.5 60.5t60.5 159.5t-60 158t-140 59q-79 0 -139 -59t-60 -158zM557 253q0 -108 -72.5 -186.5t-179.5 -78.5
q-106 0 -178.5 78.5t-72.5 186.5t72.5 186.5t178.5 78.5q107 0 179.5 -78.5t72.5 -186.5z" />
    <glyph glyph-name="Ohungarumlaut" unicode="&#x150;" horiz-adv-x="824" 
d="M457 762l56 93h55l-69 -93h-42zM315 762l51 93h52l-62 -93h-41zM412 711q99 0 179 -50.5t123.5 -133t43.5 -178.5q0 -86 -29.5 -156t-78.5 -113t-111 -66.5t-127 -23.5t-127 23.5t-111 66.5t-78.5 113t-29.5 156q0 149 97 255.5t249 106.5zM120 349q0 -74 25 -134t66 -97
t93.5 -57t107.5 -20t107.5 20t93.5 56.5t66 97t25 134.5q0 75 -25 135.5t-66 98t-93.5 57.5t-107.5 19.5t-107.5 -20.5t-93.5 -57.5t-66 -98t-25 -134.5z" />
    <glyph glyph-name="ohungarumlaut" unicode="&#x151;" horiz-adv-x="609" 
d="M336 594l57 93h55q-12 -15 -34.5 -45t-36.5 -48h-41zM209 594l52 93h53q-13 -19 -35 -49.5t-31 -43.5h-39zM107 253q0 -99 60 -159.5t139 -60.5t139.5 60.5t60.5 159.5t-60 158t-140 59q-79 0 -139 -59t-60 -158zM558 253q0 -108 -72.5 -186.5t-179.5 -78.5
q-106 0 -178.5 78.5t-72.5 186.5t72.5 186.5t178.5 78.5q107 0 179.5 -78.5t72.5 -186.5z" />
    <glyph glyph-name="OE" unicode="&#x152;" horiz-adv-x="947" 
d="M872 701v-52h-310v-272h306v-51h-307v-273h311v-52h-365q-49 -14 -100.5 -10.5t-99.5 17t-90.5 44.5t-74.5 71.5t-50.5 99t-18.5 126.5q0 149 97 255.5t249 106.5q44 0 88 -11v1h365zM127 349q0 -60 16.5 -111t44.5 -86.5t65.5 -61t80 -37t87 -12t86.5 12.5v592
q-52 13 -104.5 12.5t-102 -23.5t-88 -59.5t-62 -95.5t-23.5 -131z" />
    <glyph glyph-name="oe" unicode="&#x153;" horiz-adv-x="1051" 
d="M758 40q100 0 153 66l39 -27q-72 -88 -192 -88q-79 0 -136 44t-84 115q-29 -72 -91 -117t-138 -45q-107 0 -180 78.5t-73 186.5t73 186.5t180 78.5q75 0 137.5 -44t90.5 -114q24 68 82 110.5t138 43.5q102 1 168.5 -69.5t66.5 -173.5q0 -7 -2 -33h-429v-3
q6 -80 59 -137.5t138 -57.5zM108 253q0 -99 61 -159.5t140 -60.5q80 0 143 60.5t63 159.5v5v5q-4 94 -66 150.5t-140 56.5q-79 0 -140 -59t-61 -158zM560 282h386q-4 81 -57 131.5t-132 52.5q-85 -1 -135.5 -52t-61.5 -132z" />
    <glyph glyph-name="Racute" unicode="&#x154;" horiz-adv-x="620" 
d="M385 855l-74 -101h-48q11 20 30.5 52.5t28.5 48.5h63zM331 297l232 -297h-68l-231 297h-95v-297h-53v700h210q99 0 162 -53t64 -150q1 -94 -59.5 -145t-161.5 -55zM169 346h158q80 0 126 38.5t46 112.5q0 75 -47 113.5t-125 38.5h-158v-303z" />
    <glyph glyph-name="racute" unicode="&#x155;" horiz-adv-x="405" 
d="M320 691l-70 -98h-46q11 21 29.5 53t25.5 45h61zM96 507h42l8 -66q28 44 76 60.5t88 11.5t74 -20l-21 -43q-74 36 -146 -1.5t-70 -123.5v-325h-51v507z" />
    <glyph glyph-name="Rcommaaccent" unicode="&#x156;" horiz-adv-x="620" 
d="M307 -41h53q15 -58 -16 -125h-44q13 38 15.5 62.5t-8.5 62.5zM331 297l232 -297h-68l-231 297h-95v-297h-53v700h210q99 0 162 -53t64 -150q1 -94 -59.5 -145t-161.5 -55zM169 346h158q80 0 126 38.5t46 112.5q0 75 -47 113.5t-125 38.5h-158v-303z" />
    <glyph glyph-name="rcommaaccent" unicode="&#x157;" horiz-adv-x="405" 
d="M99 -50h49q9 -30 4 -64.5t-23 -60.5h-37q15 37 16.5 62.5t-9.5 62.5zM96 507h42l8 -66q28 44 76 60.5t88 11.5t74 -20l-21 -43q-74 36 -146 -1.5t-70 -123.5v-325h-51v507z" />
    <glyph glyph-name="Rcaron" unicode="&#x158;" horiz-adv-x="618" 
d="M331 297l232 -297h-68l-231 297h-95v-297h-53v700h210q99 0 162 -53t64 -150q1 -94 -59.5 -145t-161.5 -55zM169 346h158q80 0 126 38.5t46 112.5q0 75 -47 113.5t-125 38.5h-158v-303zM414 852l-80 -97h-76l-79 97h50l67 -73l70 73h48z" />
    <glyph glyph-name="rcaron" unicode="&#x159;" horiz-adv-x="405" 
d="M96 507h42l8 -66q28 44 76 60.5t88 11.5t74 -20l-21 -43q-74 36 -146 -1.5t-70 -123.5v-325h-51v507zM351 684l-82 -97h-72l-81 97h50l67 -73l70 73h48z" />
    <glyph glyph-name="Sacute" unicode="&#x15a;" horiz-adv-x="562" 
d="M376 861l-75 -105h-48q11 20 31 55t29 50h63zM131 529q-2 -28 8 -50.5t24 -36.5t38 -25.5t40.5 -17t40.5 -11.5q210 -53 202 -220q-7 -82 -71 -129.5t-143 -47.5q-64 0 -122 36t-85 100q7 4 22 12t21 11q23 -49 67 -78t98 -29q68 -1 112 35t48 94q3 38 -11 68t-42 48.5
t-53 29t-58 19.5q-40 11 -68 23t-59.5 34t-47 57t-14.5 81q3 85 61 132t135 47q62 0 115.5 -32t78.5 -90l-42 -21q-22 42 -64 66t-86 24q-57 1 -99 -32.5t-46 -96.5z" />
    <glyph glyph-name="sacute" unicode="&#x15b;" horiz-adv-x="443" 
d="M321 687l-73 -101h-44q11 21 30 54t27 47h60zM229 279q68 -14 112.5 -48.5t44.5 -93.5q0 -69 -53.5 -107.5t-117.5 -38.5q-99 0 -155 73q23 23 31 32q30 -41 87 -54t105 12.5t52 83.5q-1 38 -36.5 62t-79.5 33q-64 11 -106 45t-43 92q0 71 54.5 110.5t126 34.5t118.5 -49
l-31 -34q-32 31 -84 35.5t-92.5 -22t-40.5 -75.5q1 -69 108 -91z" />
    <glyph glyph-name="Scircumflex" unicode="&#x15c;" horiz-adv-x="562" 
d="M131 529q-2 -28 8 -50.5t24 -36.5t38 -25.5t40.5 -17t40.5 -11.5q210 -53 202 -220q-7 -82 -71 -129.5t-143 -47.5q-64 0 -122 36t-85 100q7 4 22 12t21 11q23 -49 67 -78t98 -29q68 -1 112 35t48 94q3 38 -11 68t-42 48.5t-53 29t-58 19.5q-40 11 -68 23t-59.5 34
t-47 57t-14.5 81q3 85 61 132t135 47q62 0 115.5 -32t78.5 -90l-42 -21q-22 42 -64 66t-86 24q-57 1 -99 -32.5t-46 -96.5zM158 754l80 97h76l79 -97h-50l-67 73l-70 -73h-48z" />
    <glyph glyph-name="scircumflex" unicode="&#x15d;" horiz-adv-x="443" 
d="M229 279q68 -14 112.5 -48.5t44.5 -93.5q0 -69 -53.5 -107.5t-117.5 -38.5q-99 0 -155 73q23 23 31 32q30 -41 87 -54t105 12.5t52 83.5q-1 38 -36.5 62t-79.5 33q-64 11 -106 45t-43 92q0 71 54.5 110.5t126 34.5t118.5 -49l-31 -34q-32 31 -84 35.5t-92.5 -22
t-40.5 -75.5q1 -69 108 -91zM116 582l80 97h76l79 -97h-50l-67 76l-70 -76h-48z" />
    <glyph glyph-name="Scedilla" unicode="&#x15e;" horiz-adv-x="562" 
d="M298 -7l-19 -35q60 -3 79 -39t-8 -70.5t-80 -34.5q-33 0 -70 17l7 34q26 -19 69.5 -13.5t43.5 36.5q0 32 -58 34q-16 0 -25 -3l-10 9l33 64q-62 2 -116.5 37.5t-80.5 97.5l43 23q23 -49 67 -78t98 -29q68 -1 112 35t48 94q3 38 -11 68t-42 48.5t-53 29t-58 19.5
q-40 11 -68 23t-59.5 34t-47 57t-14.5 81q3 85 61 132t135 47q62 0 115.5 -32t78.5 -90l-42 -21q-22 42 -64 66t-86 24q-57 1 -99 -32.5t-46 -96.5q-2 -28 8 -50.5t24 -36.5t38 -25.5t40.5 -17t40.5 -11.5q210 -53 202 -220q-6 -74 -60 -120.5t-126 -54.5z" />
    <glyph glyph-name="scedilla" unicode="&#x15f;" horiz-adv-x="442" 
d="M229 279q68 -14 112.5 -48.5t44.5 -93.5q0 -63 -45.5 -100.5t-104.5 -43.5l-13 -26q54 -2 72 -32.5t-7 -59.5t-74 -29q-25 0 -64 16l6 29q24 -16 64 -11t40 28q0 27 -53 29q-15 0 -23 -3l-10 8l27 50q-90 5 -141 72q23 23 31 32q30 -41 87 -54t105 12.5t52 83.5
q-1 38 -36.5 62t-79.5 33q-64 11 -106 45t-43 92q0 71 54.5 110.5t126 34.5t118.5 -49l-31 -34q-32 31 -84 35.5t-92.5 -22t-40.5 -75.5q1 -69 108 -91z" />
    <glyph glyph-name="Scaron" unicode="&#x160;" 
d="M131 529q-2 -28 8 -50.5t24 -36.5t38 -25.5t40.5 -17t40.5 -11.5q210 -53 202 -220q-7 -82 -71 -129.5t-143 -47.5q-64 0 -122 36t-85 100q7 4 22 12t21 11q23 -49 67 -78t98 -29q68 -1 112 35t48 94q3 38 -11 68t-42 48.5t-53 29t-58 19.5q-40 11 -68 23t-59.5 34
t-47 57t-14.5 81q3 85 61 132t135 47q62 0 115.5 -32t78.5 -90l-42 -21q-22 42 -64 66t-86 24q-57 1 -99 -32.5t-46 -96.5zM399 884l-84 -100h-69l-82 100h48l69 -78l70 78h48z" />
    <glyph glyph-name="scaron" unicode="&#x161;" horiz-adv-x="443" 
d="M229 279q68 -14 112.5 -48.5t44.5 -93.5q0 -69 -53.5 -107.5t-117.5 -38.5q-99 0 -155 73q23 23 31 32q30 -41 87 -54t105 12.5t52 83.5q-1 38 -36.5 62t-79.5 33q-64 11 -106 45t-43 92q0 71 54.5 110.5t126 34.5t118.5 -49l-31 -34q-32 31 -84 35.5t-92.5 -22
t-40.5 -75.5q1 -69 108 -91zM351 711l-84 -100h-69l-82 100h48l69 -78l70 78h48z" />
    <glyph glyph-name="Tcommaaccent" unicode="&#x162;" horiz-adv-x="455" 
d="M253 0l-1 -28q56 -5 73 -40.5t-10 -69.5t-80 -34q-33 0 -70 17l7 34q26 -19 69.5 -13.5t43.5 36.5q0 19 -22.5 29t-50.5 3l-8 8l8 58h-11v648h-176v52h405v-52h-176v-648h-1z" />
    <glyph glyph-name="tcommaaccent" unicode="&#x163;" horiz-adv-x="311" 
d="M190 7l-3 -35q56 -5 74.5 -40t-7 -68t-78.5 -33q-31 0 -68 17l7 34q26 -19 68 -15t42 35q0 19 -22 29t-50 3l-8 8l12 81q-54 37 -54 118v323h-52v43h52v193h52v-193h103v-43h-103v-323q0 -45 27 -70.5t76 -24.5v-47q-36 -1 -68 8z" />
    <glyph glyph-name="Tcaron" unicode="&#x164;" horiz-adv-x="455" 
d="M25 700h405v-52h-176v-648h-53v648h-176v52zM343 850l-80 -97h-76l-79 97h50l67 -74l70 74h48z" />
    <glyph glyph-name="tcaron" unicode="&#x165;" horiz-adv-x="311" 
d="M256 699h47q14 -62 -17 -124h-38q25 69 8 124zM258 46v-47q-69 -3 -112 33.5t-43 108.5v323h-52v43h52v193h52v-193h103v-43h-103v-323q0 -45 27 -70.5t76 -24.5z" />
    <glyph glyph-name="Tbar" unicode="&#x166;" horiz-adv-x="454" 
d="M73 325v43h128v280h-176v52h405v-52h-176v-280h131v-43h-131v-325h-53v325h-128z" />
    <glyph glyph-name="tbar" unicode="&#x167;" horiz-adv-x="311" 
d="M258 46v-47q-69 -3 -112 33.5t-43 108.5v119h-47v36h47v168h-52v43h52v193h52v-193h103v-43h-103v-168h100v-36h-100v-119q0 -45 27 -70.5t76 -24.5z" />
    <glyph glyph-name="Utilde" unicode="&#x168;" horiz-adv-x="658" 
d="M441 847l26 -16q-23 -42 -62 -54t-77 12q-67 44 -110 -10l-28 17q60 94 152 32q25 -17 54 -12t45 31zM106 700h54v-502q0 -72 50.5 -113.5t118.5 -41.5t119.5 42t51.5 113v502h53v-502q0 -98 -66.5 -152.5t-157.5 -54.5t-157 54.5t-66 152.5v502z" />
    <glyph glyph-name="utilde" unicode="&#x169;" horiz-adv-x="618" 
d="M423 682l26 -16q-23 -42 -62 -54t-77 12q-67 44 -110 -10l-28 17q60 94 152 32q25 -17 54 -12t45 31zM471 97v410h52v-507h-45l-7 45q-56 -54 -142 -54q-103 2 -171.5 60t-68.5 161v295h52v-295q1 -80 55.5 -125t135.5 -48q90 -2 139 58z" />
    <glyph glyph-name="Umacron" unicode="&#x16a;" horiz-adv-x="658" 
d="M217 788v45h229v-45h-229zM106 700h54v-502q0 -72 50.5 -113.5t118.5 -41.5t119.5 42t51.5 113v502h53v-502q0 -98 -66.5 -152.5t-157.5 -54.5t-157 54.5t-66 152.5v502z" />
    <glyph glyph-name="umacron" unicode="&#x16b;" horiz-adv-x="618" 
d="M199 629v45h225v-45h-225zM471 97v410h52v-507h-45l-7 45q-56 -54 -142 -54q-103 2 -171.5 60t-68.5 161v295h52v-295q1 -80 55.5 -125t135.5 -48q90 -2 139 58z" />
    <glyph glyph-name="Ubreve" unicode="&#x16c;" horiz-adv-x="658" 
d="M331 754q-104 0 -119 97h42q5 -29 28 -45t49 -16t49.5 16t28.5 45h40q-2 -47 -37.5 -72t-80.5 -25zM106 700h54v-502q0 -72 50.5 -113.5t118.5 -41.5t119.5 42t51.5 113v502h53v-502q0 -98 -66.5 -152.5t-157.5 -54.5t-157 54.5t-66 152.5v502z" />
    <glyph glyph-name="ubreve" unicode="&#x16d;" horiz-adv-x="618" 
d="M312 585q-51 0 -81.5 26.5t-37.5 71.5h39q11 -39 46 -54t69 0t43 54h40q-2 -48 -36.5 -74t-81.5 -24zM471 97v410h52v-507h-45l-7 45q-56 -54 -142 -54q-103 2 -171.5 60t-68.5 161v295h52v-295q1 -80 55.5 -125t135.5 -48q90 -2 139 58z" />
    <glyph glyph-name="Uring" unicode="&#x16e;" horiz-adv-x="658" 
d="M106 700h54v-502q0 -72 50.5 -113.5t118.5 -41.5t119.5 42t51.5 113v502h53v-502q0 -98 -66.5 -152.5t-157.5 -54.5t-157 54.5t-66 152.5v502zM333 875q43 1 61 -31t0 -64.5t-61 -32.5q-26 0 -44.5 13.5t-23 32.5t0 38t22.5 32t45 12zM333 848q-25 0 -35.5 -18.5t0 -37.5
t35.5 -19t35.5 19t0 37.5t-35.5 18.5z" />
    <glyph glyph-name="uring" unicode="&#x16f;" horiz-adv-x="618" 
d="M307 693q26 1 44 -12t22 -31.5t0 -37t-22 -31.5t-44 -13t-44.5 13t-23 31.5t0 37t22.5 31.5t45 12zM307 666q-25 0 -34.5 -17.5t0.5 -35.5t34 -18t34 18t0 35.5t-34 17.5zM471 97v410h52v-507h-45l-7 45q-56 -54 -142 -54q-103 2 -171.5 60t-68.5 161v295h52v-295
q1 -80 55.5 -125t135.5 -48q90 -2 139 58z" />
    <glyph glyph-name="Uhungarumlaut" unicode="&#x170;" horiz-adv-x="658" 
d="M368 758l54 87h55l-68 -87h-41zM236 758l49 87h51l-61 -87h-39zM106 700h54v-502q0 -72 50.5 -113.5t118.5 -41.5t119.5 42t51.5 113v502h53v-502q0 -98 -66.5 -152.5t-157.5 -54.5t-157 54.5t-66 152.5v502z" />
    <glyph glyph-name="uhungarumlaut" unicode="&#x171;" horiz-adv-x="620" 
d="M346 595l58 95h55l-72 -95h-41zM208 595l53 95h52l-66 -95h-39zM471 97v410h52v-507h-45l-7 45q-56 -54 -142 -54q-103 2 -171.5 60t-68.5 161v295h52v-295q1 -80 55.5 -125t135.5 -48q90 -2 139 58z" />
    <glyph glyph-name="Uogonek" unicode="&#x172;" horiz-adv-x="658" 
d="M106 700h54v-502q0 -72 50.5 -113.5t118.5 -41.5t119.5 42t51.5 113v502h53v-502q0 -114 -95 -173l2 1q-32 -17 -48.5 -39.5t-16.5 -41.5q0 -39 66 -67l-18 -45q-4 1 -10.5 3t-23 10t-29 18t-23 26.5t-10.5 35.5q0 34 32 70q-28 -5 -50 -5q-91 0 -157 54.5t-66 152.5v502
z" />
    <glyph glyph-name="uogonek" unicode="&#x173;" horiz-adv-x="618" 
d="M471 97v410h52v-507q-39 -14 -55 -43t-1.5 -55t55.5 -29l-14 -39q-47 3 -74.5 33.5t-17.5 70t61 66.5l-6 43q-58 -56 -142 -56q-103 2 -171.5 60t-68.5 161v295h52v-295q1 -80 55.5 -125t135.5 -48q90 -2 139 58z" />
    <glyph glyph-name="Wcircumflex" unicode="&#x174;" horiz-adv-x="962" 
d="M511 604l170 -574l174 670h57q-24 -88 -90 -331.5t-101 -373.5h-80l-157 526l-158 -525h-80q-31 116 -95.5 351.5t-96.5 352.5h55l178 -670q25 80 84 281.5t87 292.5h53zM365 754l80 97h76l79 -97h-50l-67 75l-70 -75h-48z" />
    <glyph glyph-name="wcircumflex" unicode="&#x175;" horiz-adv-x="724" 
d="M325 504h70l107 -460h4l125 463h56l-148 -508h-73l-104 453h-3l-103 -453h-74l-145 508h54l125 -463h4zM242 592l80 97h76l79 -97h-50l-67 78l-70 -78h-48z" />
    <glyph glyph-name="Ycircumflex" unicode="&#x176;" horiz-adv-x="590" 
d="M557 700l-238 -420v-280h-53v281l-236 419h59l204 -370l205 370h59zM181 754l80 97h76l79 -97h-50l-67 75l-70 -75h-48z" />
    <glyph glyph-name="ycircumflex" unicode="&#x177;" horiz-adv-x="509" 
d="M103 -181v43q42 -1 63 13t34 46l29 77l-207 509h56l179 -455l171 455h56l-235 -603q-31 -85 -130 -85h-16zM129 592l80 97h76l79 -97h-50l-67 75l-70 -75h-48z" />
    <glyph glyph-name="Ydieresis" unicode="&#x178;" horiz-adv-x="593" 
d="M560 700l-238 -420v-280h-53v281l-236 419h59l204 -370l205 370h59zM241 754h-61v62h61v-62zM414 754h-61v62h61v-62z" />
    <glyph glyph-name="Zacute" unicode="&#x179;" horiz-adv-x="573" 
d="M396 866l-70 -98h-48q11 21 29.5 53t25.5 45h63zM67 0v53l363 601h-345v47h413v-28l-379 -625h385v-48h-437z" />
    <glyph glyph-name="zacute" unicode="&#x17a;" horiz-adv-x="473" 
d="M324 685l-73 -95h-44l54 95h63zM411 45v-45h-355v32l290 430h-280v45h338v-34l-289 -428h296z" />
    <glyph glyph-name="Zdotaccent" unicode="&#x17b;" horiz-adv-x="572" 
d="M273 777v65h61v-65h-61zM67 0v53l363 601h-345v47h413v-28l-379 -625h385v-48h-437z" />
    <glyph glyph-name="zdotaccent" unicode="&#x17c;" horiz-adv-x="473" 
d="M215 607v63h61v-63h-61zM411 45v-45h-355v32l290 430h-280v45h338v-34l-289 -428h296z" />
    <glyph glyph-name="Zcaron" unicode="&#x17d;" horiz-adv-x="572" 
d="M67 0v53l363 601h-345v47h413v-28l-379 -625h385v-48h-437zM424 875l-84 -100h-69l-82 100h48l69 -78l70 78h48z" />
    <glyph glyph-name="zcaron" unicode="&#x17e;" horiz-adv-x="464" 
d="M411 45v-45h-355v32l290 430h-280v45h338v-34l-289 -428h296zM367 716l-84 -100h-69l-82 100h48l69 -78l70 78h48z" />
    <glyph glyph-name="longs" unicode="&#x17f;" horiz-adv-x="254" 
d="M266 703v-45q-45 6 -75 -21t-30 -76v-560h-51v453h-55v52h55v55q0 72 43.5 108.5t112.5 33.5z" />
    <glyph glyph-name="florin" unicode="&#x192;" horiz-adv-x="538" 
d="M505 704l-4 -44q-68 1 -104 -49.5t-47 -132.5h115q-2 -12 -4 -25.5t-3 -18.5h-114q-13 -71 -46 -237t-47 -244q-15 -76 -56 -117.5t-125 -41.5q-18 0 -36 3l8 41q11 -1 30 -1q59 0 87.5 31.5t41.5 94.5l91 471h-95q2 11 4.5 23.5t3.5 20.5h95l8 40q15 80 65.5 133
t129.5 53h2z" />
    <glyph glyph-name="Scommaaccent" unicode="&#x218;" horiz-adv-x="562" 
d="M250 -63h53q5 -23 5 -39q0 -38 -21 -81h-43q14 36 14 71q0 24 -8 49zM131 529q-2 -28 8 -50.5t24 -36.5t38 -25.5t40.5 -17t40.5 -11.5q210 -53 202 -220q-7 -82 -71 -129.5t-143 -47.5q-64 0 -122 36t-85 100q7 4 22 12t21 11q23 -49 67 -78t98 -29q68 -1 112 35t48 94
q3 38 -11 68t-42 48.5t-53 29t-58 19.5q-40 11 -68 23t-59.5 34t-47 57t-14.5 81q3 85 61 132t135 47q62 0 115.5 -32t78.5 -90l-42 -21q-22 42 -64 66t-86 24q-57 1 -99 -32.5t-46 -96.5z" />
    <glyph glyph-name="scommaaccent" unicode="&#x219;" horiz-adv-x="443" 
d="M198 -64h52q11 -52 -19 -116h-39q23 56 6 116zM229 279q68 -14 112.5 -48.5t44.5 -93.5q0 -69 -53.5 -107.5t-117.5 -38.5q-99 0 -155 73q23 23 31 32q30 -41 87 -54t105 12.5t52 83.5q-1 38 -36.5 62t-79.5 33q-64 11 -106 45t-43 92q0 71 54.5 110.5t126 34.5
t118.5 -49l-31 -34q-32 31 -84 35.5t-92.5 -22t-40.5 -75.5q1 -69 108 -91z" />
    <glyph glyph-name="uni021A" unicode="&#x21a;" horiz-adv-x="455" 
d="M202 -55h55q14 -65 -19 -127h-43q24 71 7 127zM25 700h405v-52h-176v-648h-53v648h-176v52z" />
    <glyph glyph-name="uni021B" unicode="&#x21b;" horiz-adv-x="311" 
d="M177 -67h52q12 -56 -19 -125h-40q24 71 7 125zM258 46v-47q-69 -3 -112 33.5t-43 108.5v323h-52v43h52v193h52v-193h103v-43h-103v-323q0 -45 27 -70.5t76 -24.5z" />
    <glyph glyph-name="circumflex" unicode="&#x2c6;" horiz-adv-x="513" 
d="M140 755l84 100h69l82 -100h-48l-69 78l-70 -78h-48z" />
    <glyph glyph-name="caron" unicode="&#x2c7;" horiz-adv-x="513" 
d="M374 874l-84 -100h-69l-82 100h48l69 -78l70 78h48z" />
    <glyph glyph-name="breve" unicode="&#x2d8;" horiz-adv-x="513" 
d="M258 759q-44 0 -78.5 28t-41.5 71h40q5 -29 28.5 -45.5t51 -16.5t51.5 16.5t29 45.5h37q-2 -47 -38.5 -73t-78.5 -26z" />
    <glyph glyph-name="dotaccent" unicode="&#x2d9;" horiz-adv-x="514" 
d="M226 777v66h61v-66h-61z" />
    <glyph glyph-name="ring" unicode="&#x2da;" horiz-adv-x="514" 
d="M192 814q-1 42 32.5 59.5t67 0t33.5 -59.5t-33.5 -60t-67 -0.5t-32.5 60.5zM221 814q0 -25 19 -35.5t38 0t19 35.5q0 15 -8 25t-19 13t-22.5 0.5t-19 -13t-7.5 -25.5z" />
    <glyph glyph-name="ogonek" unicode="&#x2db;" horiz-adv-x="513" 
d="M184 -104v1q-6 38 24.5 70t59.5 46l37 -6q-8 -6 -20.5 -16.5t-33.5 -36t-21 -41.5q0 -7 2.5 -13.5t5 -11t8.5 -9t9.5 -7t12 -5.5t11 -4t11.5 -3.5t10 -2.5l-13 -27q-4 0 -10 0.5t-23 4t-30 9.5t-25 19.5t-15 32.5z" />
    <glyph glyph-name="tilde" unicode="&#x2dc;" horiz-adv-x="494" 
d="M351 842l25 -20q-28 -55 -78 -55q-33 0 -56 19q-65 49 -108 -17q-4 3 -26 19q35 58 83 58q30 0 63 -25q26 -19 52.5 -13t44.5 34z" />
    <glyph glyph-name="hungarumlaut" unicode="&#x2dd;" horiz-adv-x="437" 
d="M228 751l64 107h54l-76 -107h-42zM105 751l59 107h53l-71 -107h-41z" />
    <glyph glyph-name="tonos" unicode="&#x384;" horiz-adv-x="489" 
d="M316 866l-76 -104h-46l60 104h62z" />
    <glyph glyph-name="dieresistonos" unicode="&#x385;" horiz-adv-x="513" 
d="M303 854l-71 -97h-38l56 97h53zM126 796h57v58h-57v-58zM326 796h57v58h-57v-58z" />
    <glyph glyph-name="Alphatonos" unicode="&#x386;" horiz-adv-x="636" 
d="M28 0l248 707h81q41 -116 125.5 -354t126.5 -353h-57l-84 234h-301l-81 -234h-58zM186 284h265l-134 388zM122 703l-76 -104h-43l60 104h59z" />
    <glyph glyph-name="Epsilontonos" unicode="&#x388;" horiz-adv-x="531" 
d="M461 701v-52h-294v-272h290v-51h-291v-273h295v-52h-349v700h349zM68 700l-76 -104h-43l60 104h59z" />
    <glyph glyph-name="Etatonos" unicode="&#x389;" horiz-adv-x="688" 
d="M522 0v323h-354v-323h-54v700h54v-326h354v326h53v-700h-53zM68 700l-76 -104h-43l60 104h59z" />
    <glyph glyph-name="Iotatonos" unicode="&#x38a;" horiz-adv-x="286" 
d="M116 0v700h54v-700h-54zM76 700l-76 -104h-43l60 104h59z" />
    <glyph glyph-name="Omicrontonos" unicode="&#x38c;" horiz-adv-x="824" 
d="M412 711q-152 0 -249 -106.5t-97 -255.5q0 -86 29.5 -156t78.5 -113t111 -66.5t127 -23.5t127 23.5t111 66.5t78.5 113t29.5 156q0 96 -43.5 178.5t-123.5 133t-179 50.5zM120 349q0 74 25 134.5t66 98t93.5 57.5t107.5 20.5t107.5 -19.5t93.5 -57.5t66 -98t25 -135.5
q0 -74 -25 -134.5t-66 -97t-93.5 -56.5t-107.5 -20t-107.5 20t-93.5 57t-66 97t-25 134zM111 700l-76 -104h-43l60 104h59z" />
    <glyph glyph-name="Upsilontonos" unicode="&#x38e;" horiz-adv-x="618" 
d="M585 700l-238 -420v-280h-53v281l-232 419h58l201 -370l205 370h59zM47 700l-74 -104h-43l60 104h57z" />
    <glyph glyph-name="Omegatonos" unicode="&#x38f;" horiz-adv-x="847" 
d="M415 663q-132 0 -217 -87.5t-85 -219.5q0 -114 56.5 -191.5t155.5 -117.5l-15 -47h-271v47h192q-78 38 -124.5 120t-46.5 189q0 154 99.5 254.5t255.5 100.5t255 -100.5t99 -254.5q0 -107 -47 -190.5t-123 -119.5h193v-46h-265l-12 47q98 45 150 118.5t52 190.5
q0 131 -85 218.5t-217 88.5zM94 700l-76 -104h-43l60 104h59z" />
    <glyph glyph-name="iotadieresistonos" unicode="&#x390;" horiz-adv-x="266" 
d="M215 -1v43q-38 0 -52 13.5t-14 51.5v400h-53v-400q0 -67 28 -87t91 -21zM191 694l-71 -97h-38l56 97h53zM14 636h57v58h-57v-58zM214 636h57v58h-57v-58z" />
    <glyph glyph-name="Alpha" unicode="&#x391;" horiz-adv-x="636" 
d="M28 0l248 707h81q41 -116 125.5 -354t126.5 -353h-57l-84 234h-301l-81 -234h-58zM186 284h265l-134 388z" />
    <glyph glyph-name="Beta" unicode="&#x392;" horiz-adv-x="613" 
d="M508 519q0 -107 -101 -146q71 -25 102 -72t30 -103q0 -95 -64.5 -146.5t-162.5 -51.5h-196v700h197q81 0 138 -50.5t57 -130.5zM170 395h143q67 0 105 37.5t38 87.5q0 51 -38 93.5t-105 42.5h-143v-261zM313 347h-143v-301h143q81 0 127 48t46 106q0 57 -46 102t-127 45z
" />
    <glyph glyph-name="Gamma" unicode="&#x393;" horiz-adv-x="522" 
d="M473 700v-45h-303v-655h-53v700h356z" />
    <glyph glyph-name="Delta" unicode="&#x394;" horiz-adv-x="635" 
d="M609 0h-581l248 707h81q41 -116 125.5 -354t126.5 -353zM535 47l-218 625l-215 -625h433z" />
    <glyph glyph-name="Epsilon" unicode="&#x395;" horiz-adv-x="531" 
d="M461 701v-52h-294v-272h290v-51h-291v-273h295v-52h-349v700h349z" />
    <glyph glyph-name="Zeta" unicode="&#x396;" horiz-adv-x="572" 
d="M67 0v53l363 601h-345v47h413v-28l-379 -625h385v-48h-437z" />
    <glyph glyph-name="Eta" unicode="&#x397;" horiz-adv-x="688" 
d="M522 0v323h-354v-323h-54v700h54v-326h354v326h53v-700h-53z" />
    <glyph glyph-name="Theta" unicode="&#x398;" horiz-adv-x="824" 
d="M412 711q-152 0 -249 -106.5t-97 -255.5q0 -86 29.5 -156t78.5 -113t111 -66.5t127 -23.5t127 23.5t111 66.5t78.5 113t29.5 156q0 151 -98 256.5t-248 105.5zM120 349q0 74 25 134.5t66 98t93.5 57.5t107.5 20.5t107.5 -19.5t93.5 -57.5t66 -98t25 -135.5
q0 -74 -25 -134.5t-66 -97t-93.5 -56.5t-107.5 -20t-107.5 20t-93.5 57t-66 97t-25 134zM195 329v49h434v-49h-434z" />
    <glyph glyph-name="Iota" unicode="&#x399;" horiz-adv-x="286" 
d="M116 0v700h54v-700h-54z" />
    <glyph glyph-name="Kappa" unicode="&#x39a;" horiz-adv-x="634" 
d="M116 700h53v-375l347 375h61l-275 -310l292 -390h-64l-267 353l-94 -92v-261h-53v700z" />
    <glyph glyph-name="Lambda" unicode="&#x39b;" horiz-adv-x="631" 
d="M274 705h81l251 -705h-56l-236 669l-232 -669h-56q41 116 124 352.5t124 352.5z" />
    <glyph glyph-name="Mu" unicode="&#x39c;" horiz-adv-x="855" 
d="M455 107h-53l-233 533v-640h-53v701h82l230 -534q37 83 114.5 267t113.5 267h84v-701h-53l1 640z" />
    <glyph glyph-name="Nu" unicode="&#x39d;" horiz-adv-x="737" 
d="M116 700h67l384 -648v648h54v-700h-84l-367 620v-620h-54v700z" />
    <glyph glyph-name="Xi" unicode="&#x39e;" horiz-adv-x="553" 
d="M50 49h450v-49h-450v49zM494 652h-438v48h438v-48zM93 328v48h362v-48h-362z" />
    <glyph glyph-name="Omicron" unicode="&#x39f;" horiz-adv-x="824" 
d="M412 711q-152 0 -249 -106.5t-97 -255.5q0 -86 29.5 -156t78.5 -113t111 -66.5t127 -23.5t127 23.5t111 66.5t78.5 113t29.5 156q0 96 -43.5 178.5t-123.5 133t-179 50.5zM120 349q0 74 25 134.5t66 98t93.5 57.5t107.5 20.5t107.5 -19.5t93.5 -57.5t66 -98t25 -135.5
q0 -74 -25 -134.5t-66 -97t-93.5 -56.5t-107.5 -20t-107.5 20t-93.5 57t-66 97t-25 134z" />
    <glyph glyph-name="Pi" unicode="&#x3a0;" horiz-adv-x="675" 
d="M559 0h-53v655h-337v-655h-53v700h443v-700z" />
    <glyph glyph-name="Rho" unicode="&#x3a1;" horiz-adv-x="587" 
d="M169 267v-267h-53v701h197q61 -1 108.5 -25t72.5 -62.5t37 -85t0.5 -92.5t-35.5 -84t-72 -61.5t-110 -23.5h-145zM169 317h144q55 2 95 26.5t57.5 60.5t16.5 78t-19 78t-57.5 61.5t-92.5 28.5h-144v-333z" />
    <glyph glyph-name="Sigma" unicode="&#x3a3;" 
d="M323 371v-22l-203 -301h391v-48h-432l-27 33l218 326l-209 308l23 33h419v-47h-373z" />
    <glyph glyph-name="Tau" unicode="&#x3a4;" horiz-adv-x="455" 
d="M25 700h405v-45h-176v-655h-53v655h-176v45z" />
    <glyph glyph-name="Upsilon" unicode="&#x3a5;" horiz-adv-x="593" 
d="M560 700l-238 -420v-280h-53v281l-236 419h59l204 -370l205 370h59z" />
    <glyph glyph-name="Phi" unicode="&#x3a6;" horiz-adv-x="822" 
d="M384 640v61h52v-61q150 -5 234.5 -89.5t84.5 -198.5q0 -73 -34.5 -136.5t-109 -107t-175.5 -46.5v-63h-52v63q-151 4 -236.5 89.5t-85.5 199.5t85.5 199t236.5 90zM436 596v-491q125 4 195 76t70 170q0 99 -70 169.5t-195 75.5zM116 352q0 -98 71 -170.5t197 -76.5v491
q-125 -5 -196.5 -76t-71.5 -168z" />
    <glyph glyph-name="Chi" unicode="&#x3a7;" horiz-adv-x="647" 
d="M600 700l-237 -350l240 -350h-62l-212 311l-213 -311h-62l241 350l-237 350h62l209 -312l208 312h63z" />
    <glyph glyph-name="Psi" unicode="&#x3a8;" horiz-adv-x="791" 
d="M361 194v506h54v-506q123 5 182 71t60 170v265h53v-265q0 -55 -17 -104t-51 -90.5t-92.5 -66.5t-134.5 -27v-147h-54v147q-77 2 -135.5 27t-93 66t-51.5 90t-17 104v266h54v-265q1 -101 61 -168t182 -73z" />
    <glyph glyph-name="Omega" unicode="&#x3a9;" horiz-adv-x="847" 
d="M415 663q-132 0 -217 -87.5t-85 -219.5q0 -115 55.5 -193t153.5 -118l-12 -45h-271v45h192q-78 38 -124.5 121t-46.5 190q0 154 99.5 254.5t255.5 100.5t255 -100.5t99 -254.5q0 -107 -47 -191.5t-123 -120.5h193v-44h-265l-10 45q97 44 148.5 118.5t51.5 192.5
q0 131 -85 218.5t-217 88.5z" />
    <glyph glyph-name="Iotadieresis" unicode="&#x3aa;" horiz-adv-x="286" 
d="M116 0v700h54v-700h-54zM87 747h-61v62h61v-62zM260 747h-61v62h61v-62z" />
    <glyph glyph-name="Upsilondieresis" unicode="&#x3ab;" horiz-adv-x="593" 
d="M560 700l-238 -420v-280h-53v281l-236 419h59l204 -370l205 370h59zM240 744h-61v62h61v-62zM413 744h-61v62h61v-62z" />
    <glyph glyph-name="alphatonos" unicode="&#x3ac;" horiz-adv-x="582" 
d="M305 512q78 0 130 -51l8 48h44v-509h-43l-7 60q-22 -35 -61.5 -50.5t-78.5 -14.5q-51 1 -93 19t-69.5 48t-46.5 69t-22.5 81.5t1 85.5t24 81.5t47.5 68t71.5 47t95.5 17.5zM307 42q76 0 128 70v296q-50 61 -140 58q-59 -4 -101.5 -36.5t-62 -79t-18.5 -100t21.5 -99.5
t66 -77t106.5 -32zM398 690l-76 -104h-43l60 104h59z" />
    <glyph glyph-name="epsilontonos" unicode="&#x3ad;" horiz-adv-x="475" 
d="M74 378q1 67 57 101.5t128 34.5q83 2 160 -54l-26 -39q-65 43 -134 43q-51 -1 -91.5 -22t-41.5 -64q-1 -28 13 -48t39.5 -29t50.5 -12.5t55 -3.5h37v-42h-34q-36 0 -62 -3t-53.5 -12.5t-43.5 -30.5t-19 -52q-1 -50 41 -77t103 -26q78 0 151 50l28 -40q-82 -59 -180 -59
q-82 0 -140 38t-55 115q1 44 29.5 76.5t74.5 43.5q-40 6 -63.5 39.5t-23.5 72.5zM348 691l-76 -104h-43l60 104h59z" />
    <glyph glyph-name="etatonos" unicode="&#x3ae;" horiz-adv-x="621" 
d="M148 411q49 60 139 58q79 -3 134.5 -52t56.5 -126v-291h52v291q0 103 -69 163.5t-172 62.5q-86 0 -141 -53l-7 43h-45v-507h52v411zM392 694l-76 -104h-43l60 104h59z" />
    <glyph glyph-name="iotatonos" unicode="&#x3af;" horiz-adv-x="266" 
d="M215 -1v43q-38 0 -52 13.5t-14 51.5v400h-53v-400q0 -67 28 -87t91 -21zM214 690l-76 -104h-43l60 104h59z" />
    <glyph glyph-name="upsilondieresistonos" unicode="&#x3b0;" horiz-adv-x="624" 
d="M302 46q-64 2 -109.5 45t-45.5 118v298h-51v-298q-1 -93 58.5 -152.5t147.5 -61.5q91 0 153 59.5t61 154.5v298h-52v-298q0 -76 -47.5 -119.5t-114.5 -43.5zM358 689l-71 -97h-38l56 97h53zM181 631h57v58h-57v-58zM381 631h57v58h-57v-58z" />
    <glyph glyph-name="alpha" unicode="&#x3b1;" horiz-adv-x="582" 
d="M305 512q78 0 130 -51l8 48h44v-509h-43l-7 60q-22 -35 -61.5 -50.5t-78.5 -14.5q-51 1 -93 19t-69.5 48t-46.5 69t-22.5 81.5t1 85.5t24 81.5t47.5 68t71.5 47t95.5 17.5zM307 42q76 0 128 70v296q-50 61 -140 58q-59 -4 -101.5 -36.5t-62 -79t-18.5 -100t21.5 -99.5
t66 -77t106.5 -32z" />
    <glyph glyph-name="beta" unicode="&#x3b2;" horiz-adv-x="585" 
d="M145 533v-729h-51v729q0 48 20.5 86t54 58t74 29.5t81 1t74 -27.5t54.5 -57t21 -86t-23.5 -91.5t-79.5 -64.5q70 -22 108.5 -71.5t37.5 -113.5q2 -96 -60.5 -153.5t-149.5 -57.5q-60 0 -105 13v48q104 -34 183.5 10.5t79.5 139.5q0 60 -47 108t-126 48h-46v49h46
q61 0 97 44.5t33 94.5q0 81 -69 112t-138 -4t-69 -115z" />
    <glyph glyph-name="gamma" unicode="&#x3b3;" horiz-adv-x="506" 
d="M18 461v46q50 2 72 -12.5t39 -60.5l128 -374l151 447h56l-182 -512v-190h-50v190q-33 91 -154 427q-9 21 -21.5 30.5t-38.5 8.5z" />
    <glyph glyph-name="delta" unicode="&#x3b4;" horiz-adv-x="627" 
d="M563 237q0 -61 -20 -102q-26 -51 -56 -78q-45 -36 -82 -46v1q-43 -18 -97 -18q-58 2 -96 17q-42 15 -80 48q-37 35 -56 78q-21 46 -23 100q3 81 51 141.5t133 76.5q-47 6 -85 38t-38 72q0 51 34.5 84.5t78.5 45.5t93 11q95 -2 172 -45l-26 -38q-51 38 -151 38
q-63 0 -106 -24t-43 -72q0 -22 15 -38t44 -25.5t46.5 -13t46.5 -7.5q100 -14 165 -71q80 -72 80 -173zM448 377q-62 53 -140 53q-29 0 -56 -7q-99 -26 -134 -115q-12 -38 -12 -71q0 -37 11 -72q18 -36 34 -55q15 -18 47 -39h-1q30 -16 55 -22q34 -8 56 -8t57 7q36 11 57 22
q27 14 45 38q22 22 33 54q12 32 12 75q0 82 -64 140z" />
    <glyph glyph-name="epsilon" unicode="&#x3b5;" horiz-adv-x="475" 
d="M74 378q1 67 57 101.5t128 34.5q83 2 160 -54l-26 -39q-65 43 -134 43q-51 -1 -91.5 -22t-41.5 -64q-1 -28 13 -48t39.5 -29t50.5 -12.5t55 -3.5h37v-42h-34q-36 0 -62 -3t-53.5 -12.5t-43.5 -30.5t-19 -52q-1 -50 41 -77t103 -26q78 0 151 50l28 -40q-82 -59 -180 -59
q-82 0 -140 38t-55 115q1 44 29.5 76.5t74.5 43.5q-40 6 -63.5 39.5t-23.5 72.5z" />
    <glyph glyph-name="zeta" unicode="&#x3b6;" horiz-adv-x="457" 
d="M451 700v-37q-54 -47 -85 -75t-87 -85.5t-88 -102t-58 -102t-26 -106.5q0 -75 76 -114q49 -25 164 -61q36 -12 56 -43.5t12 -69.5q-7 -28 -56 -100l-39 25q40 57 44 84q9 41 -39 60q-16 7 -79.5 26.5t-97.5 40.5q-93 53 -93 149q0 58 31 125t83.5 130.5t104 114.5
t110.5 100h-312v41h379z" />
    <glyph glyph-name="eta" unicode="&#x3b7;" horiz-adv-x="620" 
d="M148 411v-411h-52v507h45l7 -43q55 53 141 53q103 -2 172 -62.5t69 -163.5v-291h-52v291q-1 77 -56.5 126t-134.5 52q-90 2 -139 -58z" />
    <glyph glyph-name="theta" unicode="&#x3b8;" horiz-adv-x="641" 
d="M570 343q0 -76 -19 -145q-20 -64 -55 -111q-37 -44 -82 -69q-46 -24 -99 -24q-52 0 -99 25q-46 26 -80 71q-41 60 -55 112v-1q-21 59 -21 142q0 80 21 143q16 53 55 110q33 46 80 73q48 25 99 25q54 0 99 -25q46 -26 82 -71q35 -51 55 -112q19 -65 19 -143zM519 340h-406
q0 -62 13 -110q9 -42 34 -86t66 -73.5t89 -29.5q95 0 157 101q17 26 34 85q11 47 13 113zM114 382h404q-3 30 -12 74q-22 80 -70 136t-121 56t-120 -52.5t-69 -137.5q-10 -46 -12 -76z" />
    <glyph glyph-name="iota" unicode="&#x3b9;" horiz-adv-x="266" 
d="M215 42v-43q-63 1 -91 21t-28 87v400h53v-400q0 -38 14 -51.5t52 -13.5z" />
    <glyph glyph-name="kappa" unicode="&#x3ba;" horiz-adv-x="522" 
d="M96 507h49v-267l264 267h62l-217 -220q34 -42 113 -141t117 -146h-57l-206 252l-76 -69v-183h-49v507z" />
    <glyph glyph-name="lambda" unicode="&#x3bb;" horiz-adv-x="516" 
d="M101 654v46h22q45 2 71 -14.5t42 -63.5l207 -537q7 -16 12 -24t17.5 -14.5t30.5 -6.5v-40q-49 -1 -70 14.5t-36 57.5l-139 361l-175 -433h-54l203 494l-43 113q-11 28 -30.5 38.5t-57.5 8.5z" />
    <glyph glyph-name="nu" unicode="&#x3bd;" horiz-adv-x="488" 
d="M85 507l159 -469h4l157 469h55l-177 -511h-74l-178 511h54z" />
    <glyph glyph-name="xi" unicode="&#x3be;" horiz-adv-x="465" 
d="M333 -34l-36 13q-46 15 -70 24t-59 28.5t-53.5 39.5t-33.5 53t-17 75q0 57 33.5 106t93.5 68q-55 14 -82 54.5t-27 89.5q1 83 58 136.5t148 53.5q78 0 145 -43l-25 -37q-57 35 -119 35q-71 0 -114.5 -40t-41.5 -106q2 -52 41.5 -86t97.5 -35h97v-43h-97
q-70 -1 -113.5 -45t-43.5 -108q2 -32 16.5 -59t33 -44t51.5 -33t56 -24.5t63 -20.5q17 -6 27.5 -11t25 -12.5t22 -16t13.5 -20t4.5 -26.5t-8.5 -33q-19 -42 -52 -83l-37 25q34 43 43 75q7 19 -4 29.5t-36 20.5z" />
    <glyph glyph-name="omicron" unicode="&#x3bf;" horiz-adv-x="614" 
d="M107 253q0 -99 60 -159.5t139 -60.5t139.5 60.5t60.5 159.5t-60 158t-140 59q-79 0 -139 -59t-60 -158zM558 253q0 -108 -72.5 -186.5t-179.5 -78.5q-106 0 -178.5 78.5t-72.5 186.5t72.5 186.5t178.5 78.5q107 0 179.5 -78.5t72.5 -186.5z" />
    <glyph glyph-name="pi" unicode="&#x3c0;" horiz-adv-x="604" 
d="M98 507h403v-507h-53v461h-297v-461h-53v507z" />
    <glyph glyph-name="rho" unicode="&#x3c1;" horiz-adv-x="633" 
d="M328 -5q-61 2 -112.5 34t-75.5 87v-312h-49v455q1 66 27 121.5t80.5 92.5t129.5 38q75 -1 129.5 -38t80.5 -92.5t27 -121.5q2 -107 -60.5 -185t-176.5 -79zM335 462h-16q-80 0 -130.5 -67t-47.5 -145v-4q1 -73 50.5 -133t126.5 -70h21q76 0 124.5 63t49.5 140
q4 80 -45 148t-133 68z" />
    <glyph glyph-name="sigma1" unicode="&#x3c2;" horiz-adv-x="529" 
d="M301 -13l-19 5q-109 28 -170.5 88.5t-61.5 169.5q0 56 18 105q31 75 91 118t146 43q55 0 92.5 -13.5t82.5 -51.5l-32 -34q-52 50 -144 50q-91 0 -147 -59.5t-56 -158.5q0 -92 53 -140.5t154 -75.5q16 -4 26.5 -7.5l27 -9t27.5 -11t24 -13.5t20 -17.5t12.5 -21t5 -26
t-6.5 -30.5q-7 -22 -51 -83l-38 27q37 49 44 73q7 25 -17 42t-81 31z" />
    <glyph glyph-name="sigma" unicode="&#x3c3;" horiz-adv-x="614" 
d="M558 253q0 -119 -71 -192t-181 -73q-109 0 -180 74t-71 191q0 113 71.5 187t179.5 74h283v-41h-168q67 -25 102 -87t35 -133zM107 253q0 -106 59 -163t140 -57q84 0 142 53.5t58 166.5q0 99 -60 156t-140 57q-82 0 -140.5 -53.5t-58.5 -159.5z" />
    <glyph glyph-name="tau" unicode="&#x3c4;" horiz-adv-x="372" 
d="M301 40v-41q-75 -2 -113.5 29.5t-40.5 102.5v335h-113v41h296v-41h-130v-335q0 -48 24 -69t77 -22z" />
    <glyph glyph-name="upsilon" unicode="&#x3c5;" horiz-adv-x="625" 
d="M302 46q67 0 114.5 43.5t47.5 119.5v298h52v-298q1 -95 -61 -154.5t-153 -59.5q-88 2 -147.5 61.5t-58.5 152.5v298h51v-298q0 -75 45.5 -118t109.5 -45z" />
    <glyph glyph-name="phi" unicode="&#x3c6;" horiz-adv-x="699" 
d="M108 254q0 -94 60.5 -156.5t154.5 -63.5v479q101 2 159 -22q73 -29 114.5 -93.5t42.5 -143.5q-2 -151 -118 -222q-50 -32 -147 -39v-181h-51v181q-116 -2 -191 73t-75 188q0 157 148 240l24 -40q-69 -40 -95 -89t-26 -111zM374 469v-434q94 4 153.5 65t59.5 154
q0 64 -32 117.5t-88 78.5q-41 16 -93 19z" />
    <glyph glyph-name="chi" unicode="&#x3c7;" horiz-adv-x="518" 
d="M257 286l146 221h62l-174 -253q32 -44 95.5 -134.5t83.5 -119.5h-60l-153 224l-150 -224h-61l176 254q-32 45 -93 134.5t-81 118.5h63z" />
    <glyph glyph-name="psi" unicode="&#x3c8;" horiz-adv-x="762" 
d="M348 40v483h49v-483q80 5 122 32q91 59 93 181v254h51v-253q-2 -149 -116 -221q-48 -31 -150 -38v-191h-49v191q-101 7 -149 38q-58 35 -87.5 93.5t-29.5 127.5v253h51v-253q0 -58 23.5 -106t68.5 -76q41 -26 123 -32z" />
    <glyph glyph-name="omega" unicode="&#x3c9;" horiz-adv-x="795" 
d="M546 464l11 47q54 -10 94.5 -52t55.5 -90q17 -53 17 -114q0 -104 -49.5 -181.5t-139.5 -78.5q-20 0 -43 5q-78 23 -101 103q-27 -83 -101 -103q-22 -5 -42 -5q-90 1 -139 78t-49 182q0 65 15 114q16 49 55.5 90.5t94.5 51.5l10 -47q-69 -16 -97.5 -75t-28.5 -136
q0 -84 36.5 -146t102.5 -63q31 2 50 10q32 16 50 52.5t18 72.5v193h49v-193q2 -38 20 -73.5t49 -50.5q21 -8 51 -10q66 1 102 62.5t36 145.5q0 77 -29.5 136t-97.5 75z" />
    <glyph glyph-name="iotadieresis" unicode="&#x3ca;" horiz-adv-x="245" 
d="M215 42v-43q-63 1 -91 21t-28 87v400h53v-400q0 -38 14 -51.5t52 -13.5zM75 634h-61v62h61v-62zM235 634h-61v62h61v-62z" />
    <glyph glyph-name="upsilondieresis" unicode="&#x3cb;" horiz-adv-x="623" 
d="M302 46q67 0 114.5 43.5t47.5 119.5v298h52v-298q1 -95 -61 -154.5t-153 -59.5q-88 2 -147.5 61.5t-58.5 152.5v298h51v-298q0 -75 45.5 -118t109.5 -45zM253 632h-61v62h61v-62zM426 632h-61v62h61v-62z" />
    <glyph glyph-name="omicrontonos" unicode="&#x3cc;" horiz-adv-x="614" 
d="M107 253q0 99 60 158t139 59q80 0 140 -59t60 -158t-60.5 -159.5t-139.5 -60.5t-139 60.5t-60 159.5zM558 253q0 108 -72.5 186.5t-179.5 78.5q-106 0 -178.5 -78.5t-72.5 -186.5t72.5 -186.5t178.5 -78.5q107 0 179.5 78.5t72.5 186.5zM401 688l-76 -104h-46l60 104h62z
" />
    <glyph glyph-name="upsilontonos" unicode="&#x3cd;" horiz-adv-x="625" 
d="M302 46q-64 2 -109.5 45t-45.5 118v298h-51v-298q-1 -93 58.5 -152.5t147.5 -61.5q91 0 153 59.5t61 154.5v298h-52v-298q0 -76 -47.5 -119.5t-114.5 -43.5zM393 692l-76 -104h-46l60 104h62z" />
    <glyph glyph-name="omegatonos" unicode="&#x3ce;" horiz-adv-x="795" 
d="M557 511l-11 -47q68 -16 97.5 -75t29.5 -136q0 -84 -36 -145.5t-102 -62.5q-30 2 -51 10q-31 15 -49 50.5t-20 73.5v193h-49v-193q0 -36 -18 -72.5t-50 -52.5q-19 -8 -50 -10q-66 1 -102.5 63t-36.5 146q0 77 28.5 136t97.5 75l-10 47q-55 -10 -94.5 -51.5t-55.5 -90.5
q-15 -49 -15 -114q0 -105 49 -182t139 -78q20 0 42 5q74 20 101 103q23 -80 101 -103q23 -5 43 -5q90 1 139.5 78.5t49.5 181.5q0 61 -17 114q-15 48 -55.5 90t-94.5 52zM485 692l-76 -104h-43l60 104h59z" />
    <glyph glyph-name="afii10023" unicode="&#x401;" horiz-adv-x="532" 
d="M455 701v-48h-294v-276h290v-51h-291v-276h295v-49h-349v700h349zM237 758h-61v62h61v-62zM410 758h-61v62h61v-62z" />
    <glyph glyph-name="afii10051" unicode="&#x402;" horiz-adv-x="710" 
d="M401 -1v44q83 7 123 41.5t40 125.5v86q0 82 -47 127.5t-124 45.5q-76 0 -133 -54v-415h-53v658h-182v42h417v-42h-181v-184q56 41 136 43q97 0 159.5 -60.5t61.5 -160.5v-86q1 -105 -55.5 -157t-161.5 -54z" />
    <glyph glyph-name="afii10052" unicode="&#x403;" horiz-adv-x="522" 
d="M473 700v-45h-303v-655h-53v700h356zM280 747l62 103h52l-71 -103h-43z" />
    <glyph glyph-name="afii10053" unicode="&#x404;" horiz-adv-x="728" 
d="M480 373v-45h-365q7 -123 89.5 -205t210.5 -82q62 0 121.5 28.5t102.5 79.5l36 -30q-49 -60 -117 -93.5t-143 -33.5q-160 0 -257 103t-97 252t95.5 254.5t258.5 105.5q142 0 244 -108l-35 -30q-43 44 -91 67t-118 23q-126 0 -208.5 -79t-90.5 -207h364z" />
    <glyph glyph-name="afii10054" unicode="&#x405;" 
d="M131 529q-2 -28 8 -50.5t24 -36.5t38 -25.5t40.5 -17t40.5 -11.5q210 -53 202 -220q-7 -82 -71 -129.5t-143 -47.5q-64 0 -122 36t-85 100q7 4 22 12t21 11q23 -49 67 -78t98 -29q68 -1 112 35t48 94q3 38 -11 68t-42 48.5t-53 29t-58 19.5q-40 11 -68 23t-59.5 34
t-47 57t-14.5 81q3 85 61 132t135 47q62 0 115.5 -32t78.5 -90l-42 -21q-22 42 -64 66t-86 24q-57 1 -99 -32.5t-46 -96.5z" />
    <glyph glyph-name="afii10055" unicode="&#x406;" horiz-adv-x="286" 
d="M116 0v700h54v-700h-54z" />
    <glyph glyph-name="afii10056" unicode="&#x407;" horiz-adv-x="285" 
d="M116 0v700h54v-700h-54zM87 743h-61v62h61v-62zM260 743h-61v62h61v-62z" />
    <glyph glyph-name="afii10057" unicode="&#x408;" horiz-adv-x="549" 
d="M51 154l48 13q16 -61 59.5 -93t94.5 -32q57 0 99 41t42 109v461h-135v47h189v-508q0 -94 -57.5 -147t-136.5 -53q-69 0 -126 42.5t-77 119.5z" />
    <glyph glyph-name="afii10058" unicode="&#x409;" horiz-adv-x="913" 
d="M489 700v-294h137q104 0 163 -60t59 -143q0 -82 -59 -142.5t-164 -60.5h-190v655h-235l-6 -304q-3 -130 -15 -181q-29 -121 -145 -183l-23 41q31 19 53 38.5t36 45.5t22 43t12 53.5t5 52t3 60.5l8 379h339zM625 362h-136v-318h136q79 0 124 48t45 112t-45 111t-124 47z
" />
    <glyph glyph-name="afii10059" unicode="&#x40a;" horiz-adv-x="934" 
d="M510 700v-311h137q105 0 163 -56.5t58 -135.5q0 -80 -58.5 -138.5t-163.5 -58.5h-190v346h-287v-346h-54v700h54v-311h287v311h54zM646 346h-136v-303h136q79 0 123.5 46t44.5 108q0 61 -44.5 105t-123.5 44z" />
    <glyph glyph-name="afii10060" unicode="&#x40b;" horiz-adv-x="716" 
d="M618 0h-54v296q0 82 -47 127.5t-124 45.5q-76 0 -133 -54v-415h-53v657h-182v43h417v-43h-181v-186q60 44 136 46q97 0 159.5 -60.5t61.5 -160.5v-296z" />
    <glyph glyph-name="afii10061" unicode="&#x40c;" horiz-adv-x="634" 
d="M116 700h53v-375l347 375h61l-275 -310l292 -390h-64l-267 353l-94 -92v-261h-53v700zM300 741l64 107h54l-76 -107h-42z" />
    <glyph glyph-name="afii10062" unicode="&#x40e;" horiz-adv-x="559" 
d="M86 700l206 -434l189 434h56l-270 -612q-26 -59 -55 -73.5t-107 -14.5l-1 42h25q38 0 58 14t36 51l43 100l-236 493h56zM286 742q-48 0 -78.5 27t-37.5 70h41q4 -28 26.5 -43.5t48 -15.5t48 15.5t27.5 43.5h38q-2 -45 -35 -71t-78 -26z" />
    <glyph glyph-name="afii10145" unicode="&#x40f;" horiz-adv-x="675" 
d="M313 -108v108h-198v700h53v-655h337v655h53v-700h-198v-108h-47z" />
    <glyph glyph-name="bgA" unicode="&#x410;" horiz-adv-x="636" 
d="M28 0l248 707h81q41 -116 125.5 -354t126.5 -353h-57l-84 234h-301l-81 -234h-58zM186 284h265l-134 388z" />
    <glyph glyph-name="afii10018" unicode="&#x411;" horiz-adv-x="606" 
d="M169 653v-237h139q106 0 165 -61t59 -146q0 -84 -59.5 -146.5t-165.5 -62.5h-192v700h365v-47h-311zM307 367h-138v-321h138q80 0 126 49t46 114q0 64 -45.5 111t-126.5 47z" />
    <glyph glyph-name="afii10019" unicode="&#x412;" horiz-adv-x="613" 
d="M170 395h143q67 0 105 37.5t38 87.5q0 51 -38 92.5t-105 41.5h-143v-259zM313 347h-143v-299h143q81 0 127 47t46 105q0 57 -46 102t-127 45zM508 519q0 -107 -101 -146q71 -25 102 -72t30 -103q0 -95 -64.5 -146.5t-162.5 -51.5h-196v700h197q81 0 138 -50.5t57 -130.5z
" />
    <glyph glyph-name="afii10020" unicode="&#x413;" horiz-adv-x="522" 
d="M473 700v-45h-303v-655h-53v700h356z" />
    <glyph glyph-name="afii10021" unicode="&#x414;" horiz-adv-x="708" 
d="M583 47h47v-202h-48v155h-493v-155h-48v194l41 8q18 13 32.5 35t22 38.5t14 51t8 45.5t4.5 52t3 42q3 44 4 56l21 333h392v-653zM138 47h393v610h-290l-17 -292l-3 -46q-3 -60 -8.5 -102.5t-24.5 -93.5t-50 -76z" />
    <glyph glyph-name="afii10022" unicode="&#x415;" horiz-adv-x="546" 
d="M463 701v-52h-294v-272h290v-51h-291v-273h295v-52h-349v700h349z" />
    <glyph glyph-name="afii10024" unicode="&#x416;" horiz-adv-x="875" 
d="M403 700h53v-343l301 343h64l-279 -319l291 -381h-64l-264 345l-49 -57v-288h-53v289l-52 56l-265 -345h-63l294 380l-280 320h66l300 -343v343z" />
    <glyph glyph-name="afii10025" unicode="&#x417;" horiz-adv-x="552" 
d="M45 114l37 28q34 -57 77.5 -80.5t102.5 -23.5q72 0 120 45t48 118q0 62 -46.5 109.5t-107.5 48.5h-93v46h93q53 0 94.5 35t42.5 89q-2 62 -47 98.5t-108 36.5q-40 0 -82 -22t-70 -60l-38 24q33 51 84 77.5t108 26.5q82 0 143.5 -49t61.5 -132q0 -49 -29.5 -91.5
t-79.5 -57.5q60 -19 93.5 -70t33.5 -110q0 -91 -65 -151t-157 -59q-152 2 -216 124z" />
    <glyph glyph-name="afii10026" unicode="&#x418;" horiz-adv-x="737" 
d="M553 700h67v-700h-54v620l-367 -620h-84v700h54v-648z" />
    <glyph glyph-name="afii10027" unicode="&#x419;" horiz-adv-x="737" 
d="M553 700h67v-700h-54v620l-367 -620h-84v700h54v-648zM376 742q-50 0 -83 28.5t-40 74.5h43q5 -30 28.5 -46.5t51 -16.5t51.5 16.5t29 46.5h40q-2 -48 -37 -75.5t-83 -27.5z" />
    <glyph glyph-name="afii10028" unicode="&#x41a;" horiz-adv-x="634" 
d="M116 700h53v-375l347 375h61l-275 -310l292 -390h-64l-267 353l-94 -92v-261h-53v700z" />
    <glyph glyph-name="afii10029" unicode="&#x41b;" horiz-adv-x="643" 
d="M145 327l15 374h370v-701h-53v657h-269l-12 -327q-1 -47 -3.5 -76.5t-11.5 -72.5t-25 -73t-46.5 -62t-73.5 -55l-22 35q36 22 60.5 49.5t37.5 52t20.5 63t9 63.5t3.5 73z" />
    <glyph glyph-name="afii10030" unicode="&#x41c;" horiz-adv-x="855" 
d="M455 107h-53l-233 533v-640h-53v701h82l230 -534q37 83 114.5 267t113.5 267h84v-701h-53l1 640z" />
    <glyph glyph-name="afii10031" unicode="&#x41d;" horiz-adv-x="688" 
d="M522 0v323h-354v-323h-54v700h54v-326h354v326h53v-700h-53z" />
    <glyph glyph-name="afii10032" unicode="&#x41e;" horiz-adv-x="824" 
d="M412 711q-152 0 -249 -106.5t-97 -255.5q0 -86 29.5 -156t78.5 -113t111 -66.5t127 -23.5t127 23.5t111 66.5t78.5 113t29.5 156q0 96 -43.5 178.5t-123.5 133t-179 50.5zM120 349q0 74 25 134.5t66 98t93.5 57.5t107.5 20.5t107.5 -19.5t93.5 -57.5t66 -98t25 -135.5
q0 -74 -25 -134.5t-66 -97t-93.5 -56.5t-107.5 -20t-107.5 20t-93.5 57t-66 97t-25 134z" />
    <glyph glyph-name="afii10033" unicode="&#x41f;" horiz-adv-x="674" 
d="M559 0h-53v655h-337v-655h-53v700h443v-700z" />
    <glyph glyph-name="afii10034" unicode="&#x420;" horiz-adv-x="587" 
d="M169 267v-267h-53v701h197q61 -1 108.5 -25t72.5 -62.5t37 -85t0.5 -92.5t-35.5 -84t-72 -61.5t-110 -23.5h-145zM169 317h144q55 2 95 26.5t57.5 60.5t16.5 78t-19 78t-57.5 61.5t-92.5 28.5h-144v-333z" />
    <glyph glyph-name="afii10035" unicode="&#x421;" horiz-adv-x="733" 
d="M650 615l-36 -36q-90 85 -202 82q-90 -1 -158 -49t-100 -117.5t-32 -146.5q0 -76 32.5 -145.5t100.5 -116.5t157 -47q59 0 119 27t102 70l38 -31q-50 -54 -117.5 -86t-141.5 -32q-81 0 -148 31.5t-109 83t-65 115t-23 131.5t23 132t65 116t109 84t148 32q138 0 238 -97z
" />
    <glyph glyph-name="afii10036" unicode="&#x422;" horiz-adv-x="455" 
d="M25 700h405v-45h-176v-655h-53v655h-176v45z" />
    <glyph glyph-name="afii10037" unicode="&#x423;" horiz-adv-x="559" 
d="M86 700l206 -434l189 434h56l-270 -612q-26 -59 -55 -73.5t-107 -14.5l-1 42h25q38 0 58 14t36 51l43 100l-236 493h56z" />
    <glyph glyph-name="afii10038" unicode="&#x424;" horiz-adv-x="822" 
d="M384 640v61h52v-61q150 -5 234.5 -89.5t84.5 -198.5q0 -73 -34.5 -136.5t-109 -107t-175.5 -46.5v-63h-52v63q-151 4 -236.5 89.5t-85.5 199.5t85.5 199t236.5 90zM436 596v-491q125 4 195 76t70 170q0 99 -70 169.5t-195 75.5zM116 352q0 -98 71 -170.5t197 -76.5v491
q-125 -5 -196.5 -76t-71.5 -168z" />
    <glyph glyph-name="afii10039" unicode="&#x425;" horiz-adv-x="647" 
d="M600 700l-237 -350l240 -350h-62l-212 311l-213 -311h-62l241 350l-237 350h62l209 -312l208 312h63z" />
    <glyph glyph-name="afii10040" unicode="&#x426;" horiz-adv-x="676" 
d="M553 47h48v-201h-49v154h-442v700h53v-653h335v653h55v-653z" />
    <glyph glyph-name="afii10041" unicode="&#x427;" horiz-adv-x="628" 
d="M512 700v-700h-53v283q-61 -24 -135 -24q-109 0 -183.5 53.5t-74.5 159.5v228h54v-228q0 -81 60.5 -125t146.5 -44q68 0 132 24v373h53z" />
    <glyph glyph-name="afii10042" unicode="&#x428;" horiz-adv-x="1022" 
d="M117 700h54v-655h312v655h54v-655h312v655h54v-700h-786v700z" />
    <glyph glyph-name="afii10043" unicode="&#x429;" horiz-adv-x="1031" 
d="M118 700h53v-655h312v655h54v-655h312v655h55v-655h49v-199h-50v154h-785v700z" />
    <glyph glyph-name="afii10044" unicode="&#x42a;" horiz-adv-x="645" 
d="M360 366h-135v-319h135q79 1 123.5 48t44.5 110q0 64 -44.5 112t-123.5 49zM225 700v-289h136q104 0 162 -61t58 -145q0 -83 -58 -144t-163 -61h-188v658h-145v42h198z" />
    <glyph glyph-name="afii10045" unicode="&#x42b;" horiz-adv-x="826" 
d="M304 364h-135v-317h135q79 1 123 48t44 110q0 64 -44 111t-123 48zM169 700v-289h136q103 0 161.5 -61t58.5 -145q0 -83 -58.5 -144t-162.5 -61h-189v700h54zM653 0v700h54v-700h-54z" />
    <glyph glyph-name="afii10046" unicode="&#x42c;" horiz-adv-x="584" 
d="M303 364h-135v-316h135q79 1 123 47.5t44 109.5q0 64 -44 111t-123 48zM168 700v-289h136q104 0 162 -61t58 -145q0 -83 -58.5 -144t-162.5 -61h-189v700h54z" />
    <glyph glyph-name="afii10047" unicode="&#x42d;" horiz-adv-x="728" 
d="M249 328v45h364q-8 128 -90.5 207t-208.5 79q-70 0 -118 -23t-91 -67l-35 30q102 108 244 108q163 0 258.5 -105.5t95.5 -254.5t-97 -252t-257 -103q-75 0 -143 33.5t-117 93.5l36 30q43 -51 102.5 -79.5t121.5 -28.5q128 0 210.5 82t89.5 205h-365z" />
    <glyph glyph-name="afii10048" unicode="&#x42e;" horiz-adv-x="1067" 
d="M634 710q157 -2 256 -103.5t99 -258.5q0 -58 -13 -110q-11 -42 -42 -91q-19 -32 -60 -71q-48 -36 -74 -49q-38 -19 -82 -30q-39 -9 -84 -9q-54 0 -100 14h1q-78 22 -141 80t-92 134q-15 40 -20 110h-112v-326h-54v700h54v-328h112q6 67 32.5 131t70.5 109q99 98 249 98z
M634 662q-125 0 -212 -87q-84 -86 -86 -227q2 -67 18 -111q23 -67 75 -116.5t120 -71.5q43 -13 85 -13q43 0 86 13q48 15 82 38q45 31 69 61q31 38 48 87l-1 -1q17 60 17 114q0 134 -84 223.5t-217 90.5z" />
    <glyph glyph-name="afii10049" unicode="&#x42f;" horiz-adv-x="612" 
d="M54 0l233 301q-110 2 -164 52.5t-53 147.5q1 95 61.5 147t159.5 52h205v-700h-53v299h-97l-227 -299h-65zM296 345h147v307h-151q-77 0 -124 -38.5t-47 -112.5q0 -156 175 -156z" />
    <glyph glyph-name="bga" unicode="&#x430;" 
d="M427 105v138q-63 40 -143 40q-110 0 -155 -61.5t-2.5 -123.5t147.5 -62q41 0 83.5 18.5t69.5 50.5zM478 0h-40l-10 54q-66 -63 -154 -65q-82 -1 -138.5 34t-69.5 85.5t1 101t72.5 86.5t143.5 37q73 0 144 -42v24q0 77 -45.5 114.5t-113.5 37.5q-75 0 -146 -44l-26 36
q75 57 175 57q85 0 146 -52.5t61 -148.5v-315z" />
    <glyph glyph-name="afii10066" unicode="&#x431;" horiz-adv-x="640" 
d="M105 382h2q30 65 89.5 96t121.5 31q104 -1 178.5 -66t75.5 -190q0 -113 -73 -189t-183 -72q-77 0 -140 40.5t-93 112.5q-16 39 -23 132q-14 223 108 336q94 80 252 80q51 0 52 45h45q1 -48 -28 -69.5t-67 -21.5q-75 0 -126.5 -13t-97.5 -56q-73 -66 -93 -196zM111 253
q0 -39 12 -78q22 -64 74.5 -99.5t118.5 -35.5q90 0 147 59.5t57 153.5q-1 101 -60.5 154.5t-142.5 54.5q-82 1 -144 -55t-62 -154z" />
    <glyph glyph-name="afii10067" unicode="&#x432;" horiz-adv-x="580" 
d="M102 0v507h198q47 0 85.5 -10t69 -40.5t30.5 -79.5q0 -40 -24.5 -71t-64.5 -42q48 -9 75.5 -42.5t29.5 -76.5q2 -52 -28.5 -86t-72 -46t-92.5 -13h-206zM300 462h-147v-177h152q45 0 71 10q24 10 41 33t16 49q-1 32 -23 52t-49.5 26.5t-60.5 6.5zM295 242h-142v-197h155
q57 0 101 24t42 75q-1 28 -18.5 50.5t-44.5 32.5q-38 15 -93 15z" />
    <glyph glyph-name="afii10068" unicode="&#x433;" horiz-adv-x="469" 
d="M100 0v507h323v-46h-270v-461h-53z" />
    <glyph glyph-name="afii10069" unicode="&#x434;" horiz-adv-x="633" 
d="M517 507v-461h41v-173h-49v127h-429v-127h-50v173h42q25 14 38 45.5t15.5 60t2.5 75.5v280h389zM130 46h335v420h-286v-239q0 -137 -49 -181z" />
    <glyph glyph-name="afii10070" unicode="&#x435;" horiz-adv-x="603" 
d="M306 42q100 0 153 66l39 -27q-72 -88 -192 -88q-59 0 -107 23.5t-77.5 62t-45 85t-15.5 94.5q0 102 65.5 178.5t178.5 77.5q102 1 168.5 -69.5t66.5 -173.5q0 -7 -2 -33h-429q6 -80 58.5 -138t138.5 -58zM109 282h385q-4 81 -57 131.5t-132 52.5q-85 -1 -135 -52
t-61 -132z" />
    <glyph glyph-name="afii10072" unicode="&#x436;" horiz-adv-x="756" 
d="M348 507h48v-248l238 249h60l-210 -225l224 -283h-60l-198 256l-54 -49v-207h-48v206l-53 50l-200 -256h-58l225 283l-211 224h62l235 -246v246z" />
    <glyph glyph-name="afii10073" unicode="&#x437;" horiz-adv-x="462" 
d="M388 378q0 -36 -23 -69t-61 -44q44 -11 71.5 -46t29.5 -74q3 -78 -54 -116.5t-138 -38.5q-91 0 -178 63l27 39q68 -52 151 -52q61 0 101.5 27t38.5 77q-1 27 -19 49t-46 35q-33 12 -110 12h-33v45h37q58 -2 95 12l-1 -1q25 10 43 33t17 49q-1 44 -37.5 66.5t-88.5 22.5
q-84 0 -132 -46l-28 36q62 57 158 57q73 0 126 -35t54 -101z" />
    <glyph glyph-name="afii10074" unicode="&#x438;" horiz-adv-x="619" 
d="M469 424l-318 -424h-51v507h52v-428l320 428h49v-507h-52v424z" />
    <glyph glyph-name="afii10075" unicode="&#x439;" horiz-adv-x="619" 
d="M469 424l-318 -424h-51v507h52v-428l320 428h49v-507h-52v424zM315 587q-49 0 -83.5 28t-36.5 74h40q6 -41 43 -57t73.5 0t43.5 57h37q-2 -48 -36.5 -75t-80.5 -27z" />
    <glyph glyph-name="afii10076" unicode="&#x43a;" horiz-adv-x="521" 
d="M96 508h49v-269l264 268h62l-217 -220l230 -287h-57l-206 252l-76 -69v-183h-49v508z" />
    <glyph glyph-name="afii10077" unicode="&#x43b;" horiz-adv-x="573" 
d="M171 229q0 -40 -3.5 -68t-15 -60.5t-37 -59t-66.5 -48.5l-24 39q20 11 35 24.5t25 26t16.5 32t10 31.5t5 36.5t1.5 35v37.5v252h355v-507h-53v460h-249v-231z" />
    <glyph glyph-name="afii10078" unicode="&#x43c;" horiz-adv-x="691" 
d="M102 507h58l188 -345l188 345h56v-507h-52v410l-169 -311h-48l-168 312v-411h-53v507z" />
    <glyph glyph-name="afii10079" unicode="&#x43d;" horiz-adv-x="604" 
d="M98 507h53v-230h297v230h53v-507h-53v231h-297v-231h-53v507z" />
    <glyph glyph-name="afii10080" unicode="&#x43e;" horiz-adv-x="614" 
d="M107 253q0 -99 60 -159.5t139 -60.5t139.5 60.5t60.5 159.5t-60 158t-140 59q-79 0 -139 -59t-60 -158zM558 253q0 -108 -72.5 -186.5t-179.5 -78.5q-106 0 -178.5 78.5t-72.5 186.5t72.5 186.5t178.5 78.5q107 0 179.5 -78.5t72.5 -186.5z" />
    <glyph glyph-name="afii10081" unicode="&#x43f;" horiz-adv-x="604" 
d="M98 507h403v-507h-53v461h-297v-461h-53v507z" />
    <glyph glyph-name="afii10082" unicode="&#x440;" horiz-adv-x="584" 
d="M278 510q51 0 94 -17.5t70.5 -47t47 -68t24 -81t1 -85t-22.5 -81t-45.5 -68.5t-68.5 -48t-92 -19q-94 -2 -139 56v-247h-51v703h44l8 -48q52 51 130 51zM276 42q60 1 104 32t64 76.5t21 99t-17.5 99.5t-60 78.5t-99.5 36.5q-90 3 -140 -58v-294q52 -70 128 -70z" />
    <glyph glyph-name="afii10083" unicode="&#x441;" horiz-adv-x="530" 
d="M467 454l-28 -34q-54 45 -134 45q-79 1 -137 -58.5t-59 -156.5q0 -81 53 -144.5t144 -63.5q75 0 136 50q7 -9 17.5 -20.5t13.5 -15.5q-70 -64 -167 -64q-115 0 -182 78t-67 181t67.5 182.5t181.5 80.5q98 0 161 -60z" />
    <glyph glyph-name="afii10084" unicode="&#x442;" horiz-adv-x="471" 
d="M34 462v45h397v-45h-172v-462h-54v462h-171z" />
    <glyph glyph-name="afii10085" unicode="&#x443;" horiz-adv-x="508" 
d="M104 -181v43q42 -1 63 13t34 46l29 77l-207 509h56l179 -455l171 455h56l-235 -603q-31 -85 -130 -85h-16z" />
    <glyph glyph-name="afii10086" unicode="&#x444;" horiz-adv-x="700" 
d="M108 253q-3 -91 59 -153.5t154 -64.5v437q-93 -1 -154 -65t-59 -154zM373 472v-437q95 1 153.5 62.5t58.5 155.5q0 92 -59.5 155t-152.5 64zM321 700h52v-186q115 -2 190 -76t75 -185q0 -113 -72.5 -185.5t-192.5 -74.5v-182h-52v182q-116 2 -192 75.5t-73 184.5
q-1 110 74 183.5t191 77.5v186z" />
    <glyph glyph-name="afii10087" unicode="&#x445;" horiz-adv-x="518" 
d="M257 286l146 221h62l-174 -253q32 -44 95.5 -134.5t83.5 -119.5h-60l-153 224l-150 -224h-61l176 254q-32 45 -93 134.5t-81 118.5h63z" />
    <glyph glyph-name="afii10088" unicode="&#x446;" horiz-adv-x="617" 
d="M449 507h53v-460h42l-1 -174h-46v127h-399v507h53v-460h298v460z" />
    <glyph glyph-name="afii10089" unicode="&#x447;" horiz-adv-x="569" 
d="M467 0h-53v184q-57 -22 -126 -22q-96 0 -161 55t-65 158v132h53v-132q0 -80 51 -123.5t126 -43.5q65 0 122 25v274h53v-507z" />
    <glyph glyph-name="afii10090" unicode="&#x448;" horiz-adv-x="900" 
d="M474 46h269v461h53v-507h-696v507h53v-461h270v461h51v-461z" />
    <glyph glyph-name="afii10091" unicode="&#x449;" horiz-adv-x="913" 
d="M475 46h268v461h54v-460h42l-1 -174h-47v127h-691v507h54v-461h269v461h52v-461z" />
    <glyph glyph-name="afii10092" unicode="&#x44a;" horiz-adv-x="621" 
d="M212 507v-204h156q79 0 131.5 -37t52.5 -115t-52.5 -114.5t-131.5 -36.5h-207v465h-132v42h183zM368 259h-156v-214h156q56 0 95 26t39 80q0 55 -38.5 81t-95.5 27z" />
    <glyph glyph-name="afii10093" unicode="&#x44b;" horiz-adv-x="755" 
d="M150 507v-206h156q79 0 132 -36t53 -114t-53 -114.5t-132 -36.5h-207v507h51zM306 259h-156v-216h156q56 0 95 27t39 81q0 55 -38.5 81t-95.5 27zM599 0v507h51v-507h-51z" />
    <glyph glyph-name="afii10094" unicode="&#x44c;" horiz-adv-x="556" 
d="M149 507v-207h156q79 0 131.5 -35.5t52.5 -113.5t-52.5 -114.5t-131.5 -36.5h-207v507h51zM305 259h-156v-216h156q56 0 95 27t39 81q0 55 -38.5 81t-95.5 27z" />
    <glyph glyph-name="afii10095" unicode="&#x44d;" horiz-adv-x="525" 
d="M220 468q-80 0 -143 -57l-33 31q80 75 175 73q109 -1 179.5 -77.5t70.5 -187.5q0 -110 -69.5 -183t-179.5 -74q-52 0 -90 15q-34 11 -88 56l30 35q69 -59 148 -59q85 1 138.5 54t58.5 138h-274v44h274q-7 78 -63.5 135t-133.5 57z" />
    <glyph glyph-name="afii10096" unicode="&#x44e;" horiz-adv-x="829" 
d="M297 252q0 -82 44 -139q30 -33 73 -53t86 -20q58 0 111 31q92 55 92 181q0 95 -61 155q-60 58 -142 58q-59 0 -112 -33q-57 -35 -79 -101q-12 -35 -12 -79zM150 231v-231h-51v507h51v-231h95q3 40 21 83q31 72 96 114q62 40 138 40q106 0 178 -70q76 -76 76 -191
q0 -152 -117 -222q-58 -38 -137 -38q-58 1 -110.5 25t-87.5 67q-52 66 -57 147h-95z" />
    <glyph glyph-name="bgq" unicode="&#x44f;" horiz-adv-x="549" 
d="M446 507v-507h-51v221h-101l-186 -221h-58l180 221q-170 4 -170 143q0 143 178 143h208zM238 265h157v195h-157q-128 -2 -128 -96q0 -99 128 -99z" />
    <glyph glyph-name="afii10071" unicode="&#x451;" horiz-adv-x="602" 
d="M306 42q100 0 153 66l39 -27q-72 -88 -192 -88q-59 0 -107 23.5t-77.5 62t-45 85t-15.5 94.5q0 102 65.5 178.5t178.5 77.5q102 1 168.5 -69.5t66.5 -173.5q0 -7 -2 -33h-429q6 -80 58.5 -138t138.5 -58zM109 282h385q-4 81 -57 131.5t-132 52.5q-85 -1 -135 -52
t-61 -132zM247 622h-61v62h61v-62zM420 622h-61v62h61v-62z" />
    <glyph glyph-name="afii10099" unicode="&#x452;" horiz-adv-x="592" 
d="M31 581v41h68v78h54v-78h138v-41h-138v-114q61 40 133 42q93 -6 155.5 -63.5t62.5 -153.5v-85q0 -107 -50.5 -158t-157.5 -50v43q83 1 118.5 39.5t35.5 125.5v85q0 76 -50 121.5t-118 45.5q-80 0 -130 -58v-401h-53v581h-68z" />
    <glyph glyph-name="afii10100" unicode="&#x453;" horiz-adv-x="470" 
d="M100 0v507h323v-46h-270v-461h-53zM240 584l64 107h54l-76 -107h-42z" />
    <glyph glyph-name="afii10101" unicode="&#x454;" horiz-adv-x="525" 
d="M302 468q-77 0 -133.5 -57t-63.5 -135h274v-44h-274q5 -85 58.5 -138t138.5 -54q79 0 148 59l30 -35q-54 -45 -88 -56q-38 -15 -90 -15q-110 1 -179.5 74t-69.5 183q0 111 70.5 187.5t179.5 77.5q95 2 175 -73l-33 -31q-63 57 -143 57z" />
    <glyph glyph-name="afii10102" unicode="&#x455;" horiz-adv-x="443" 
d="M229 279q68 -14 112.5 -48.5t44.5 -93.5q0 -69 -53.5 -107.5t-117.5 -38.5q-99 0 -155 73q23 23 31 32q30 -41 87 -54t105 12.5t52 83.5q-1 38 -36.5 62t-79.5 33q-64 11 -106 45t-43 92q0 71 54.5 110.5t126 34.5t118.5 -49l-31 -34q-32 31 -84 35.5t-92.5 -22
t-40.5 -75.5q1 -69 108 -91z" />
    <glyph glyph-name="afii10103" unicode="&#x456;" horiz-adv-x="245" 
d="M149 0h-53v508h53v-508zM150 699v-77h-55v77h55z" />
    <glyph glyph-name="afii10104" unicode="&#x457;" horiz-adv-x="245" 
d="M149 0h-53v508h53v-508zM67 636h-61v62h61v-62zM240 636h-61v62h61v-62z" />
    <glyph glyph-name="afii10105" unicode="&#x458;" horiz-adv-x="245" 
d="M-7 -189v45q50 0 76.5 26t26.5 71v555h53v-555q0 -71 -43 -108t-113 -34zM148 700v-75h-55v75h55z" />
    <glyph glyph-name="afii10106" unicode="&#x459;" horiz-adv-x="828" 
d="M98 507h318v-207h156q51 0 91 -13t67.5 -47.5t27.5 -88.5q0 -77 -53.5 -114t-132.5 -37h-207v462h-214v-233q0 -41 -3.5 -68.5t-15 -60t-37 -59t-66.5 -48.5l-27 37q28 15 47 34t28.5 36t14.5 45t5.5 45t0.5 52v265zM572 258h-156v-212h156q57 0 96.5 25.5t39.5 79.5
q0 55 -39 80.5t-97 26.5z" />
    <glyph glyph-name="afii10107" unicode="&#x45a;" horiz-adv-x="881" 
d="M415 507h52v-214h156q81 0 133.5 -33t52.5 -111q0 -77 -53 -113t-133 -36h-208v250h-260v-250h-54v507h54v-214h260v214zM623 251h-156v-206h156q58 0 97.5 25t39.5 79t-39 77.5t-98 24.5z" />
    <glyph glyph-name="afii10108" unicode="&#x45b;" horiz-adv-x="610" 
d="M32 587v38h64v75h52v-75h127v-38h-127v-101q57 28 131 30q105 2 173.5 -59.5t68.5 -168.5v-288h-52v288q-1 84 -55 132.5t-135 48.5q-70 0 -131 -28v-441h-52v587h-64z" />
    <glyph glyph-name="afii10109" unicode="&#x45c;" horiz-adv-x="520" 
d="M96 508h49v-269l264 268h62l-217 -220l230 -287h-57l-206 252l-76 -69v-183h-49v508zM240 584l64 107h54l-76 -107h-42z" />
    <glyph glyph-name="afii10110" unicode="&#x45e;" horiz-adv-x="508" 
d="M104 -181v43q42 -1 63 13t34 46l29 77l-207 509h56l179 -455l171 455h56l-235 -603q-31 -85 -130 -85h-16zM255 590q-49 0 -83.5 28t-36.5 74h40q6 -41 43 -57t73.5 0t43.5 57h37q-2 -48 -36.5 -75t-80.5 -27z" />
    <glyph glyph-name="afii10193" unicode="&#x45f;" horiz-adv-x="603" 
d="M282 -116v116h-180v506h53v-462h297v462h53v-506h-175v-116h-48z" />
    <glyph glyph-name="afii10050" unicode="&#x490;" horiz-adv-x="522" 
d="M473 788v-131h-303v-657h-53v700h310v88h46z" />
    <glyph glyph-name="afii10098" unicode="&#x491;" horiz-adv-x="469" 
d="M100 0v507h278v84h45v-129h-270v-462h-53z" />
    <glyph glyph-name="uni1E9E" unicode="&#x1e9e;" horiz-adv-x="589" 
d="M153 533v-533h-51v533q0 48 20.5 86t53.5 58t73.5 29.5t81 1t74 -27.5t54.5 -57t21 -86q0 -45 -25 -89.5t-77 -66.5q68 -24 107.5 -73t38.5 -112q2 -96 -60.5 -151.5t-149.5 -55.5q-42 0 -88 13v44q30 -10 73 -10q86 0 129.5 47t43.5 113q0 60 -47 108t-126 48h-46v49h46
q61 0 97 44.5t33 94.5q0 81 -69 112t-138 -4t-69 -115z" />
    <glyph glyph-name="thinspace" unicode="&#x2009;" horiz-adv-x="14" 
 />
    <glyph glyph-name="endash" unicode="&#x2013;" horiz-adv-x="701" 
d="M110 256v48h483v-48h-483z" />
    <glyph glyph-name="emdash" unicode="&#x2014;" horiz-adv-x="871" 
d="M110 256v44h662v-44h-662z" />
    <glyph glyph-name="afii00208" unicode="&#x2015;" horiz-adv-x="871" 
d="M110 256v44h662v-44h-662z" />
    <glyph glyph-name="quoteleft" unicode="&#x2018;" horiz-adv-x="241" 
d="M179 707l-51 -191h-60l70 191h41z" />
    <glyph glyph-name="quoteright" unicode="&#x2019;" horiz-adv-x="227" 
d="M67 517l50 191h57l-68 -191h-39z" />
    <glyph glyph-name="quotesinglbase" unicode="&#x201a;" horiz-adv-x="246" 
d="M45 -118l59 196h62l-76 -196h-45z" />
    <glyph glyph-name="quotedblleft" unicode="&#x201c;" horiz-adv-x="362" 
d="M179 707l-54 -197h-58l71 197h41zM320 707l-54 -197h-58l71 197h41z" />
    <glyph glyph-name="quotedblright" unicode="&#x201d;" horiz-adv-x="374" 
d="M67 517l50 191h54l-69 -191h-35zM209 517l50 191h54l-67 -191h-37z" />
    <glyph glyph-name="quotedblbase" unicode="&#x201e;" horiz-adv-x="374" 
d="M45 -118l59 196h61l-77 -196h-43zM170 -118l59 196h60l-76 -196h-43z" />
    <glyph glyph-name="dagger" unicode="&#x2020;" horiz-adv-x="433" 
d="M183 -42v488h-133v44h133v210h48v-210h139v-44h-139v-488h-48z" />
    <glyph glyph-name="daggerdbl" unicode="&#x2021;" horiz-adv-x="449" 
d="M247 447v-236h133v-43h-133v-210h-48v210h-139v43h139v236h-133v43h133v210h48v-210h139v-43h-139z" />
    <glyph glyph-name="bullet" unicode="&#x2022;" horiz-adv-x="393" 
d="M194 167q-51 0 -86 36t-35 88t35 88t86 36q50 0 85 -36t35 -88t-35 -88t-85 -36z" />
    <glyph glyph-name="ellipsis" unicode="&#x2026;" horiz-adv-x="615" 
d="M159 -1h-63v74h63v-74zM334 -1h-63v74h63v-74zM510 -1h-63v74h63v-74z" />
    <glyph glyph-name="perthousand" unicode="&#x2030;" horiz-adv-x="1205" 
d="M382 542q0 -66 -47 -113t-112 -47t-112 47t-47 113q0 67 47 114t112 47t112 -47t47 -114zM771 158q0 -66 -47 -113t-112 -47q-66 0 -113 47t-47 113t47 113t113 47q65 0 112 -47t47 -113zM722 158q0 48 -31.5 81.5t-78.5 33.5q-48 0 -80 -33.5t-32 -81.5t32 -80.5
t80 -32.5q47 0 78.5 32.5t31.5 80.5zM610 732h58q-73 -124 -225.5 -375t-230.5 -384h-56q72 123 224 374t230 385zM336 542q0 49 -32 82t-81 33q-48 0 -80.5 -33t-32.5 -82q0 -48 32.5 -81t80.5 -33t80.5 33t32.5 81zM1137 158q0 -66 -47 -113t-112 -47q-66 0 -113 47
t-47 113t47 113t113 47q65 0 112 -47t47 -113zM1088 158q0 48 -31.5 81.5t-78.5 33.5q-48 0 -80 -33.5t-32 -81.5t32 -80.5t80 -32.5q47 0 78.5 32.5t31.5 80.5z" />
    <glyph glyph-name="guilsinglleft" unicode="&#x2039;" horiz-adv-x="355" 
d="M222 87l-156 195l156 196h60l-157 -196l157 -195h-60z" />
    <glyph glyph-name="guilsinglright" unicode="&#x203a;" horiz-adv-x="360" 
d="M291 282l-156 -195h-60l157 195l-157 196h60z" />
    <glyph glyph-name="fraction" unicode="&#x2044;" horiz-adv-x="182" 
d="M-70 -37h-47q17 36 353 741h48q-138 -288 -354 -741z" />
    <glyph glyph-name="zerosuperior" unicode="&#x2070;" horiz-adv-x="442" 
d="M101 702v-122q0 -57 33.5 -85t85.5 -28t85.5 28t33.5 85v122q0 57 -34.5 87t-85.5 30q-52 0 -85 -29.5t-33 -87.5zM52 580v122q0 75 50 117.5t118 42.5t118 -42.5t50 -117.5v-122q0 -73 -50.5 -116.5t-118.5 -43.5q-73 0 -123 49q-44 41 -44 111z" />
    <glyph glyph-name="foursuperior" unicode="&#x2074;" horiz-adv-x="406" 
d="M312 850v-302h39v-41h-39v-80h-47v80h-195l-36 43q46 59 126.5 166.5t99.5 133.5h52zM85 550h181l1 237z" />
    <glyph glyph-name="fivesuperior" unicode="&#x2075;" horiz-adv-x="442" 
d="M351 810h-199l-24 -138q50 25 105 25q58 0 103 -42t45 -102q0 -67 -48.5 -107t-117.5 -39q-49 1 -91 22t-64 62v-1l39 21q33 -57 115 -57q56 -1 89 25.5t33 73.5q0 45 -35.5 71.5t-83.5 26.5q-60 0 -115 -33l-23 5l40 229h232v-42z" />
    <glyph glyph-name="sixsuperior" unicode="&#x2076;" horiz-adv-x="434" 
d="M287 864l-123 -168q73 34 143.5 -4.5t70.5 -121.5q0 -59 -40 -99q-45 -45 -119 -45t-119 45q-40 40 -40 99q0 42 26 81l150 213h51zM219 668q-46 0 -79.5 -26.5t-33.5 -70.5q0 -47 32.5 -74.5t80.5 -27.5q46 0 79.5 28.5t33.5 73.5q-1 45 -33.5 71t-79.5 26z" />
    <glyph glyph-name="sevensuperior" unicode="&#x2077;" horiz-adv-x="366" 
d="M73 417l203 391h-204v42h239l20 -30l-209 -403h-49z" />
    <glyph glyph-name="eightsuperior" unicode="&#x2078;" horiz-adv-x="412" 
d="M109 662q-35 28 -35 81t38 83t92 30t92 -30t38 -83q0 -57 -49 -89q68 -36 68 -110q-1 -59 -45 -94t-104 -35t-104 35t-45 94q-1 39 19.5 70t55.5 41q-2 0 -12 3zM204 814q-41 0 -64 -22.5t-23 -49t23 -49t64 -22.5t64.5 22.5t23.5 49t-23.5 49t-64.5 22.5zM204 636
q-45 0 -74 -23.5t-29 -67.5q0 -40 30.5 -63.5t72.5 -23.5q43 0 73.5 23.5t30.5 63.5q0 44 -29.5 67.5t-74.5 23.5z" />
    <glyph glyph-name="ninesuperior" unicode="&#x2079;" horiz-adv-x="430" 
d="M151 421l122 168q-35 -18 -72.5 -15t-69 18.5t-51.5 48t-20 74.5q0 59 40 99q45 45 119 45t119 -45q40 -40 40 -99q0 -42 -26 -81l-150 -213h-51zM219 617q46 0 79.5 26.5t33.5 70.5q0 47 -32.5 74.5t-80.5 27.5q-46 0 -79.5 -28.5t-33.5 -73.5q1 -45 33.5 -71t79.5 -26z
" />
    <glyph glyph-name="zeroinferior" unicode="&#x2080;" horiz-adv-x="436" 
d="M106 123v-122q0 -54 37 -84.5t82 -30.5t82 30.5t37 84.5v122q0 54 -37 85t-82 31.5t-82 -30.5t-37 -86zM57 1v122q0 75 50 117.5t118 42.5t118 -42.5t50 -117.5v-122q0 -73 -50.5 -116.5t-118.5 -43.5q-73 0 -123 49q-44 41 -44 111z" />
    <glyph glyph-name="oneinferior" unicode="&#x2081;" horiz-adv-x="293" 
d="M142 -148v372h-62v43h110v-415h-48z" />
    <glyph glyph-name="twoinferior" unicode="&#x2082;" horiz-adv-x="419" 
d="M299 58l-177 -163h228v-45h-285l-17 36l219 206q46 46 34 89q-8 30 -35.5 44.5t-60.5 15.5h1q-74 3 -107 -54q-8 3 -15 6t-14.5 6.5t-12.5 5.5q47 83 148 82q64 -1 105 -35.5t41 -88.5q0 -55 -52 -105z" />
    <glyph glyph-name="threeinferior" unicode="&#x2083;" horiz-adv-x="408" 
d="M275 75l20 -5q58 -30 58 -103q-1 -60 -47 -94.5t-107 -34.5q-43 0 -83.5 21.5t-63.5 58.5l34 27q48 -64 115 -64q40 0 71.5 24t31.5 63q0 37 -28 61.5t-67 24.5h-32v40h32q34 0 58.5 18.5t24.5 48.5q0 35 -27.5 53.5t-65.5 18.5q-65 0 -94 -43l-36 18q19 33 54 51.5
t75 18.5q57 0 99.5 -31t42.5 -86q0 -25 -12 -47.5t-32 -31.5z" />
    <glyph glyph-name="fourinferior" unicode="&#x2084;" horiz-adv-x="393" 
d="M312 276v-302h39v-41h-39v-80h-46v80h-196l-36 43q46 60 126.5 167t99.5 133h52zM85 -25h181l1 238z" />
    <glyph glyph-name="fiveinferior" unicode="&#x2085;" horiz-adv-x="432" 
d="M351 239h-199l-24 -137q48 24 105 24q58 0 103 -42t45 -102q0 -67 -48.5 -107t-117.5 -39q-49 1 -91 22t-64 62v-1l39 21q33 -57 115 -57q56 -1 89 25.5t33 73.5q0 45 -35.5 71.5t-83.5 26.5q-60 0 -115 -33l-23 5l40 229h232v-42z" />
    <glyph glyph-name="sixinferior" unicode="&#x2086;" horiz-adv-x="432" 
d="M287 280l-123 -168q73 34 143.5 -4.5t70.5 -121.5q0 -59 -40 -99q-45 -45 -119 -45t-119 45q-40 40 -40 99q0 42 26 81l150 213h51zM219 84q-46 0 -79.5 -26.5t-33.5 -70.5q0 -47 32.5 -74.5t80.5 -27.5q46 0 79.5 28.5t33.5 73.5q-1 45 -33.5 71t-79.5 26z" />
    <glyph glyph-name="seveninferior" unicode="&#x2087;" horiz-adv-x="368" 
d="M73 -169l203 391h-204v42h239l20 -30l-209 -403h-49z" />
    <glyph glyph-name="eightinferior" unicode="&#x2088;" horiz-adv-x="403" 
d="M109 87q-35 28 -35 81t38 83t92 30t92 -30t38 -83q0 -57 -49 -89q68 -36 68 -110q-1 -59 -45 -94t-104 -35t-104 35t-45 94q-1 39 19.5 70t55.5 41q-2 0 -12 4zM204 239q-41 0 -64 -22.5t-23 -49t23 -49t64 -22.5t64.5 22.5t23.5 49t-23.5 49t-64.5 22.5zM204 61
q-45 0 -74 -23.5t-29 -67.5q0 -40 30.5 -63.5t72.5 -23.5q43 0 73.5 23.5t30.5 63.5q0 44 -29.5 67.5t-74.5 23.5z" />
    <glyph glyph-name="nineinferior" unicode="&#x2089;" horiz-adv-x="425" 
d="M151 -157l122 168q-35 -18 -72.5 -15t-69 18.5t-51.5 48t-20 74.5q0 59 40 99q45 45 119 45t119 -45q40 -40 40 -99q0 -42 -26 -81l-150 -213h-51zM219 39q46 0 79.5 26.5t33.5 70.5q0 47 -32.5 74.5t-80.5 27.5q-46 0 -79.5 -28.5t-33.5 -73.5q1 -45 33.5 -71t79.5 -26z
" />
    <glyph glyph-name="Euro" unicode="&#x20ac;" horiz-adv-x="670" 
d="M63 437h57q29 116 116.5 192t218.5 76q67 0 135 -28l-24 -46q-49 24 -111 24q-224 -3 -280 -218h296q-2 -10 -6 -23t-5 -21h-296l-2 -69h281q-2 -10 -5.5 -24t-4.5 -21h-261q22 -107 95 -170.5t188 -63.5q73 0 133 30q5 -10 11.5 -21.5t10.5 -19.5q-74 -38 -155 -38
q-136 0 -224.5 81t-113.5 202h-68l10 45h55q-2 24 -1 36t3 22l1 11h-65q2 10 6 23t5 21z" />
    <glyph glyph-name="afii61352" unicode="&#x2116;" horiz-adv-x="1337" 
d="M116 700h67l384 -648v648h54v-700h-84l-367 620v-620h-54v700zM830 253q0 -99 60 -159.5t139 -60.5t139.5 60.5t60.5 159.5t-60 158t-140 59q-79 0 -139 -59t-60 -158zM1281 253q0 -108 -72.5 -186.5t-179.5 -78.5q-106 0 -178.5 78.5t-72.5 186.5t72.5 186.5t178.5 78.5
q107 0 179.5 -78.5t72.5 -186.5z" />
    <glyph glyph-name="trademark" unicode="&#x2122;" horiz-adv-x="888" 
d="M309 657h-111v-342h-42v342h-111v43h264v-43zM583 378l-142 263v-326h-40v385h53l148 -276l150 276h51v-385h-40v326l-142 -263h-38z" />
    <glyph glyph-name="minus" unicode="&#x2212;" horiz-adv-x="613" 
d="M72 258v47h487v-47h-487z" />
    <glyph glyph-name="infinity" unicode="&#x221e;" horiz-adv-x="468" 
d="M232 203q-59 0 -101 43t-42 103q0 61 42 103t101 42q60 0 101.5 -42t41.5 -103q0 -60 -41.5 -103t-101.5 -43z" />
    <glyph glyph-name="approxequal" unicode="&#x2248;" horiz-adv-x="613" 
d="M113 350l-26 27q62 62 132 62q42 0 103 -38q2 -1 15.5 -9.5t17.5 -10.5t15 -7t20.5 -6.5t19.5 -1.5q60 0 107 40q6 -8 14 -17t10 -12q-58 -56 -131 -56q-44 0 -103 36q-4 2 -19 11.5t-22.5 13t-21 8t-25.5 4.5q-54 0 -106 -44zM113 179l-26 28q62 62 132 62q40 0 103 -37
q54 -34 88 -34q62 0 107 40q23 -30 24 -31q-58 -56 -131 -56q-38 0 -105 38q-54 33 -86 33q-56 0 -106 -43z" />
    <glyph glyph-name="notequal" unicode="&#x2260;" horiz-adv-x="620" 
d="M151 75l63 89h-111v44h143l106 152h-249v46h281q40 55 76 106l26 -16l-64 -90h104v-46h-136l-106 -152h242v-44h-274l-75 -108z" />
    <glyph glyph-name="lessequal" unicode="&#x2264;" horiz-adv-x="506" 
d="M57 48h388v-44h-388v44zM431 591v-58l-326 -166l326 -164v-57l-375 196v50z" />
    <glyph glyph-name="greaterequal" unicode="&#x2265;" horiz-adv-x="560" 
d="M477 57h-388v-50h388v50zM95 533v58l375 -199v-50l-375 -196v57l326 164z" />
    <glyph glyph-name="fontfabric" horiz-adv-x="1744" 
d="M1328 699h350v-176h-14q-22 80 -63.5 121.5t-116.5 41.5h-59v-674h110v-13h-207v700zM732 12h234v-13h-234v13zM1173 699h123v-13v-687h-32l-428 687h-104v13h215l330 -537h6v524h-110v13zM778 491q26 -63 26 -141q0 -68 -26 -131q-39 -78 -71 -110q-58 -58 -113.5 -84
t-132.5 -26h-6v13h6q126 0 182 84q28 38 38 104q13 100 13 150q0 154 -45 232q-43 104 -188 104h-6v13h6q101 0 188.5 -57.5t128.5 -150.5zM235 439q2 7 10.5 29t14.5 43h7v-305h-7q-8 64 -39.5 107.5t-89.5 42.5h-65v13h57q45 -1 71 14.5t41 55.5zM66 699h336v-169h-6
q-20 74 -61 115t-121 41h-148v13z" />
    <glyph glyph-name="zero.tnum" horiz-adv-x="616" 
d="M135 509v-319q0 -71 51.5 -110t121.5 -39q69 0 120.5 39t51.5 110v319q0 73 -52.5 110t-123.5 36q-69 -1 -119 -39t-50 -107zM82 190v319q0 93 65.5 145.5t155.5 53.5q93 2 161.5 -50.5t68.5 -148.5v-319q1 -93 -65 -146.5t-160 -53.5q-95 -2 -161.5 52t-64.5 148z" />
    <glyph glyph-name="one.tnum" horiz-adv-x="336" 
d="M159 652h-92v48h143v-700h-51v652z" />
    <glyph glyph-name="two.tnum" horiz-adv-x="573" 
d="M288 662h1q-54 2 -98.5 -26.5t-68.5 -75.5l-43 21q27 62 84 95t126 34q94 -1 148.5 -54.5t56.5 -135.5q0 -81 -76 -165l-277 -306h370v-49h-417q-3 8 -11.5 24t-11.5 24l311 344q60 67 59 127q0 60 -41 100.5t-112 42.5z" />
    <glyph glyph-name="three.tnum" 
d="M61 118l43 23q56 -103 169 -103q61 0 111 45t50 115q0 65 -45 110t-105 45h-43v50h43q55 0 92 32.5t37 90.5t-37 95t-85 43t-97.5 -16t-72.5 -70l-39 21q29 63 94 91.5t129 19.5t113 -58t49 -126q0 -43 -25 -86.5t-65 -61.5q108 -59 108 -181q-1 -95 -65.5 -152.5
t-149.5 -57.5q-63 0 -121 34.5t-88 96.5z" />
    <glyph glyph-name="four.tnum" horiz-adv-x="546" 
d="M433 700v-499h62v-48h-62v-153h-51v153h-298l-44 51l328 496h65zM382 201l1 433l-288 -433h287z" />
    <glyph glyph-name="five.tnum" horiz-adv-x="585" 
d="M68 118l40 26q30 -51 77.5 -78.5t101.5 -27.5q82 0 130.5 59t47.5 130q0 69 -46.5 123t-128.5 54q-89 0 -171 -46q-16 0 -24 -1l51 343h333v-46h-292l-36 -231q76 30 141 30q72 -1 124.5 -35t76.5 -84t24 -108q0 -93 -62 -165t-170 -72q-65 0 -125 34.5t-92 94.5z" />
    <glyph glyph-name="six.tnum" horiz-adv-x="607" 
d="M308 -9q-107 0 -168.5 69.5t-61.5 162.5q0 78 38 137l212 340h60l-178 -275q48 29 98 29q111 0 170.5 -69t59.5 -162t-61 -162.5t-169 -69.5zM308 405q-72 0 -124.5 -53.5t-53.5 -127.5q0 -71 48 -128t130 -57t131 57t48 128q0 69 -48.5 125t-130.5 56z" />
    <glyph glyph-name="seven.tnum" horiz-adv-x="504" 
d="M412 652h-367v48h398l27 -40l-343 -660h-56z" />
    <glyph glyph-name="eight.tnum" horiz-adv-x="587" 
d="M293 -10q-86 0 -150.5 56.5t-65.5 152.5q-1 55 29 103t80 79q-81 58 -81 147q0 83 56.5 132.5t131.5 49.5q76 0 132 -49.5t56 -132.5q0 -40 -21 -80t-59 -67q111 -68 109 -182q-1 -96 -65.5 -152.5t-151.5 -56.5zM293 661q-62 0 -100 -40.5t-38 -90.5t38 -90t100 -40
t99 39.5t37 89.5t-37 91t-99 41zM293 356q-75 0 -119 -48t-44 -110q0 -63 44 -112t119 -48q76 1 120.5 50.5t44.5 111.5q0 61 -44.5 108.5t-120.5 47.5z" />
    <glyph glyph-name="nine.tnum" horiz-adv-x="609" 
d="M301 709q107 0 168.5 -69.5t61.5 -162.5q0 -76 -39 -137l-211 -340h-60l178 275q-44 -27 -98 -27q-111 0 -170.5 68.5t-59.5 160.5q0 93 61 162.5t169 69.5zM301 295q73 0 126 53.5t54 127.5q0 77 -48.5 131t-131.5 54q-82 0 -131 -57t-48 -128q0 -77 44.5 -129
t134.5 -52z" />
    <glyph glyph-name="zero.p_osf" horiz-adv-x="615" 
d="M133 349v-159q0 -42 19 -74.5t49.5 -49.5t67.5 -25t74.5 -0.5t68 24.5t49.5 50t19 75v159q0 41 -19 73.5t-49.5 49t-68 24.5t-74.5 0.5t-67.5 -24.5t-49.5 -49.5t-19 -73.5zM81 190v159q0 64 33.5 110.5t83.5 67.5t108.5 21t108.5 -21t83.5 -67.5t33.5 -110.5v-159
q0 -64 -33.5 -110.5t-83.5 -68t-108.5 -21.5t-108.5 21t-83.5 68t-33.5 111z" />
    <glyph glyph-name="one.p_osf" horiz-adv-x="312" 
d="M142 1v467h-79v46h130q0 -85 0.5 -256.5t0.5 -256.5h-52z" />
    <glyph glyph-name="two.p_osf" horiz-adv-x="528" 
d="M387 266l-240 -219h302v-47h-341l-29 46l273 257q29 29 40.5 53t1.5 56q-8 34 -46 57t-77 22h1q-41 2 -81 -17.5t-60 -53.5q-8 3 -22 9t-22 10q22 50 73 76t111 25q60 0 108.5 -30t63.5 -84q27 -88 -56 -160z" />
    <glyph glyph-name="three.p_osf" horiz-adv-x="527" 
d="M41 1l41 22q28 -43 74.5 -71t94.5 -28q61 0 110 40.5t49 106.5q0 62 -43.5 102.5t-103.5 40.5h-43v48h43q56 0 91 26.5t35 81.5q0 58 -41 92t-98 34q-44 0 -83 -21t-62 -59l-38 21q26 50 76.5 78t104.5 28q78 0 137.5 -45.5t59.5 -127.5q0 -40 -25.5 -78t-65.5 -56
q109 -55 109 -166q-1 -89 -64.5 -141t-149.5 -52q-63 0 -120.5 32.5t-87.5 91.5z" />
    <glyph glyph-name="four.p_osf" horiz-adv-x="555" 
d="M439 525v-433h55v-46h-55v-133h-50v133h-291q-9 12 -25 32t-22 28l323 419h65zM391 92v378l-289 -378h289z" />
    <glyph glyph-name="five.p_osf" horiz-adv-x="544" 
d="M54 8l38 20q23 -41 71.5 -66t97.5 -25q78 0 123.5 50.5t44.5 115.5q0 64 -43 111.5t-121 47.5q-88 0 -162 -41q-15 0 -23 -1l47 299h309v-44h-273l-30 -195q54 29 133 29q102 -1 158 -62.5t56 -144.5q0 -85 -58.5 -148.5t-161.5 -63.5q-64 0 -120 30.5t-86 87.5z" />
    <glyph glyph-name="six.p_osf" horiz-adv-x="598" 
d="M310 -9q-107 0 -168.5 69.5t-61.5 162.5q0 75 38 134l211 343h55l-175 -286q40 26 99 29q68 6 122.5 -28t82 -86t27.5 -106q0 -93 -61 -162.5t-169 -69.5zM310 398q-73 0 -126 -50.5t-54 -123.5q0 -71 49.5 -128.5t130.5 -57.5q82 0 131 57.5t48 128.5q0 68 -48.5 121
t-130.5 53z" />
    <glyph glyph-name="seven.p_osf" horiz-adv-x="514" 
d="M404 485h-337v49h368q2 -5 13.5 -23t12.5 -19l-318 -611h-54z" />
    <glyph glyph-name="eight.p_osf" horiz-adv-x="568" 
d="M284 -11q-82 0 -143 54t-62 145q-2 108 98 172q-72 52 -72 142q0 78 53.5 123.5t125.5 45.5t125.5 -45.5t53.5 -123.5q0 -91 -71 -142q100 -64 98 -172q-1 -91 -62 -145t-144 -54zM284 625q-59 0 -93.5 -37t-34.5 -84q0 -48 34.5 -85.5t93.5 -37.5t93 37.5t34 85.5
t-33.5 84.5t-93.5 36.5zM284 338q-72 0 -113 -46t-41 -105t41 -105.5t113 -45.5q73 1 114.5 48t41.5 105q0 59 -41.5 104t-114.5 45z" />
    <glyph glyph-name="nine.p_osf" horiz-adv-x="574" 
d="M288 540q107 0 168.5 -69.5t61.5 -162.5q0 -75 -38 -134l-211 -343h-55l175 286q-40 -26 -99 -29q-68 -6 -122.5 28t-82 86t-27.5 106q0 93 61 162.5t169 69.5zM288 133q73 0 126 50.5t54 123.5q0 71 -49.5 128.5t-130.5 57.5q-82 0 -131 -57.5t-48 -128.5
q0 -68 48.5 -121t130.5 -53z" />
    <glyph glyph-name="zero.t_osf" horiz-adv-x="615" 
d="M133 349v-159q0 -42 19 -74.5t49.5 -49.5t67.5 -25t74.5 -0.5t68 24.5t49.5 50t19 75v159q0 41 -19 73.5t-49.5 49t-68 24.5t-74.5 0.5t-67.5 -24.5t-49.5 -49.5t-19 -73.5zM81 190v159q0 64 33.5 110.5t83.5 67.5t108.5 21t108.5 -21t83.5 -67.5t33.5 -110.5v-159
q0 -64 -33.5 -110.5t-83.5 -68t-108.5 -21.5t-108.5 21t-83.5 68t-33.5 111z" />
    <glyph glyph-name="one.t_osf" horiz-adv-x="298" 
d="M142 1v467h-79v46h130q0 -85 0.5 -256.5t0.5 -256.5h-52z" />
    <glyph glyph-name="two.t_osf" horiz-adv-x="528" 
d="M387 266l-240 -219h302v-47h-341l-29 46l273 257q29 29 40.5 53t1.5 56q-8 34 -46 57t-77 22h1q-41 2 -81 -17.5t-60 -53.5q-8 3 -22 9t-22 10q22 50 73 76t111 25q60 0 108.5 -30t63.5 -84q27 -88 -56 -160z" />
    <glyph glyph-name="three.t_osf" horiz-adv-x="525" 
d="M41 1l41 22q28 -43 74.5 -71t94.5 -28q61 0 110 40.5t49 106.5q0 62 -43.5 102.5t-103.5 40.5h-43v48h43q56 0 91 26.5t35 81.5q0 58 -41 92t-98 34q-44 0 -83 -21t-62 -59l-38 21q26 50 76.5 78t104.5 28q78 0 137.5 -45.5t59.5 -127.5q0 -40 -25.5 -78t-65.5 -56
q109 -55 109 -166q-1 -89 -64.5 -141t-149.5 -52q-63 0 -120.5 32.5t-87.5 91.5z" />
    <glyph glyph-name="four.t_osf" horiz-adv-x="560" 
d="M439 525v-433h55v-46h-55v-133h-50v133h-291q-9 12 -25 32t-22 28l323 419h65zM391 92v378l-289 -378h289z" />
    <glyph glyph-name="five.t_osf" horiz-adv-x="545" 
d="M57 8l38 20q23 -41 71.5 -66t97.5 -25q78 0 123.5 50.5t44.5 115.5q0 64 -43 111.5t-121 47.5q-88 0 -162 -41q-15 0 -23 -1l47 299h309v-44h-273l-30 -195q54 29 133 29q102 -1 158 -62.5t56 -144.5q0 -85 -58.5 -148.5t-161.5 -63.5q-64 0 -120 30.5t-86 87.5z" />
    <glyph glyph-name="six.t_osf" horiz-adv-x="598" 
d="M302 -9q-107 0 -168.5 69.5t-61.5 162.5q0 75 38 134l211 343h55l-175 -286q40 26 99 29q68 6 122.5 -28t82 -86t27.5 -106q0 -93 -61 -162.5t-169 -69.5zM302 398q-73 0 -126 -50.5t-54 -123.5q0 -71 49.5 -128.5t130.5 -57.5q82 0 131 57.5t48 128.5q0 68 -48.5 121
t-130.5 53z" />
    <glyph glyph-name="seven.t_osf" horiz-adv-x="521" 
d="M404 485h-337v49h368q2 -5 13.5 -23t12.5 -19l-318 -611h-54z" />
    <glyph glyph-name="eight.t_osf" horiz-adv-x="568" 
d="M284 -11q-82 0 -143 54t-62 145q-2 108 98 172q-72 52 -72 142q0 78 53.5 123.5t125.5 45.5t125.5 -45.5t53.5 -123.5q0 -91 -71 -142q100 -64 98 -172q-1 -91 -62 -145t-144 -54zM284 625q-59 0 -93.5 -37t-34.5 -84q0 -48 34.5 -85.5t93.5 -37.5t93 37.5t34 85.5
t-33.5 84.5t-93.5 36.5zM284 338q-72 0 -113 -46t-41 -105t41 -105.5t113 -45.5q73 1 114.5 48t41.5 105q0 59 -41.5 104t-114.5 45z" />
    <glyph glyph-name="nine.t_osf" horiz-adv-x="574" 
d="M281 537q107 0 168.5 -69.5t61.5 -162.5q0 -75 -38 -134l-211 -343h-55l179 286q-40 -26 -103 -29q-68 -6 -122.5 28t-82 86t-27.5 106q0 93 61 162.5t169 69.5zM281 130q73 0 126 50.5t54 123.5q0 71 -49.5 128.5t-130.5 57.5q-82 0 -131 -57.5t-48 -128.5
q0 -68 48.5 -121t130.5 -53z" />
    <glyph glyph-name="dollar.osf" horiz-adv-x="566" 
d="M138 428q-2 -22 7 -39t20 -27t35.5 -19.5t36.5 -12.5t39 -9q1 0 5 -1t6 -1q41 -9 73 -21t63.5 -32.5t47 -53.5t12.5 -75q-7 -65 -56 -106t-126 -41v-75h-46v75q-60 8 -109.5 37t-74.5 75l43 25q25 -40 69.5 -65.5t93.5 -25.5q69 -1 110.5 25.5t45.5 77.5q2 27 -8 48.5
t-24 34t-40.5 23.5t-43 15.5t-45.5 11.5q-37 9 -54 13.5t-48.5 18t-46 28t-26.5 40.5t-11 59q2 62 50 99.5t119 46.5v75h46v-74q55 -7 101 -31.5t68 -64.5l-39 -22q-42 70 -150 72q-142 0 -143 -104z" />
    <glyph glyph-name="cent.osf" horiz-adv-x="572" 
d="M299 -68v94q-109 9 -168.5 82t-59.5 170q1 96 61.5 170t167.5 84v99h40v-99q82 -9 138 -59q-4 -5 -13.5 -16t-14.5 -17q-56 47 -134 47q-77 1 -135.5 -59.5t-59.5 -151.5q0 -81 52 -143t144 -62q69 0 136 55q7 -9 17.5 -20.5t13.5 -15.5q-58 -52 -143 -63v-95h-42z" />
    <glyph glyph-name="sterling.osf" horiz-adv-x="587" 
d="M530 429l-46 -9q-15 58 -58 85t-99 27q-57 0 -100 -41t-43 -109v-99h224v-44h-224v-190h353v-49h-461v49h57v190h-55v44h55v99q0 94 57.5 149.5t135.5 55.5q70 0 127 -41t77 -117z" />
    <glyph glyph-name="yen.osf" horiz-adv-x="591" 
d="M548 561l-162 -261h87v-40h-109l-50 -83q24 0 79 1t80 1v-40h-158v-143h-47v143h-158v40h160l-50 81h-110v40h88l-161 261h58l197 -336l197 336h59z" />
    <glyph glyph-name="florin.osf" horiz-adv-x="534" 
d="M485 592l-8 -43q-68 1 -100.5 -45t-49.5 -138h118l-9 -42h-117q-16 -84 -71 -371q-15 -76 -54.5 -117.5t-123.5 -41.5q-18 0 -36 3l8 39q11 -1 30 -1q59 0 87.5 32t41.5 96l69 361h-95l10 42h95l8 40q14 87 63.5 136.5t131.5 49.5h2z" />
    <glyph glyph-name="Euro.osf" horiz-adv-x="647" 
d="M63 391h57q28 112 114 177.5t221 65.5q67 0 135 -28l-24 -44q-51 25 -111 25q-111 -2 -185.5 -52t-100.5 -144h302q-2 -10 -6 -23t-5 -21h-297v-59h280q-2 -10 -5.5 -23.5t-4.5 -20.5h-268q22 -95 98.5 -148t191.5 -53q65 0 131 33q5 -10 12.5 -22t11.5 -20
q-74 -38 -155 -38q-141 0 -227.5 66t-110.5 182h-68q8 36 10 44h55l-1 59h-61q2 10 6 23t5 21z" />
    <glyph glyph-name="zero.numerator" horiz-adv-x="440" 
d="M101 544v-122q0 -57 33.5 -85t85.5 -28t85.5 28t33.5 85v122q0 57 -34.5 87t-85.5 30q-52 0 -85 -29.5t-33 -87.5zM52 422v122q0 75 50 117.5t118 42.5t118 -42.5t50 -117.5v-122q0 -73 -50.5 -116.5t-118.5 -43.5q-73 0 -123 49q-44 41 -44 111z" />
    <glyph glyph-name="one.numerator" horiz-adv-x="302" 
d="M130 285v372h-62v43h110v-415h-48z" />
    <glyph glyph-name="two.numerator" horiz-adv-x="418" 
d="M299 477l-177 -163h228v-45h-285l-17 36l219 206q46 46 34 89q-8 30 -35.5 44.5t-60.5 15.5h1q-74 3 -107 -54q-8 3 -15 6t-14.5 6.5t-12.5 5.5q47 83 148 82q64 -1 105 -35.5t41 -88.5q0 -55 -52 -105z" />
    <glyph glyph-name="three.numerator" horiz-adv-x="408" 
d="M275 502l20 -5q58 -30 58 -103q-1 -60 -47 -94.5t-107 -34.5q-43 0 -83.5 21.5t-63.5 58.5l34 27q48 -64 115 -64q40 0 71.5 24t31.5 63q0 37 -28 61.5t-67 24.5h-32v40h32q34 0 58.5 18.5t24.5 48.5q0 35 -27.5 53.5t-65.5 18.5q-65 0 -94 -43l-36 18q19 33 54 51.5
t75 18.5q57 0 99.5 -31t42.5 -86q0 -25 -12 -47.5t-32 -31.5z" />
    <glyph glyph-name="four.numerator" horiz-adv-x="406" 
d="M312 700v-302h39v-41h-39v-80h-46v80h-196l-36 43q46 60 126.5 167t99.5 133h52zM85 400h181l1 237z" />
    <glyph glyph-name="five.numerator" horiz-adv-x="442" 
d="M351 658h-199l-24 -138q50 25 105 25q58 0 103 -42t45 -102q0 -67 -48.5 -107t-117.5 -39q-49 1 -91 22t-64 62v-1l39 21q33 -57 115 -57q56 -1 89 25.5t33 73.5q0 45 -35.5 71.5t-83.5 26.5q-60 0 -115 -33l-23 5l40 229h232v-42z" />
    <glyph glyph-name="six.numerator" horiz-adv-x="434" 
d="M287 699l-123 -168q73 34 143.5 -4.5t70.5 -121.5q0 -59 -40 -99q-45 -45 -119 -45t-119 45q-40 40 -40 99q0 42 26 81l150 213h51zM219 503q-46 0 -79.5 -26.5t-33.5 -70.5q0 -47 32.5 -74.5t80.5 -27.5q46 0 79.5 28.5t33.5 73.5q-1 45 -33.5 71t-79.5 26z" />
    <glyph glyph-name="seven.numerator" horiz-adv-x="366" 
d="M73 267l203 391h-204v42h239l20 -30l-209 -403h-49z" />
    <glyph glyph-name="eight.numerator" horiz-adv-x="412" 
d="M109 507q-35 28 -35 81t38 83t92 30t92 -30t38 -83q0 -57 -49 -89q68 -36 68 -110q-1 -59 -45 -94t-104 -35t-104 35t-45 94q-1 39 19.5 70t55.5 41q-2 0 -12 4zM204 659q-41 0 -64 -22.5t-23 -49t23 -49t64 -22.5t64.5 22.5t23.5 49t-23.5 49t-64.5 22.5zM204 481
q-45 0 -74 -23.5t-29 -67.5q0 -40 30.5 -63.5t72.5 -23.5q43 0 73.5 23.5t30.5 63.5q0 44 -29.5 67.5t-74.5 23.5z" />
    <glyph glyph-name="nine.numerator" horiz-adv-x="430" 
d="M151 263l122 168q-35 -18 -72.5 -15t-69 18.5t-51.5 48t-20 74.5q0 59 40 99q45 45 119 45t119 -45q40 -40 40 -99q0 -42 -26 -81l-150 -213h-51zM219 459q46 0 79.5 26.5t33.5 70.5q0 47 -32.5 74.5t-80.5 27.5q-46 0 -79.5 -28.5t-33.5 -73.5q1 -45 33.5 -71t79.5 -26z
" />
    <glyph glyph-name="zero.denominator" horiz-adv-x="444" 
d="M106 279v-122q0 -54 37 -84.5t82 -30.5t82 30.5t37 84.5v122q0 54 -37 85t-82 31.5t-82 -30.5t-37 -86zM57 157v122q0 75 50 117.5t118 42.5t118 -42.5t50 -117.5v-122q0 -73 -50.5 -116.5t-118.5 -43.5q-73 0 -123 49q-44 41 -44 111z" />
    <glyph glyph-name="one.denominator" horiz-adv-x="291" 
d="M130 0v372h-62v43h110v-415h-48z" />
    <glyph glyph-name="two.denominator" horiz-adv-x="419" 
d="M299 208l-177 -163h228v-45h-285l-17 36l219 206q46 46 34 89q-8 30 -35.5 44.5t-60.5 15.5h1q-74 3 -107 -54q-8 3 -15 6t-14.5 6.5t-12.5 5.5q47 83 148 82q64 -1 105 -35.5t41 -88.5q0 -55 -52 -105z" />
    <glyph glyph-name="three.denominator" horiz-adv-x="408" 
d="M275 234l20 -5q58 -30 58 -103q-1 -60 -47 -94.5t-107 -34.5q-43 0 -83.5 21.5t-63.5 58.5l34 27q48 -64 115 -64q40 0 71.5 24t31.5 63q0 37 -28 61.5t-67 24.5h-32v40h32q34 0 58.5 18.5t24.5 48.5q0 35 -27.5 53.5t-65.5 18.5q-65 0 -94 -43l-36 18q19 33 54 51.5
t75 18.5q57 0 99.5 -31t42.5 -86q0 -25 -12 -47.5t-32 -31.5z" />
    <glyph glyph-name="four.denominator" horiz-adv-x="406" 
d="M312 424v-302h39v-41h-39v-80h-46v80h-196l-36 43q46 59 126.5 166.5t99.5 133.5h52zM85 124h181l1 237z" />
    <glyph glyph-name="five.denominator" horiz-adv-x="442" 
d="M351 401h-199l-24 -137q48 24 105 24q58 0 103 -42t45 -102q0 -67 -48.5 -107t-117.5 -39q-49 1 -91 22t-64 62v-1l39 21q33 -57 115 -57q56 -1 89 25.5t33 73.5q0 45 -35.5 71.5t-83.5 26.5q-60 0 -115 -33l-23 5l40 229h232v-42z" />
    <glyph glyph-name="six.denominator" horiz-adv-x="433" 
d="M287 434l-123 -168q73 34 143.5 -4.5t70.5 -121.5q0 -59 -40 -99q-45 -45 -119 -45t-119 45q-40 40 -40 99q0 42 26 81l150 213h51zM219 238q-46 0 -79.5 -26.5t-33.5 -70.5q0 -47 32.5 -74.5t80.5 -27.5q46 0 79.5 28.5t33.5 73.5q-1 45 -33.5 71t-79.5 26z" />
    <glyph glyph-name="seven.denominator" horiz-adv-x="374" 
d="M73 0l203 391h-204v42h239l20 -30l-209 -403h-49z" />
    <glyph glyph-name="eight.denominator" horiz-adv-x="412" 
d="M109 240q-35 28 -35 81t38 83t92 30t92 -30t38 -83q0 -57 -49 -89q68 -36 68 -110q-1 -59 -45 -94t-104 -35t-104 35t-45 94q-1 39 19.5 70t55.5 41q-2 0 -12 3zM204 392q-41 0 -64 -22.5t-23 -49t23 -49t64 -22.5t64.5 22.5t23.5 49t-23.5 49t-64.5 22.5zM204 214
q-45 0 -74 -23.5t-29 -67.5q0 -40 30.5 -63.5t72.5 -23.5q43 0 73.5 23.5t30.5 63.5q0 44 -29.5 67.5t-74.5 23.5z" />
    <glyph glyph-name="nine.denominator" horiz-adv-x="428" 
d="M143 0l122 168q-35 -18 -72.5 -15t-69 18.5t-51.5 48t-20 74.5q0 59 40 99q45 45 119 45t119 -45q40 -40 40 -99q0 -42 -26 -81l-150 -213h-51zM211 196q46 0 79.5 26.5t33.5 70.5q0 47 -32.5 74.5t-80.5 27.5q-46 0 -79.5 -28.5t-33.5 -73.5q1 -45 33.5 -71t79.5 -26z
" />
    </font>
</defs>
</svg>
