<?xml version="1.0" standalone="no"?>
<!DOCTYPE svg PUBLIC "-//W3C//DTD SVG 1.1//EN" "http://www.w3.org/Graphics/SVG/1.1/DTD/svg11.dtd" >
<svg xmlns="http://www.w3.org/2000/svg" xmlns:xlink="http://www.w3.org/1999/xlink" version="1.1">
<metadata>
Created by FontForge 20161003 at Sat Apr  8 12:23:56 2017
 By www-data
Copyright (c) 2011 By Svetoslav Simov (c) Fontfabric, LLC. All rights reserved.
</metadata>
<defs>
<font id="SolomonSansLight" horiz-adv-x="564" >
  <font-face 
    font-family="SolomonSansLight"
    font-weight="300"
    font-stretch="normal"
    units-per-em="1000"
    panose-1="2 0 0 0 0 0 0 0 0 0"
    ascent="750"
    descent="-250"
    x-height="507"
    cap-height="700"
    bbox="-109 -201.059 1678 881"
    underline-thickness="50"
    underline-position="-150"
    unicode-range="U+0020-FB04"
  />
<missing-glyph horiz-adv-x="612" 
d="M66 8v683h482v-683h-482zM307 366l192 301h-385zM320 350l203 -315v629zM92 39l202 311l-202 310v-621zM114 33h385l-192 297z" />
    <glyph glyph-name="f_f" unicode="ff" horiz-adv-x="588" 
d="M555 700v-30q-110 0 -110 -106v-57h106v-31h-106v-476h-36v476h-261v-476h-36v476h-54v31h54v57q0 71 40.5 104t105.5 32v-30q-110 0 -110 -106v-57h261v57q0 71 40.5 104t105.5 32z" />
    <glyph glyph-name="fi" unicode="fi" horiz-adv-x="507" 
d="M413 0h-36v477h-232v-477h-36v477h-54v30h54v57q0 71 40.5 104t105.5 32v-30q-110 0 -110 -106v-57h268v-507zM416 701v-54h-43v54h43z" />
    <glyph glyph-name="fl" unicode="fl" horiz-adv-x="525" 
d="M255 700v-30q-110 0 -110 -106v-57h106v-31h-106v-476h-36v476h-54v31h54v57q0 71 40.5 104t105.5 32zM490 30v-32q-58 -1 -88 32.5t-30 99.5v570h36v-570q0 -48 19 -73t63 -27z" />
    <glyph glyph-name="f_f_i" unicode="ffi" horiz-adv-x="804" 
d="M710 0h-36v478h-232v-478h-36v478h-261v-478h-36v478h-54v29h54v57q0 71 40.5 104t105.5 32v-30q-110 0 -110 -106v-57h261v57q0 65 38 103.5t108 32.5v-30q-47 4 -78.5 -23t-31.5 -74v-9v-57h268v-507zM713 701v-54h-43v54h43z" />
    <glyph glyph-name="f_f_l" unicode="ffl" horiz-adv-x="834" 
d="M545 700v-30q-110 0 -110 -106v-57h106v-29h-106v-478h-36v478h-254v-478h-36v478h-54v29h54v57q0 71 40.5 104t105.5 32v-30q-110 0 -110 -106v-57h254v57q0 71 40.5 104t105.5 32zM794 30v-32q-58 -1 -88 32.5t-30 99.5v570h36v-570q0 -48 19 -73t63 -27z" />
    <glyph glyph-name="f_j" unicode="fj" horiz-adv-x="547" 
d="M305 -179v31q51 0 77.5 27t26.5 74v525h-253v-478h-36v478h-54v29h54v57q0 71 40.5 104t105.5 32v-30q-110 0 -110 -106v-57h288v-554q0 -65 -36 -98.5t-103 -33.5zM448 702v-55h-44v55h44z" />
    <glyph glyph-name=".notdef" horiz-adv-x="612" 
d="M66 8v683h482v-683h-482zM307 366l192 301h-385zM320 350l203 -315v629zM92 39l202 311l-202 310v-621zM114 33h385l-192 297z" />
    <glyph glyph-name=".null" horiz-adv-x="0" 
 />
    <glyph glyph-name="nonmarkingreturn" horiz-adv-x="333" 
 />
    <glyph glyph-name="space" unicode=" " horiz-adv-x="300" 
 />
    <glyph glyph-name="exclam" unicode="!" horiz-adv-x="323" 
d="M179 161h-33v540h34q0 -89 -0.5 -270t-0.5 -270zM186 0h-46v62h46v-62z" />
    <glyph glyph-name="quotedbl" unicode="&#x22;" horiz-adv-x="316" 
d="M92 526v174h32v-174h-32zM196 526v174h31v-174h-31z" />
    <glyph glyph-name="numbersign" unicode="#" horiz-adv-x="603" 
d="M541 477v-29h-98l-31 -193h94v-27h-99l-37 -228h-31l37 228h-171l-38 -228h-31l38 228h-100v27h104l31 193h-101v29h106l37 223h30l-36 -223h172l37 223h31l-37 -223h93zM413 448h-173l-30 -193h171z" />
    <glyph glyph-name="dollar" unicode="$" horiz-adv-x="566" 
d="M266 703v90h29v-89q110 -3 163 -99l-31 -15q-47 79 -141 79q-61 1 -104 -33t-47 -100q-8 -114 153 -155q197 -49 189 -212q-3 -78 -57.5 -122t-127.5 -50v-81h-29v80q-60 2 -111.5 35t-79.5 91l30 18q26 -52 71.5 -79.5t98.5 -28.5q73 -1 119 36t50 103q2 34 -7.5 62
t-25 45.5t-40 32t-44.5 22t-47 15.5q-183 51 -178 188q2 74 50.5 117t116.5 50z" />
    <glyph glyph-name="percent" unicode="%" horiz-adv-x="819" 
d="M374 553q0 -62 -44 -106.5t-106 -44.5t-106 44.5t-44 106.5q0 63 44 107.5t106 44.5t106 -44.5t44 -107.5zM736 148q0 -62 -44 -106.5t-106 -44.5t-106.5 44.5t-44.5 106.5t44.5 106.5t106.5 44.5t106 -44.5t44 -106.5zM604 723h37q-69 -117 -218 -362.5t-226 -378.5h-37
q65 111 215 358t229 383zM344 553q0 52 -34 87t-86 35q-51 0 -85 -35t-34 -87q0 -51 34 -86t85 -35t85.5 35t34.5 86zM705 148q0 52 -34 87t-86 35q-51 0 -85 -35t-34 -87q0 -51 34 -86t85 -35t85.5 35t34.5 86z" />
    <glyph glyph-name="ampersand" unicode="&#x26;" horiz-adv-x="655" 
d="M285 380l180 -206l63 99l27 -15l-69 -108q22 -26 65 -74.5t56 -63.5h-41l-98 112q-49 -64 -95 -96.5t-103 -32.5q-77 0 -134.5 54t-57.5 130q0 57 41.5 115t111.5 97q-25 29 -39 49t-28 52t-14 63q0 73 46 114t107 41q57 0 98 -37.5t41 -104.5q0 -60 -43 -104.5
t-114 -83.5zM447 150l-192 218q-58 -30 -100.5 -83t-42.5 -106q0 -63 48.5 -107t112.5 -44q84 0 174 122zM301 681q-52 0 -85.5 -36.5t-33.5 -86.5q0 -17 4.5 -34.5t9 -29t17 -29t16.5 -22.5t19 -23l16 -18q58 30 102 71.5t44 91.5q0 59 -30 87.5t-79 28.5z" />
    <glyph glyph-name="quotesingle" unicode="'" horiz-adv-x="191" 
d="M80 521v181h32v-181h-32z" />
    <glyph glyph-name="parenleft" unicode="(" horiz-adv-x="394" 
d="M133 352q0 -123 59 -244.5t160 -186.5v-38q-115 72 -184 201t-69 268q0 140 69 269.5t184 201.5v-37q-103 -66 -161 -187t-58 -247z" />
    <glyph glyph-name="parenright" unicode=")" horiz-adv-x="393" 
d="M257 352q0 129 -57 246.5t-162 184.5v36q120 -75 186.5 -199.5t66.5 -267.5q0 -141 -67.5 -266.5t-185.5 -199.5v37q103 67 161 186t58 243z" />
    <glyph glyph-name="asterisk" unicode="*" horiz-adv-x="450" 
d="M381 572l-139 -45l89 -127l-23 -14l-91 132l-92 -134l-23 15l91 129l-138 45l9 25l141 -49l-1 151h27l-1 -152l143 48z" />
    <glyph glyph-name="plus" unicode="+" horiz-adv-x="623" 
d="M100 316v30h198v201h32v-201h196v-30h-196v-208h-32v208h-198z" />
    <glyph glyph-name="comma" unicode="," horiz-adv-x="229" 
d="M56 -111l54 161h45l-72 -161h-27z" />
    <glyph glyph-name="hyphen" unicode="-" horiz-adv-x="462" 
d="M108 296v32h246v-32h-246z" />
    <glyph glyph-name="period" unicode="." horiz-adv-x="245" 
d="M146 -1h-52v58h52v-58z" />
    <glyph glyph-name="slash" unicode="/" horiz-adv-x="415" 
d="M373 766l-281 -821h-33l282 821h32z" />
    <glyph glyph-name="zero" unicode="0" horiz-adv-x="615" 
d="M124 514v-328q0 -76 55 -118.5t129 -42.5q72 0 127 43t55 118v328q0 74 -57 117.5t-129 42.5t-126 -44t-54 -116zM91 186v328q0 89 63 139t149 51q89 2 155 -48.5t66 -141.5v-328q1 -89 -62.5 -140t-153.5 -51q-91 -2 -155 49.5t-62 141.5z" />
    <glyph glyph-name="one" unicode="1" horiz-adv-x="330" 
d="M168 671h-92v29h125v-700h-33v671z" />
    <glyph glyph-name="two" unicode="2" horiz-adv-x="573" 
d="M287 677q-111 4 -166 -98q-5 2 -13 6l-14 7q57 116 192 116q73 0 122 -35t65 -86.5t0.5 -113t-62.5 -112.5l-292 -328h383v-33h-399l-23 37l309 349q51 56 58.5 124t-35.5 117.5t-125 49.5z" />
    <glyph glyph-name="three" unicode="3" horiz-adv-x="563" 
d="M73 114l27 15q60 -102 171 -102q66 0 119 46t53 125q0 69 -47.5 117t-111.5 48h-34v30h34q59 0 100 35.5t41 97.5q0 69 -47 108t-111 39q-45 0 -87 -22t-63 -61q-6 3 -14.5 8t-9.5 6q26 49 73.5 74.5t102.5 25.5q76 0 132.5 -48t56.5 -130q0 -44 -28.5 -88t-75.5 -60
q59 -27 90.5 -75.5t31.5 -105.5q-1 -90 -63 -146t-143 -56q-61 0 -114 31t-83 88z" />
    <glyph glyph-name="four" unicode="4" horiz-adv-x="546" 
d="M424 700v-508h62v-30h-62v-162h-33v162h-323l-23 30l328 508h51zM391 192v478l-310 -478h310z" />
    <glyph glyph-name="five" unicode="5" horiz-adv-x="586" 
d="M80 110l25 17q31 -49 79 -75.5t103 -26.5q92 0 143 59t50 141q0 74 -51 131.5t-139 57.5q-90 0 -173 -47h-11l48 333h316v-30h-290l-38 -258q76 35 150 35q69 -1 121 -34.5t76.5 -83t24.5 -104.5q0 -95 -62 -163t-167 -68q-61 0 -117 31t-88 85z" />
    <glyph glyph-name="six" unicode="6" horiz-adv-x="607" 
d="M184 401l3 -2q59 46 121 46q107 0 164 -67.5t57 -157.5t-59 -158t-162 -68t-162 68t-59 158q0 76 37 135l216 345h37zM308 414q-76 0 -131 -57.5t-56 -135.5q0 -75 50.5 -136t136.5 -61t137.5 61.5t50.5 135.5q0 73 -51 133t-137 60z" />
    <glyph glyph-name="seven" unicode="7" horiz-adv-x="500" 
d="M427 670h-374v30h393l18 -24l-347 -676h-37z" />
    <glyph glyph-name="eight" unicode="8" horiz-adv-x="591" 
d="M293 -8q-83 0 -145.5 55.5t-63.5 147.5q-1 55 34 108t91 77q-46 25 -71 67t-25 85q0 79 54 127t126 48t126 -47.5t54 -126.5q0 -42 -25 -85t-72 -66q60 -29 94.5 -80t33.5 -107q-1 -92 -64 -147.5t-147 -55.5zM293 677q-66 0 -107 -45t-41 -99q0 -53 41 -97t107 -44
t106 43.5t40 97.5t-39.5 99t-106.5 45zM293 365q-79 0 -127 -53t-48 -118q0 -66 48 -119.5t127 -52.5q80 1 129 55t49 119t-49 117t-129 52z" />
    <glyph glyph-name="nine" unicode="9" horiz-adv-x="609" 
d="M427 301l-3 2q-61 -48 -123 -48q-107 0 -164 67.5t-57 157.5t59 158t162 68t162 -68t59 -158q0 -76 -37 -135l-216 -345h-37zM301 286q76 0 131 57.5t56 135.5q0 75 -50.5 136t-136.5 61t-137.5 -61.5t-50.5 -135.5q0 -73 51 -133t137 -60z" />
    <glyph glyph-name="colon" unicode=":" horiz-adv-x="306" 
d="M176 -1h-52v58h52v-58zM176 434h-52v58h52v-58z" />
    <glyph glyph-name="semicolon" unicode=";" horiz-adv-x="307" 
d="M176 434h-52v58h52v-58zM76 -115l54 165h46l-73 -165h-27z" />
    <glyph glyph-name="less" unicode="&#x3c;" horiz-adv-x="509" 
d="M436 501v-36l-342 -179l342 -175v-36l-380 197v27z" />
    <glyph glyph-name="equal" unicode="=" horiz-adv-x="632" 
d="M110 361v31h411v-31h-411zM110 162v31h411v-31h-411z" />
    <glyph glyph-name="greater" unicode="&#x3e;" horiz-adv-x="508" 
d="M77 465v36l377 -202v-27l-377 -197v36l339 175z" />
    <glyph glyph-name="question" unicode="?" horiz-adv-x="517" 
d="M78 609l-21 19q66 78 172 78q82 0 145 -54.5t62 -142.5q-1 -83 -55 -137t-145 -70l-5 -156h-25l-5 182q85 9 144.5 56.5t58.5 125.5q-1 76 -54 120.5t-121 44.5q-41 0 -82 -17.5t-69 -48.5zM239 1h-39v57h39v-57z" />
    <glyph glyph-name="at" unicode="@" horiz-adv-x="804" 
d="M654 438l4 -5q-40 52 -102.5 81t-131.5 29q-93 0 -167 -49t-111.5 -122.5t-39.5 -154.5q-1 -59 16 -111t51 -94.5t92 -67t134 -24.5q41 0 96 19l13 -29q-68 -22 -109 -22q-83 0 -148 27.5t-103 74.5t-57 104.5t-18 122.5q1 66 26 129.5t68.5 115t110 82.5t144.5 31
q133 0 222.5 -80.5t88.5 -197.5q-1 -105 -62 -190t-146 -74q-51 13 -45 72h-2q-20 -34 -55 -55t-75 -19q-49 2 -84 43t-35 102q0 101 56.5 172.5t151.5 71.5q30 0 64 -22t39 -67h3q3 11 7 24t6.5 21t4.5 14h31l-77 -249q-25 -79 30 -79q64 0 111 73.5t47 161.5q0 77 -49 141
zM260 176q0 -44 26.5 -79.5t65.5 -35.5q66 0 116.5 75t50.5 148q0 45 -22.5 75.5t-63.5 30.5q-82 1 -127.5 -64t-45.5 -150z" />
    <glyph glyph-name="A" unicode="A" horiz-adv-x="635" 
d="M37 0l252 700h58q83 -232 254 -700h-39l-88 243h-314l-84 -243h-39zM318 677h-2l-143 -402h291z" />
    <glyph glyph-name="B" unicode="B" horiz-adv-x="613" 
d="M160 388h153q70 0 110 45t40 99q0 59 -39 100t-111 41h-153v-285zM313 355h-153v-322h153q85 0 134 50.5t49 111.5t-49.5 110.5t-133.5 49.5zM498 532q0 -28 -7.5 -55.5t-33.5 -58t-67 -45.5q74 -23 108 -74t33 -106q0 -87 -63.5 -140t-155.5 -53h-188v705h189
q79 0 132 -45.5t53 -127.5z" />
    <glyph glyph-name="C" unicode="C" horiz-adv-x="733" 
d="M649 605l-24 -22q-43 44 -91.5 67.5t-121.5 23.5q-140 0 -228.5 -91t-88.5 -236q0 -135 88 -228t229 -93q66 0 127 28.5t103 78.5l24 -20q-46 -57 -113 -89t-141 -32q-159 0 -256 103t-97 252t95.5 254.5t257.5 105.5q140 0 237 -102z" />
    <glyph glyph-name="D" unicode="D" horiz-adv-x="729" 
d="M124 705h196q106 0 183.5 -50t113.5 -128.5t37 -174.5q1 -150 -86.5 -251t-248.5 -101h-195v705zM160 34h158q145 0 224 92t77 228q-2 137 -80 227.5t-219 90.5h-160v-638z" />
    <glyph glyph-name="E" unicode="E" horiz-adv-x="531" 
d="M457 707v-34h-300v-303h296v-33h-296v-303h300v-34h-336v707h336z" />
    <glyph glyph-name="F" unicode="F" horiz-adv-x="522" 
d="M461 704v-33h-301v-278h297v-34h-297v-359h-35v704h336z" />
    <glyph glyph-name="G" unicode="G" horiz-adv-x="825" 
d="M413 707q160 0 261 -107l-25 -23q-93 97 -236 97q-138 0 -225.5 -98t-87.5 -227q0 -124 88 -222.5t225 -98.5q107 0 196.5 72t100.5 192h-318v34h354q0 -141 -94.5 -236t-238.5 -95q-104 0 -185.5 53t-122 132.5t-41.5 168.5q0 91 40.5 171.5t122 133.5t186.5 53z" />
    <glyph glyph-name="H" unicode="H" horiz-adv-x="688" 
d="M530 0v359h-371v-359h-36v700h36v-307h371v307h36v-700h-36z" />
    <glyph glyph-name="I" unicode="I" horiz-adv-x="285" 
d="M125 0v700h36v-700h-36z" />
    <glyph glyph-name="J" unicode="J" horiz-adv-x="549" 
d="M50 148l30 9q18 -63 64 -95.5t104 -32.5q61 0 108 43.5t47 115.5v486h-180v31h216v-517q0 -89 -57 -141t-133 -52q-157 0 -199 153z" />
    <glyph glyph-name="K" unicode="K" horiz-adv-x="634" 
d="M161 700v-387l361 387h46l-286 -307l299 -393h-41l-282 367l-97 -98v-269h-36v700h36z" />
    <glyph glyph-name="L" unicode="L" horiz-adv-x="482" 
d="M442 34v-34h-317v700h36v-666h281z" />
    <glyph glyph-name="M" unicode="M" horiz-adv-x="853" 
d="M450 116h-42l-245 553h-2v-669h-36v700h63l240 -549q182 414 240 549h63v-700h-35v670h-3z" />
    <glyph glyph-name="N" unicode="N" horiz-adv-x="733" 
d="M125 700h56l395 -666v666h36v-700h-57l-394 666v-666h-36v700z" />
    <glyph glyph-name="O" unicode="O" horiz-adv-x="853" 
d="M425 712q148 0 252.5 -107.5t104.5 -255.5q0 -85 -32 -155.5t-84 -114.5t-114.5 -68t-126.5 -24q-65 0 -127 24t-113.5 68t-83 114.5t-31.5 155.5q0 147 102.5 255t252.5 108zM105 349q0 -78 28.5 -142.5t75 -104t102.5 -61t114 -21.5t114 21t102.5 60.5t75.5 104
t29 143.5q0 78 -28.5 142t-75 104t-102.5 61.5t-114 21.5t-114 -21.5t-102.5 -61t-75.5 -104t-29 -142.5z" />
    <glyph glyph-name="P" unicode="P" horiz-adv-x="587" 
d="M161 279v-279h-36v705h188q101 0 158 -65.5t57 -150.5q0 -84 -56.5 -147t-157.5 -63h-153zM161 313h152q86 0 132.5 52t46.5 122q0 72 -47.5 129t-131.5 57h-152v-360z" />
    <glyph glyph-name="Q" unicode="Q" horiz-adv-x="852" 
d="M511 217l23 23l116 -114q92 95 92 222q0 79 -30 143.5t-78 103.5t-104 59t-113 20t-113 -20.5t-103.5 -59.5t-77 -103t-29.5 -143q0 -81 29.5 -145t78 -102t104 -57.5t113.5 -19.5q112 0 207 78zM673 102l74 -76l-24 -22l-73 74q-99 -88 -231 -88q-146 0 -253 98
t-107 260q0 105 51 188.5t132.5 127.5t174.5 44q144 0 252 -101.5t108 -258.5q0 -137 -104 -246z" />
    <glyph glyph-name="R" unicode="R" horiz-adv-x="620" 
d="M313 305l238 -305h-44l-237 303h-109v-303h-36v705h201q97 0 156.5 -52.5t60.5 -146.5q1 -99 -57 -150.5t-173 -50.5zM161 337h160q187 0 187 169q0 80 -50.5 122.5t-132.5 42.5h-164v-334z" />
    <glyph glyph-name="S" unicode="S" 
d="M134 536q-8 -114 153 -155q197 -49 189 -212q-3 -84 -65.5 -128.5t-140.5 -44.5q-63 0 -116.5 32.5t-82.5 93.5l30 18q26 -52 71.5 -79.5t98.5 -28.5q73 -1 119 36t50 103q2 34 -7.5 62t-25 45.5t-40 32t-44.5 22t-47 15.5q-183 51 -178 188q3 81 58 125t129 44
q118 0 172 -99l-31 -15q-47 79 -141 79q-60 1 -103.5 -33.5t-47.5 -100.5z" />
    <glyph glyph-name="T" unicode="T" horiz-adv-x="455" 
d="M29 705h397v-34h-181v-671h-35v671h-181v34z" />
    <glyph glyph-name="U" unicode="U" horiz-adv-x="659" 
d="M115 700h36v-508q0 -76 53.5 -120t124.5 -44t125 43.5t54 120.5v508h36v-508q0 -93 -64 -145.5t-151 -52.5t-150.5 52t-63.5 146v508z" />
    <glyph glyph-name="V" unicode="V" horiz-adv-x="631" 
d="M317 20h5l234 680h38l-246 -700h-59l-250 700h38z" />
    <glyph glyph-name="W" unicode="W" horiz-adv-x="958" 
d="M678 24h4l181 676h39l-193 -700h-57l-168 549l-168 -549h-57l-196 700h38l185 -677h4l174 572h40z" />
    <glyph glyph-name="X" unicode="X" horiz-adv-x="647" 
d="M589 700l-236 -350q212 -310 240 -350h-41l-223 325q-98 -141 -224 -325h-41l241 350q-38 56 -117.5 175.5t-117.5 174.5h40l219 -326l218 326h42z" />
    <glyph glyph-name="Y" unicode="Y" horiz-adv-x="580" 
d="M545 700l-237 -418v-282h-35v283l-235 417h40l213 -387l214 387h40z" />
    <glyph glyph-name="Z" unicode="Z" horiz-adv-x="572" 
d="M467 671h-382v34h424v-30l-405 -640h401v-35h-445v26z" />
    <glyph glyph-name="bracketleft" unicode="[" horiz-adv-x="315" 
d="M267 779v-29h-105v-796h104v-30h-137v855h138z" />
    <glyph glyph-name="backslash" unicode="\" horiz-adv-x="420" 
d="M328 -55l-281 821h32l282 -821h-33z" />
    <glyph glyph-name="bracketright" unicode="]" horiz-adv-x="316" 
d="M54 750v29h138v-855h-137v30h104v796h-105z" />
    <glyph glyph-name="asciicircum" unicode="^" horiz-adv-x="613" 
d="M102 317l193 384h24l191 -384h-34l-169 352l-172 -352h-33z" />
    <glyph glyph-name="underscore" unicode="_" horiz-adv-x="558" 
d="M54 -10h459v-32h-459v32z" />
    <glyph glyph-name="grave" unicode="`" horiz-adv-x="472" 
d="M246 752l-66 97h42l53 -97h-29z" />
    <glyph glyph-name="a" unicode="a" 
d="M445 94v158q-68 42 -161 42q-87 0 -135.5 -40.5t-48.5 -95.5q0 -53 46 -92.5t128 -39.5q46 0 94.5 17.5t76.5 50.5zM481 0h-25l-10 54q-61 -59 -172 -61q-98 -1 -154 49t-56 116q0 67 57 117t162 51q33 0 80 -11t82 -31v44q0 80 -50.5 115t-125.5 35q-76 0 -144 -43
l-17 26q71 50 162 50q88 0 149.5 -44.5t61.5 -138.5v-328z" />
    <glyph glyph-name="b" unicode="b" horiz-adv-x="585" 
d="M282 509q111 -1 173.5 -78t62.5 -180t-60.5 -179.5t-167.5 -77.5q-96 -2 -151 69l-5 -63h-30v701h36v-244q61 52 142 52zM280 27q96 2 149.5 66.5t53.5 156.5t-51 156t-138 70q-97 5 -155 -61v-309q56 -79 141 -79z" />
    <glyph glyph-name="c" unicode="c" horiz-adv-x="538" 
d="M310 487q-87 1 -154.5 -61t-68.5 -177q0 -99 61.5 -163t161.5 -64q97 0 153 56l21 -24q-40 -36 -79 -50t-95 -14q-116 0 -186.5 74t-70.5 186q0 114 71.5 190.5t186.5 77.5q108 0 171 -59l-22 -24q-53 52 -150 52z" />
    <glyph glyph-name="d" unicode="d" horiz-adv-x="586" 
d="M304 509q81 0 142 -52v244h36v-701h-31l-4 63q-55 -71 -151 -69q-107 1 -167.5 77.5t-60.5 179.5t62.5 180t173.5 78zM306 27q85 0 141 79v309q-58 66 -155 61q-85 -6 -137 -74.5t-52 -151.5q0 -89 53.5 -155t149.5 -68z" />
    <glyph glyph-name="e" unicode="e" horiz-adv-x="615" 
d="M309 25q42 0 86 17t71 49l24 -21q-72 -78 -181 -78q-114 0 -184 79.5t-69 186.5q0 108 69.5 181t182.5 74q103 1 174.5 -67t71.5 -171q0 -16 -1 -24h-462q3 -94 64.5 -160t153.5 -66zM91 280h431q0 95 -64 147t-150 54q-91 -1 -152 -54.5t-65 -146.5z" />
    <glyph glyph-name="f" unicode="f" horiz-adv-x="300" 
d="M282 700v-30q-71 3 -99.5 -25t-28.5 -81v-57h116v-31h-116v-476h-36v476h-67v31h67v57q0 74 43 107.5t121 28.5z" />
    <glyph glyph-name="g" unicode="g" horiz-adv-x="579" 
d="M297 512q93 2 148 -50l3 45h31v-520q0 -91 -53 -138.5t-133 -49.5q-58 -1 -100 15t-91 57l21 23q73 -65 169 -63q64 1 108.5 42t44.5 114v61q-56 -55 -156 -53q-106 1 -166.5 77t-60.5 179q0 66 25.5 123.5t80 97t129.5 40.5zM299 27q92 0 146 63v336q-50 57 -160 51
q-88 -12 -137.5 -75.5t-50.5 -151.5t52.5 -154.5t149.5 -68.5z" />
    <glyph glyph-name="h" unicode="h" horiz-adv-x="600" 
d="M288 509q94 -4 155 -61t60 -155v-293h-36v294q0 83 -55 133t-128 50q-92 0 -144 -62v-415h-35v700h36v-247q59 61 147 56z" />
    <glyph glyph-name="i" unicode="i" horiz-adv-x="245" 
d="M140 0h-36v509h36v-509zM143 692v-57h-43v57h43z" />
    <glyph glyph-name="j" unicode="j" horiz-adv-x="245" 
d="M1 -179v31q51 0 77 27t26 74v555h36v-555q0 -65 -36 -98.5t-103 -33.5zM144 691v-55h-44v55h44z" />
    <glyph glyph-name="k" unicode="k" horiz-adv-x="522" 
d="M102 700h35v-462l277 269h45l-217 -211l231 -296h-40l-215 272l-81 -74v-198h-35v700z" />
    <glyph glyph-name="l" unicode="l" horiz-adv-x="276" 
d="M216 30v-32q-58 -1 -88 32.5t-30 99.5v570h36v-570q0 -48 19 -73t63 -27z" />
    <glyph glyph-name="m" unicode="m" horiz-adv-x="927" 
d="M283 484q-85 2 -144 -68v-416h-35v507h30l6 -54q63 64 147 63q146 -3 181 -117q38 115 172 115q190 0 190 -210v-304h-35v304q0 177 -155 177q-154 0 -155 -167v-314h-35v314q-2 80 -44 125t-123 45z" />
    <glyph glyph-name="n" unicode="n" horiz-adv-x="620" 
d="M287 514q100 -1 167.5 -56.5t67.5 -158.5v-299h-34v300q0 89 -59 135.5t-146 48.5q-85 2 -144 -68v-416h-35v507h31l5 -54q59 61 147 61z" />
    <glyph glyph-name="o" unicode="o" horiz-adv-x="638" 
d="M90 253q0 -59 20.5 -105.5t54.5 -73t72.5 -40t78.5 -13.5q41 0 79.5 13.5t72.5 40t54.5 73t20.5 105.5q0 58 -20.5 104.5t-54.5 73.5t-73 41t-79 14t-78.5 -13.5t-72.5 -40.5t-54.5 -73.5t-20.5 -105.5zM577 253q0 -116 -76.5 -190t-184.5 -74q-107 0 -184 74t-77 190
t77 190.5t184 74.5q108 0 184.5 -73.5t76.5 -191.5z" />
    <glyph glyph-name="p" unicode="p" horiz-adv-x="588" 
d="M282 -2q-81 0 -142 52v-251h-36v708h30l5 -63q55 71 151 69q107 -1 167.5 -77.5t60.5 -179.5t-62.5 -180t-173.5 -78zM280 480q-85 0 -141 -79v-309q58 -66 155 -61q85 6 137 74.5t52 151.5q0 89 -53.5 155t-149.5 68z" />
    <glyph glyph-name="q" unicode="q" horiz-adv-x="589" 
d="M306 -2q-111 1 -173.5 78t-62.5 180t60.5 179.5t167.5 77.5q95 2 150 -69l5 63h31l1 -708h-37v251q-61 -52 -142 -52zM308 480q-96 -2 -149.5 -68t-53.5 -155q0 -83 52 -151.5t137 -74.5q97 -5 155 61v309q-56 79 -141 79z" />
    <glyph glyph-name="r" unicode="r" horiz-adv-x="408" 
d="M97 506h30l6 -77q49 84 151 84q46 0 95 -25l-13 -30q-39 22 -82 22q-63 0 -108 -42t-44 -111v-327h-35v506z" />
    <glyph glyph-name="s" unicode="s" horiz-adv-x="443" 
d="M227 273q64 -13 107.5 -49t43.5 -90q0 -68 -48 -105.5t-114 -38.5q-98 0 -145 65q1 1 22 25q46 -58 127 -58q50 0 86 29.5t37 82.5q-1 43 -39 70t-84 36q-59 10 -99.5 45t-41.5 89q0 64 47.5 102.5t110.5 38.5q74 0 122 -41l-19 -23q-40 34 -101 34q-53 0 -89 -30
t-35 -81q1 -79 112 -101z" />
    <glyph glyph-name="t" unicode="t" horiz-adv-x="317" 
d="M250 27v-29q-63 -3 -101 30t-38 102v349h-80v28h80v132l35 7v-139h96v-28h-96v-349q0 -49 26.5 -76t77.5 -27z" />
    <glyph glyph-name="u" unicode="u" horiz-adv-x="619" 
d="M332 -7q-101 1 -168 54.5t-67 156.5v303h33v-304q0 -88 59 -133t147 -47q86 -2 145 68v416h34v-507h-31l-4 54q-59 -61 -148 -61z" />
    <glyph glyph-name="v" unicode="v" horiz-adv-x="488" 
d="M76 507l168 -488h4l165 488h37q-26 -74 -85 -246.5t-90 -261.5h-58l-178 508h37z" />
    <glyph glyph-name="w" unicode="w" horiz-adv-x="722" 
d="M335 507h50l118 -483h3l135 483h37l-148 -507h-55l-114 482h-2l-112 -482h-56l-145 507h36l136 -483h3z" />
    <glyph glyph-name="x" unicode="x" horiz-adv-x="518" 
d="M257 279l157 228h41l-175 -253l180 -254h-41l-162 229l-160 -229h-41l177 254l-175 253h41z" />
    <glyph glyph-name="y" unicode="y" horiz-adv-x="508" 
d="M100 -197v31q43 0 65 12.5t34 44.5l42 106l-208 510h38l188 -471l181 471h38l-246 -626q-29 -78 -120 -78h-12z" />
    <glyph glyph-name="z" unicode="z" horiz-adv-x="464" 
d="M359 476h-279v31h318v-30l-295 -444h297v-33h-337v30z" />
    <glyph glyph-name="braceleft" unicode="{" horiz-adv-x="316" 
d="M257 778v-26q-40 0 -59.5 -13.5t-19.5 -57.5v-166q0 -139 -68 -166q34 -13 50.5 -58t16.5 -105v-158q0 -41 20.5 -56.5t59.5 -15.5v-30q-62 0 -86.5 26t-24.5 74v155q0 129 -67 147v42q67 16 67 147v164q0 44 22.5 70.5t63.5 26.5h25z" />
    <glyph glyph-name="bar" unicode="|" horiz-adv-x="289" 
d="M124 -152v935h33v-935h-33z" />
    <glyph glyph-name="braceright" unicode="}" horiz-adv-x="316" 
d="M54 752v26h25q41 0 63.5 -26.5t22.5 -70.5v-164q0 -131 67 -147v-42q-67 -18 -67 -147v-155q0 -48 -24.5 -74t-86.5 -26v30q39 0 59.5 15.5t20.5 56.5v158q0 60 16.5 105t50.5 58q-68 27 -68 166v166q0 44 -19.5 57.5t-59.5 13.5z" />
    <glyph glyph-name="asciitilde" unicode="~" horiz-adv-x="589" 
d="M482 354l23 -13q-41 -75 -115 -77q-34 -1 -95 33.5t-85 34.5q-52 0 -99 -63q-6 4 -12.5 7.5t-9.5 5.5q51 84 120 84q35 0 96 -34.5t86 -34.5q29 0 49 13.5t42 43.5z" />
    <glyph glyph-name="uni00A0" unicode="&#xa0;" horiz-adv-x="257" 
 />
    <glyph glyph-name="exclamdown" unicode="&#xa1;" horiz-adv-x="295" 
d="M129 339h33v-540h-34q0 89 0.5 269.5t0.5 270.5zM122 505h46v-62h-46v62z" />
    <glyph glyph-name="cent" unicode="&#xa2;" horiz-adv-x="556" 
d="M303 0v91q-102 9 -163.5 85.5t-61.5 173.5q1 98 64 173.5t162 85.5v91h30v-90q44 -6 72 -17t57 -34q-4 -4 -10 -14t-6 -11q-55 44 -124 44q-85 0 -147.5 -65t-63.5 -165q0 -89 60 -157.5t147 -66.5q39 1 66 9.5t66 34.5l19 -22q-53 -44 -137 -54v-92h-30z" />
    <glyph glyph-name="sterling" unicode="&#xa3;" horiz-adv-x="596" 
d="M519 560l-27 -5q-19 61 -63.5 91t-100.5 30q-64 0 -109 -39.5t-45 -120.5v-155h225v-29h-225v-301h354v-31h-443v31h57v301h-55v29h55v155q0 89 54.5 139.5t129.5 50.5q65 0 118.5 -36.5t74.5 -109.5z" />
    <glyph glyph-name="yen" unicode="&#xa5;" horiz-adv-x="596" 
d="M121 213v28h164v42l-39 68h-125v30h108l-179 319h40l213 -387l214 387h40l-181 -319h107v-30h-124l-39 -69v-41h163v-28h-163v-213h-35v213h-164z" />
    <glyph glyph-name="brokenbar" unicode="&#xa6;" horiz-adv-x="272" 
d="M119 -149v402h35v-402h-35zM154 782v-407h-35v407h35z" />
    <glyph glyph-name="section" unicode="&#xa7;" horiz-adv-x="460" 
d="M232 266h3h-1q28 -5 68 -21q63 34 63 90q0 34 -21.5 56t-45.5 29t-64 15t-56 13q-65 -33 -64 -89q0 -23 11 -40.5t31 -27.5t37 -15.5t39 -9.5zM156 459l-16 11q-17 13 -29.5 39.5t-12.5 54.5q0 62 45.5 100t107.5 38q71 0 126 -47l-19 -20q-40 34 -109 36
q-49 1 -84.5 -29.5t-34.5 -77.5q0 -81 118 -101q148 -23 148 -128q0 -29 -16.5 -58t-52.5 -45q55 -42 55 -99q0 -65 -51.5 -101.5t-111.5 -36.5q-91 0 -145 66l21 21q49 -54 124 -54q49 -1 90 28t40 77q0 77 -126 103q-140 23 -140 123q0 66 73 100z" />
    <glyph glyph-name="dieresis" unicode="&#xa8;" horiz-adv-x="513" 
d="M196 790h-48v49h48v-49zM369 790h-48v49h48v-49z" />
    <glyph glyph-name="copyright" unicode="&#xa9;" horiz-adv-x="835" 
d="M75 350q0 151 100 252t241 101q142 0 242.5 -101t100.5 -252t-100.5 -253t-242.5 -102q-141 0 -241 102t-100 253zM425 199q57 0 97 29l16 -21q-49 -39 -113 -39q-45 0 -85.5 23t-64.5 63v-1q-23 42 -23.5 96t21.5 96q48 89 152 89q62 0 108 -40l-16 -20q-40 29 -92 29
q-86 0 -124 -71q-21 -37 -20 -85.5t24 -85.5q40 -62 120 -62zM107 350q0 -140 90 -232t219 -92q131 0 221 92t90 232t-90 231t-221 91q-130 0 -219.5 -91t-89.5 -231z" />
    <glyph glyph-name="ordfeminine" unicode="&#xaa;" horiz-adv-x="481" 
d="M367 350l-7 40q-64 -60 -143 -42q-58 13 -97.5 60.5t-39.5 112.5q0 73 52 127.5t123 56.5q77 3 136 -22v-333h-24zM390 263v-28h-290v28h290zM361 428l1 237q-49 17 -107 13q-62 -5 -103.5 -50.5t-41.5 -107.5q0 -52 32 -93t82 -53q85 -18 137 54z" />
    <glyph glyph-name="guillemotleft" unicode="&#xab;" horiz-adv-x="520" 
d="M235 83l-160 199l160 202h41l-161 -202l161 -199h-41zM411 83l-160 199l160 202h41l-161 -202l161 -199h-41z" />
    <glyph glyph-name="logicalnot" unicode="&#xac;" horiz-adv-x="628" 
d="M80 375v33h451v-247h-32v214h-419z" />
    <glyph glyph-name="uni00AD" unicode="&#xad;" horiz-adv-x="445" 
d="M83 279v32h280v-32h-280z" />
    <glyph glyph-name="registered" unicode="&#xae;" horiz-adv-x="835" 
d="M426 322l119 -148h-39l-114 146h-49v-146h-30v361h111q52 0 86.5 -29t35.5 -78q0 -44 -32.5 -75t-87.5 -31zM343 507v-159h81q45 1 68.5 24.5t23.5 56.5t-23.5 55.5t-68.5 22.5h-81zM75 350q0 151 100 252t241 101q142 0 242.5 -101t100.5 -252t-100.5 -253t-242.5 -102
q-141 0 -241 102t-100 253zM107 350q0 -140 90 -232t219 -92q131 0 221 92t90 232t-90 231t-221 91q-130 0 -219.5 -91t-89.5 -231z" />
    <glyph glyph-name="macron" unicode="&#xaf;" horiz-adv-x="513" 
d="M132 762v29h247v-29h-247z" />
    <glyph glyph-name="degree" unicode="&#xb0;" horiz-adv-x="396" 
d="M193 481q-46 0 -78.5 32.5t-32.5 78.5t32.5 78.5t78.5 32.5t79 -32.5t33 -78.5t-33 -78.5t-79 -32.5zM193 508q35 0 59 25t24 59t-24 58.5t-59 24.5t-59 -24.5t-24 -58.5t24 -59t59 -25z" />
    <glyph glyph-name="plusminus" unicode="&#xb1;" horiz-adv-x="695" 
d="M129 33h437v-29h-437v29zM122 364v31h206v209h29v-209h209v-31h-209v-211h-29v211h-206z" />
    <glyph glyph-name="twosuperior" unicode="&#xb2;" horiz-adv-x="409" 
d="M297 541l-185 -177h245v-31h-283q-2 5 -12 25q36 33 107.5 102t106.5 102q56 56 29 108.5t-99 54.5q-76 3 -111 -52l-23 16q41 66 135 66q42 0 76.5 -21.5t50.5 -52.5t7.5 -69.5t-44.5 -70.5z" />
    <glyph glyph-name="threesuperior" unicode="&#xb3;" horiz-adv-x="420" 
d="M352 424q-1 -57 -44.5 -92t-101.5 -35q-39 0 -77 19.5t-61 52.5l24 16q46 -57 116 -57q43 0 78 27t35 70q0 44 -31 70.5t-74 26.5h-25v27h25q38 0 65 21t27 59q0 39 -30 62t-70 23q-65 0 -96 -43l-24 14q18 28 50.5 43t68.5 15q53 0 92.5 -31t39.5 -83q0 -33 -18 -59.5
t-46 -33.5v-1q37 -7 57.5 -41.5t19.5 -69.5z" />
    <glyph glyph-name="acute" unicode="&#xb4;" horiz-adv-x="489" 
d="M295 849l-66 -97h-29l53 97h42z" />
    <glyph glyph-name="mu" unicode="&#xb5;" horiz-adv-x="567" 
d="M467 507v-507h-35l1 122q-48 -102 -158 -102q-20 0 -41 4.5t-47 23t-39 49.5v-293h-33v703h34v-310q0 -60 31 -101.5t94 -41.5q66 0 113 47.5t47 132.5v273h33z" />
    <glyph glyph-name="mu" unicode="&#x3bc;" horiz-adv-x="567" 
d="M467 507v-507h-35l1 122q-48 -102 -158 -102q-20 0 -41 4.5t-47 23t-39 49.5v-293h-33v703h34v-310q0 -60 31 -101.5t94 -41.5q66 0 113 47.5t47 132.5v273h33z" />
    <glyph glyph-name="paragraph" unicode="&#xb6;" horiz-adv-x="570" 
d="M263 -113v422q-98 4 -152.5 61t-54.5 132q0 80 56 139t157 59h200v-813h-32v782h-142v-782h-32z" />
    <glyph glyph-name="periodcentered" unicode="&#xb7;" horiz-adv-x="274" 
d="M110 269v54h49v-54h-49z" />
    <glyph glyph-name="cedilla" unicode="&#xb8;" horiz-adv-x="513" 
d="M277 3l-28 -56q51 -1 72 -21.5t17 -49.5q-3 -23 -25.5 -39.5t-55 -17.5t-71.5 21l4 24q27 -16 55 -17.5t45 8.5t19 24q3 26 -25 38t-72 5l42 81h23z" />
    <glyph glyph-name="onesuperior" unicode="&#xb9;" horiz-adv-x="308" 
d="M141 264v408h-64v27h95v-435h-31z" />
    <glyph glyph-name="ordmasculine" unicode="&#xba;" horiz-adv-x="481" 
d="M240 419q-61 0 -101.5 40t-40.5 102q0 59 41 99t100 40q60 0 101.5 -40t41.5 -99q0 -62 -41 -102t-101 -40zM240 446q47 0 79.5 32.5t32.5 82.5q0 49 -32.5 80.5t-79.5 31.5t-80 -31.5t-33 -80.5q0 -50 33 -82.5t80 -32.5zM106 297v32h270v-32h-270z" />
    <glyph glyph-name="guillemotright" unicode="&#xbb;" horiz-adv-x="535" 
d="M297 483l160 -199l-160 -202h-41l161 202l-161 199h41zM121 483l160 -199l-160 -202h-41l161 202l-161 199h41z" />
    <glyph glyph-name="onequarter" unicode="&#xbc;" horiz-adv-x="927" 
d="M267 -29h-32l375 781h32zM807 425v-298h39v-28h-39v-99h-30v99h-211l-25 31l225 295h41zM575 127h202v265zM185 305v367h-64v27h95v-394h-31z" />
    <glyph glyph-name="onehalf" unicode="&#xbd;" horiz-adv-x="941" 
d="M229 -28h-35l374 778h34zM171 305v367h-64v27h95v-394h-31zM779 206l-185 -177h245v-31h-283q-2 5 -12 25q36 33 107 102t107 102q56 56 29 108.5t-99 54.5q-76 3 -111 -52l-23 16q41 66 135 66q42 0 76.5 -21.5t50.5 -52.5t7.5 -69.5t-44.5 -70.5z" />
    <glyph glyph-name="threequarters" unicode="&#xbe;" horiz-adv-x="993" 
d="M842 425v-298h39v-28h-39v-99h-30v99h-211l-25 31l225 295h41zM610 127h202v265zM336 -29h-32l375 781h32zM358 396q-1 -57 -44.5 -92t-101.5 -35q-39 0 -77 19.5t-61 52.5l24 16q46 -57 116 -57q43 0 78 27t35 70q0 44 -31 70.5t-74 26.5h-25v27h25q38 0 65 21t27 59
q0 39 -30 62t-70 23q-65 0 -96 -43l-24 14q18 28 50.5 43t68.5 15q53 0 92.5 -31t39.5 -83q0 -33 -18 -59.5t-46 -33.5v-1q37 -7 57.5 -41.5t19.5 -69.5z" />
    <glyph glyph-name="questiondown" unicode="&#xbf;" horiz-adv-x="502" 
d="M432 -91l21 -19q-66 -78 -172 -78q-82 0 -145 54.5t-62 142.5q1 83 55 137t145 70l5 156h25l5 -182q-85 -9 -144.5 -56.5t-58.5 -125.5q1 -76 54 -120.5t121 -44.5q41 0 82 17.5t69 48.5zM271 517h39v-57h-39v57z" />
    <glyph glyph-name="Agrave" unicode="&#xc0;" horiz-adv-x="635" 
d="M37 0l252 700h58q83 -232 254 -700h-39l-88 243h-314l-84 -243h-39zM318 677h-2l-143 -402h291zM305 744l-66 97h42l53 -97h-29z" />
    <glyph glyph-name="Aacute" unicode="&#xc1;" horiz-adv-x="635" 
d="M289 700l-252 -700h39l84 243h314l88 -243h39q-171 468 -254 700h-58zM316 677h2l146 -402h-291zM399 843l-66 -97h-29l53 97h42z" />
    <glyph glyph-name="Acircumflex" unicode="&#xc2;" horiz-adv-x="635" 
d="M37 0l252 700h58q83 -232 254 -700h-39l-88 243h-314l-84 -243h-39zM318 677h-2l-143 -402h291zM212 737l86 100h41l82 -100h-29l-74 79l-76 -79h-30z" />
    <glyph glyph-name="Atilde" unicode="&#xc3;" horiz-adv-x="635" 
d="M37 0l252 700h58q83 -232 254 -700h-39l-88 243h-314l-84 -243h-39zM318 677h-2l-143 -402h291zM416 796l13 -12q-14 -24 -27.5 -33t-34.5 -9q-17 0 -46 18t-45 18q-31 0 -53 -30l-13 9q22 48 65 48q19 0 48.5 -18.5t44.5 -18.5q18 0 27 5t21 23z" />
    <glyph glyph-name="Adieresis" unicode="&#xc4;" horiz-adv-x="635" 
d="M37 0l252 700h58q83 -232 254 -700h-39l-88 243h-314l-84 -243h-39zM318 677h-2l-143 -402h291zM258 746h-46v46h46v-46zM429 746h-46v46h46v-46z" />
    <glyph glyph-name="Aring" unicode="&#xc5;" horiz-adv-x="635" 
d="M37 0l252 700h58q83 -232 254 -700h-39l-88 243h-314l-84 -243h-39zM318 677h-2l-143 -402h291zM320 845q22 1 37.5 -11t19 -28.5t0 -33.5t-19 -29t-37.5 -12q-38 0 -53.5 29t0 57.5t53.5 27.5zM320 825q-25 0 -35.5 -18.5t0 -37.5t35.5 -19t35.5 19t0 37.5t-35.5 18.5z
" />
    <glyph glyph-name="AE" unicode="&#xc6;" horiz-adv-x="869" 
d="M424 700h372v-31h-301v-300h298v-32h-298v-305h301v-32h-336v255h-229l-136 -255h-38zM460 672h-14l-199 -386h213v386z" />
    <glyph glyph-name="Ccedilla" unicode="&#xc7;" horiz-adv-x="733" 
d="M649 609l-24 -24q-42 43 -91 66t-122 23q-138 0 -222 -92t-84 -235q0 -132 84 -226.5t222 -94.5q67 0 127.5 27.5t102.5 77.5l24 -20q-46 -56 -112.5 -87.5t-141.5 -31.5q-105 0 -184.5 51.5t-118.5 131t-39 172.5q0 69 22 133t63.5 115t108 81.5t148.5 30.5
q144 0 237 -98zM422 12l-28 -56q51 -1 72 -21.5t17 -49.5q-3 -23 -25.5 -39.5t-55 -17.5t-71.5 21l4 24q27 -16 55 -17.5t45 8.5t19 24q3 26 -25 38t-72 5l42 81h23z" />
    <glyph glyph-name="Egrave" unicode="&#xc8;" horiz-adv-x="531" 
d="M457 707v-34h-300v-303h296v-33h-296v-303h300v-34h-336v707h336zM302 777l-66 97h42l53 -97h-29z" />
    <glyph glyph-name="Eacute" unicode="&#xc9;" horiz-adv-x="531" 
d="M457 707v-34h-300v-303h296v-33h-296v-303h300v-34h-336v707h336zM369 868l-66 -97h-29l53 97h42z" />
    <glyph glyph-name="Ecircumflex" unicode="&#xca;" horiz-adv-x="531" 
d="M457 707v-34h-300v-303h296v-33h-296v-303h300v-34h-336v707h336zM190 777l84 87h40l80 -87h-28l-72 69l-74 -69h-30z" />
    <glyph glyph-name="Edieresis" unicode="&#xcb;" horiz-adv-x="531" 
d="M457 707v-34h-300v-303h296v-33h-296v-303h300v-34h-336v707h336zM246 797h-45v44h45v-44zM411 797h-46v44h46v-44z" />
    <glyph glyph-name="Igrave" unicode="&#xcc;" horiz-adv-x="285" 
d="M125 0v700h36v-700h-36zM129 768l-66 97h42l53 -97h-29z" />
    <glyph glyph-name="Iacute" unicode="&#xcd;" horiz-adv-x="285" 
d="M125 700v-700h36v700h-36zM223 858l-66 -97h-29l53 97h42z" />
    <glyph glyph-name="Icircumflex" unicode="&#xce;" horiz-adv-x="285" 
d="M125 0v700h36v-700h-36zM38 743l86 100h41l82 -100h-29l-74 79l-76 -79h-30z" />
    <glyph glyph-name="Idieresis" unicode="&#xcf;" horiz-adv-x="285" 
d="M125 0v700h36v-700h-36zM84 749h-46v45h46v-45zM248 749h-46v45h46v-45z" />
    <glyph glyph-name="Eth" unicode="&#xd0;" horiz-adv-x="729" 
d="M58 333v29h67v338h196q80 -1 145 -31.5t104.5 -79.5t61.5 -111t22 -127t-22 -127t-62 -111t-105 -80t-145 -33h-195v333h-67zM161 34h158q95 3 165 50t101 116t31.5 149.5t-31 149.5t-101 117t-163.5 51h-160v-305h143v-29h-143v-299z" />
    <glyph glyph-name="Ntilde" unicode="&#xd1;" horiz-adv-x="733" 
d="M125 700h56l395 -666v666h36v-700h-57l-394 666v-666h-36v700zM464 795l16 -14q-24 -41 -65 -41q-18 0 -47 18.5t-45 18.5q-32 0 -54 -31l-14 11q10 24 29 35.5t38 11.5t49 -18.5t45 -18.5q18 0 26.5 5t21.5 23z" />
    <glyph glyph-name="Ograve" unicode="&#xd2;" horiz-adv-x="854" 
d="M415 753l-66 97h42l53 -97h-29zM425 712q148 0 252.5 -107.5t104.5 -255.5q0 -85 -32 -155.5t-84 -114.5t-114.5 -68t-126.5 -24q-65 0 -127 24t-113.5 68t-83 114.5t-31.5 155.5q0 147 102.5 255t252.5 108zM105 349q0 -78 28.5 -142.5t75 -104t102.5 -61t114 -21.5
t114 21t102.5 60.5t75.5 104t29 143.5q0 78 -28.5 142t-75 104t-102.5 61.5t-114 21.5t-114 -21.5t-102.5 -61t-75.5 -104t-29 -142.5z" />
    <glyph glyph-name="Oacute" unicode="&#xd3;" horiz-adv-x="854" 
d="M508 848l-66 -97h-29l53 97h42zM425 712q-150 0 -252.5 -108t-102.5 -255q0 -85 31.5 -155.5t83 -114.5t113.5 -68t127 -24q64 0 126.5 24t114.5 68t84 114.5t32 155.5q0 148 -104.5 255.5t-252.5 107.5zM105 349q0 78 29 142.5t75.5 104t102.5 61t114 21.5t114 -21.5
t102.5 -61.5t75 -104t28.5 -142q0 -79 -29 -143.5t-75.5 -104t-102.5 -60.5t-114 -21t-114 21.5t-102.5 61t-75 104t-28.5 142.5z" />
    <glyph glyph-name="Ocircumflex" unicode="&#xd4;" horiz-adv-x="824" 
d="M326 746l86 97h41l82 -97h-29l-74 76l-76 -76h-30zM425 712q148 0 252.5 -107.5t104.5 -255.5q0 -85 -32 -155.5t-84 -114.5t-114.5 -68t-126.5 -24q-65 0 -127 24t-113.5 68t-83 114.5t-31.5 155.5q0 147 102.5 255t252.5 108zM105 349q0 -78 28.5 -142.5t75 -104
t102.5 -61t114 -21.5t114 21t102.5 60.5t75.5 104t29 143.5q0 78 -28.5 142t-75 104t-102.5 61.5t-114 21.5t-114 -21.5t-102.5 -61t-75.5 -104t-29 -142.5z" />
    <glyph glyph-name="Otilde" unicode="&#xd5;" horiz-adv-x="854" 
d="M525 811l17 -12q-25 -44 -65 -44q-17 0 -45.5 19t-44.5 19q-32 0 -53 -31l-16 10q11 24 30.5 36t37.5 12q19 0 48 -18.5t44 -18.5q18 0 26.5 5t20.5 23zM425 712q148 0 252.5 -107.5t104.5 -255.5q0 -85 -32 -155.5t-84 -114.5t-114.5 -68t-126.5 -24q-65 0 -127 24
t-113.5 68t-83 114.5t-31.5 155.5q0 147 102.5 255t252.5 108zM105 349q0 -78 28.5 -142.5t75 -104t102.5 -61t114 -21.5t114 21t102.5 60.5t75.5 104t29 143.5q0 78 -28.5 142t-75 104t-102.5 61.5t-114 21.5t-114 -21.5t-102.5 -61t-75.5 -104t-29 -142.5z" />
    <glyph glyph-name="Odieresis" unicode="&#xd6;" horiz-adv-x="852" 
d="M366 759h-48v49h48v-49zM539 759h-48v49h48v-49zM425 712q148 0 252.5 -107.5t104.5 -255.5q0 -85 -32 -155.5t-84 -114.5t-114.5 -68t-126.5 -24q-65 0 -127 24t-113.5 68t-83 114.5t-31.5 155.5q0 147 102.5 255t252.5 108zM105 349q0 -78 28.5 -142.5t75 -104
t102.5 -61t114 -21.5t114 21t102.5 60.5t75.5 104t29 143.5q0 78 -28.5 142t-75 104t-102.5 61.5t-114 21.5t-114 -21.5t-102.5 -61t-75.5 -104t-29 -142.5z" />
    <glyph glyph-name="multiply" unicode="&#xd7;" horiz-adv-x="523" 
d="M96 442l20 20l152 -151l146 145q5 -5 12 -11.5t9 -8.5l-148 -146l152 -150l-10.5 -10.5l-9.5 -9.5l-151 150l-154 -154q-4 5 -11 11t-10 10l155 154z" />
    <glyph glyph-name="Oslash" unicode="&#xd8;" horiz-adv-x="847" 
d="M255 30l-46 -75h-35l55 91q-68 47 -111.5 125.5t-43.5 177.5q0 144 101 252t250 108q93 0 171 -46l49 85h35l-59 -99q69 -51 113 -132.5t44 -167.5q0 -111 -54 -195t-133 -124t-166 -40q-100 0 -170 40zM109 349q0 -90 38.5 -162.5t98.5 -114.5l333 566q-63 37 -153 37
q-57 0 -113 -21.5t-101.5 -61.5t-74 -103.5t-28.5 -139.5zM425 23q58 0 113.5 21t102 60t75 103t28.5 142q0 88 -39.5 158.5t-99.5 113.5l-334 -565q58 -33 154 -33z" />
    <glyph glyph-name="Ugrave" unicode="&#xd9;" horiz-adv-x="659" 
d="M115 700h36v-508q0 -76 53.5 -120t124.5 -44t125 43.5t54 120.5v508h36v-508q0 -93 -64 -145.5t-151 -52.5t-150.5 52t-63.5 146v508zM332 746l-66 97h42l53 -97h-29z" />
    <glyph glyph-name="Uacute" unicode="&#xda;" horiz-adv-x="659" 
d="M151 700h-36v-508q0 -94 63.5 -146t150.5 -52t151 52.5t64 145.5v508h-36v-508q0 -77 -54 -120.5t-125 -43.5t-124.5 44t-53.5 120v508zM395 840l-66 -97h-29l53 97h42z" />
    <glyph glyph-name="Ucircumflex" unicode="&#xdb;" horiz-adv-x="659" 
d="M115 700h36v-508q0 -76 53.5 -120t124.5 -44t125 43.5t54 120.5v508h36v-508q0 -93 -64 -145.5t-151 -52.5t-150.5 52t-63.5 146v508zM227 740l86 100h41l82 -100h-31l-72 79l-75 -79h-31z" />
    <glyph glyph-name="Udieresis" unicode="&#xdc;" horiz-adv-x="659" 
d="M115 700h36v-508q0 -76 53.5 -120t124.5 -44t125 43.5t54 120.5v508h36v-508q0 -93 -64 -145.5t-151 -52.5t-150.5 52t-63.5 146v508zM269 744h-48v49h48v-49zM442 744h-48v49h48v-49z" />
    <glyph glyph-name="Yacute" unicode="&#xdd;" horiz-adv-x="580" 
d="M308 282l237 418h-40l-214 -387l-213 387h-40l235 -417v-283h35v282zM368 837l-66 -97h-29l53 97h42z" />
    <glyph glyph-name="Thorn" unicode="&#xde;" horiz-adv-x="581" 
d="M157 161v-163h-36v702h36v-132h152q101 0 158 -61.5t57 -144.5t-56.5 -142t-157.5 -59h-153zM157 194h152q83 0 131 51.5t48 116.5q0 66 -48.5 119.5t-130.5 53.5h-152v-341z" />
    <glyph glyph-name="germandbls" unicode="&#xdf;" horiz-adv-x="585" 
d="M137 533v-535h-35v535q-1 80 54.5 126.5t130.5 46.5q73 0 125 -44.5t52 -123.5q0 -118 -109 -160q73 -13 115 -66.5t41 -115.5q2 -94 -59.5 -148.5t-145.5 -54.5q-39 0 -80 11v32q48 -12 65 -12q51 0 91 18.5t60 48t29.5 65t-0.5 71.5t-30.5 65.5t-60 48.5t-89.5 19h-38
v33h38q68 1 104.5 46.5t33.5 99.5q0 62 -42.5 98t-99.5 36q-62 0 -106 -36t-44 -104z" />
    <glyph glyph-name="agrave" unicode="&#xe0;" 
d="M445 94v158q-68 42 -161 42q-87 0 -135.5 -40.5t-48.5 -95.5q0 -53 46 -92.5t128 -39.5q46 0 94.5 17.5t76.5 50.5zM481 0h-25l-10 54q-61 -59 -172 -61q-98 -1 -154 49t-56 116q0 67 57 117t162 51q33 0 80 -11t82 -31v44q0 80 -50.5 115t-125.5 35q-76 0 -144 -43
l-17 26q71 50 162 50q88 0 149.5 -44.5t61.5 -138.5v-328zM288 624l-66 97h42l53 -97h-29z" />
    <glyph glyph-name="aacute" unicode="&#xe1;" 
d="M445 94v158q-68 42 -161 42q-87 0 -135.5 -40.5t-48.5 -95.5q0 -53 46 -92.5t128 -39.5q46 0 94.5 17.5t76.5 50.5zM481 0h-25l-10 54q-61 -59 -172 -61q-98 -1 -154 49t-56 116q0 67 57 117t162 51q33 0 80 -11t82 -31v44q0 80 -50.5 115t-125.5 35q-76 0 -144 -43
l-17 26q71 50 162 50q88 0 149.5 -44.5t61.5 -138.5v-328zM366 714l-66 -97h-29l53 97h42z" />
    <glyph glyph-name="acircumflex" unicode="&#xe2;" 
d="M445 94v158q-68 42 -161 42q-87 0 -135.5 -40.5t-48.5 -95.5q0 -53 46 -92.5t128 -39.5q46 0 94.5 17.5t76.5 50.5zM481 0h-25l-10 54q-61 -59 -172 -61q-98 -1 -154 49t-56 116q0 67 57 117t162 51q33 0 80 -11t82 -31v44q0 80 -50.5 115t-125.5 35q-76 0 -144 -43
l-17 26q71 50 162 50q88 0 149.5 -44.5t61.5 -138.5v-328zM188 613l86 100h41l82 -100h-29l-74 79l-76 -79h-30z" />
    <glyph glyph-name="atilde" unicode="&#xe3;" 
d="M445 94v158q-68 42 -161 42q-87 0 -135.5 -40.5t-48.5 -95.5q0 -53 46 -92.5t128 -39.5q46 0 94.5 17.5t76.5 50.5zM481 0h-25l-10 54q-61 -59 -172 -61q-98 -1 -154 49t-56 116q0 67 57 117t162 51q33 0 80 -11t82 -31v44q0 80 -50.5 115t-125.5 35q-76 0 -144 -43
l-17 26q71 50 162 50q88 0 149.5 -44.5t61.5 -138.5v-328zM386 694l13 -12q-13 -23 -26 -31.5t-32 -8.5q-15 0 -34 10.5t-33 19t-32.5 4.5t-35.5 -29l-14 10q10 23 27.5 34.5t34.5 11.5q15 0 35 -10.5t34 -19t31 -5.5t32 26z" />
    <glyph glyph-name="adieresis" unicode="&#xe4;" 
d="M445 94v158q-68 42 -161 42q-87 0 -135.5 -40.5t-48.5 -95.5q0 -53 46 -92.5t128 -39.5q46 0 94.5 17.5t76.5 50.5zM481 0h-25l-10 54q-61 -59 -172 -61q-98 -1 -154 49t-56 116q0 67 57 117t162 51q33 0 80 -11t82 -31v44q0 80 -50.5 115t-125.5 35q-76 0 -144 -43
l-17 26q71 50 162 50q88 0 149.5 -44.5t61.5 -138.5v-328zM238 650h-48v49h48v-49zM411 650h-48v49h48v-49z" />
    <glyph glyph-name="aring" unicode="&#xe5;" 
d="M445 94v158q-68 42 -161 42q-87 0 -135.5 -40.5t-48.5 -95.5q0 -53 46 -92.5t128 -39.5q46 0 94.5 17.5t76.5 50.5zM481 0h-25l-10 54q-61 -59 -172 -61q-98 -1 -154 49t-56 116q0 67 57 117t162 51q33 0 80 -11t82 -31v44q0 80 -50.5 115t-125.5 35q-76 0 -144 -43
l-17 26q71 50 162 50q88 0 149.5 -44.5t61.5 -138.5v-328zM296 724q40 1 56 -29t-0.5 -61t-55.5 -31q-24 0 -41 13t-20.5 31t0 36t20.5 30t41 11zM296 701q-25 0 -35.5 -18.5t0 -37.5t35.5 -19t35.5 19t0 37.5t-35.5 18.5z" />
    <glyph glyph-name="ae" unicode="&#xe6;" horiz-adv-x="979" 
d="M680 27q102 0 154 63l26 -21q-68 -75 -180 -75q-110 0 -186 97q-94 -101 -215 -101q-98 -1 -153 49t-55 117t57 117.5t160 51.5q82 0 155 -47v34q0 81 -49.5 124t-120.5 43q-72 0 -143 -43l-17 24q72 52 161 52q65 0 123 -38t69 -108q58 143 213 145q98 1 163 -69
t65 -171q0 -17 -1 -25v-2h-433q6 -87 62 -152t145 -65zM289 291q-88 0 -135 -38.5t-47 -96.5q0 -53 45.5 -93.5t126.5 -40.5q48 0 103.5 23t94.5 71q-31 61 -34 130q-68 45 -154 45zM473 275h403q-5 97 -58.5 149t-138.5 54q-90 -1 -144 -57.5t-62 -145.5z" />
    <glyph glyph-name="ccedilla" unicode="&#xe7;" horiz-adv-x="530" 
d="M318 -7l-16 -32q50 -1 70 -20t17 -46q-5 -34 -49 -48t-100 14l4 23q42 -22 77.5 -15t38.5 29q3 24 -24 35t-70 5l30 56q-108 4 -172 81.5t-64 174.5q0 100 68 181.5t178 82.5q102 0 166 -60l-20 -25q-52 51 -147 51q-82 1 -145 -64.5t-64 -166.5q0 -85 57.5 -153.5
t152.5 -68.5t149 54l21 -23q-38 -35 -73.5 -49.5t-84.5 -15.5z" />
    <glyph glyph-name="egrave" unicode="&#xe8;" horiz-adv-x="615" 
d="M309 25q42 0 86 17t71 49l24 -21q-72 -78 -181 -78q-114 0 -184 79.5t-69 186.5q0 108 69.5 181t182.5 74q103 1 174.5 -67t71.5 -171q0 -16 -1 -24h-462q3 -94 64.5 -160t153.5 -66zM91 280h431q0 95 -64 147t-150 54q-91 -1 -152 -54.5t-65 -146.5zM309 616l-66 97h42
l53 -97h-29z" />
    <glyph glyph-name="eacute" unicode="&#xe9;" horiz-adv-x="615" 
d="M309 25q42 0 86 17t71 49l24 -21q-72 -78 -181 -78q-114 0 -184 79.5t-69 186.5q0 108 69.5 181t182.5 74q103 1 174.5 -67t71.5 -171q0 -16 -1 -24h-462q3 -94 64.5 -160t153.5 -66zM91 280h431q0 95 -64 147t-150 54q-91 -1 -152 -54.5t-65 -146.5zM392 707l-66 -97
h-29l53 97h42z" />
    <glyph glyph-name="ecircumflex" unicode="&#xea;" horiz-adv-x="615" 
d="M309 25q42 0 86 17t71 49l24 -21q-72 -78 -181 -78q-114 0 -184 79.5t-69 186.5q0 108 69.5 181t182.5 74q103 1 174.5 -67t71.5 -171q0 -16 -1 -24h-462q3 -94 64.5 -160t153.5 -66zM91 280h431q0 95 -64 147t-150 54q-91 -1 -152 -54.5t-65 -146.5zM208 606l86 100h41
l82 -100h-29l-74 79l-76 -79h-30z" />
    <glyph glyph-name="edieresis" unicode="&#xeb;" horiz-adv-x="615" 
d="M309 25q42 0 86 17t71 49l24 -21q-72 -78 -181 -78q-114 0 -184 79.5t-69 186.5q0 108 69.5 181t182.5 74q103 1 174.5 -67t71.5 -171q0 -16 -1 -24h-462q3 -94 64.5 -160t153.5 -66zM91 280h431q0 95 -64 147t-150 54q-91 -1 -152 -54.5t-65 -146.5zM248 653h-48v49h48
v-49zM421 653h-48v49h48v-49z" />
    <glyph glyph-name="igrave" unicode="&#xec;" horiz-adv-x="244" 
d="M140 0h-36v509h36v-509zM112 596l-66 97h42l53 -97h-29z" />
    <glyph glyph-name="iacute" unicode="&#xed;" horiz-adv-x="244" 
d="M104 0h36v509h-36v-509zM194 688l-66 -97h-29l53 97h42z" />
    <glyph glyph-name="icircumflex" unicode="&#xee;" horiz-adv-x="244" 
d="M18 583l86 100h41l82 -100h-31l-72 79l-74 -79h-32zM140 0h-36v509h36v-509z" />
    <glyph glyph-name="idieresis" unicode="&#xef;" horiz-adv-x="244" 
d="M140 0h-36v509h36v-509zM69 646h-44v44h44v-44zM223 646h-44v44h44v-44z" />
    <glyph glyph-name="eth" unicode="&#xf0;" horiz-adv-x="607" 
d="M216 523l-14 21l120 80q-77 43 -171 43l3 26q65 -2 107.5 -13t88.5 -40l95 57q3 -4 7.5 -10.5t6.5 -8.5l-88 -54q156 -106 156 -362v-30q-1 -95 -62 -166.5t-172 -71.5t-175.5 72.5t-62.5 163.5q2 87 66.5 153.5t171.5 65.5q57 -1 113.5 -28t86.5 -83q-14 102 -48 165.5
t-100 105.5q-18 -11 -63 -42t-66 -44zM293 417q-92 0 -146.5 -57t-56.5 -131q-2 -77 53 -140t150 -63q96 0 149.5 63t51.5 140q-2 74 -55 131t-146 57z" />
    <glyph glyph-name="ntilde" unicode="&#xf1;" horiz-adv-x="620" 
d="M405 667l13 -12q-22 -40 -58 -40q-15 0 -34 10.5t-33 19t-32.5 4.5t-35.5 -29l-14 10q10 23 27.5 34.5t34.5 11.5q15 0 35 -10.5t34 -19t31 -5.5t32 26zM287 514q100 -1 167.5 -56.5t67.5 -158.5v-299h-34v300q0 89 -59 135.5t-146 48.5q-85 2 -144 -68v-416h-35v507h31
l5 -54q59 61 147 61z" />
    <glyph glyph-name="ograve" unicode="&#xf2;" horiz-adv-x="638" 
d="M313 589l-66 97h42l53 -97h-29zM90 253q0 -59 20.5 -105.5t54.5 -73t72.5 -40t78.5 -13.5q41 0 79.5 13.5t72.5 40t54.5 73t20.5 105.5q0 58 -20.5 104.5t-54.5 73.5t-73 41t-79 14t-78.5 -13.5t-72.5 -40.5t-54.5 -73.5t-20.5 -105.5zM577 253q0 -116 -76.5 -190
t-184.5 -74q-107 0 -184 74t-77 190t77 190.5t184 74.5q108 0 184.5 -73.5t76.5 -191.5z" />
    <glyph glyph-name="oacute" unicode="&#xf3;" horiz-adv-x="638" 
d="M376 686l-66 -97h-29l53 97h42zM90 253q0 59 20.5 105.5t54.5 73.5t72.5 40.5t78.5 13.5t79 -14t73 -41t54.5 -73.5t20.5 -104.5q0 -59 -20.5 -105.5t-54.5 -73t-72.5 -40t-79.5 -13.5q-40 0 -78.5 13.5t-72.5 40t-54.5 73t-20.5 105.5zM577 253q0 118 -76.5 191.5
t-184.5 73.5q-107 0 -184 -74.5t-77 -190.5t77 -190t184 -74q108 0 184.5 74t76.5 190z" />
    <glyph glyph-name="ocircumflex" unicode="&#xf4;" horiz-adv-x="636" 
d="M208 571l86 100h41l82 -100h-29l-74 79l-76 -79h-30zM90 253q0 -59 20.5 -105.5t54.5 -73t72.5 -40t78.5 -13.5q41 0 79.5 13.5t72.5 40t54.5 73t20.5 105.5q0 58 -20.5 104.5t-54.5 73.5t-73 41t-79 14t-78.5 -13.5t-72.5 -40.5t-54.5 -73.5t-20.5 -105.5zM577 253
q0 -116 -76.5 -190t-184.5 -74q-107 0 -184 74t-77 190t77 190.5t184 74.5q108 0 184.5 -73.5t76.5 -191.5z" />
    <glyph glyph-name="otilde" unicode="&#xf5;" horiz-adv-x="638" 
d="M401 647l13 -12q-22 -40 -58 -40q-15 0 -34 10.5t-33 19t-32.5 4.5t-35.5 -29l-14 10q10 23 27.5 34.5t34.5 11.5q15 0 35 -10.5t34 -19t31 -5.5t32 26zM90 253q0 -59 20.5 -105.5t54.5 -73t72.5 -40t78.5 -13.5q41 0 79.5 13.5t72.5 40t54.5 73t20.5 105.5
q0 58 -20.5 104.5t-54.5 73.5t-73 41t-79 14t-78.5 -13.5t-72.5 -40.5t-54.5 -73.5t-20.5 -105.5zM577 253q0 -116 -76.5 -190t-184.5 -74q-107 0 -184 74t-77 190t77 190.5t184 74.5q108 0 184.5 -73.5t76.5 -191.5z" />
    <glyph glyph-name="odieresis" unicode="&#xf6;" horiz-adv-x="636" 
d="M246 622h-48v49h48v-49zM419 622h-48v49h48v-49zM90 253q0 -59 20.5 -105.5t54.5 -73t72.5 -40t78.5 -13.5q41 0 79.5 13.5t72.5 40t54.5 73t20.5 105.5q0 58 -20.5 104.5t-54.5 73.5t-73 41t-79 14t-78.5 -13.5t-72.5 -40.5t-54.5 -73.5t-20.5 -105.5zM577 253
q0 -116 -76.5 -190t-184.5 -74q-107 0 -184 74t-77 190t77 190.5t184 74.5q108 0 184.5 -73.5t76.5 -191.5z" />
    <glyph glyph-name="divide" unicode="&#xf7;" horiz-adv-x="619" 
d="M285 484v46h48v-46h-48zM93 313v32h430v-32h-430zM285 129v48h49v-48h-49z" />
    <glyph glyph-name="oslash" unicode="&#xf8;" horiz-adv-x="609" 
d="M564 253q0 -118 -75 -190.5t-183 -72.5q-76 0 -126 30l-41 -63h-33l51 79q-49 38 -79 94t-30 123q0 116 75.5 189.5t182.5 73.5q72 0 121 -27l41 63h34l-51 -78q51 -36 82 -93.5t31 -127.5zM306 21q41 0 79 13.5t71.5 40t54 73t20.5 105.5q0 122 -97 194l-237 -402
q43 -24 109 -24zM82 253q0 -120 92 -192l236 401q-45 23 -104 23q-87 0 -155.5 -59.5t-68.5 -172.5z" />
    <glyph glyph-name="ugrave" unicode="&#xf9;" horiz-adv-x="619" 
d="M310 589l-66 97h42l53 -97h-29zM332 -7q-101 1 -168 54.5t-67 156.5v303h33v-304q0 -88 59 -133t147 -47q86 -2 145 68v416h34v-507h-31l-4 54q-59 -61 -148 -61z" />
    <glyph glyph-name="uacute" unicode="&#xfa;" horiz-adv-x="619" 
d="M380 686l-66 -97h-29l53 97h42zM332 -7q89 0 148 61l4 -54h31v507h-34v-416q-59 -70 -145 -68q-88 2 -147 47t-59 133v304h-33v-303q0 -103 67 -156.5t168 -54.5z" />
    <glyph glyph-name="ucircumflex" unicode="&#xfb;" horiz-adv-x="619" 
d="M201 573l86 100h41l82 -100h-29l-74 79l-76 -79h-30zM332 -7q-101 1 -168 54.5t-67 156.5v303h33v-304q0 -88 59 -133t147 -47q86 -2 145 68v416h34v-507h-31l-4 54q-59 -61 -148 -61z" />
    <glyph glyph-name="udieresis" unicode="&#xfc;" horiz-adv-x="619" 
d="M249 624h-48v49h48v-49zM422 624h-48v49h48v-49zM332 -7q-101 1 -168 54.5t-67 156.5v303h33v-304q0 -88 59 -133t147 -47q86 -2 145 68v416h34v-507h-31l-4 54q-59 -61 -148 -61z" />
    <glyph glyph-name="yacute" unicode="&#xfd;" horiz-adv-x="508" 
d="M330 686l-66 -97h-29l53 97h42zM100 -166v-31h12q91 0 120 78l246 626h-38l-181 -471l-188 471h-38l208 -510l-42 -106q-12 -32 -34 -44.5t-65 -12.5z" />
    <glyph glyph-name="thorn" unicode="&#xfe;" horiz-adv-x="587" 
d="M282 -2q-81 0 -142 52v-251h-36v901h36v-253q53 68 150 66q107 -1 167.5 -77.5t60.5 -179.5t-62.5 -180t-173.5 -78zM280 480q-85 0 -141 -79v-309q58 -66 155 -61q86 6 137.5 73.5t51.5 152.5q0 89 -53.5 155t-149.5 68z" />
    <glyph glyph-name="ydieresis" unicode="&#xff;" horiz-adv-x="508" 
d="M100 -197v31q43 0 65 12.5t34 44.5l42 106l-208 510h38l188 -471l181 471h38l-246 -626q-29 -78 -120 -78h-12zM198 631h-48v49h48v-49zM371 631h-48v49h48v-49z" />
    <glyph glyph-name="Amacron" unicode="&#x100;" horiz-adv-x="636" 
d="M200 765v29h226v-29h-226zM36 0l252 700h58q83 -232 254 -700h-39l-88 243h-314l-84 -243h-39zM317 677h-2l-143 -402h291z" />
    <glyph glyph-name="amacron" unicode="&#x101;" 
d="M167 624v31h219v-31h-219zM435 99v149q-69 43 -151 43q-87 0 -134.5 -39t-47.5 -94q0 -54 45 -92.5t127 -38.5q43 0 87.5 19t73.5 53zM471 0h-25l-10 54q-61 -59 -162 -61q-98 -1 -153 49t-55 116q0 67 56 117t161 51q81 0 152 -42v35q0 81 -47 119.5t-119 38.5
q-68 0 -144 -43l-17 27q71 50 162 50q85 0 143 -48.5t58 -143.5v-319z" />
    <glyph glyph-name="Abreve" unicode="&#x102;" horiz-adv-x="636" 
d="M36 0l252 700h58q83 -232 254 -700h-39l-88 243h-314l-84 -243h-39zM317 677h-2l-143 -402h291zM397 823h24q-5 -39 -37.5 -58.5t-69.5 -19.5q-43 0 -73 20t-34 59h24q6 -33 44 -46t76.5 0t45.5 45z" />
    <glyph glyph-name="abreve" unicode="&#x103;" horiz-adv-x="563" 
d="M435 99v149q-69 43 -151 43q-87 0 -134.5 -39t-47.5 -94q0 -54 45 -92.5t127 -38.5q43 0 87.5 19t73.5 53zM471 0h-25l-10 54q-61 -59 -162 -61q-98 -1 -153 49t-55 116q0 67 56 117t161 51q81 0 152 -42v35q0 81 -47 119.5t-119 38.5q-68 0 -144 -43l-17 27
q71 50 162 50q85 0 143 -48.5t58 -143.5v-319zM362 681h25q-5 -39 -38 -59.5t-69 -20.5q-43 0 -73 21t-34 60h25q6 -34 43.5 -47.5t75.5 0t45 46.5z" />
    <glyph glyph-name="Aogonek" unicode="&#x104;" horiz-adv-x="636" 
d="M482 -106v1q-6 31 20 61t59 44l-88 243h-314l-84 -243h-39l252 700h58q83 -232 254 -700q-81 -44 -81 -89q0 -29 24 -42.5t50 -13.5l-8 -23h-10.5t-23 3.5t-29.5 9t-25 18.5t-15 31zM317 677h-2l-143 -402h291z" />
    <glyph glyph-name="aogonek" unicode="&#x105;" horiz-adv-x="563" 
d="M369 -104v1q-7 35 17 62.5t55 42.5l-5 52q-61 -59 -162 -61q-98 -1 -153 49t-55 116q0 67 56 117t161 51q81 0 152 -42v35q0 81 -47 119.5t-119 38.5q-68 0 -144 -43l-17 27q71 50 162 50q85 0 143 -48.5t58 -143.5v-319q-28 -15 -48.5 -38.5t-20.5 -47.5q0 -29 25.5 -43
t51.5 -14l-8 -23h-10t-22.5 3.5t-30 9t-25 18.5t-14.5 31zM435 99v149q-69 43 -151 43q-87 0 -134.5 -39t-47.5 -94q0 -54 45 -92.5t127 -38.5q43 0 87.5 19t73.5 53z" />
    <glyph glyph-name="Cacute" unicode="&#x106;" horiz-adv-x="732" 
d="M484 859l-66 -97h-29l53 97h42zM625 583l24 22q-97 102 -237 102q-162 0 -257.5 -105.5t-95.5 -254.5t97 -252t256 -103q74 0 141 32t113 89l-24 20q-42 -50 -103 -78.5t-127 -28.5q-141 0 -229 93t-88 228q0 145 88.5 236t228.5 91q73 0 121.5 -23.5t91.5 -67.5z" />
    <glyph glyph-name="cacute" unicode="&#x107;" horiz-adv-x="530" 
d="M305 480q95 0 147 -51l20 25q-64 60 -166 60q-111 -1 -178.5 -81t-67.5 -183q0 -99 67 -178t179 -79q55 0 92.5 14t77.5 51q-3 4 -10 11.5t-11 11.5q-54 -54 -149 -54t-152.5 68.5t-57.5 153.5q1 101 64 166.5t145 64.5zM372 690l-66 -97h-29l53 97h42z" />
    <glyph glyph-name="Ccircumflex" unicode="&#x108;" horiz-adv-x="732" 
d="M304 754l86 98h41l82 -98h-29l-74 77l-76 -77h-30zM649 605l-24 -22q-43 44 -91.5 67.5t-121.5 23.5q-140 0 -228.5 -91t-88.5 -236q0 -135 88 -228t229 -93q66 0 127 28.5t103 78.5l24 -20q-46 -57 -113 -89t-141 -32q-159 0 -256 103t-97 252t95.5 254.5t257.5 105.5
q140 0 237 -102z" />
    <glyph glyph-name="ccircumflex" unicode="&#x109;" horiz-adv-x="529" 
d="M305 480q-82 1 -145 -64.5t-64 -166.5q0 -85 57.5 -153.5t152.5 -68.5t149 54q4 -4 11 -11.5t10 -11.5q-40 -37 -77.5 -51t-92.5 -14q-112 0 -179 79t-67 178q0 103 67.5 183t178.5 81q102 0 166 -60l-20 -25q-52 51 -147 51zM198 590l86 96h41l82 -96h-30l-73 76
l-75 -76h-31z" />
    <glyph glyph-name="Cdotaccent" unicode="&#x10a;" horiz-adv-x="730" 
d="M383 786v56h50v-56h-50zM649 605l-24 -22q-43 44 -91.5 67.5t-121.5 23.5q-140 0 -228.5 -91t-88.5 -236q0 -135 88 -228t229 -93q66 0 127 28.5t103 78.5l24 -20q-46 -57 -113 -89t-141 -32q-159 0 -256 103t-97 252t95.5 254.5t257.5 105.5q140 0 237 -102z" />
    <glyph glyph-name="cdotaccent" unicode="&#x10b;" horiz-adv-x="529" 
d="M305 480q-82 1 -145 -64.5t-64 -166.5q0 -85 57.5 -153.5t152.5 -68.5t149 54q4 -4 11 -11.5t10 -11.5q-40 -37 -77.5 -51t-92.5 -14q-112 0 -179 79t-67 178q0 103 67.5 183t178.5 81q102 0 166 -60l-20 -25q-52 51 -147 51zM278 625v56h50v-56h-50z" />
    <glyph glyph-name="Ccaron" unicode="&#x10c;" horiz-adv-x="732" 
d="M517 852l-86 -98h-41l-82 98h29l74 -77l76 77h30zM649 605l-24 -22q-43 44 -91.5 67.5t-121.5 23.5q-140 0 -229 -91t-89 -236q0 -135 88.5 -228t229.5 -93q66 0 127 28.5t103 78.5l24 -20q-46 -57 -113 -89t-141 -32q-159 0 -256 103t-97 252t95.5 254.5t257.5 105.5
q140 0 237 -102z" />
    <glyph glyph-name="ccaron" unicode="&#x10d;" horiz-adv-x="529" 
d="M305 480q-82 1 -145 -64.5t-64 -166.5q0 -85 57.5 -153.5t152.5 -68.5t149 54q4 -4 11 -11.5t10 -11.5q-40 -37 -77.5 -51t-92.5 -14q-112 0 -179 79t-67 178q0 103 67.5 183t178.5 81q102 0 166 -60l-20 -25q-52 51 -147 51zM413 683l-86 -98h-41l-82 98h29l74 -77
l76 77h30z" />
    <glyph glyph-name="Dcaron" unicode="&#x10e;" horiz-adv-x="730" 
d="M436 852l-86 -98h-41l-82 98h29l74 -77l76 77h30zM124 700h196q91 0 162 -38.5t108 -100.5t54.5 -136.5t0 -149t-54 -136.5t-108.5 -100.5t-163 -38.5h-195v700zM160 34h158q65 0 118.5 21.5t88.5 58.5t59 84.5t29 100t-0.5 104.5t-29.5 99.5t-58.5 84.5t-88 58.5
t-116.5 21.5h-160v-633z" />
    <glyph glyph-name="dcaron" unicode="&#x10f;" horiz-adv-x="621" 
d="M579 704h35q9 -27 3 -68.5t-22 -64.5h-25q26 78 9 133zM304 509q81 0 142 -52v244h36v-701h-31l-4 63q-55 -71 -151 -69q-107 1 -167.5 77.5t-60.5 179.5t62.5 180t173.5 78zM306 27q85 0 141 79v309q-58 66 -155 61q-85 -6 -137 -74.5t-52 -151.5q0 -89 53.5 -155
t149.5 -68z" />
    <glyph glyph-name="Dcroat" unicode="&#x110;" horiz-adv-x="734" 
d="M62 341v29h62v330h196q91 0 162 -38.5t108 -100.5t54.5 -136.5t0 -149t-54 -136.5t-108.5 -100.5t-163 -38.5h-195v341h-62zM160 34h158q65 0 118.5 21.5t88.5 58.5t59 84.5t29 100t-0.5 104.5t-29.5 99.5t-58.5 84.5t-88 58.5t-116.5 21.5h-160v-297h149v-29h-149v-307z
" />
    <glyph glyph-name="dcroat" unicode="&#x111;" horiz-adv-x="592" 
d="M333 599v25h113v77h36v-77h79v-25h-79v-599h-31l-4 63q-55 -71 -151 -69q-107 1 -167.5 77.5t-60.5 179.5t62.5 180t173.5 78q81 0 142 -52v142h-113zM306 27q85 0 141 79v309q-58 66 -155 61q-85 -6 -137 -74.5t-52 -151.5q0 -89 53.5 -155t149.5 -68z" />
    <glyph glyph-name="Emacron" unicode="&#x112;" horiz-adv-x="534" 
d="M189 773v29h213v-29h-213zM456 700v-34h-299v-298h295v-33h-296v-301h300v-34h-336v700h336z" />
    <glyph glyph-name="emacron" unicode="&#x113;" horiz-adv-x="615" 
d="M197 636v29h226v-29h-226zM309 25q42 0 86 17t71 49l24 -21q-72 -78 -181 -78q-114 0 -184 79.5t-69 186.5q0 108 69.5 181t182.5 74q103 1 174.5 -69t71.5 -174q0 -18 -1 -26h-462q3 -93 64 -156t154 -63zM91 275h431q0 95 -64.5 149.5t-149.5 56.5q-90 -1 -151.5 -56.5
t-65.5 -149.5z" />
    <glyph glyph-name="Ebreve" unicode="&#x114;" horiz-adv-x="534" 
d="M457 700v-34h-299v-298h295v-33h-296v-301h300v-34h-336v700h336zM379 838h25q-5 -39 -38 -59.5t-69 -20.5q-43 0 -73 21t-34 60h25q6 -34 43.5 -47.5t75.5 0t45 46.5z" />
    <glyph glyph-name="ebreve" unicode="&#x115;" horiz-adv-x="615" 
d="M391 672h25q-5 -39 -38 -59.5t-69 -20.5q-43 0 -73 21t-34 60h25q6 -34 43.5 -47.5t75.5 0t45 46.5zM309 25q42 0 86 17t71 49l24 -21q-72 -78 -181 -78q-114 0 -184 79.5t-69 186.5q0 108 69.5 181t182.5 74q103 1 174.5 -69t71.5 -174q0 -18 -1 -26h-462q3 -93 64 -156
t154 -63zM91 275h431q0 95 -64.5 149.5t-149.5 56.5q-90 -1 -151.5 -56.5t-65.5 -149.5z" />
    <glyph glyph-name="Edotaccent" unicode="&#x116;" horiz-adv-x="532" 
d="M272 771v56h48v-56h-48zM457 700v-34h-299v-298h295v-33h-296v-301h300v-34h-336v700h336z" />
    <glyph glyph-name="edotaccent" unicode="&#x117;" horiz-adv-x="615" 
d="M284 618l2 56h48l-2 -56h-48zM309 25q42 0 86 17t71 49l24 -21q-72 -78 -181 -78q-114 0 -184 79.5t-69 186.5q0 108 69.5 181t182.5 74q103 1 174.5 -69t71.5 -174q0 -18 -1 -26h-462q3 -93 64 -156t154 -63zM91 275h431q0 95 -64.5 149.5t-149.5 56.5
q-90 -1 -151.5 -56.5t-65.5 -149.5z" />
    <glyph glyph-name="Eogonek" unicode="&#x118;" horiz-adv-x="534" 
d="M457 700v-34h-299v-298h295v-33h-296v-301h300v-34h-1v-4q-37 -15 -59.5 -48t-9.5 -60t68 -24l-11 -25q-11 0 -29.5 -0.5t-39.5 12.5t-26 37q-5 33 16 64.5t53 47.5h-297v700h336z" />
    <glyph glyph-name="eogonek" unicode="&#x119;" horiz-adv-x="615" 
d="M91 275h431q0 95 -64.5 149.5t-149.5 56.5q-90 -1 -151.5 -56.5t-65.5 -149.5zM309 25q42 0 86 17t71 49l24 -21q-38 -41 -94 -63q-35 -22 -43.5 -48t12.5 -44.5t66 -18.5l-14 -25q-1 1 -9.5 0t-22.5 2t-27.5 7.5t-25 16.5t-14.5 29q-7 33 35 70q-30 -4 -44 -4
q-114 0 -184 79.5t-69 186.5q0 108 69.5 181t182.5 74q103 1 174.5 -69t71.5 -174q0 -18 -1 -26h-462q3 -93 64 -156t154 -63z" />
    <glyph glyph-name="Ecaron" unicode="&#x11a;" horiz-adv-x="534" 
d="M457 700v-34h-299v-298h295v-33h-296v-301h300v-34h-336v700h336zM396 852l-86 -98h-41l-82 98h29l74 -77l76 77h30z" />
    <glyph glyph-name="ecaron" unicode="&#x11b;" horiz-adv-x="615" 
d="M415 686l-86 -98h-41l-82 98h29l74 -77l76 77h30zM309 25q42 0 86 17t71 49l24 -21q-72 -78 -181 -78q-114 0 -184 79.5t-69 186.5q0 108 69.5 181t182.5 74q103 1 174.5 -69t71.5 -174q0 -18 -1 -26h-462q3 -93 64 -156t154 -63zM91 275h431q0 95 -64.5 149.5
t-149.5 56.5q-90 -1 -151.5 -56.5t-65.5 -149.5z" />
    <glyph glyph-name="Gcircumflex" unicode="&#x11c;" horiz-adv-x="826" 
d="M313 755l86 98h41l82 -98h-30l-73 77l-75 -77h-31zM413 707q160 0 261 -107l-25 -23q-93 97 -236 97q-139 0 -226 -96t-87 -229q0 -124 88 -222.5t225 -98.5q107 0 196.5 72t100.5 192h-318v34h358q-6 -141 -100 -236t-237 -95q-104 0 -185.5 53t-122 132.5t-41.5 168.5
q0 91 40.5 171.5t122 133.5t186.5 53z" />
    <glyph glyph-name="gcircumflex" unicode="&#x11d;" horiz-adv-x="580" 
d="M211 592l86 98h41l82 -98h-30l-73 77l-75 -77h-31zM297 512q89 2 144 -50l3 45h31v-520q0 -92 -51 -139t-131 -49q-58 -1 -100 15t-91 57l21 23q73 -65 169 -63q64 1 106.5 41.5t42.5 114.5v61q-56 -55 -152 -53q-106 1 -166.5 77t-60.5 179q0 66 25.5 123.5t80 97
t129.5 40.5zM299 27q88 0 142 63v336q-50 57 -156 51q-88 -12 -137.5 -75.5t-50.5 -151.5t52.5 -154.5t149.5 -68.5z" />
    <glyph glyph-name="Gbreve" unicode="&#x11e;" horiz-adv-x="826" 
d="M494 839h25q-5 -39 -38 -59.5t-69 -20.5q-43 0 -73 21t-34 60h25q6 -34 43.5 -47.5t75.5 0t45 46.5zM413 707q160 0 261 -107l-25 -23q-93 97 -236 97q-139 0 -226 -96t-87 -229q0 -126 87.5 -223.5t225.5 -97.5q107 0 196.5 72t100.5 192h-318v34h358q-6 -141 -100 -236
t-237 -95q-104 0 -185.5 53t-122 132.5t-41.5 168.5q0 91 40.5 171.5t122 133.5t186.5 53z" />
    <glyph glyph-name="gbreve" unicode="&#x11f;" horiz-adv-x="580" 
d="M386 674h25q-5 -39 -38 -59.5t-69 -20.5q-43 0 -73 21t-34 60h25q6 -34 43.5 -47.5t75.5 0t45 46.5zM297 512q89 2 144 -50l3 45h31v-520q0 -92 -51 -139t-131 -49q-58 -1 -100 15t-91 57l21 23q73 -65 169 -63q64 1 106.5 41.5t42.5 114.5v61q-56 -55 -152 -53
q-106 1 -166.5 77t-60.5 179q0 66 25.5 123.5t80 97t129.5 40.5zM299 27q88 0 142 63v336q-50 57 -156 51q-88 -12 -137.5 -75.5t-50.5 -151.5t52.5 -154.5t149.5 -68.5z" />
    <glyph glyph-name="Gdotaccent" unicode="&#x120;" horiz-adv-x="826" 
d="M389 789v56h48v-56h-48zM413 707q160 0 261 -107l-25 -23q-93 97 -236 97q-138 0 -225.5 -98t-87.5 -227q0 -124 88 -222.5t225 -98.5q107 0 196.5 72t100.5 192h-318v34h358q-6 -141 -100 -236t-237 -95q-104 0 -185.5 53t-122 132.5t-41.5 168.5q0 91 40.5 171.5
t122 133.5t186.5 53z" />
    <glyph glyph-name="gdotaccent" unicode="&#x121;" horiz-adv-x="580" 
d="M281 631v56h48v-56h-48zM297 512q89 2 144 -50l3 45h31v-520q0 -92 -51 -139t-131 -49q-58 -1 -100 15t-91 57l21 23q73 -65 169 -63q64 1 106.5 41.5t42.5 114.5v61q-56 -55 -152 -53q-106 1 -166.5 77t-60.5 179q0 66 25.5 123.5t80 97t129.5 40.5zM299 27q88 0 142 63
v336q-50 57 -156 51q-88 -12 -137.5 -75.5t-50.5 -151.5t52.5 -154.5t149.5 -68.5z" />
    <glyph glyph-name="Gcommaaccent" unicode="&#x122;" horiz-adv-x="826" 
d="M395 -59h41q21 -77 -22 -134h-26q25 75 7 134zM413 707q160 0 261 -107l-25 -23q-93 97 -236 97q-138 0 -225.5 -98t-87.5 -227q0 -124 88 -222.5t225 -98.5q107 0 196.5 72t100.5 192h-318v34h358q-6 -141 -100 -236t-237 -95q-104 0 -185.5 53t-122 132.5t-41.5 168.5
q0 91 40.5 171.5t122 133.5t186.5 53z" />
    <glyph glyph-name="gcommaaccent" unicode="&#x123;" horiz-adv-x="580" 
d="M328 575h-39q-9 30 -4 67.5t24 62.5h26q-27 -57 -7 -130zM297 512q89 2 144 -50l3 45h31v-520q0 -92 -51 -139t-131 -49q-58 -1 -100 15t-91 57l21 23q73 -65 169 -63q64 1 106.5 41.5t42.5 114.5v61q-56 -55 -152 -53q-106 1 -166.5 77t-60.5 179q0 66 25.5 123.5t80 97
t129.5 40.5zM299 27q88 0 142 63v336q-50 57 -156 51q-88 -12 -137.5 -75.5t-50.5 -151.5t52.5 -154.5t149.5 -68.5z" />
    <glyph glyph-name="Hcircumflex" unicode="&#x124;" horiz-adv-x="692" 
d="M530 0v332h-371v-332h-36v700h36v-334h371v334h36v-700h-36zM242 755l86 98h41l82 -98h-30l-73 77l-75 -77h-31z" />
    <glyph glyph-name="hcircumflex" unicode="&#x125;" horiz-adv-x="600" 
d="M24 755l86 98h41l82 -98h-30l-73 77l-75 -77h-31zM288 509q94 -4 155 -61t60 -155v-293h-36v294q0 83 -55 133t-128 50q-92 0 -144 -62v-415h-35v700h36v-247q59 61 147 56z" />
    <glyph glyph-name="Hbar" unicode="&#x126;" horiz-adv-x="692" 
d="M63 537v29h60v134h36v-134h371v134h36v-134h61v-29h-61v-537h-36v332h-371v-332h-36v537h-60zM159 366h371v171h-371v-171z" />
    <glyph glyph-name="hbar" unicode="&#x127;" horiz-adv-x="600" 
d="M36 592v24h68v84h36v-84h129v-24h-129v-139q59 61 147 56q94 -4 155 -61t60 -155v-293h-36v294q0 83 -55 133t-128 50q-92 0 -144 -62v-415h-35v592h-68z" />
    <glyph glyph-name="Itilde" unicode="&#x128;" horiz-adv-x="287" 
d="M125 0v700h36v-700h-36zM232 819l13 -12q-13 -24 -26 -33t-32 -9q-15 0 -34 10.5t-33 19.5t-32.5 5.5t-35.5 -28.5l-14 10q21 47 62 47q15 0 35 -10.5t34 -19.5t31 -6t32 26z" />
    <glyph glyph-name="itilde" unicode="&#x129;" horiz-adv-x="244" 
d="M140 0h-36v509h36v-509zM212 672l15 -12q-24 -42 -60 -42q-15 0 -34 10.5t-33 19.5t-32.5 5.5t-35.5 -28.5l-14 12q20 45 62 45q15 0 35 -10.5t34 -19.5t31 -6t32 26z" />
    <glyph glyph-name="Imacron" unicode="&#x12a;" horiz-adv-x="287" 
d="M28 787v28h224v-28h-224zM125 0v700h36v-700h-36z" />
    <glyph glyph-name="imacron" unicode="&#x12b;" horiz-adv-x="244" 
d="M14 638v30h222v-30h-222zM140 0h-36v509h36v-509z" />
    <glyph glyph-name="Ibreve" unicode="&#x12c;" horiz-adv-x="287" 
d="M125 0v700h36v-700h-36zM224 830h24q-5 -39 -37 -59.5t-70 -20.5q-45 0 -74 20.5t-33 60.5h24q6 -33 44 -46t76.5 0t45.5 45z" />
    <glyph glyph-name="ibreve" unicode="&#x12d;" horiz-adv-x="244" 
d="M140 0h-36v509h36v-509zM205 667h24q-5 -39 -38 -59.5t-69 -20.5q-43 0 -73 21t-34 60h24q6 -33 44 -46t76.5 0t45.5 45z" />
    <glyph glyph-name="Iogonek" unicode="&#x12e;" horiz-adv-x="289" 
d="M125 0v700h36v-700q-21 -12 -36.5 -32.5t-20.5 -40.5t10 -34t51 -13l-6 -22q-3 -1 -8.5 -1.5t-19 0t-25 4t-22 14t-13.5 26.5q-6 53 54 99z" />
    <glyph glyph-name="iogonek" unicode="&#x12f;" horiz-adv-x="244" 
d="M102 634v58h44v-58h-44zM105 0v506h36v-506q-21 -12 -36.5 -32.5t-20.5 -40.5t10 -34t51 -13l-6 -22q-3 -1 -8.5 -1.5t-19 0t-25 4t-22 14t-13.5 26.5q-6 54 54 99z" />
    <glyph glyph-name="Idotaccent" unicode="&#x130;" horiz-adv-x="287" 
d="M120 787v62h44v-62h-44zM125 0v700h36v-700h-36z" />
    <glyph glyph-name="dotlessi" unicode="&#x131;" horiz-adv-x="244" 
d="M140 0h-36v509h36v-509z" />
    <glyph glyph-name="IJ" unicode="&#x132;" horiz-adv-x="607" 
d="M123 0v700h37v-700h-37zM287 0v32q65 -6 115.5 38.5t50.5 121.5v477h-136v31h173v-508q0 -96 -60 -147t-143 -45z" />
    <glyph glyph-name="ij" unicode="&#x133;" horiz-adv-x="513" 
d="M254 -179v31q51 0 77 27t26 74v555h36v-555q0 -65 -36 -98.5t-103 -33.5zM143 0h-36v509h36v-509zM146 692v-57h-43v57h43zM396 692v-57h-43v57h43z" />
    <glyph glyph-name="Jcircumflex" unicode="&#x134;" horiz-adv-x="549" 
d="M50 148l30 9q18 -63 64 -95.5t104 -32.5q61 0 108 43.5t47 115.5v479h-144v33h180v-512q0 -89 -57 -141t-133 -52q-157 0 -199 153zM219 756l86 98h41l82 -98h-31l-72 77l-73 -77h-33z" />
    <glyph glyph-name="jcircumflex" unicode="&#x135;" horiz-adv-x="244" 
d="M1 -179v31q51 0 77 27t26 74v555h36v-555q0 -65 -36 -98.5t-103 -33.5zM14 584l86 98h41l82 -98h-31l-72 77l-73 -77h-33z" />
    <glyph glyph-name="Kcommaaccent" unicode="&#x136;" horiz-adv-x="638" 
d="M317 -33h39q12 -68 -26 -127h-24q14 42 16.5 64t-5.5 63zM161 700v-387l361 387h46l-286 -307l299 -393h-41l-282 367l-97 -98v-269h-36v700h36z" />
    <glyph glyph-name="kcommaaccent" unicode="&#x137;" horiz-adv-x="521" 
d="M102 700h35v-462l277 269h45l-217 -211l231 -296h-40l-215 272l-81 -74v-198h-35v700zM264 -34h38q13 -69 -25 -127h-24q14 42 16.5 64t-5.5 63z" />
    <glyph glyph-name="kgreenlandic" unicode="&#x138;" horiz-adv-x="521" 
d="M102 507h35v-269l277 269h45l-217 -211l231 -296h-40l-215 272l-81 -74v-198h-35v507z" />
    <glyph glyph-name="Lacute" unicode="&#x139;" horiz-adv-x="482" 
d="M229 851l-73 -102h-30l62 102h41zM442 34v-34h-317v700h36v-666h281z" />
    <glyph glyph-name="lacute" unicode="&#x13a;" horiz-adv-x="276" 
d="M200 855l-75 -104h-28l60 104h43zM216 30v-32q-58 -1 -88 32.5t-30 99.5v570h36v-570q0 -48 19 -73t63 -27z" />
    <glyph glyph-name="Lcommaaccent" unicode="&#x13b;" horiz-adv-x="482" 
d="M276 -37h34q11 -58 -21 -126h-22q14 38 16 62.5t-7 63.5zM442 34v-34h-317v700h36v-666h281z" />
    <glyph glyph-name="lcommaaccent" unicode="&#x13c;" horiz-adv-x="276" 
d="M156 -56h34q16 -66 -15 -122h-25q23 63 6 122zM216 30v-32q-58 -1 -88 32.5t-30 99.5v570h36v-570q0 -48 19 -73t63 -27z" />
    <glyph glyph-name="Lcaron" unicode="&#x13d;" horiz-adv-x="482" 
d="M322 701h34q16 -62 -20 -130h-21q23 69 7 130zM442 34v-34h-317v700h36v-666h281z" />
    <glyph glyph-name="lcaron" unicode="&#x13e;" horiz-adv-x="276" 
d="M234 700h34q14 -62 -19 -125h-22q22 67 7 125zM216 30v-32q-58 -1 -88 32.5t-30 99.5v570h36v-570q0 -48 19 -73t63 -27z" />
    <glyph glyph-name="Ldot" unicode="&#x13f;" horiz-adv-x="483" 
d="M297 363v52h49v-52h-49zM442 34v-34h-317v700h36v-666h281z" />
    <glyph glyph-name="ldot" unicode="&#x140;" horiz-adv-x="276" 
d="M206 369v52h47v-52h-47zM216 30v-32q-58 -1 -88 32.5t-30 99.5v570h36v-570q0 -48 19 -73t63 -27z" />
    <glyph glyph-name="Lslash" unicode="&#x141;" horiz-adv-x="482" 
d="M442 34v-34h-317v326l-75 -43v34l75 44v339h36v-318l130 77v-36l-130 -76v-313h281z" />
    <glyph glyph-name="lslash" unicode="&#x142;" horiz-adv-x="276" 
d="M216 30v-32q-58 -1 -88 32.5t-30 99.5v194l-49 -27v32l49 27v344h36v-324l91 52v-34l-91 -50v-214q0 -48 19 -73t63 -27z" />
    <glyph glyph-name="Nacute" unicode="&#x143;" horiz-adv-x="733" 
d="M465 853l-76 -102h-31l61 102h46zM125 700h56l395 -666v666h36v-700h-57l-394 666v-666h-36v700z" />
    <glyph glyph-name="nacute" unicode="&#x144;" horiz-adv-x="620" 
d="M378 684l-70 -100h-28l57 100h41zM287 514q100 -1 167.5 -56.5t67.5 -158.5v-299h-34v300q0 89 -59 135.5t-146 48.5q-85 2 -144 -68v-416h-35v507h31l5 -54q59 61 147 61z" />
    <glyph glyph-name="Ncommaaccent" unicode="&#x145;" horiz-adv-x="733" 
d="M347 -30h40q13 -69 -16 -131h-31q13 38 14.5 65.5t-7.5 65.5zM125 700h56l395 -666v666h36v-700h-57l-394 666v-666h-36v700z" />
    <glyph glyph-name="ncommaaccent" unicode="&#x146;" horiz-adv-x="620" 
d="M292 -20h37q13 -56 -18 -125h-26q24 71 7 125zM287 514q100 -1 167.5 -56.5t67.5 -158.5v-299h-34v300q0 89 -59 135.5t-146 48.5q-85 2 -144 -68v-416h-35v507h31l5 -54q59 61 147 61z" />
    <glyph glyph-name="Ncaron" unicode="&#x147;" horiz-adv-x="733" 
d="M125 700h56l395 -666v666h36v-700h-57l-394 666v-666h-36v700zM480 845l-86 -95h-41l-82 95h30l73 -74l76 74h30z" />
    <glyph glyph-name="ncaron" unicode="&#x148;" horiz-adv-x="620" 
d="M406 683l-86 -95h-41l-82 95h30l73 -74l76 74h30zM287 514q100 -1 167.5 -56.5t67.5 -158.5v-299h-34v300q0 89 -59 135.5t-146 48.5q-85 2 -144 -68v-416h-35v507h31l5 -54q59 61 147 61z" />
    <glyph glyph-name="napostrophe" unicode="&#x149;" horiz-adv-x="613" 
d="M31 698h39q15 -56 -20 -125h-26q26 74 7 125zM287 514q100 -1 167.5 -56.5t67.5 -158.5v-299h-34v300q0 89 -59 135.5t-146 48.5q-85 2 -144 -68v-416h-35v507h31l5 -54q59 61 147 61z" />
    <glyph glyph-name="Eng" unicode="&#x14a;" horiz-adv-x="733" 
d="M125 700h56l395 -640v640h36v-707q0 -73 -38 -109t-106 -33v28q56 0 80.5 28.5t24.5 85.5v7l-412 666v-666h-36v700z" />
    <glyph glyph-name="eng" unicode="&#x14b;" horiz-adv-x="617" 
d="M287 514q100 -1 167.5 -56.5t67.5 -158.5v-344q0 -143 -141 -137v25q59 -1 83 29.5t24 82.5v345q0 89 -59 135.5t-146 48.5q-85 2 -144 -68v-416h-35v507h31l5 -54q59 61 147 61z" />
    <glyph glyph-name="Omacron" unicode="&#x14c;" horiz-adv-x="852" 
d="M303 794v26h229v-26h-229zM425 712q148 0 252.5 -107.5t104.5 -255.5q0 -85 -32 -155.5t-84 -114.5t-114.5 -68t-126.5 -24q-65 0 -127 24t-113.5 68t-83 114.5t-31.5 155.5q0 147 102.5 255t252.5 108zM105 349q0 -78 28.5 -142.5t75 -104t102.5 -61t114 -21.5t114 21
t102.5 60.5t75.5 104t29 143.5q0 78 -28.5 142t-75 104t-102.5 61.5t-114 21.5t-114 -21.5t-102.5 -61t-75.5 -104t-29 -142.5z" />
    <glyph glyph-name="omacron" unicode="&#x14d;" horiz-adv-x="638" 
d="M201 626v30h229v-30h-229zM90 253q0 -59 20.5 -105.5t54.5 -73t72.5 -40t78.5 -13.5q41 0 79.5 13.5t72.5 40t54.5 73t20.5 105.5q0 58 -20.5 104.5t-54.5 73.5t-73 41t-79 14t-78.5 -13.5t-72.5 -40.5t-54.5 -73.5t-20.5 -105.5zM577 253q0 -116 -76.5 -190t-184.5 -74
q-107 0 -184 74t-77 190t77 190.5t184 74.5q108 0 184.5 -73.5t76.5 -191.5z" />
    <glyph glyph-name="Obreve" unicode="&#x14e;" horiz-adv-x="852" 
d="M508 836h25q-5 -39 -38 -59.5t-69 -20.5q-43 0 -73 21t-34 60h25q6 -34 43.5 -47.5t75.5 0t45 46.5zM425 712q148 0 252.5 -107.5t104.5 -255.5q0 -85 -32 -155.5t-84 -114.5t-114.5 -68t-126.5 -24q-65 0 -127 24t-113.5 68t-83 114.5t-31.5 155.5q0 147 102.5 255
t252.5 108zM105 349q0 -78 28.5 -142.5t75 -104t102.5 -61t114 -21.5t114 21t102.5 60.5t75.5 104t29 143.5q0 78 -28.5 142t-75 104t-102.5 61.5t-114 21.5t-114 -21.5t-102.5 -61t-75.5 -104t-29 -142.5z" />
    <glyph glyph-name="obreve" unicode="&#x14f;" horiz-adv-x="636" 
d="M396 666h25q-5 -39 -38 -59.5t-69 -20.5q-43 0 -73 21t-34 60h25q6 -34 43.5 -47.5t75.5 0t45 46.5zM90 253q0 -59 20.5 -105.5t54.5 -73t72.5 -40t78.5 -13.5q41 0 79.5 13.5t72.5 40t54.5 73t20.5 105.5q0 58 -20.5 104.5t-54.5 73.5t-73 41t-79 14t-78.5 -13.5
t-72.5 -40.5t-54.5 -73.5t-20.5 -105.5zM577 253q0 -116 -76.5 -190t-184.5 -74q-107 0 -184 74t-77 190t77 190.5t184 74.5q108 0 184.5 -73.5t76.5 -191.5z" />
    <glyph glyph-name="Ohungarumlaut" unicode="&#x150;" horiz-adv-x="852" 
d="M457 762l56 93h41l-69 -93h-28zM326 762l56 93h41l-69 -93h-28zM425 712q148 0 252.5 -107.5t104.5 -255.5q0 -85 -32 -155.5t-84 -114.5t-114.5 -68t-126.5 -24q-65 0 -127 24t-113.5 68t-83 114.5t-31.5 155.5q0 147 102.5 255t252.5 108zM105 349q0 -78 28.5 -142.5
t75 -104t102.5 -61t114 -21.5t114 21t102.5 60.5t75.5 104t29 143.5q0 78 -28.5 142t-75 104t-102.5 61.5t-114 21.5t-114 -21.5t-102.5 -61t-75.5 -104t-29 -142.5z" />
    <glyph glyph-name="ohungarumlaut" unicode="&#x151;" horiz-adv-x="636" 
d="M356 592l56 93h39l-69 -93h-26zM234 592l56 93h39l-69 -93h-26zM90 253q0 -59 20.5 -105.5t54.5 -73t72.5 -40t78.5 -13.5q41 0 79.5 13.5t72.5 40t54.5 73t20.5 105.5q0 58 -20.5 104.5t-54.5 73.5t-73 41t-79 14t-78.5 -13.5t-72.5 -40.5t-54.5 -73.5t-20.5 -105.5z
M577 253q0 -116 -76.5 -190t-184.5 -74q-107 0 -184 74t-77 190t77 190.5t184 74.5q108 0 184.5 -73.5t76.5 -191.5z" />
    <glyph glyph-name="OE" unicode="&#x152;" horiz-adv-x="941" 
d="M864 699v-35h-311v-265h307v-34h-308v-330h312v-35h-359q-46 -11 -86 -11q-65 0 -126 22.5t-111 65t-80.5 114t-30.5 161.5q0 155 98 256t250 101q44 0 88 -11q59 0 178 0.5t179 0.5zM109 352q0 -81 27 -145.5t72 -103.5t99 -59t112 -20q41 0 96 15v621q-49 15 -96 15
q-58 0 -112 -19.5t-99 -57t-72 -101.5t-27 -145z" />
    <glyph glyph-name="oe" unicode="&#x153;" horiz-adv-x="1064" 
d="M767 28q41 0 84.5 17t70.5 49l24 -21q-72 -78 -179 -78q-162 0 -223 169q-64 -175 -232 -175q-107 0 -178.5 73t-71.5 191q0 113 72.5 187.5t177.5 74.5q78 0 141.5 -46.5t88.5 -121.5q22 72 81.5 117.5t142.5 46.5q100 1 166 -69.5t66 -170.5q0 -18 -1 -26h-436
q3 -86 60 -151.5t146 -65.5zM98 253q0 -112 64.5 -171.5t149.5 -59.5t149 61t64 170q0 108 -64 168.5t-149 60.5q-54 0 -101 -23t-80 -76.5t-33 -129.5zM561 275h404q0 87 -59 144.5t-140 59.5q-87 -1 -143.5 -57.5t-61.5 -146.5z" />
    <glyph glyph-name="Racute" unicode="&#x154;" horiz-adv-x="620" 
d="M387 851l-73 -101h-27l59 101h41zM313 305l238 -305h-44l-237 303h-109v-303h-36v700h201q97 0 156.5 -51t60.5 -145q1 -99 -57 -149.5t-173 -49.5zM161 337h160q187 0 187 167q0 80 -50.5 121t-132.5 41h-164v-329z" />
    <glyph glyph-name="racute" unicode="&#x155;" horiz-adv-x="408" 
d="M97 506h32l4 -77q49 84 151 84q46 0 95 -25l-13 -30q-39 22 -82 22q-63 0 -108 -42t-44 -111v-327h-35v506zM310 693l-72 -101h-27l59 101h40z" />
    <glyph glyph-name="Rcommaaccent" unicode="&#x156;" horiz-adv-x="620" 
d="M308 -26h35q15 -58 -16 -125h-26q26 72 7 125zM313 305l238 -305h-44l-237 303h-109v-303h-36v700h201q97 0 156.5 -51t60.5 -145q1 -99 -57 -149.5t-173 -49.5zM161 337h160q187 0 187 167q0 80 -50.5 121t-132.5 41h-164v-329z" />
    <glyph glyph-name="rcommaaccent" unicode="&#x157;" horiz-adv-x="408" 
d="M97 506h32l4 -77q49 84 151 84q46 0 95 -25l-13 -30q-39 22 -82 22q-63 0 -108 -42t-44 -111v-327h-35v506zM98 -35h35q15 -58 -16 -125h-26q26 72 7 125z" />
    <glyph glyph-name="Rcaron" unicode="&#x158;" horiz-adv-x="620" 
d="M313 305l238 -305h-44l-237 303h-109v-303h-36v700h201q97 0 156.5 -51t60.5 -145q1 -99 -57 -149.5t-173 -49.5zM161 337h160q94 0 140.5 40.5t46.5 126.5q0 80 -50.5 121t-132.5 41h-164v-329zM405 846l-86 -95h-41l-82 95h30l73 -74l76 74h30z" />
    <glyph glyph-name="rcaron" unicode="&#x159;" horiz-adv-x="408" 
d="M97 506h32l4 -77q49 84 151 84q46 0 95 -25l-13 -30q-39 22 -82 22q-63 0 -108 -42t-44 -111v-327h-35v506zM342 679l-85 -92h-40l-81 92h30l72 -72l74 72h30z" />
    <glyph glyph-name="Sacute" unicode="&#x15a;" 
d="M369 856l-71 -105h-27l60 105h38zM134 536q-8 -114 153 -155q197 -49 189 -212q-3 -84 -65.5 -128.5t-140.5 -44.5q-63 0 -116.5 32.5t-82.5 93.5l30 18q26 -52 71.5 -79.5t98.5 -28.5q73 -1 119 36t50 103q2 34 -7.5 62t-25 45.5t-40 32t-44.5 22t-47 15.5
q-183 51 -178 188q3 81 58 124.5t129 43.5q118 0 172 -99l-31 -15q-47 79 -141 79q-61 1 -104 -33t-47 -100z" />
    <glyph glyph-name="sacute" unicode="&#x15b;" horiz-adv-x="443" 
d="M227 273q64 -13 107.5 -49t43.5 -90q0 -58 -37.5 -95.5t-87.5 -45.5t-102 8t-80 54q1 1 22 25q34 -44 94 -55t108 18.5t48 90.5q-1 43 -39 70t-84 36q-59 10 -99.5 45t-41.5 89q0 66 49.5 104.5t115 36.5t112.5 -41l-19 -23q-36 31 -89 33.5t-93.5 -27.5t-39.5 -83
q1 -79 112 -101zM294 686l-71 -105h-27l60 105h38z" />
    <glyph glyph-name="Scircumflex" unicode="&#x15c;" 
d="M134 536q-8 -114 153 -155q197 -49 189 -212q-3 -84 -65.5 -128.5t-140.5 -44.5q-63 0 -116.5 32.5t-82.5 93.5l30 18q26 -52 71.5 -79.5t98.5 -28.5q73 -1 119 36t50 103q2 34 -7.5 62t-25 45.5t-40 32t-44.5 22t-47 15.5q-183 51 -178 188q3 81 58 124.5t129 43.5
q118 0 172 -99l-31 -15q-47 79 -141 79q-61 1 -104 -33t-47 -100zM178 752l86 96h41l82 -96h-30l-73 75l-75 -75h-31z" />
    <glyph glyph-name="scircumflex" unicode="&#x15d;" horiz-adv-x="443" 
d="M227 273q64 -13 107.5 -49t43.5 -90q0 -58 -37.5 -95.5t-87.5 -45.5t-102 8t-80 54q1 1 22 25q34 -44 94 -55t108 18.5t48 90.5q-1 43 -39 70t-84 36q-59 10 -99.5 45t-41.5 89q0 66 49.5 104.5t115 36.5t112.5 -41l-19 -23q-36 31 -89 33.5t-93.5 -27.5t-39.5 -83
q1 -79 112 -101zM123 578l86 96h41l82 -96h-30l-73 75l-75 -75h-31z" />
    <glyph glyph-name="Scedilla" unicode="&#x15e;" 
d="M286 -3l-16 -32q52 -1 72.5 -20.5t16.5 -48.5q-5 -36 -50 -50t-102 17l4 24q43 -24 79.5 -17.5t39.5 29.5q3 26 -25 37t-72 4l29 56q-60 2 -111.5 35t-79.5 91l30 18q26 -52 71.5 -79.5t98.5 -28.5q73 -1 119 36t50 103q2 34 -7.5 62t-25 45.5t-40 32t-44.5 22t-47 15.5
q-183 51 -178 188q3 81 58 124.5t129 43.5q118 0 172 -99l-31 -15q-47 79 -141 79q-61 1 -104 -33t-47 -100q-8 -114 153 -155q197 -49 189 -212q-3 -79 -59.5 -123.5t-130.5 -48.5z" />
    <glyph glyph-name="scedilla" unicode="&#x15f;" horiz-adv-x="442" 
d="M236 -8l-15 -28q44 -1 60.5 -17t12.5 -39q-2 -18 -19.5 -30.5t-47 -12t-59.5 18.5l4 21q36 -20 63.5 -16.5t30.5 21.5q2 19 -18 28t-57 4l25 48q-98 0 -145 65q1 1 22 25q34 -44 94 -55t108 18.5t48 90.5q-1 43 -39 70t-84 36q-59 10 -99.5 45t-41.5 89q0 66 49.5 104.5
t115 36.5t112.5 -41l-19 -23q-36 31 -89 33.5t-93.5 -27.5t-39.5 -83q1 -79 112 -101q64 -13 107.5 -49t43.5 -90q0 -63 -41 -99.5t-101 -42.5z" />
    <glyph glyph-name="Scaron" unicode="&#x160;" 
d="M134 536q-8 -114 153 -155q197 -49 189 -212q-3 -84 -65.5 -128.5t-140.5 -44.5q-63 0 -116.5 32.5t-82.5 93.5l30 18q26 -52 71.5 -79.5t98.5 -28.5q73 -1 119 36t50 103q2 34 -7.5 62t-25 45.5t-40 32t-44.5 22t-47 15.5q-183 51 -178 188q3 81 58 125t129 44
q118 0 172 -99l-31 -15q-47 79 -141 79q-60 1 -103.5 -33.5t-47.5 -100.5zM404 881l-88 -101h-41l-87 99h31l77 -78l77 80h31z" />
    <glyph glyph-name="scaron" unicode="&#x161;" horiz-adv-x="443" 
d="M227 273q64 -13 107.5 -49t43.5 -90q0 -68 -48 -105.5t-114 -38.5q-98 0 -145 65q1 1 22 25q46 -58 127 -58q50 0 86 29.5t37 82.5q-1 43 -39 70t-84 36q-59 10 -99.5 45t-41.5 89q0 64 47.5 102.5t110.5 38.5q74 0 122 -41l-19 -23q-40 34 -101 34q-53 0 -89 -30
t-35 -81q1 -79 112 -101zM348 720l-88 -101h-41l-87 99h31l77 -78l77 80h31z" />
    <glyph glyph-name="Tcommaaccent" unicode="&#x162;" horiz-adv-x="455" 
d="M29 700h397v-34h-181v-700q39 -1 59 -18.5t20 -44.5q0 -44 -47.5 -63.5t-101.5 7.5l4 17q27 -12 71 -4t44 42q0 22 -23 34.5t-54 7.5l-1 1l3 55h-9v666h-181v34z" />
    <glyph glyph-name="tcommaaccent" unicode="&#x163;" horiz-adv-x="317" 
d="M250 27v-29q-32 -2 -58 6v-38q75 -3 75 -60q0 -46 -45.5 -61t-99.5 12l4 18q21 -9 45.5 -12t45 7t20.5 35q0 22 -21 33.5t-52 6.5l-1 1l8 66q-60 31 -60 118v348h-52v29h52v193h35v-193h104v-29h-104v-348q0 -49 26.5 -76t77.5 -27z" />
    <glyph glyph-name="Tcaron" unicode="&#x164;" horiz-adv-x="455" 
d="M29 700h397v-34h-181v-666h-35v666h-181v34zM332 845l-86 -95h-41l-82 95h30l73 -74l76 74h30z" />
    <glyph glyph-name="tcaron" unicode="&#x165;" horiz-adv-x="315" 
d="M267 699h34q14 -62 -17 -124h-25q25 69 8 124zM250 27v-29q-63 -3 -101 30t-38 102v348h-52v29h52v193h35v-193h104v-29h-104v-348q0 -49 26.5 -76t77.5 -27z" />
    <glyph glyph-name="Tbar" unicode="&#x166;" horiz-adv-x="454" 
d="M74 331v28h136v307h-181v34h397v-34h-181v-307h141v-28h-141v-331h-35v331h-136z" />
    <glyph glyph-name="tbar" unicode="&#x167;" horiz-adv-x="317" 
d="M56 266v24h55v188h-52v29h52v193h35v-193h104v-29h-104v-188h109v-24h-109v-136q0 -49 26.5 -76t77.5 -27v-29q-63 -3 -101 30t-38 102v136h-55z" />
    <glyph glyph-name="Utilde" unicode="&#x168;" horiz-adv-x="659" 
d="M115 700h36v-508q0 -76 53.5 -120t124.5 -44t125 43.5t54 120.5v508h36v-508q0 -93 -64 -145.5t-151 -52.5t-150.5 52t-63.5 146v508zM432 828l16 -17q-24 -41 -65 -41q-17 0 -46 20t-45 20q-31 0 -53 -30l-15 13q11 24 30 35.5t37 11.5q19 0 48.5 -20.5t44.5 -20.5
q17 0 26.5 5.5t21.5 23.5z" />
    <glyph glyph-name="utilde" unicode="&#x169;" horiz-adv-x="619" 
d="M401 670l16 -17q-24 -41 -65 -41q-17 0 -46 20t-45 20q-31 0 -53 -30l-15 13q11 24 30 35.5t37 11.5q19 0 48.5 -20.5t44.5 -20.5q17 0 26.5 5.5t21.5 23.5zM332 -7q-101 1 -168 54.5t-67 156.5v303h33v-304q0 -88 59 -133t147 -47q86 -2 145 68v416h34v-507h-31l-4 54
q-59 -61 -148 -61z" />
    <glyph glyph-name="Umacron" unicode="&#x16a;" horiz-adv-x="658" 
d="M217 800v31h229v-31h-229zM115 700h36v-508q0 -76 53.5 -120t124.5 -44t125 43.5t54 120.5v508h36v-508q0 -93 -64 -145.5t-151 -52.5t-150.5 52t-63.5 146v508z" />
    <glyph glyph-name="umacron" unicode="&#x16b;" horiz-adv-x="619" 
d="M199 647v27h225v-27h-225zM332 -7q-101 1 -168 54.5t-67 156.5v303h33v-304q0 -88 59 -133t147 -47q86 -2 145 68v416h34v-507h-31l-4 54q-59 -61 -148 -61z" />
    <glyph glyph-name="Ubreve" unicode="&#x16c;" horiz-adv-x="658" 
d="M115 700h36v-508q0 -76 53.5 -120t124.5 -44t125 43.5t54 120.5v508h36v-508q0 -93 -64 -145.5t-151 -52.5t-150.5 52t-63.5 146v508zM413 838h25q-5 -39 -38 -59.5t-69 -20.5q-43 0 -73 21t-34 60h25q6 -34 43.5 -47.5t75.5 0t45 46.5z" />
    <glyph glyph-name="ubreve" unicode="&#x16d;" horiz-adv-x="619" 
d="M394 670h25q-5 -39 -38 -59.5t-69 -20.5q-43 0 -73 21t-34 60h25q6 -34 43.5 -47.5t75.5 0t45 46.5zM332 -7q-101 1 -168 54.5t-67 156.5v303h33v-304q0 -88 59 -133t147 -47q86 -2 145 68v416h34v-507h-31l-4 54q-59 -61 -148 -61z" />
    <glyph glyph-name="Uring" unicode="&#x16e;" horiz-adv-x="659" 
d="M115 700h36v-508q0 -76 53.5 -120t124.5 -44t125 43.5t54 120.5v508h36v-508q0 -93 -64 -145.5t-151 -52.5t-150.5 52t-63.5 146v508zM331 856q37 1 52.5 -26.5t0 -55.5t-52.5 -28q-38 0 -53.5 28t0 55.5t53.5 26.5zM331 835q-25 0 -35.5 -17t0 -34.5t35.5 -17.5
t35.5 17.5t0 34.5t-35.5 17z" />
    <glyph glyph-name="uring" unicode="&#x16f;" horiz-adv-x="619" 
d="M307 684q37 1 52.5 -26.5t0 -55.5t-52.5 -28q-38 0 -53.5 28t0 55.5t53.5 26.5zM307 661q-25 0 -34.5 -16.5t0.5 -33t34 -16.5t34 16.5t0 33t-34 16.5zM332 -7q-101 1 -168 54.5t-67 156.5v303h33v-304q0 -88 59 -133t147 -47q86 -2 145 68v416h34v-507h-31l-4 54
q-59 -61 -148 -61z" />
    <glyph glyph-name="Uhungarumlaut" unicode="&#x170;" horiz-adv-x="659" 
d="M370 758l54 87h37l-66 -87h-25zM115 700h36v-508q0 -76 53.5 -120t124.5 -44t125 43.5t54 120.5v508h36v-508q0 -93 -64 -145.5t-151 -52.5t-150.5 52t-63.5 146v508zM248 758l54 87h37l-66 -87h-25z" />
    <glyph glyph-name="uhungarumlaut" unicode="&#x171;" horiz-adv-x="618" 
d="M348 603l54 87h37l-66 -87h-25zM226 603l54 87h37l-66 -87h-25zM332 -7q-101 1 -168 54.5t-67 156.5v303h33v-304q0 -88 59 -133t147 -47q86 -2 145 68v416h34v-507h-31l-4 54q-59 -61 -148 -61z" />
    <glyph glyph-name="Uogonek" unicode="&#x172;" horiz-adv-x="659" 
d="M115 700h36v-508q0 -76 53.5 -120t124.5 -44t125 43.5t54 120.5v508h36v-508q0 -63 -30.5 -107.5t-81.5 -68.5l3 1q-27 -14 -39 -34.5t-12 -37.5q0 -43 66 -72l-12 -29q-29 4 -57 28t-29 60q-2 36 28 67q-28 -5 -51 -5q-87 0 -150.5 52t-63.5 146v508z" />
    <glyph glyph-name="uogonek" unicode="&#x173;" horiz-adv-x="619" 
d="M332 -7q-101 1 -168 54.5t-67 156.5v303h33v-304q0 -88 59 -133t147 -47q86 -2 145 68v416h34v-506v-1q-35 -18 -41 -45.5t13 -48.5t50 -22l-11 -26q-30 4 -57 24.5t-28 55.5q-2 36 42 66l-3 50q-59 -61 -148 -61z" />
    <glyph glyph-name="Wcircumflex" unicode="&#x174;" horiz-adv-x="958" 
d="M678 24h4l181 676h39l-193 -700h-57l-168 549l-168 -549h-57l-196 700h38l185 -677h4l175 572h39zM381 751l86 98h41l82 -98h-30l-73 77l-75 -77h-31z" />
    <glyph glyph-name="wcircumflex" unicode="&#x175;" horiz-adv-x="722" 
d="M335 507h50l118 -483h3l135 483h37l-148 -507h-55l-114 482h-2l-112 -482h-56l-145 507h36l136 -483h3zM252 594l86 98h41l82 -98h-30l-73 77l-75 -77h-31z" />
    <glyph glyph-name="Ycircumflex" unicode="&#x176;" horiz-adv-x="590" 
d="M545 700l-237 -418v-282h-35v283l-235 417h40l213 -387l214 387h40zM188 752l86 98h41l82 -98h-30l-73 77l-75 -77h-31z" />
    <glyph glyph-name="ycircumflex" unicode="&#x177;" horiz-adv-x="508" 
d="M100 -197v31q43 0 65 12.5t34 44.5l42 106l-208 510h38l188 -471l181 471h38l-246 -626q-29 -78 -120 -78h-12zM142 591l86 98h41l82 -98h-30l-73 77l-75 -77h-31z" />
    <glyph glyph-name="Ydieresis" unicode="&#x178;" horiz-adv-x="580" 
d="M545 700l-237 -418v-282h-35v283l-235 417h40l213 -387l214 387h40zM229 739h-48v49h48v-49zM402 739h-48v49h48v-49z" />
    <glyph glyph-name="Zacute" unicode="&#x179;" horiz-adv-x="572" 
d="M385 856l-70 -98h-27l55 98h42zM467 671h-382v34h424v-30l-405 -640h401v-35h-445v26z" />
    <glyph glyph-name="zacute" unicode="&#x17a;" horiz-adv-x="464" 
d="M309 685l-69 -98h-26l55 98h40zM359 476h-279v31h318v-30l-295 -444h297v-33h-337v30z" />
    <glyph glyph-name="Zdotaccent" unicode="&#x17b;" horiz-adv-x="572" 
d="M279 774v49h46v-49h-46zM467 671h-382v34h424v-30l-405 -640h401v-35h-445v26z" />
    <glyph glyph-name="zdotaccent" unicode="&#x17c;" horiz-adv-x="464" 
d="M221 614v49h46v-49h-46zM359 476h-279v31h318v-30l-295 -444h297v-33h-337v30z" />
    <glyph glyph-name="Zcaron" unicode="&#x17d;" horiz-adv-x="572" 
d="M467 671h-382v34h424v-30l-405 -640h401v-35h-445v26zM418 881l-88 -101h-41l-87 99h31l77 -78l77 80h31z" />
    <glyph glyph-name="zcaron" unicode="&#x17e;" horiz-adv-x="464" 
d="M359 476h-279v31h318v-30l-295 -444h297v-33h-337v30zM364 716l-88 -101h-41l-87 99h31l77 -78l77 80h31z" />
    <glyph glyph-name="longs" unicode="&#x17f;" horiz-adv-x="254" 
d="M264 700v-30q-110 0 -110 -106v-564h-36v476h-54v31h54v57q0 71 40.5 104t105.5 32z" />
    <glyph glyph-name="florin" unicode="&#x192;" horiz-adv-x="495" 
d="M467 703l-1 -28q-108 -5 -137 -154l-9 -51h115l-5 -27h-114l-94 -488q-15 -72 -54 -114t-118 -42h-26l5 29h23q112 0 138 133l94 482h-97l6 27h96l9 52q17 87 57.5 131t111.5 50z" />
    <glyph glyph-name="Scommaaccent" unicode="&#x218;" 
d="M254 -54h37q13 -58 -16 -120h-27q23 62 6 120zM134 536q-8 -114 153 -155q197 -49 189 -212q-3 -84 -65.5 -128.5t-140.5 -44.5q-63 0 -116.5 32.5t-82.5 93.5l30 18q26 -52 71.5 -79.5t98.5 -28.5q73 -1 119 36t50 103q2 34 -7.5 62t-25 45.5t-40 32t-44.5 22t-47 15.5
q-183 51 -178 188q3 81 58 124.5t129 43.5q118 0 172 -99l-31 -15q-47 79 -141 79q-61 1 -104 -33t-47 -100z" />
    <glyph glyph-name="scommaaccent" unicode="&#x219;" horiz-adv-x="443" 
d="M205 -61h37q13 -65 -18 -116h-25q23 56 6 116zM227 273q64 -13 107.5 -49t43.5 -90q0 -58 -37.5 -95.5t-87.5 -45.5t-102 8t-80 54q1 1 22 25q34 -44 94 -55t108 18.5t48 90.5q-1 43 -39 70t-84 36q-59 10 -99.5 45t-41.5 89q0 66 49.5 104.5t115 36.5t112.5 -41l-19 -23
q-36 31 -89 33.5t-93.5 -27.5t-39.5 -83q1 -79 112 -101z" />
    <glyph glyph-name="uni021A" unicode="&#x21a;" horiz-adv-x="455" 
d="M206 -55h38q14 -65 -19 -127h-28q25 74 9 127zM28 700h397v-34h-181v-666h-35v666h-181v34z" />
    <glyph glyph-name="uni021B" unicode="&#x21b;" horiz-adv-x="315" 
d="M173 -56h36q12 -56 -19 -125h-25q13 39 15 63t-7 62zM250 27v-29q-63 -3 -101 30t-38 102v348h-52v29h52v193h35v-193h104v-29h-104v-348q0 -49 26.5 -76t77.5 -27z" />
    <glyph glyph-name="circumflex" unicode="&#x2c6;" horiz-adv-x="513" 
d="M150 752l86 100h41l82 -100h-29l-74 79l-76 -79h-30z" />
    <glyph glyph-name="caron" unicode="&#x2c7;" horiz-adv-x="513" 
d="M365 864l-88 -101h-41l-87 99h31l77 -78l77 80h31z" />
    <glyph glyph-name="breve" unicode="&#x2d8;" horiz-adv-x="513" 
d="M259 758q-46 0 -78 23t-32 68h24q0 -42 42.5 -58.5t85 1t42.5 57.5h22q0 -45 -33.5 -68t-72.5 -23z" />
    <glyph glyph-name="dotaccent" unicode="&#x2d9;" horiz-adv-x="514" 
d="M236 761v47h40v-47h-40z" />
    <glyph glyph-name="ring" unicode="&#x2da;" horiz-adv-x="514" 
d="M258 865q40 1 56 -29t-0.5 -61t-55.5 -31q-24 0 -41 13t-20.5 31t0 36t20.5 30t41 11zM258 842q-25 0 -35.5 -18.5t0 -37.5t35.5 -19t35.5 19t0 37.5t-35.5 18.5z" />
    <glyph glyph-name="ogonek" unicode="&#x2db;" horiz-adv-x="513" 
d="M184 -99v1q-11 61 82 108l32 -2q-31 -17 -56.5 -42t-25.5 -49q0 -29 25 -42t52 -13l-8 -21h-10t-22.5 3t-29.5 8.5t-24.5 18t-14.5 30.5z" />
    <glyph glyph-name="tilde" unicode="&#x2dc;" horiz-adv-x="469" 
d="M317 824l13 -12q-22 -40 -58 -40q-15 0 -34 10.5t-33 19t-32.5 4.5t-35.5 -29l-14 10q10 23 27.5 34.5t34.5 11.5q15 0 35 -10.5t34 -19t31 -5.5t32 26z" />
    <glyph glyph-name="hungarumlaut" unicode="&#x2dd;" horiz-adv-x="410" 
d="M120 750l49 89h36l-59 -89h-26zM232 750l49 89h36l-59 -89h-26z" />
    <glyph glyph-name="tonos" unicode="&#x384;" horiz-adv-x="489" 
d="M295 849l-66 -97h-29l53 97h42z" />
    <glyph glyph-name="dieresistonos" unicode="&#x385;" horiz-adv-x="513" 
d="M137 785h48v49h-48v-49zM328 785h48v49h-48v-49zM299 835l-66 -97h-29l53 97h42z" />
    <glyph glyph-name="Alphatonos" unicode="&#x386;" horiz-adv-x="635" 
d="M37 0l252 700h58q83 -232 254 -700h-39l-88 243h-314l-84 -243h-39zM318 677h-2l-143 -402h291zM99 698l-66 -97h-29l53 97h42z" />
    <glyph glyph-name="Epsilontonos" unicode="&#x388;" horiz-adv-x="532" 
d="M449 700v-34h-299v-298h295v-33h-296v-301h300v-34h-336v700h336zM66 699l-66 -97h-29l53 97h42z" />
    <glyph glyph-name="Etatonos" unicode="&#x389;" horiz-adv-x="687" 
d="M530 0v332h-371v-332h-36v700h36v-334h371v334h36v-700h-36zM63 700l-66 -97h-29l53 97h42z" />
    <glyph glyph-name="Iotatonos" unicode="&#x38a;" horiz-adv-x="285" 
d="M125 0v700h36v-700h-36zM61 698l-66 -97h-29l53 97h42z" />
    <glyph glyph-name="Omicrontonos" unicode="&#x38c;" horiz-adv-x="853" 
d="M425 712q148 0 252.5 -107.5t104.5 -255.5q0 -85 -32 -155.5t-84 -114.5t-114.5 -68t-126.5 -24q-65 0 -127 24t-113.5 68t-83 114.5t-31.5 155.5q0 147 102.5 255t252.5 108zM105 349q0 -78 28.5 -142.5t75 -104t102.5 -61t114 -21.5t114 21t102.5 60.5t75.5 104
t29 143.5q0 78 -28.5 142t-75 104t-102.5 61.5t-114 21.5t-114 -21.5t-102.5 -61t-75.5 -104t-29 -142.5zM91 699l-66 -97h-29l53 97h42z" />
    <glyph glyph-name="Upsilontonos" unicode="&#x38e;" horiz-adv-x="579" 
d="M545 700l-237 -418v-282h-35v283l-235 417h40l213 -387l214 387h40zM16 699l-66 -97h-29l53 97h42z" />
    <glyph glyph-name="Omegatonos" unicode="&#x38f;" horiz-adv-x="847" 
d="M420 677q-139 0 -228.5 -91.5t-89.5 -229.5q0 -120 68 -207.5t166 -114.5l-11 -34h-281v33h219q-86 34 -141.5 121t-55.5 202q0 154 99 254.5t255 100.5q155 0 254 -100.5t99 -254.5q0 -115 -55.5 -202t-138.5 -122h217v-32h-284l-9 34q104 31 169.5 114.5t65.5 207.5
q0 138 -89.5 229t-228.5 92zM91 699l-66 -97h-29l53 97h42z" />
    <glyph glyph-name="iotadieresistonos" unicode="&#x390;" horiz-adv-x="267" 
d="M210 -1v32q-40 0 -54 14.5t-14 56.5v405h-37v-405q0 -64 24.5 -83t80.5 -20zM35 648h48v49h-48v-49zM221 648h48v49h-48v-49zM194 698l-66 -97h-29l53 97h42z" />
    <glyph glyph-name="Alpha" unicode="&#x391;" horiz-adv-x="635" 
d="M37 0l252 700h58q83 -232 254 -700h-39l-88 243h-314l-84 -243h-39zM318 677h-2l-143 -402h291z" />
    <glyph glyph-name="Beta" unicode="&#x392;" horiz-adv-x="613" 
d="M160 388h153q71 0 111.5 43t40.5 96q0 54 -40.5 97.5t-111.5 43.5h-153v-280zM313 355h-153v-322h153q85 0 134 50.5t49 111.5t-49.5 110.5t-133.5 49.5zM500 527q0 -45 -25 -88.5t-85 -65.5q74 -23 108 -74t33 -106q0 -87 -63.5 -140t-155.5 -53h-188v700h189
q78 0 132.5 -48.5t54.5 -124.5z" />
    <glyph glyph-name="Gamma" unicode="&#x393;" horiz-adv-x="517" 
d="M468 700v-31h-310v-669h-36v700h346z" />
    <glyph glyph-name="Delta" unicode="&#x394;" horiz-adv-x="635" 
d="M347 700l254 -700h-564l252 700h58zM318 677h-2l-231 -646h467z" />
    <glyph glyph-name="Epsilon" unicode="&#x395;" horiz-adv-x="531" 
d="M449 700v-34h-299v-298h295v-33h-296v-301h300v-34h-336v700h336z" />
    <glyph glyph-name="Zeta" unicode="&#x396;" horiz-adv-x="572" 
d="M461 670h-382v34h424v-30l-405 -639h401v-35h-445v26z" />
    <glyph glyph-name="Eta" unicode="&#x397;" horiz-adv-x="688" 
d="M530 0v332h-371v-332h-36v700h36v-334h371v334h36v-700h-36z" />
    <glyph glyph-name="Theta" unicode="&#x398;" horiz-adv-x="853" 
d="M425 712q148 0 252.5 -107.5t104.5 -255.5q0 -85 -32 -155.5t-84 -114.5t-114.5 -68t-126.5 -24q-65 0 -127 24t-113.5 68t-83 114.5t-31.5 155.5q0 147 102.5 255t252.5 108zM105 349q0 -78 28.5 -142.5t75 -104t102.5 -61t114 -21.5t114 21t102.5 60.5t75.5 104
t29 143.5q0 78 -28.5 142t-75 104t-102.5 61.5t-114 21.5t-114 -21.5t-102.5 -61t-75.5 -104t-29 -142.5zM178 333v32h498v-32h-498z" />
    <glyph glyph-name="Iota" unicode="&#x399;" horiz-adv-x="285" 
d="M125 0v700h36v-700h-36z" />
    <glyph glyph-name="Kappa" unicode="&#x39a;" horiz-adv-x="634" 
d="M161 700v-387l361 387h46l-286 -307l299 -393h-41l-282 367l-97 -98v-269h-36v700h36z" />
    <glyph glyph-name="Lambda" unicode="&#x39b;" horiz-adv-x="631" 
d="M322 681h-5l-240 -681h-38l250 701h59l246 -701h-38z" />
    <glyph glyph-name="Mu" unicode="&#x39c;" horiz-adv-x="853" 
d="M450 116h-42l-245 553h-2v-669h-36v700h63l240 -549q182 414 240 549h63v-700h-35v670h-3z" />
    <glyph glyph-name="Nu" unicode="&#x39d;" horiz-adv-x="733" 
d="M125 700h56l395 -666v666h36v-700h-57l-394 666v-666h-36v700z" />
    <glyph glyph-name="Xi" unicode="&#x39e;" horiz-adv-x="553" 
d="M57 35h442v-35h-442v35zM493 666h-430v34h430v-34zM101 335v34h352v-34h-352z" />
    <glyph glyph-name="Omicron" unicode="&#x39f;" horiz-adv-x="853" 
d="M425 712q148 0 252.5 -107.5t104.5 -255.5q0 -85 -32 -155.5t-84 -114.5t-114.5 -68t-126.5 -24q-65 0 -127 24t-113.5 68t-83 114.5t-31.5 155.5q0 147 102.5 255t252.5 108zM105 349q0 -78 28.5 -142.5t75 -104t102.5 -61t114 -21.5t114 21t102.5 60.5t75.5 104
t29 143.5q0 78 -28.5 142t-75 104t-102.5 61.5t-114 21.5t-114 -21.5t-102.5 -61t-75.5 -104t-29 -142.5z" />
    <glyph glyph-name="Pi" unicode="&#x3a0;" horiz-adv-x="677" 
d="M553 0h-36v669h-363v-669h-36v700h435v-700z" />
    <glyph glyph-name="Rho" unicode="&#x3a1;" horiz-adv-x="587" 
d="M161 279v-279h-36v700h188q101 0 158 -64.5t57 -149.5q0 -84 -56.5 -145.5t-157.5 -61.5h-153zM161 313h152q86 0 132.5 50.5t46.5 120.5q0 71 -47.5 126.5t-131.5 55.5h-152v-353z" />
    <glyph glyph-name="Sigma" unicode="&#x3a3;" horiz-adv-x="573" 
d="M318 370v-20l-210 -315h402v-35h-428l-22 27l223 333l-213 314l18 26h414v-35h-384z" />
    <glyph glyph-name="Tau" unicode="&#x3a4;" horiz-adv-x="455" 
d="M29 700h397v-34h-181v-666h-35v666h-181v34z" />
    <glyph glyph-name="Upsilon" unicode="&#x3a5;" horiz-adv-x="580" 
d="M545 700l-237 -418v-282h-35v283l-235 417h40l213 -387l214 387h40z" />
    <glyph glyph-name="Phi" unicode="&#x3a6;" horiz-adv-x="828" 
d="M395 640v61h36v-61q79 -1 142.5 -25.5t103 -65.5t60.5 -91.5t21 -105.5t-21 -106t-60.5 -92t-103 -65.5t-142.5 -25.5v-64h-36v64q-80 1 -143.5 25.5t-103 65.5t-60 91.5t-20.5 105.5t20.5 105.5t60 92t103 66t143.5 25.5zM431 608v-513q137 2 213.5 76.5t76.5 179.5
t-77 179t-213 78zM105 352q0 -105 76 -180t214 -77v513q-137 -4 -213.5 -78t-76.5 -178z" />
    <glyph glyph-name="Chi" unicode="&#x3a7;" horiz-adv-x="647" 
d="M589 700l-236 -350q212 -310 240 -350h-41l-223 325q-98 -141 -224 -325h-41l241 350q-38 56 -117.5 175.5t-117.5 174.5h40l219 -326l218 326h42z" />
    <glyph glyph-name="Psi" unicode="&#x3a8;" horiz-adv-x="786" 
d="M370 185v515h37v-515q131 4 197.5 76.5t67.5 175.5v263h37v-263q0 -56 -17.5 -105.5t-52 -90.5t-94 -65.5t-138.5 -25.5v-150h-37v150q-79 1 -139.5 25t-95 65.5t-52 90.5t-17.5 105v264h37v-263q1 -103 68 -175.5t199 -76.5z" />
    <glyph glyph-name="Omega" unicode="&#x3a9;" horiz-adv-x="847" 
d="M420 677q-139 0 -228.5 -91.5t-89.5 -229.5q0 -120 68 -207.5t166 -114.5l-11 -34h-281v33h219q-86 34 -141.5 121t-55.5 202q0 154 99 254.5t255 100.5q155 0 254 -100.5t99 -254.5q0 -115 -55.5 -202t-138.5 -122h217v-32h-284l-9 34q104 31 169.5 114.5t65.5 207.5
q0 138 -89.5 229t-228.5 92z" />
    <glyph glyph-name="Iotadieresis" unicode="&#x3aa;" horiz-adv-x="285" 
d="M125 0v700h36v-700h-36zM80 746h-48v49h48v-49zM253 746h-48v49h48v-49z" />
    <glyph glyph-name="Upsilondieresis" unicode="&#x3ab;" horiz-adv-x="580" 
d="M545 700l-237 -418v-282h-35v283l-235 417h40l213 -387l214 387h40zM227 747h-48v49h48v-49zM400 747h-48v49h48v-49z" />
    <glyph glyph-name="alphatonos" unicode="&#x3ac;" horiz-adv-x="589" 
d="M306 -2q86 0 142 57l5 -55h31v507h-31l-5 -63q-55 71 -150 69q-107 -1 -167.5 -77.5t-60.5 -179.5t62.5 -180t173.5 -78zM308 480q85 0 141 -78v-310q-58 -66 -155 -61q-85 6 -137 74.5t-52 151.5q0 89 53.5 155t149.5 68zM379 698l-66 -97h-29l53 97h42z" />
    <glyph glyph-name="epsilontonos" unicode="&#x3ad;" horiz-adv-x="476" 
d="M81 382q1 65 56.5 98.5t125.5 33.5q82 2 154 -50l-18 -27q-63 42 -136 42q-56 -1 -100.5 -25t-45.5 -72q-1 -29 19.5 -54t49.5 -37q39 -14 103 -12h29v-30h-26q-78 0 -117 -13q-73 -34 -76 -94q-1 -56 45 -85t113 -28q82 0 155 49l20 -28q-78 -57 -176 -57q-81 0 -138 37
t-54 113q3 87 109 122q-41 16 -66.5 46t-25.5 71zM339 698l-66 -97h-29l53 97h42z" />
    <glyph glyph-name="etatonos" unicode="&#x3ae;" horiz-adv-x="620" 
d="M287 514q-88 0 -147 -61l-5 54h-31v-507h35v416q59 70 144 68q87 -2 146 -48.5t59 -135.5v-300h34v299q0 103 -67.5 158.5t-167.5 56.5zM368 698l-66 -97h-29l53 97h42z" />
    <glyph glyph-name="iotatonos" unicode="&#x3af;" horiz-adv-x="267" 
d="M210 -1v32q-40 0 -54 14.5t-14 56.5v405h-37v-405q0 -64 24.5 -83t80.5 -20zM196 698l-66 -97h-29l53 97h42z" />
    <glyph glyph-name="upsilondieresistonos" unicode="&#x3b0;" horiz-adv-x="617" 
d="M301 31q-71 2 -120 48.5t-49 128.5v299h-35v-299q-1 -93 57.5 -152t146.5 -61q90 0 151 59t60 154v299h-35v-299q0 -83 -51.5 -130t-124.5 -47zM195 648h48v49h-48v-49zM381 648h48v49h-48v-49zM354 698l-66 -97h-29l53 97h42z" />
    <glyph glyph-name="alpha" unicode="&#x3b1;" horiz-adv-x="589" 
d="M306 -2q-111 1 -173.5 78t-62.5 180t60.5 179.5t167.5 77.5q95 2 150 -69l5 63h31v-507h-31l-5 55q-56 -57 -142 -57zM308 480q-96 -2 -149.5 -68t-53.5 -155q0 -83 52 -151.5t137 -74.5q97 -5 155 61v310q-56 78 -141 78z" />
    <glyph glyph-name="beta" unicode="&#x3b2;" horiz-adv-x="585" 
d="M137 533v-729h-35v729q-1 80 54.5 126.5t130.5 46.5q73 0 125 -44.5t52 -123.5q0 -118 -109 -160q73 -13 115 -66.5t41 -115.5q2 -94 -59.5 -149.5t-145.5 -55.5q-63 0 -107 15v32q41 -17 92 -17q40 0 73.5 11.5t55.5 31t36.5 45t18 54t0 56.5t-19 53.5t-37 45.5
t-54.5 32t-73 12h-38v28h38q68 1 105.5 47.5t34.5 101.5q0 62 -43.5 98t-100.5 36q-62 0 -106 -36t-44 -104z" />
    <glyph glyph-name="gamma" unicode="&#x3b3;" horiz-adv-x="498" 
d="M15 476v31q43 2 62 -11.5t36 -58.5l140 -397l162 467h40l-184 -520v-187h-36v187l-159 443q-11 27 -22.5 37t-38.5 9z" />
    <glyph glyph-name="delta" unicode="&#x3b4;" horiz-adv-x="627" 
d="M567 236q0 -61 -20 -102q-22 -47 -56 -77q-41 -34 -82 -46h1q-45 -17 -97 -17q-55 2 -96 17q-44 15 -80 48q-39 37 -56 77q-21 45 -22 100q2 53 22 98q23 48 71.5 84.5t106.5 43.5q-54 4 -95.5 34.5t-41.5 77.5q0 37 20 64t52.5 40t66 18.5t69.5 5.5q92 -2 160 -41
l-17 -27q-25 20 -77.5 29.5t-105.5 6.5t-93 -27.5t-40 -68.5q0 -26 12.5 -43.5t43.5 -28t44.5 -13t52.5 -7.5q8 -1 12 -2q100 -14 165 -71q80 -72 80 -173zM463 387q-96 81 -210 49q-108 -28 -145 -123h1q-14 -37 -14 -77q0 -41 13 -77q16 -38 36 -59q16 -19 50 -42
q31 -16 59 -23q33 -9 60 -9t61 8q40 12 60 23q30 16 50 41q22 23 36 58h-1q13 35 13 80q0 88 -69 151z" />
    <glyph glyph-name="epsilon" unicode="&#x3b5;" horiz-adv-x="477" 
d="M81 382q1 65 56.5 98.5t125.5 33.5q82 2 154 -50l-18 -27q-63 42 -136 42q-56 -1 -100.5 -25t-45.5 -72q-1 -29 19.5 -54t49.5 -37q39 -14 103 -12h29v-30h-26q-78 0 -117 -13q-73 -34 -76 -94q-1 -56 45 -85t113 -28q82 0 155 49l20 -28q-78 -57 -176 -57q-81 0 -138 37
t-54 113q3 87 109 122q-41 16 -66.5 46t-25.5 71z" />
    <glyph glyph-name="zeta" unicode="&#x3b6;" horiz-adv-x="457" 
d="M452 700v-27q-143 -125 -203 -190q-151 -166 -152 -293q0 -82 84 -125q34 -19 130 -49l40 -14q78 -27 64 -96q-8 -29 -51 -94l-26 17q38 53 42 84q5 23 -6.5 35.5t-39.5 22.5q-28 11 -47 15q-101 34 -134 54q-91 54 -91 147q0 62 32.5 131.5t87.5 134.5t108.5 116
t114.5 100h-315v31h362z" />
    <glyph glyph-name="eta" unicode="&#x3b7;" horiz-adv-x="620" 
d="M287 514q100 -1 167.5 -56.5t67.5 -158.5v-299h-34v300q0 89 -59 135.5t-146 48.5q-85 2 -144 -68v-416h-35v507h31l5 -54q59 61 147 61z" />
    <glyph glyph-name="theta" unicode="&#x3b8;" horiz-adv-x="645" 
d="M574 346q0 -83 -20 -148q-19 -64 -55 -111q-37 -46 -81 -69q-46 -24 -98 -24q-51 0 -98 25q-44 24 -80 71q-39 54 -55 112q-21 62 -21 144q0 80 21 145q18 59 55 111q36 48 80 73q48 25 98 25q53 0 98 -25q43 -24 81 -71q36 -50 55 -113q20 -65 20 -145zM102 349v-2
q0 -64 14 -120q9 -44 36 -90q27 -48 71.5 -79.5t96.5 -31.5q51 0 95.5 29.5t74.5 78.5q22 35 36 90q13 58 13 123v2h-437zM103 380h435q-3 48 -12 84q-13 51 -36 91q-29 49 -73 81t-97 32q-50 0 -95.5 -32t-72.5 -80q-24 -38 -36 -90q-10 -41 -13 -86z" />
    <glyph glyph-name="iota" unicode="&#x3b9;" horiz-adv-x="266" 
d="M210 31v-32q-56 1 -80.5 20t-24.5 83v405h37v-405q0 -42 14 -56.5t54 -14.5z" />
    <glyph glyph-name="kappa" unicode="&#x3ba;" horiz-adv-x="522" 
d="M102 507h35v-269l277 269h45l-217 -211l231 -296h-40l-215 272l-81 -74v-198h-35v507z" />
    <glyph glyph-name="lambda" unicode="&#x3bb;" horiz-adv-x="516" 
d="M109 672v30h13q43 2 68.5 -14t41.5 -61l214 -550q8 -20 12.5 -28.5t16 -15t30.5 -6.5v-27q-41 -1 -59 13.5t-33 55.5l-151 391l-187 -460h-36l205 502l-45 115q-14 33 -33.5 45t-56.5 10z" />
    <glyph glyph-name="nu" unicode="&#x3bd;" horiz-adv-x="488" 
d="M76 507l168 -488h4l165 488h37q-26 -74 -85 -246.5t-90 -261.5h-58l-178 508h37z" />
    <glyph glyph-name="xi" unicode="&#x3be;" horiz-adv-x="465" 
d="M342 -35q-12 4 -38.5 13t-39 13.5t-36 14t-36 16t-31 17.5t-29 21.5t-23.5 25.5t-19.5 31t-12 36.5t-6.5 43.5q0 59 32.5 107.5t88.5 71.5q-46 22 -74.5 61.5t-27.5 87.5q1 78 60.5 127t142.5 49q77 0 138 -39l-17 -25q-53 32 -120 32q-64 0 -115 -39.5t-55 -104.5
q1 -58 44 -94.5t108 -38.5h92v-31h-92q-77 -1 -121 -45.5t-49 -117.5q1 -36 16.5 -65.5t33 -47t56.5 -36t58.5 -25t67.5 -21.5q15 -5 22 -7q68 -23 68 -71q0 -13 -8 -34q-15 -36 -47 -78l-26 18q28 35 40 72q9 25 -3 38.5t-42 23.5z" />
    <glyph glyph-name="omicron" unicode="&#x3bf;" horiz-adv-x="638" 
d="M90 253q0 -59 20.5 -105.5t54.5 -73t72.5 -40t78.5 -13.5q41 0 79.5 13.5t72.5 40t54.5 73t20.5 105.5q0 58 -20.5 104.5t-54.5 73.5t-73 41t-79 14t-78.5 -13.5t-72.5 -40.5t-54.5 -73.5t-20.5 -105.5zM577 253q0 -116 -76.5 -190t-184.5 -74q-107 0 -184 74t-77 190
t77 190.5t184 74.5q108 0 184.5 -73.5t76.5 -191.5z" />
    <glyph glyph-name="pi" unicode="&#x3c0;" horiz-adv-x="612" 
d="M106 0v507h398v-507h-37v475h-324v-475h-37z" />
    <glyph glyph-name="rho" unicode="&#x3c1;" horiz-adv-x="640" 
d="M333 -5q-148 3 -202 140l1 -330h-34v454q2 103 63.5 177t171.5 75q110 -1 171.5 -75t63.5 -177q2 -68 -23 -126.5t-80 -97.5t-132 -40zM344 477h-22q-91 -7 -141.5 -74.5t-47.5 -152.5v-4q1 -80 52.5 -144.5t136.5 -73.5h22q83 0 135.5 68t53.5 150q4 85 -47.5 153.5
t-141.5 77.5z" />
    <glyph glyph-name="sigma1" unicode="&#x3c2;" horiz-adv-x="529" 
d="M308 -13l-24 6t-25.5 6.5t-23 7t-25 9t-22 10t-23.5 12.5t-20 15t-20 19q-32 33 -51 81q-18 45 -18 97q0 58 19 105h-1q18 47 52 84q37 37 81 55q47 21 103 22q53 0 91.5 -15.5t82.5 -52.5l-23 -24q-61 58 -152 58q-29 0 -61 -9q-33 -9 -58 -26q-25 -16 -50 -45
q-19 -24 -34 -66q-13 -38 -13 -87q0 -47 15 -86q19 -45 44 -70q20 -22 49 -37t48.5 -21t61.5 -17q75 -19 108.5 -40.5t33.5 -56.5q0 -14 -7 -32q-10 -27 -47 -78l-26 18q36 48 42 72q9 29 -17 49.5t-90 36.5z" />
    <glyph glyph-name="sigma" unicode="&#x3c3;" horiz-adv-x="638" 
d="M315 518h1h10h279v-26l-196 1q80 -23 124 -88t44 -152q0 -116 -76.5 -190t-184.5 -74q-107 0 -184 74t-77 190q0 115 76.5 189.5t183.5 75.5zM90 253q0 -59 20.5 -105.5t54.5 -73.5t72.5 -40.5t78.5 -13.5q41 0 79.5 13.5t72.5 40.5t55 73.5t21 105.5q0 77 -36.5 132
t-86.5 78t-105 23q-40 0 -78.5 -13.5t-72.5 -40.5t-54.5 -73.5t-20.5 -105.5z" />
    <glyph glyph-name="tau" unicode="&#x3c4;" horiz-adv-x="372" 
d="M298 29v-30q-68 -2 -103 28.5t-37 99.5v349h-117v31h287v-31h-134v-349q0 -53 24.5 -75t79.5 -23z" />
    <glyph glyph-name="upsilon" unicode="&#x3c5;" horiz-adv-x="625" 
d="M307 31q73 0 124.5 47t51.5 130v299h35v-299q1 -95 -60 -154t-151 -59q-88 2 -146.5 61t-57.5 152v299h35v-299q0 -82 49 -128.5t120 -48.5z" />
    <glyph glyph-name="phi" unicode="&#x3c6;" horiz-adv-x="708" 
d="M98 254q0 -131 98 -193q58 -35 140 -38v492q91 2 153 -23q74 -28 114 -92.5t41 -145.5q-2 -149 -117 -221q-55 -35 -156 -40v-187h-35v187q-103 5 -158 40q-57 35 -86.5 93t-29.5 128t29.5 128t86.5 93l25 15l16 -27l-24 -15q-97 -62 -97 -194zM371 483v-460q84 5 138 38
q99 61 99 193q0 70 -33 126t-96 82q-44 18 -108 21z" />
    <glyph glyph-name="chi" unicode="&#x3c7;" horiz-adv-x="518" 
d="M257 279l157 228h41l-175 -253l180 -254h-41l-162 229l-160 -229h-41l177 254l-175 253h41z" />
    <glyph glyph-name="psi" unicode="&#x3c8;" horiz-adv-x="766" 
d="M360 25v499h37v-499q82 3 137 37q98 63 100 191v254h35v-253q-2 -149 -116 -221q-57 -36 -156 -41v-186h-37v186q-99 5 -156 41q-58 35 -87.5 93t-29.5 128v253h35v-253q0 -129 99 -192q56 -34 139 -37z" />
    <glyph glyph-name="omega" unicode="&#x3c9;" horiz-adv-x="795" 
d="M563 477l7 32q49 -8 86.5 -49t52.5 -89q17 -54 17 -116q0 -105 -48.5 -182t-137.5 -78q-19 0 -42 5q-19 5 -45 20q-43 29 -61 85q-18 -57 -61 -85q-26 -15 -45 -20q-23 -5 -42 -5q-89 1 -137 78t-48 182q0 65 16 116q15 49 52 89t87 49l6 -32q-80 -21 -110 -117
q-17 -51 -17 -107q0 -90 39.5 -155t111.5 -66q32 2 56 12q45 21 66 78v-1q9 29 9 56v191h35v-191q0 -31 8 -56v1q21 -57 66 -78q24 -10 56 -12q72 1 111.5 66t39.5 155q0 56 -17 107q-30 96 -111 117z" />
    <glyph glyph-name="iotadieresis" unicode="&#x3ca;" horiz-adv-x="245" 
d="M199 31v-32q-56 1 -80.5 20t-24.5 83v405h37v-405q0 -42 14 -56.5t54 -14.5zM58 645h-48v49h48v-49zM231 645h-48v49h48v-49z" />
    <glyph glyph-name="upsilondieresis" unicode="&#x3cb;" horiz-adv-x="619" 
d="M301 31q73 0 124.5 47t51.5 130v299h35v-299q1 -95 -60 -154t-151 -59q-88 2 -146.5 61t-57.5 152v299h35v-299q0 -82 49 -128.5t120 -48.5zM246 648h-48v49h48v-49zM419 648h-48v49h48v-49z" />
    <glyph glyph-name="omicrontonos" unicode="&#x3cc;" horiz-adv-x="638" 
d="M90 253q0 59 20.5 105.5t54.5 73.5t72.5 40.5t78.5 13.5t79 -14t73 -41t54.5 -73.5t20.5 -104.5q0 -59 -20.5 -105.5t-54.5 -73t-72.5 -40t-79.5 -13.5q-40 0 -78.5 13.5t-72.5 40t-54.5 73t-20.5 105.5zM577 253q0 118 -76.5 191.5t-184.5 73.5q-107 0 -184 -74.5
t-77 -190.5t77 -190t184 -74q108 0 184.5 74t76.5 190zM387 695l-66 -97h-29l53 97h42z" />
    <glyph glyph-name="upsilontonos" unicode="&#x3cd;" horiz-adv-x="619" 
d="M301 31q-71 2 -120 48.5t-49 128.5v299h-35v-299q-1 -93 57.5 -152t146.5 -61q90 0 151 59t60 154v299h-35v-299q0 -83 -51.5 -130t-124.5 -47zM379 697l-66 -97h-29l53 97h42z" />
    <glyph glyph-name="omegatonos" unicode="&#x3ce;" horiz-adv-x="847" 
d="M567 509l-7 -32q81 -21 111 -117q17 -51 17 -107q0 -90 -39.5 -155t-111.5 -66q-32 2 -56 12q-45 21 -66 78v-1q-8 25 -8 56v191h-35v-191q0 -27 -9 -56v1q-21 -57 -66 -78q-24 -10 -56 -12q-72 1 -111.5 66t-39.5 155q0 56 17 107q30 96 110 117l-6 32q-50 -9 -87 -49
t-52 -89q-16 -51 -16 -116q0 -105 48 -182t137 -78q19 0 42 5q19 5 45 20q43 28 61 85q18 -56 61 -85q26 -15 45 -20q23 -5 42 -5q89 1 137.5 78t48.5 182q0 62 -17 116q-15 48 -52.5 89t-86.5 49zM467 696l-66 -97h-29l53 97h42z" />
    <glyph glyph-name="afii10023" unicode="&#x401;" horiz-adv-x="531" 
d="M453 700v-34h-299v-298h295v-33h-296v-301h300v-34h-336v700h336zM230 752h-48v49h48v-49zM403 752h-48v49h48v-49z" />
    <glyph glyph-name="afii10051" unicode="&#x402;" horiz-adv-x="716" 
d="M415 -1v31q82 6 124.5 47t42.5 130v88q0 87 -51 136t-133 49q-85 0 -145 -61v-419h-36v668h-186v32h408v-32h-185v-208q61 51 148 53q96 0 157 -60t60 -158v-88q1 -203 -204 -208z" />
    <glyph glyph-name="afii10052" unicode="&#x403;" horiz-adv-x="517" 
d="M468 700v-31h-310v-669h-36v700h346zM372 842l-63 -92h-29l53 92h39z" />
    <glyph glyph-name="afii10053" unicode="&#x404;" horiz-adv-x="728" 
d="M469 366v-32h-375q5 -131 92.5 -219.5t224.5 -88.5q66 0 127 28.5t103 78.5l24 -20q-46 -57 -113 -89t-141 -32q-159 0 -256 103t-97 252t95.5 254.5t257.5 105.5q140 0 237 -102l-24 -22q-43 44 -91.5 67.5t-121.5 23.5q-135 0 -222.5 -85.5t-93.5 -222.5h374z" />
    <glyph glyph-name="afii10054" unicode="&#x405;" 
d="M134 536q-8 -114 153 -155q197 -49 189 -212q-3 -84 -65.5 -128.5t-140.5 -44.5q-63 0 -116.5 32.5t-82.5 93.5l30 18q26 -52 71.5 -79.5t98.5 -28.5q73 -1 119 36t50 103q2 34 -7.5 62t-25 45.5t-40 32t-44.5 22t-47 15.5q-183 51 -178 188q3 81 58 124.5t129 43.5
q118 0 172 -99l-31 -15q-47 79 -141 79q-61 1 -104 -33t-47 -100z" />
    <glyph glyph-name="afii10055" unicode="&#x406;" horiz-adv-x="285" 
d="M125 0v700h36v-700h-36z" />
    <glyph glyph-name="afii10056" unicode="&#x407;" horiz-adv-x="284" 
d="M125 0v700h36v-700h-36zM84 749h-46v45h46v-45zM248 749h-46v45h46v-45z" />
    <glyph glyph-name="afii10057" unicode="&#x408;" horiz-adv-x="549" 
d="M50 148l30 9q18 -63 64 -95.5t104 -32.5q61 0 108 43.5t47 115.5v479h-144v33h180v-512q0 -89 -57 -141t-133 -52q-157 0 -199 153z" />
    <glyph glyph-name="afii10058" unicode="&#x409;" horiz-adv-x="913" 
d="M486 700v-299h149q60 0 107 -22t71.5 -57.5t35.5 -78.5t0 -85.5t-35.5 -78t-72 -57.5t-107.5 -22h-185v669h-256q-1 -53 -4 -159.5t-4 -158.5q-3 -134 -16 -187q-28 -118 -135 -175l-16 29q20 12 36.5 26.5t29 27t22.5 31t16.5 30t11 34t7 33t4 37t2 36t1 39.5t0.5 39
l9 349h329zM634 370h-148v-338h148q50 0 89.5 18.5t59.5 48.5t29.5 66t0 72t-29.5 66t-59.5 48.5t-89.5 18.5z" />
    <glyph glyph-name="afii10059" unicode="&#x40a;" horiz-adv-x="934" 
d="M507 700v-315h149q60 0 106.5 -21t70.5 -55t35.5 -75t0 -82.5t-36 -75.5t-71 -55t-106.5 -21h-185v354h-312v-354h-37v700h37v-315h312v315h37zM655 354h-148v-323h148q43 0 78.5 14t57 36.5t33.5 51.5t12 59.5t-12 59.5t-33.5 51.5t-56.5 36.5t-79 14z" />
    <glyph glyph-name="afii10060" unicode="&#x40b;" horiz-adv-x="716" 
d="M619 0h-37v295q0 87 -51 136t-133 49q-85 0 -145 -61v-419h-36v668h-186v32h408v-32h-185v-208q61 51 148 53q96 0 157 -60t60 -158v-295z" />
    <glyph glyph-name="afii10061" unicode="&#x40c;" horiz-adv-x="634" 
d="M157 313v387h-36v-700h36v269l97 98l282 -367h41l-299 393l286 307h-43zM389 842l-63 -92h-29l53 92h39z" />
    <glyph glyph-name="afii10062" unicode="&#x40e;" horiz-adv-x="569" 
d="M79 700l216 -457l199 457h39l-271 -615q-25 -57 -52 -71t-97 -14l-1 28h17q44 0 63.5 13.5t38.5 56.5q3 7 17.5 38.5t28.5 64.5l-237 499h39zM296 743q-48 0 -79.5 24t-31.5 69h25q0 -42 42.5 -58.5t85 1t42.5 57.5h25q0 -46 -33 -69.5t-76 -23.5z" />
    <glyph glyph-name="afii10145" unicode="&#x40f;" horiz-adv-x="680" 
d="M326 -114v114h-203v700h36v-669h363v669h36v-700h-199v-114h-33z" />
    <glyph glyph-name="bgA" unicode="&#x410;" horiz-adv-x="635" 
d="M37 0l252 700h58q83 -232 254 -700h-39l-88 243h-314l-84 -243h-39zM318 677h-2l-143 -402h291z" />
    <glyph glyph-name="afii10018" unicode="&#x411;" horiz-adv-x="613" 
d="M160 668v-259h151q61 0 108.5 -22.5t72 -58.5t35.5 -80t-0.5 -87.5t-36.5 -79.5t-72.5 -58.5t-107.5 -22.5h-187v700h355v-32h-318zM310 375h-150v-342h150q50 0 89.5 19t60 49t30.5 66.5t1 73t-29.5 66.5t-60.5 49t-91 19z" />
    <glyph glyph-name="afii10019" unicode="&#x412;" horiz-adv-x="613" 
d="M160 388h153q71 0 111.5 43t40.5 96q0 54 -40.5 97.5t-111.5 43.5h-153v-280zM313 355h-153v-322h153q85 0 134 50.5t49 111.5t-49.5 110.5t-133.5 49.5zM500 527q0 -45 -25 -88.5t-85 -65.5q74 -23 108 -74t33 -106q0 -87 -63.5 -140t-155.5 -53h-188v700h189
q78 0 132.5 -48.5t54.5 -124.5z" />
    <glyph glyph-name="afii10020" unicode="&#x413;" horiz-adv-x="517" 
d="M468 700v-31h-310v-669h-36v700h346z" />
    <glyph glyph-name="afii10021" unicode="&#x414;" horiz-adv-x="700" 
d="M574 33h48v-192h-35v159h-515v-159h-34v185l35 7q41 23 61 82q10 30 16.5 64.5t9 57t5.5 67t5 62.5l21 334h383v-667zM112 33h427v637h-314l-18 -304q-1 -15 -3.5 -53t-4 -56.5t-5.5 -49t-10.5 -55.5t-15.5 -50q-17 -50 -56 -69z" />
    <glyph glyph-name="afii10022" unicode="&#x415;" horiz-adv-x="531" 
d="M448 700v-34h-299v-298h295v-33h-296v-301h300v-34h-336v700h336z" />
    <glyph glyph-name="afii10024" unicode="&#x416;" horiz-adv-x="878" 
d="M416 700h36v-366l321 366h44l-279 -318l291 -382h-42l-274 356l-61 -68v-288h-36v288l-62 68l-276 -356h-40l292 382l-279 318h45l320 -366v366z" />
    <glyph glyph-name="afii10025" unicode="&#x417;" horiz-adv-x="552" 
d="M54 113l26 19q33 -55 77.5 -78.5t107.5 -23.5q74 0 127.5 50t53.5 121q0 66 -50.5 115t-116.5 50h-86v32h86q22 0 57 11h-1q43 15 68.5 47.5t24.5 75.5q-2 67 -50 105.5t-117 38.5q-44 0 -87.5 -21t-70.5 -58l-25 16q31 47 80 71.5t105 24.5q80 0 140 -47.5t60 -129.5
q0 -100 -108 -151q58 -19 92.5 -71.5t34.5 -109.5q0 -84 -65.5 -144t-152.5 -60q-149 0 -210 117z" />
    <glyph glyph-name="afii10026" unicode="&#x418;" horiz-adv-x="733" 
d="M556 700h56v-700h-36v666l-394 -666h-57v700h36v-666z" />
    <glyph glyph-name="afii10027" unicode="&#x419;" horiz-adv-x="733" 
d="M376 739q-48 0 -79.5 24t-31.5 69h25q0 -42 42.5 -58.5t85 1t42.5 57.5h25q0 -46 -33 -69.5t-76 -23.5zM556 700h56v-700h-36v666l-394 -666h-57v700h36v-666z" />
    <glyph glyph-name="afii10028" unicode="&#x41a;" horiz-adv-x="634" 
d="M157 700v-387l364 387h43l-286 -307l299 -393h-41l-282 367l-97 -98v-269h-36v700h36z" />
    <glyph glyph-name="afii10029" unicode="&#x41b;" horiz-adv-x="652" 
d="M150 326l15 375h361v-701h-36v670h-294l-12 -340q-1 -37 -1.5 -56t-4 -53.5t-9 -55t-16.5 -49t-26.5 -48.5t-38.5 -41t-53 -37l-16 26q36 22 60.5 50t37.5 53t20.5 65t9 66t3.5 76z" />
    <glyph glyph-name="afii10030" unicode="&#x41c;" horiz-adv-x="853" 
d="M450 116h-42l-245 553h-2v-669h-36v700h63l240 -549q182 414 240 549h63v-700h-35v670h-3z" />
    <glyph glyph-name="afii10031" unicode="&#x41d;" horiz-adv-x="688" 
d="M530 0v332h-371v-332h-36v700h36v-334h371v334h36v-700h-36z" />
    <glyph glyph-name="afii10032" unicode="&#x41e;" horiz-adv-x="853" 
d="M425 712q148 0 252.5 -107.5t104.5 -255.5q0 -85 -32 -155.5t-84 -114.5t-114.5 -68t-126.5 -24q-65 0 -127 24t-113.5 68t-83 114.5t-31.5 155.5q0 147 102.5 255t252.5 108zM105 349q0 -78 28.5 -142.5t75 -104t102.5 -61t114 -21.5t114 21t102.5 60.5t75.5 104
t29 143.5q0 78 -28.5 142t-75 104t-102.5 61.5t-114 21.5t-114 -21.5t-102.5 -61t-75.5 -104t-29 -142.5z" />
    <glyph glyph-name="afii10033" unicode="&#x41f;" horiz-adv-x="678" 
d="M553 0h-36v669h-363v-669h-36v700h435v-700z" />
    <glyph glyph-name="afii10034" unicode="&#x420;" horiz-adv-x="587" 
d="M161 279v-279h-36v700h188q101 0 158 -64.5t57 -149.5q0 -84 -56.5 -145.5t-157.5 -61.5h-153zM161 313h152q86 0 132.5 50.5t46.5 120.5q0 71 -47.5 126.5t-131.5 55.5h-152v-353z" />
    <glyph glyph-name="afii10035" unicode="&#x421;" horiz-adv-x="733" 
d="M649 605l-24 -22q-43 44 -91.5 67.5t-121.5 23.5q-140 0 -228.5 -91t-88.5 -236q0 -135 88 -228t229 -93q66 0 127 28.5t103 78.5l24 -20q-46 -57 -113 -89t-141 -32q-159 0 -256 103t-97 252t95.5 254.5t257.5 105.5q140 0 237 -102z" />
    <glyph glyph-name="afii10036" unicode="&#x422;" horiz-adv-x="455" 
d="M29 700h397v-34h-181v-666h-35v666h-181v34z" />
    <glyph glyph-name="afii10037" unicode="&#x423;" horiz-adv-x="569" 
d="M79 700l216 -457l199 457h39l-271 -615q-25 -57 -52 -71t-97 -14l-1 28h17q44 0 63.5 13.5t38.5 56.5q3 7 17.5 38.5t28.5 64.5l-237 499h39z" />
    <glyph glyph-name="afii10038" unicode="&#x424;" horiz-adv-x="828" 
d="M395 640v61h36v-61q79 -1 142.5 -25.5t103 -65.5t60.5 -91.5t21 -105.5t-21 -106t-60.5 -92t-103 -65.5t-142.5 -25.5v-64h-36v64q-80 1 -143.5 25.5t-103 65.5t-60 91.5t-20.5 105.5t20.5 105.5t60 92t103 66t143.5 25.5zM431 608v-513q137 2 213.5 76.5t76.5 179.5
t-77 179t-213 78zM105 352q0 -105 76 -180t214 -77v513q-137 -4 -213.5 -78t-76.5 -178z" />
    <glyph glyph-name="afii10039" unicode="&#x425;" horiz-adv-x="643" 
d="M585 700l-236 -350q212 -310 240 -350h-41l-223 325q-98 -141 -224 -325h-41l241 350q-38 56 -117.5 175.5t-117.5 174.5h40l219 -326l218 326h42z" />
    <glyph glyph-name="afii10040" unicode="&#x426;" horiz-adv-x="679" 
d="M552 32h50v-190h-33v158h-452v700h37v-668h360v668h38v-668z" />
    <glyph glyph-name="afii10041" unicode="&#x427;" horiz-adv-x="632" 
d="M511 700v-700h-36v292q-69 -29 -147 -29q-107 0 -181 54t-74 158v225h37v-225q0 -87 64.5 -133t156.5 -46q75 0 144 29v375h36z" />
    <glyph glyph-name="afii10042" unicode="&#x428;" horiz-adv-x="1031" 
d="M123 700h37v-669h337v669h37v-669h337v669h38v-700h-786v700z" />
    <glyph glyph-name="afii10043" unicode="&#x429;" horiz-adv-x="1037" 
d="M123 700h37v-669h337v669h37v-669h337v669h38v-669h51v-189h-34v158h-803v700z" />
    <glyph glyph-name="afii10044" unicode="&#x42a;" horiz-adv-x="644" 
d="M365 372h-147v-339h147q58 0 100 25.5t61 63t19 81t-19 81t-61.5 63t-99.5 25.5zM218 700v-296h148q69 0 119.5 -30t73 -75t22.5 -97.5t-22.5 -97t-73.5 -74.5t-120 -30h-184v669h-148v31h185z" />
    <glyph glyph-name="afii10045" unicode="&#x42b;" horiz-adv-x="829" 
d="M306 372h-147v-339h147q58 0 100 25.5t61 63t19 81t-19 81t-61.5 63t-99.5 25.5zM159 700v-296h148q69 0 119.5 -30t73 -75t22.5 -97.5t-22.5 -97t-73.5 -74.5t-120 -30h-184v700h37zM672 0v700h36v-700h-36z" />
    <glyph glyph-name="afii10046" unicode="&#x42c;" horiz-adv-x="584" 
d="M306 372h-147v-339h147q58 0 100 25.5t61 63t19 81t-19 81t-61.5 63t-99.5 25.5zM159 700v-296h148q69 0 119.5 -30t73 -75t22.5 -97.5t-22.5 -97t-73.5 -74.5t-120 -30h-184v700h37z" />
    <glyph glyph-name="afii10047" unicode="&#x42d;" horiz-adv-x="729" 
d="M259 334v32h374q-6 137 -93.5 222.5t-222.5 85.5q-73 0 -121.5 -23.5t-91.5 -67.5l-24 22q97 102 237 102q162 0 257.5 -105.5t95.5 -254.5t-97 -252t-256 -103q-74 0 -141 32t-113 89l24 20q42 -50 103 -78.5t127 -28.5q137 0 224.5 88.5t92.5 219.5h-375z" />
    <glyph glyph-name="afii10048" unicode="&#x42e;" horiz-adv-x="1057" 
d="M632 710q157 -2 255.5 -103.5t98.5 -258.5q0 -57 -13 -111q-13 -46 -42 -91q-24 -37 -60 -70q-42 -33 -74 -49h1q-38 -19 -82 -30q-40 -9 -84 -9q-53 0 -99 14q-78 22 -140.5 80t-91.5 134q-17 49 -20 117h-122v-333h-37v700h37v-336h122q9 153 102 248q99 98 249 98z
M632 675q-133 0 -223 -89q-89 -91 -91 -238q2 -70 19 -117q24 -71 78.5 -121.5t126.5 -73.5q45 -13 90 -13q46 0 91 13q49 16 86 38q44 29 72 64q31 37 50 92v-1q18 59 18 119q0 141 -88.5 233.5t-228.5 93.5z" />
    <glyph glyph-name="afii10049" unicode="&#x42f;" horiz-adv-x="616" 
d="M69 0l238 305q-115 -1 -173 49.5t-57 149.5q1 94 60.5 145t156.5 51h201v-700h-36v303h-109l-237 -303h-44zM299 337h160v329h-164q-82 0 -132.5 -41t-50.5 -121q0 -167 187 -167z" />
    <glyph glyph-name="bga" unicode="&#x430;" 
d="M435 94v158q-68 42 -151 42q-87 0 -135.5 -40.5t-48.5 -95.5q0 -53 46 -92.5t128 -39.5q44 0 88.5 17t72.5 51zM471 0h-25l-10 54q-61 -59 -162 -61q-98 -1 -154 49t-56 116q0 67 57 117t162 51q81 0 152 -42v44q0 81 -46 115.5t-120 34.5q-76 0 -144 -43l-17 26
q71 50 162 50q87 0 144 -44.5t57 -138.5v-328z" />
    <glyph glyph-name="afii10066" unicode="&#x431;" horiz-adv-x="641" 
d="M71 373q14 165 103 245q95 81 254 81q62 0 63 47h28q1 -41 -26 -60t-63 -19q-79 0 -133.5 -14.5t-103.5 -60.5q-43 -41 -64 -96.5t-33 -139.5q19 54 58 90t81 49.5t88 13.5q104 -1 178 -66t75 -190q0 -113 -73 -189t-182 -72q-79 0 -141.5 39.5t-91.5 113.5
q-22 52 -22 133q0 48 5 95zM100 253q0 -44 14 -83q23 -69 79.5 -107t127.5 -38q96 0 157.5 63.5t61.5 164.5q-1 109 -64.5 165.5t-153.5 57.5q-88 1 -155 -58.5t-67 -164.5z" />
    <glyph glyph-name="afii10067" unicode="&#x432;" horiz-adv-x="580" 
d="M109 0v507h196q46 0 83.5 -9.5t67.5 -39.5t30 -77q0 -42 -26 -74.5t-71 -43.5q52 -10 82 -44t32 -77q2 -51 -28 -84.5t-71 -45t-91 -12.5h-204zM305 477h-161v-199h166q47 0 76 11q28 12 47 37t18 55q-1 52 -44.5 74t-101.5 22zM299 248h-155v-218h169q62 0 110 27t46 84
q-1 32 -21 57t-50 36q-37 14 -99 14z" />
    <glyph glyph-name="afii10068" unicode="&#x433;" horiz-adv-x="469" 
d="M108 0v507h315v-35h-278v-472h-37z" />
    <glyph glyph-name="afii10069" unicode="&#x434;" horiz-adv-x="633" 
d="M519 507v-476h43v-162h-36v131h-455v-131h-36v162h36q41 22 53 71t12 124v281h383zM115 31h369v445h-313v-250q0 -155 -56 -195z" />
    <glyph glyph-name="afii10070" unicode="&#x435;" horiz-adv-x="615" 
d="M307 25q42 0 86 17t71 49l24 -21q-72 -78 -181 -78q-114 0 -184 79.5t-69 186.5q0 108 69.5 181t182.5 74q103 1 174.5 -69t71.5 -174q0 -18 -1 -26h-462q3 -93 64 -156t154 -63zM89 275h431q0 95 -64.5 149.5t-149.5 56.5q-90 -1 -151.5 -56.5t-65.5 -149.5z" />
    <glyph glyph-name="afii10072" unicode="&#x436;" horiz-adv-x="762" 
d="M361 507h36v-263l251 264h46l-210 -224l226 -284h-45l-206 261l-62 -58v-203h-36v203l-63 59l-206 -262h-44l226 285l-210 222h47l250 -262v262z" />
    <glyph glyph-name="afii10073" unicode="&#x437;" horiz-adv-x="470" 
d="M388 382q0 -40 -26.5 -74t-68.5 -44q46 -9 78.5 -44t33.5 -78q3 -76 -53.5 -113t-135.5 -37q-95 0 -173 57l19 27q64 -49 154 -49q66 -1 111 28.5t43 85.5q-1 31 -21.5 55.5t-52.5 37.5t-116 13h-25v32h29q65 -2 101 11q28 12 48 37.5t19 54.5q-1 57 -56 82.5
t-119.5 15.5t-98.5 -43l-19 25q44 43 122 52t142 -26t65 -106z" />
    <glyph glyph-name="afii10074" unicode="&#x438;" horiz-adv-x="629" 
d="M486 453l-342 -453h-39v506h36v-455l344 455h36v-506h-35v453z" />
    <glyph glyph-name="afii10075" unicode="&#x439;" horiz-adv-x="628" 
d="M486 453l-342 -453h-39v506h36v-455l344 455h36v-506h-35v453zM322 597q-47 0 -79.5 24t-32.5 72h26q0 -43 42.5 -60t85 1t42.5 59h27q0 -49 -35 -72.5t-76 -23.5z" />
    <glyph glyph-name="afii10076" unicode="&#x43a;" horiz-adv-x="522" 
d="M102 507h35v-269l277 269h45l-217 -211l231 -296h-40l-215 272l-81 -74v-198h-35v507z" />
    <glyph glyph-name="afii10077" unicode="&#x43b;" horiz-adv-x="573" 
d="M155 228q0 -85 -21 -139.5t-92 -92.5l-16 29q20 11 35 25t25 26t16.5 32.5t10 32.5t5 37.5t1.5 36.5v40v252h348v-507h-37v475h-275v-247z" />
    <glyph glyph-name="afii10078" unicode="&#x43c;" horiz-adv-x="703" 
d="M109 507h44l200 -364q171 311 200 364h43v-507h-37v446q-23 -41 -88 -161t-100 -183h-37l-188 344v-446h-37v507z" />
    <glyph glyph-name="afii10079" unicode="&#x43d;" horiz-adv-x="610" 
d="M105 507h37v-237h324v237h37v-507h-37v237h-324v-237h-37v507z" />
    <glyph glyph-name="afii10080" unicode="&#x43e;" horiz-adv-x="638" 
d="M90 253q0 -59 20.5 -105.5t54.5 -73t72.5 -40t78.5 -13.5q41 0 79.5 13.5t72.5 40t54.5 73t20.5 105.5q0 58 -20.5 104.5t-54.5 73.5t-73 41t-79 14t-78.5 -13.5t-72.5 -40.5t-54.5 -73.5t-20.5 -105.5zM577 253q0 -116 -76.5 -190t-184.5 -74q-107 0 -184 74t-77 190
t77 190.5t184 74.5q108 0 184.5 -73.5t76.5 -191.5z" />
    <glyph glyph-name="afii10081" unicode="&#x43f;" horiz-adv-x="611" 
d="M106 0v507h398v-507h-37v475h-324v-475h-37z" />
    <glyph glyph-name="afii10082" unicode="&#x440;" horiz-adv-x="588" 
d="M282 -2q-81 0 -142 52v-251h-36v708h30l5 -63q55 71 151 69q107 -1 167.5 -77.5t60.5 -179.5t-62.5 -180t-173.5 -78zM280 480q-85 0 -141 -79v-309q58 -66 155 -61q85 6 137 74.5t52 151.5q0 89 -53.5 155t-149.5 68z" />
    <glyph glyph-name="afii10083" unicode="&#x441;" horiz-adv-x="538" 
d="M310 487q-87 1 -154.5 -61t-68.5 -177q0 -99 61.5 -163t161.5 -64q97 0 153 56l21 -24q-40 -36 -79 -50t-95 -14q-116 0 -186.5 74t-70.5 186q0 114 71.5 190.5t186.5 77.5q108 0 171 -59l-22 -24q-53 52 -150 52z" />
    <glyph glyph-name="afii10084" unicode="&#x442;" horiz-adv-x="474" 
d="M40 475v32h392v-32h-178v-475h-37v475h-177z" />
    <glyph glyph-name="afii10085" unicode="&#x443;" horiz-adv-x="508" 
d="M100 -197v31q43 0 65 12.5t34 44.5l42 106l-208 510h38l188 -471l181 471h38l-246 -626q-29 -78 -120 -78h-12z" />
    <glyph glyph-name="afii10086" unicode="&#x444;" horiz-adv-x="705" 
d="M97 253q-3 -98 66.5 -164.5t170.5 -66.5v462q-101 0 -170 -66.5t-67 -164.5zM370 484v-462q105 0 171 64.5t66 166.5q0 99 -67.5 165t-169.5 66zM334 694h36v-180q118 0 195.5 -74t77.5 -187q0 -115 -75 -187.5t-198 -72.5v-188h-36v188q-118 0 -197 74t-76 186
q-1 112 77 186.5t196 74.5v180z" />
    <glyph glyph-name="afii10087" unicode="&#x445;" horiz-adv-x="511" 
d="M257 279l157 228h41l-175 -253l180 -254h-41l-162 229l-160 -229h-41l177 254l-175 253h41z" />
    <glyph glyph-name="afii10088" unicode="&#x446;" horiz-adv-x="619" 
d="M467 507h37v-474h43l-1 -164h-34v131h-407v507h37v-474h325v474z" />
    <glyph glyph-name="afii10089" unicode="&#x447;" horiz-adv-x="575" 
d="M468 0h-36v195q-62 -28 -139 -28q-95 0 -159.5 54.5t-64.5 157.5v128h36v-128q0 -87 55.5 -133.5t136.5 -46.5q71 0 135 29v279h36v-507z" />
    <glyph glyph-name="afii10090" unicode="&#x448;" horiz-adv-x="912" 
d="M473 32h295v475h37v-507h-700v507h37v-475h296v475h35v-475z" />
    <glyph glyph-name="afii10091" unicode="&#x449;" horiz-adv-x="920" 
d="M473 32h295v475h37v-474h44l-1 -164h-34v131h-709v507h37v-475h296v475h35v-475z" />
    <glyph glyph-name="afii10092" unicode="&#x44a;" horiz-adv-x="625" 
d="M205 507v-210h170q77 0 129 -36.5t52 -112.5t-52 -112t-129 -36h-205v478h-136v29h171zM375 267h-170v-237h170q62 0 104.5 29t42.5 89q0 61 -42 89.5t-105 29.5z" />
    <glyph glyph-name="afii10093" unicode="&#x44b;" horiz-adv-x="764" 
d="M140 507v-210h170q77 0 129 -36.5t52 -112.5t-52 -112t-129 -36h-205v507h35zM310 267h-170v-237h170q62 0 104.5 29t42.5 89q0 61 -42 89.5t-105 29.5zM622 0v507h35v-507h-35z" />
    <glyph glyph-name="afii10094" unicode="&#x44c;" horiz-adv-x="559" 
d="M140 507v-210h170q77 0 129 -36.5t52 -112.5t-52 -112t-129 -36h-205v507h35zM310 267h-170v-237h170q62 0 104.5 29t42.5 89q0 61 -42 89.5t-105 29.5z" />
    <glyph glyph-name="afii10095" unicode="&#x44d;" horiz-adv-x="528" 
d="M223 482q-85 0 -148 -56l-22 22q74 69 169 67q109 -1 179 -77t70 -188q0 -110 -69.5 -183t-178.5 -74q-49 0 -90 15q-36 12 -82 51l21 25q69 -59 151 -59q93 1 151 60.5t61 152.5h-283v32h283q-2 87 -64 149.5t-148 62.5z" />
    <glyph glyph-name="afii10096" unicode="&#x44e;" horiz-adv-x="815" 
d="M276 252q0 -89 48 -148q31 -37 76.5 -58t93.5 -21q63 0 120 33q99 59 99 194q0 101 -66 166q-64 62 -153 62q-63 0 -120 -35q-60 -38 -85 -109q-13 -36 -13 -84zM140 238v-238h-35v507h35v-238h100q5 55 21 90q30 70 96 114q62 40 137 40q106 0 178 -70q76 -76 76 -191
q0 -151 -117 -222q-58 -38 -137 -38q-122 2 -197 92q-52 64 -57 154h-100z" />
    <glyph glyph-name="bgq" unicode="&#x44f;" horiz-adv-x="552" 
d="M447 507v-507h-35v228h-117l-207 -228h-42l206 228h-10q-175 0 -175 139q0 140 175 140h205zM242 259h170v216h-170q-141 -2 -141 -108q0 -108 141 -108z" />
    <glyph glyph-name="afii10071" unicode="&#x451;" horiz-adv-x="615" 
d="M248 624h-48v47h48v-47zM421 624h-48v47h48v-47zM309 25q42 0 86 17t71 49l24 -21q-72 -78 -181 -78q-114 0 -184 79.5t-69 186.5q0 108 69.5 181t182.5 74q103 1 174.5 -69t71.5 -174q0 -18 -1 -26h-464q3 -93 65 -156t155 -63zM89 275h433q0 95 -64.5 149.5
t-149.5 56.5q-90 -1 -152.5 -56.5t-66.5 -149.5z" />
    <glyph glyph-name="afii10099" unicode="&#x452;" horiz-adv-x="603" 
d="M37 584v29h70v87h37v-87h143v-29h-143v-127q62 50 146 52q93 -6 155 -63.5t61 -152.5v-87q1 -106 -47 -157t-149 -50v29q85 1 122 42.5t37 135.5v87q0 83 -54 132t-128 49q-88 0 -144 -65v-409h-36v584h-70z" />
    <glyph glyph-name="afii10100" unicode="&#x453;" horiz-adv-x="469" 
d="M108 507v-507h37v472h278v35h-315zM336 688l-66 -97h-29l53 97h42z" />
    <glyph glyph-name="afii10101" unicode="&#x454;" horiz-adv-x="528" 
d="M305 482q-86 0 -148 -62.5t-64 -149.5h283v-32h-283q3 -93 61 -152.5t151 -60.5q82 0 151 59l21 -25q-46 -39 -82 -51q-41 -15 -90 -15q-109 1 -178.5 74t-69.5 183q0 112 70 188t179 77q95 2 169 -67l-22 -22q-63 56 -148 56z" />
    <glyph glyph-name="afii10102" unicode="&#x455;" horiz-adv-x="443" 
d="M227 273q64 -13 107.5 -49t43.5 -90q0 -58 -37.5 -95.5t-87.5 -45.5t-102 8t-80 54q1 1 22 25q34 -44 94 -55t108 18.5t48 90.5q-1 43 -39 70t-84 36q-59 10 -99.5 45t-41.5 89q0 66 49.5 104.5t115 36.5t112.5 -41l-19 -23q-36 31 -89 33.5t-93.5 -27.5t-39.5 -83
q1 -79 112 -101z" />
    <glyph glyph-name="afii10103" unicode="&#x456;" horiz-adv-x="245" 
d="M140 0h-36v509h36v-509zM143 692v-57h-43v57h43z" />
    <glyph glyph-name="afii10104" unicode="&#x457;" horiz-adv-x="245" 
d="M140 0h-36v509h36v-509zM60 650h-48v49h48v-49zM233 650h-48v49h48v-49z" />
    <glyph glyph-name="afii10105" unicode="&#x458;" horiz-adv-x="245" 
d="M1 -179v31q51 0 77 27t26 74v555h36v-555q0 -65 -36 -98.5t-103 -33.5zM144 691v-55h-44v55h44z" />
    <glyph glyph-name="afii10106" unicode="&#x459;" horiz-adv-x="836" 
d="M104 507h310v-210h170q78 0 130.5 -36t52.5 -113q0 -76 -52.5 -112t-130.5 -36h-205v476h-238v-248q0 -84 -21.5 -139t-92.5 -93l-18 26q28 15 46.5 35t28 38t14.5 47.5t5.5 47.5t0.5 55v262zM584 266h-170v-235h170q63 0 106 28.5t43 88.5t-42.5 88.5t-106.5 29.5z" />
    <glyph glyph-name="afii10107" unicode="&#x45a;" horiz-adv-x="887" 
d="M430 507h35v-222h170q79 0 131 -33t52 -109t-52 -109.5t-131 -33.5h-205v254h-287v-254h-37v507h37v-222h287v222zM635 255h-170v-225h170q64 0 106.5 26.5t42.5 86.5q0 59 -42.5 85t-106.5 27z" />
    <glyph glyph-name="afii10108" unicode="&#x45b;" horiz-adv-x="600" 
d="M25 591v27h80v82h36v-82h129v-27h-129v-138q59 61 147 56q94 -4 155 -61t60 -155v-293h-36v294q0 83 -55 133t-128 50q-92 0 -144 -62v-415h-35v591h-80z" />
    <glyph glyph-name="afii10109" unicode="&#x45c;" horiz-adv-x="522" 
d="M137 507h-35v-507h35v198l81 74l215 -272h40l-231 296l217 211h-45l-277 -269v269zM336 688l-66 -97h-29l53 97h42z" />
    <glyph glyph-name="afii10110" unicode="&#x45e;" horiz-adv-x="509" 
d="M100 -197v31q43 0 65 12.5t34 44.5l42 106l-208 510h38l188 -471l181 471h38l-246 -626q-29 -78 -120 -78h-12zM261 597q-47 0 -79.5 24t-32.5 72h26q0 -34 26.5 -52.5t58.5 -17.5t58.5 19.5t26.5 50.5h27q0 -49 -35 -72.5t-76 -23.5z" />
    <glyph glyph-name="afii10193" unicode="&#x45f;" horiz-adv-x="610" 
d="M289 -107v107h-183v507h37v-475h324v475h37v-507h-181v-107h-34z" />
    <glyph glyph-name="afii10050" unicode="&#x490;" horiz-adv-x="517" 
d="M465 806v-137h-310v-669h-36v700h315v106h31z" />
    <glyph glyph-name="afii10098" unicode="&#x491;" horiz-adv-x="469" 
d="M108 0v507h282v92h33v-127h-278v-472h-37z" />
    <glyph glyph-name="uni1E9E" unicode="&#x1e9e;" horiz-adv-x="583" 
d="M137 533v-535h-35v535q-1 80 53.5 126.5t128.5 46.5q73 0 126.5 -44.5t53.5 -123.5q0 -118 -109 -160q73 -13 115 -66.5t41 -115.5q2 -94 -59.5 -148.5t-145.5 -54.5q-39 0 -80 11v32q48 -12 65 -12q51 0 91 18.5t60 48t29.5 65t-0.5 71.5t-30.5 65.5t-60 48.5t-89.5 19
h-38v33h38q68 1 104.5 46.5t33.5 99.5q0 62 -43.5 98t-101.5 36q-61 0 -104 -36t-43 -104z" />
    <glyph glyph-name="thinspace" unicode="&#x2009;" horiz-adv-x="14" 
 />
    <glyph glyph-name="endash" unicode="&#x2013;" horiz-adv-x="701" 
d="M106 265v31h490v-31h-490z" />
    <glyph glyph-name="emdash" unicode="&#x2014;" horiz-adv-x="871" 
d="M106 265v31h657v-31h-657z" />
    <glyph glyph-name="quoteleft" unicode="&#x2018;" horiz-adv-x="241" 
d="M165 700l-49 -183h-41l63 183h27z" />
    <glyph glyph-name="quoteright" unicode="&#x2019;" horiz-adv-x="227" 
d="M75 517l49 183h41l-63 -183h-27z" />
    <glyph glyph-name="quotesinglbase" unicode="&#x201a;" horiz-adv-x="246" 
d="M56 -111l54 161h45l-72 -161h-27z" />
    <glyph glyph-name="quotedblleft" unicode="&#x201c;" horiz-adv-x="356" 
d="M292 699l-49 -183h-41l63 183h27zM169 699l-49 -183h-41l63 183h27z" />
    <glyph glyph-name="quotedblright" unicode="&#x201d;" horiz-adv-x="341" 
d="M75 517l49 183h41l-63 -183h-27zM198 517l49 183h41l-63 -183h-27z" />
    <glyph glyph-name="quotedblbase" unicode="&#x201e;" horiz-adv-x="355" 
d="M56 -111l54 161h45l-72 -161h-27zM173 -111l54 161h45l-72 -161h-27z" />
    <glyph glyph-name="dagger" unicode="&#x2020;" horiz-adv-x="433" 
d="M192 -49v504h-149v29h149v220h30v-220h154v-29h-154v-504h-30z" />
    <glyph glyph-name="daggerdbl" unicode="&#x2021;" horiz-adv-x="449" 
d="M238 459v-255h143v-27h-143v-225h-30v225h-149v27h149v255h-145v27h145v218h30v-218h149v-27h-149z" />
    <glyph glyph-name="bullet" unicode="&#x2022;" horiz-adv-x="384" 
d="M185 188q-42 0 -71 30t-29 73t29 73t71 30q41 0 70 -30t29 -73t-29 -73t-70 -30z" />
    <glyph glyph-name="ellipsis" unicode="&#x2026;" horiz-adv-x="574" 
d="M146 -1h-52v58h52v-58zM314 -1h-52v58h52v-58zM485 -1h-52v58h52v-58z" />
    <glyph glyph-name="perthousand" unicode="&#x2030;" horiz-adv-x="1155" 
d="M370 553q0 -62 -44 -106.5t-106 -44.5t-106 44.5t-44 106.5q0 63 44 107.5t106 44.5t106 -44.5t44 -107.5zM732 148q0 -62 -44 -106.5t-106 -44.5t-106.5 44.5t-44.5 106.5t44.5 106.5t106.5 44.5t106 -44.5t44 -106.5zM600 723h37q-69 -117 -218 -362.5t-226 -378.5h-37
q65 111 215 358t229 383zM340 553q0 52 -34 87t-86 35q-51 0 -85 -35t-34 -87q0 -51 34 -86t85 -35t85.5 35t34.5 86zM701 148q0 52 -34 87t-86 35q-51 0 -85 -35t-34 -87q0 -51 34 -86t85 -35t85.5 35t34.5 86zM1082 148q0 -62 -44 -106.5t-106 -44.5t-106.5 44.5
t-44.5 106.5t44.5 106.5t106.5 44.5t106 -44.5t44 -106.5zM1051 148q0 52 -34 87t-86 35q-51 0 -85 -35t-34 -87q0 -51 34 -86t85 -35t85.5 35t34.5 86z" />
    <glyph glyph-name="guilsinglleft" unicode="&#x2039;" horiz-adv-x="355" 
d="M236 83l-160 199l160 202h41l-161 -202l161 -199h-41z" />
    <glyph glyph-name="guilsinglright" unicode="&#x203a;" horiz-adv-x="360" 
d="M118 483l160 -199l-160 -202h-41l161 202l-161 199h41z" />
    <glyph glyph-name="fraction" unicode="&#x2044;" horiz-adv-x="182" 
d="M-77 -40h-32q57 119 175.5 371t179.5 379h33q-26 -53 -356 -750z" />
    <glyph glyph-name="zerosuperior" unicode="&#x2070;" horiz-adv-x="442" 
d="M93 702v-133q0 -46 26 -77.5t63.5 -39t75 0t63.5 39t26 77.5v133q0 59 -39.5 92.5t-87.5 34t-87.5 -33.5t-39.5 -93zM60 569v133q0 44 17.5 78t46 51t62.5 25t68 -0.5t62.5 -26t46 -51.5t17.5 -76v-133q0 -42 -18 -75.5t-46.5 -50.5t-63 -24.5t-68.5 0.5t-62 25t-45.5 50
t-16.5 75z" />
    <glyph glyph-name="foursuperior" unicode="&#x2074;" horiz-adv-x="406" 
d="M307 850v-298h39v-28h-39v-99h-30v99h-211l-25 31l225 295h41zM75 552h202v265z" />
    <glyph glyph-name="fivesuperior" unicode="&#x2075;" horiz-adv-x="442" 
d="M343 821h-192l-30 -156q41 21 87 23t82.5 -13.5t60.5 -48.5t24 -76q0 -63 -47 -102t-113 -38q-99 2 -144 75q9 4 25 13q20 -27 53 -42.5t67 -15.5q58 -1 93 30t35 80t-38.5 79t-88.5 30q-63 0 -118 -33l-13 3l40 219h217v-27z" />
    <glyph glyph-name="sixsuperior" unicode="&#x2076;" horiz-adv-x="434" 
d="M281 865l-136 -182l1 -1q33 20 72.5 22t72.5 -12.5t55 -47t22 -76.5q0 -60 -45.5 -100t-105.5 -40t-105.5 40.5t-45.5 100.5q0 43 23 78l12 20l143 198h37zM217 676q-49 0 -84.5 -29t-35.5 -77q0 -51 34.5 -82t85.5 -31q49 0 85 32t36 80q-1 49 -36 78t-85 29z" />
    <glyph glyph-name="sevensuperior" unicode="&#x2077;" horiz-adv-x="366" 
d="M93 422l201 393h-216v29h237l16 -23l-206 -399h-32z" />
    <glyph glyph-name="eightsuperior" unicode="&#x2078;" horiz-adv-x="412" 
d="M83 744q0 43 25.5 72t61.5 36t72 0t61.5 -36t25.5 -72q0 -60 -58 -92q76 -22 76 -110q-1 -49 -30 -82t-70 -41t-82 0t-70 41t-30 82q-1 36 19 68.5t52 41.5q-53 31 -53 92zM206 830q-44 0 -69.5 -26.5t-25.5 -59.5q0 -32 25 -55t70 -23t70 23t25 55q0 33 -25.5 59.5
t-69.5 26.5zM206 639q-49 0 -80 -24.5t-31 -71.5q0 -48 35 -75t76.5 -27t76.5 27.5t35 74.5t-31.5 71.5t-80.5 24.5z" />
    <glyph glyph-name="ninesuperior" unicode="&#x2079;" horiz-adv-x="430" 
d="M153 419l136 181l-1 1q-34 -20 -73 -21t-71.5 13.5t-54 47.5t-21.5 77q0 60 46 99.5t106 38.5t105.5 -41.5t44.5 -101.5q-2 -49 -22 -80v1l-160 -215h-35zM218 608q49 0 84.5 28.5t36.5 76.5q0 50 -34.5 82t-84.5 32q-49 1 -85.5 -31t-36.5 -80q1 -49 36 -78.5t84 -29.5z
" />
    <glyph glyph-name="zeroinferior" unicode="&#x2080;" horiz-adv-x="436" 
d="M98 126v-133q0 -46 26 -77.5t63.5 -39t75 0t63.5 39t26 77.5v133q0 59 -39.5 92.5t-87.5 34t-87.5 -33.5t-39.5 -93zM65 -7v133q0 44 17.5 78t46 51t62.5 25t68 -0.5t62.5 -26t46 -51.5t17.5 -76v-133q0 -42 -18 -75.5t-46.5 -50.5t-63 -24.5t-68.5 0.5t-62 25t-45.5 50
t-16.5 75z" />
    <glyph glyph-name="oneinferior" unicode="&#x2081;" horiz-adv-x="293" 
d="M151 -150v388h-64v27h95v-415h-31z" />
    <glyph glyph-name="twoinferior" unicode="&#x2082;" horiz-adv-x="419" 
d="M296 62l-185 -178h245v-30h-283q-2 5 -12 25q36 33 107.5 102t106.5 102q38 35 38 74.5t-30.5 65t-75.5 26.5q-76 3 -113 -54l-23 16q43 69 135 69q43 0 78 -22t50 -54t6.5 -71t-44.5 -71z" />
    <glyph glyph-name="threeinferior" unicode="&#x2083;" horiz-adv-x="408" 
d="M346 -42q-1 -57 -44.5 -93t-100.5 -36q-39 0 -78.5 20.5t-62.5 53.5l24 16q47 -58 119 -58q43 0 77.5 27.5t34.5 70.5q0 44 -32 70t-75 26h-25v29h25q38 0 65 20.5t27 58.5q0 39 -29 62t-69 23q-67 0 -98 -43l-24 14q39 59 121 59q53 0 91.5 -31.5t38.5 -83.5
q0 -33 -18 -59.5t-46 -33.5v-1q37 -7 58.5 -41.5t20.5 -69.5z" />
    <glyph glyph-name="fourinferior" unicode="&#x2084;" horiz-adv-x="393" 
d="M306 273v-298h39v-28h-39v-99h-30v99h-211l-25 31l225 295h41zM74 -25h202v265z" />
    <glyph glyph-name="fiveinferior" unicode="&#x2085;" horiz-adv-x="432" 
d="M343 251h-192l-30 -156q41 21 87 23t82.5 -13.5t60.5 -48.5t24 -76q0 -63 -47 -102t-113 -38q-99 2 -144 75q9 4 25 13q20 -27 53 -42.5t67 -15.5q58 -1 93 30t35 80t-38.5 79t-88.5 30q-63 0 -118 -33l-13 3l40 219h217v-27z" />
    <glyph glyph-name="sixinferior" unicode="&#x2086;" horiz-adv-x="432" 
d="M283 279l-136 -182l1 -1q33 20 72.5 22t72.5 -12.5t55 -47t22 -76.5q0 -60 -45.5 -100t-105.5 -40t-105.5 40.5t-45.5 100.5q0 43 23 78l12 20l143 198h37zM219 90q-49 0 -84.5 -29t-35.5 -77q0 -51 34.5 -82t85.5 -31q49 0 85 32t36 80q-1 49 -36 78t-85 29z" />
    <glyph glyph-name="seveninferior" unicode="&#x2087;" horiz-adv-x="368" 
d="M84 -165l201 393h-216v29h237l16 -23l-206 -399h-32z" />
    <glyph glyph-name="eightinferior" unicode="&#x2088;" horiz-adv-x="403" 
d="M81 169q0 43 25.5 72t61.5 36t72 0t61.5 -36t25.5 -72q0 -60 -58 -92q76 -22 76 -110q-1 -49 -30 -82t-70 -41t-82 0t-70 41t-30 82q-1 36 19 68.5t52 41.5q-53 31 -53 92zM204 255q-44 0 -69.5 -26.5t-25.5 -59.5q0 -32 25 -55t70 -23t70 23t25 55q0 33 -25.5 59.5
t-69.5 26.5zM204 64q-49 0 -80 -24.5t-31 -71.5q0 -48 35 -75t76.5 -27t76.5 27.5t35 74.5t-31.5 71.5t-80.5 24.5z" />
    <glyph glyph-name="nineinferior" unicode="&#x2089;" horiz-adv-x="425" 
d="M154 -159l136 181l-1 1q-34 -20 -73 -21t-71.5 13.5t-54 47.5t-21.5 77q0 60 46 99.5t106 38.5t105.5 -41.5t44.5 -101.5q-2 -49 -22 -80v1l-160 -215h-35zM219 30q49 0 84.5 28.5t36.5 76.5q0 50 -34.5 82t-84.5 32q-49 1 -85.5 -31t-36.5 -80q1 -49 36 -78.5t84 -29.5z
" />
    <glyph glyph-name="Euro" unicode="&#x20ac;" horiz-adv-x="650" 
d="M71 431h56q29 124 112 199.5t216 75.5q56 0 120 -24l-13 -29q-46 21 -107 21q-125 -1 -195 -63t-99 -180h298l-7 -30h-296q-8 -41 -2 -86h278l-7 -31h-265q23 -116 100 -187t195 -71q82 0 128 30l15 -26q-61 -35 -143 -35q-132 0 -218.5 83.5t-111.5 205.5h-64l6 31h53
q-6 44 2 86h-58z" />
    <glyph glyph-name="afii61352" unicode="&#x2116;" horiz-adv-x="1330" 
d="M125 700h56l395 -666v666h36v-700h-57l-394 666v-666h-36v700zM767 253q0 -59 20.5 -105.5t54.5 -73t72.5 -40t78.5 -13.5q41 0 79.5 13.5t72.5 40t54.5 73t20.5 105.5q0 58 -20.5 104.5t-54.5 73.5t-73 41t-79 14t-78.5 -13.5t-72.5 -40.5t-54.5 -73.5t-20.5 -105.5z
M1254 253q0 -116 -76.5 -190t-184.5 -74q-107 0 -184 74t-77 190t77 190.5t184 74.5q108 0 184.5 -73.5t76.5 -191.5z" />
    <glyph glyph-name="trademark" unicode="&#x2122;" horiz-adv-x="834" 
d="M300 673h-109v-373h-29v373h-108v27h246v-27zM547 384l-156 290v-374h-28v399h44l154 -285l155 285h44v-399h-29v374l-156 -290h-28z" />
    <glyph glyph-name="minus" unicode="&#x2212;" horiz-adv-x="613" 
d="M72 274v31h487v-31h-487z" />
    <glyph glyph-name="infinity" unicode="&#x221e;" horiz-adv-x="426" 
d="M208 224q-50 0 -86 37t-36 88q0 52 36 88t86 36q51 0 86.5 -36t35.5 -88q0 -51 -35.5 -88t-86.5 -37z" />
    <glyph glyph-name="approxequal" unicode="&#x2248;" horiz-adv-x="603" 
d="M116 342l-18 17q53 55 119 58q40 1 98 -33.5t96 -33.5q57 1 104 42q16 -18 16 -19q-55 -52 -119 -53q-45 -3 -100 30q-3 2 -12.5 7t-12 6.5l-10 6t-11 5.5t-9.5 4t-10 4t-9.5 2.5t-10 1.5h-9.5q-52 -3 -102 -45zM116 186l-18 17q53 55 119 58q40 1 98 -33.5t96 -33.5
q57 1 104 42q16 -18 16 -19q-55 -52 -119 -53q-45 -3 -100 30q-3 2 -12.5 7t-12 6.5l-10 6t-11 5.5t-9.5 4t-10 4t-9.5 2.5t-10 1.5h-9.5q-52 -3 -102 -45z" />
    <glyph glyph-name="notequal" unicode="&#x2260;" horiz-adv-x="620" 
d="M159 77l71 95h-119v30h140l117 165h-257v31h278l74 106l24 -10l-68 -96h99v-31h-120l-117 -165h237v-30h-258l-78 -107z" />
    <glyph glyph-name="lessequal" unicode="&#x2264;" horiz-adv-x="506" 
d="M60 5v32h379v-32h-379zM430 582v-36l-337 -179l337 -175v-36l-374 197v27z" />
    <glyph glyph-name="greaterequal" unicode="&#x2265;" horiz-adv-x="560" 
d="M90 37v-32h379v32h-379zM98 546v36l374 -202v-27l-374 -197v36l337 175z" />
    <glyph glyph-name="fontfabric" horiz-adv-x="1744" 
d="M1328 699h350v-176h-14q-22 80 -63.5 121.5t-116.5 41.5h-59v-674h110v-13h-207v700zM732 12h234v-13h-234v13zM1173 699h123v-13v-687h-32l-428 687h-104v13h215l330 -537h6v524h-110v13zM778 491q26 -63 26 -141q0 -68 -26 -131q-39 -78 -71 -110q-58 -58 -113.5 -84
t-132.5 -26h-6v13h6q126 0 182 84q28 38 38 104q13 100 13 150q0 154 -45 232q-43 104 -188 104h-6v13h6q101 0 188.5 -57.5t128.5 -150.5zM235 439q2 7 10.5 29t14.5 43h7v-305h-7q-8 64 -39.5 107.5t-89.5 42.5h-65v13h57q45 -1 71 14.5t41 55.5zM66 699h336v-169h-6
q-20 74 -61 115t-121 41h-148v13z" />
    <glyph glyph-name="zero.tnum" horiz-adv-x="599" 
d="M116 514v-328q0 -76 55 -118.5t129 -42.5q72 0 127 43t55 118v328q0 74 -57 117.5t-129 42.5t-126 -44t-54 -116zM83 186v328q0 89 63 139t149 51q89 2 155 -48.5t66 -141.5v-328q1 -89 -62.5 -140t-153.5 -51q-91 -2 -155 49.5t-62 141.5z" />
    <glyph glyph-name="one.tnum" horiz-adv-x="336" 
d="M167 671h-92v29h125v-700h-33v671z" />
    <glyph glyph-name="two.tnum" horiz-adv-x="573" 
d="M287 677q-111 4 -166 -98q-5 2 -13 6l-14 7q57 116 192 116q73 0 122 -35t65 -86.5t0.5 -113t-62.5 -112.5l-292 -328h383v-33h-399l-23 37l309 349q51 56 58.5 124t-35.5 117.5t-125 49.5z" />
    <glyph glyph-name="three.tnum" 
d="M73 113l27 15q60 -102 171 -102q66 0 119 46.5t53 125.5q0 69 -47.5 117t-111.5 48h-34v30h34q59 0 100 35.5t41 97.5q0 70 -47 109t-111 39q-46 0 -87.5 -21.5t-62.5 -60.5q-6 3 -14.5 8t-9.5 6q26 48 73.5 73.5t102.5 25.5q76 0 132.5 -48t56.5 -131q0 -44 -28.5 -88
t-75.5 -60q59 -27 90.5 -75.5t31.5 -105.5q-1 -90 -63 -146.5t-143 -56.5q-61 0 -114 31t-83 88z" />
    <glyph glyph-name="four.tnum" horiz-adv-x="546" 
d="M424 700v-508h62v-30h-62v-162h-33v162h-323l-23 30l328 508h51zM391 192v478l-310 -478h310z" />
    <glyph glyph-name="five.tnum" horiz-adv-x="585" 
d="M80 108l25 17q31 -49 79 -75.5t103 -26.5q92 0 143 60t50 142q0 74 -51 131.5t-139 57.5q-90 0 -173 -47h-11l48 333h316v-30h-290l-38 -258q76 35 150 35q69 -1 121 -34.5t76.5 -83t24.5 -104.5q0 -95 -62 -164t-167 -69q-61 0 -117 31t-88 85z" />
    <glyph glyph-name="six.tnum" horiz-adv-x="607" 
d="M308 -6q-103 0 -162 68t-59 158q0 76 37 135l216 345h37l-200 -309q63 54 131 54q107 0 164 -67.5t57 -157.5t-59 -158t-162 -68zM308 414q-76 0 -131 -57.5t-56 -135.5q0 -75 50.5 -136t136.5 -61t137.5 61.5t50.5 135.5q0 73 -51 133t-137 60z" />
    <glyph glyph-name="seven.tnum" horiz-adv-x="502" 
d="M427 670h-376v30h395l18 -24l-347 -676h-37z" />
    <glyph glyph-name="eight.tnum" horiz-adv-x="587" 
d="M293 -8q-83 0 -145.5 55.5t-63.5 147.5q-1 55 34 108t91 77q-46 25 -71 67t-25 85q0 79 54 127t126 48t126 -47.5t54 -126.5q0 -42 -25 -85t-72 -66q60 -29 94.5 -80t33.5 -107q-1 -92 -64 -147.5t-147 -55.5zM293 677q-66 0 -107 -45t-41 -99q0 -53 41 -97t107 -44
t106 43.5t40 97.5t-39.5 99t-106.5 45zM293 365q-79 0 -127 -53t-48 -118q0 -66 48 -119.5t127 -52.5q80 1 129 55t49 119t-49 117t-129 52z" />
    <glyph glyph-name="nine.tnum" horiz-adv-x="609" 
d="M301 706q103 0 162 -68t59 -158q0 -76 -37 -135l-216 -345h-37l199 308q-62 -53 -130 -53q-107 0 -164 67.5t-57 157.5t59 158t162 68zM301 286q76 0 131 57.5t56 135.5q0 75 -50.5 136t-136.5 61t-137.5 -61.5t-50.5 -135.5q0 -73 51 -133t137 -60z" />
    <glyph glyph-name="zero.p_osf" horiz-adv-x="615" 
d="M122 338v-152q0 -76 55 -118.5t129 -42.5q72 0 127 43t55 118v152q0 74 -57 117.5t-129 42.5t-126 -44t-54 -116zM89 186v152q0 89 63 139t149 51q89 2 155 -48.5t66 -141.5v-152q1 -89 -62.5 -140t-153.5 -51q-91 -2 -155 49.5t-62 141.5z" />
    <glyph glyph-name="one.p_osf" horiz-adv-x="312" 
d="M150 483h-92v29h125v-512h-33v483z" />
    <glyph glyph-name="two.p_osf" horiz-adv-x="522" 
d="M378 272l-248 -238h307v-34h-328l-24 38l268 259q59 59 45 117q-11 38 -51 63t-84 23q-40 2 -79 -17.5t-60 -52.5l-14 6h-1q-2 1 -7.5 3.5t-8.5 3.5q23 45 69 68t101 22q57 2 106.5 -29t64.5 -82q22 -80 -56 -150z" />
    <glyph glyph-name="three.p_osf" horiz-adv-x="527" 
d="M57 -11l26 16q55 -89 166 -89q65 0 117 39.5t52 113.5q0 63 -45.5 106.5t-106.5 43.5h-33v31h33q58 0 97 31t39 88q0 64 -45 99.5t-107 35.5q-44 0 -84 -19.5t-60 -54.5q-6 2 -15 7t-12 6q25 45 71.5 69.5t99.5 24.5q73 0 130 -46.5t57 -121.5q0 -47 -25.5 -83.5
t-73.5 -51.5q116 -51 116 -166q-1 -86 -63.5 -136t-142.5 -50q-59 0 -110.5 28t-80.5 79z" />
    <glyph glyph-name="four.p_osf" horiz-adv-x="555" 
d="M431 517v-446h66v-30h-66v-149h-34v149h-318l-29 33l328 443h53zM397 71v413l-311 -413h311z" />
    <glyph glyph-name="five.p_osf" horiz-adv-x="535" 
d="M65 4l27 14q57 -89 166 -89q82 0 131 53t48 121q0 67 -45.5 117t-126.5 50q-91 0 -164 -41h-12q8 49 23 141t22 141h294v-29h-268l-33 -209q54 29 139 29q98 -1 152 -60.5t54 -139.5q0 -82 -58 -143t-157 -61q-60 0 -111 27t-81 79z" />
    <glyph glyph-name="six.p_osf" horiz-adv-x="598" 
d="M183 398l2 -1q60 48 124 48q107 0 164 -67.5t57 -157.5t-59 -158t-162 -68t-162 68t-59 158q0 76 37 135l216 345h37zM309 414q-76 0 -131 -57.5t-56 -135.5q0 -75 50.5 -136t136.5 -61t137.5 61.5t50.5 135.5q0 73 -51 133t-137 60z" />
    <glyph glyph-name="seven.p_osf" horiz-adv-x="492" 
d="M405 493h-348v30h368l18 -24l-310 -598h-37z" />
    <glyph glyph-name="eight.p_osf" horiz-adv-x="565" 
d="M282 -16q-83 0 -144.5 52t-62.5 144q-1 52 33.5 101.5t90.5 72.5q-46 23 -70.5 63t-24.5 80q0 74 53.5 119.5t124.5 45.5q70 0 123.5 -45t53.5 -119q0 -39 -24.5 -79.5t-70.5 -62.5q60 -27 93.5 -75t32.5 -101q-1 -92 -63 -144t-145 -52zM282 632q-66 0 -106.5 -42
t-40.5 -92q0 -49 41 -89.5t106 -40.5t105 40t40 90t-40 92t-105 42zM282 338q-78 0 -125.5 -49t-47.5 -110q0 -67 46.5 -116t126.5 -48t127.5 50.5t47.5 115.5q0 60 -48 108.5t-127 48.5z" />
    <glyph glyph-name="nine.p_osf" horiz-adv-x="574" 
d="M415 126l-1 2q-59 -49 -126 -49q-107 0 -164 67.5t-57 157.5t59 158t162 68t162 -68t59 -158q0 -76 -37 -135l-216 -345h-37zM288 110q76 0 131 57.5t56 135.5q0 75 -50.5 136t-136.5 61t-137.5 -61.5t-50.5 -135.5q0 -73 51 -133t137 -60z" />
    <glyph glyph-name="zero.t_osf" horiz-adv-x="615" 
d="M122 338v-152q0 -76 55 -118.5t129 -42.5q72 0 127 43t55 118v152q0 74 -57 117.5t-129 42.5t-126 -44t-54 -116zM89 186v152q0 89 63 139t149 51q89 2 155 -48.5t66 -141.5v-152q1 -89 -62.5 -140t-153.5 -51q-91 -2 -155 49.5t-62 141.5z" />
    <glyph glyph-name="one.t_osf" horiz-adv-x="298" 
d="M150 483h-92v29h125v-512h-33v483z" />
    <glyph glyph-name="two.t_osf" horiz-adv-x="528" 
d="M381 272l-248 -238h307v-34h-328l-24 38l268 259q59 59 45 117q-11 38 -51 63t-84 23q-40 2 -79 -17.5t-60 -52.5l-14 6h-1q-2 1 -7.5 3.5t-8.5 3.5q23 45 69 68t101 22q57 2 106.5 -29t64.5 -82q22 -80 -56 -150z" />
    <glyph glyph-name="three.t_osf" horiz-adv-x="525" 
d="M57 -11l26 16q55 -89 166 -89q65 0 117 39.5t52 113.5q0 63 -45.5 106.5t-106.5 43.5h-33v31h33q58 0 97 31t39 88q0 64 -45 99.5t-107 35.5q-44 0 -84 -19.5t-60 -54.5q-6 2 -15 7t-12 6q25 45 71.5 69.5t99.5 24.5q73 0 130 -46.5t57 -121.5q0 -47 -25.5 -83.5
t-73.5 -51.5q116 -51 116 -166q-1 -86 -63.5 -136t-142.5 -50q-59 0 -110.5 28t-80.5 79z" />
    <glyph glyph-name="four.t_osf" horiz-adv-x="560" 
d="M431 517v-446h66v-30h-66v-149h-34v149h-318l-29 33l328 443h53zM397 71v413l-311 -413h311z" />
    <glyph glyph-name="five.t_osf" horiz-adv-x="545" 
d="M67 4l27 14q57 -89 166 -89q82 0 131 53t48 121q0 67 -45.5 117t-126.5 50q-91 0 -164 -41h-12q8 49 23 141t22 141h294v-29h-268l-33 -209q54 29 139 29q98 -1 152 -60.5t54 -139.5q0 -82 -58 -143t-157 -61q-60 0 -111 27t-81 79z" />
    <glyph glyph-name="six.t_osf" horiz-adv-x="598" 
d="M177 398l2 -1q60 48 124 48q107 0 164 -67.5t57 -157.5t-59 -158t-162 -68t-162 68t-59 158q0 76 37 135l216 345h37zM303 414q-76 0 -131 -57.5t-56 -135.5q0 -75 50.5 -136t136.5 -61t137.5 61.5t50.5 135.5q0 73 -51 133t-137 60z" />
    <glyph glyph-name="seven.t_osf" horiz-adv-x="521" 
d="M419 492h-348v30h368l18 -24l-310 -598h-37z" />
    <glyph glyph-name="eight.t_osf" horiz-adv-x="568" 
d="M281 -16q-83 0 -144.5 52t-62.5 144q-1 52 33.5 101.5t90.5 72.5q-46 23 -70.5 63t-24.5 80q0 74 53.5 119.5t124.5 45.5q70 0 123.5 -45t53.5 -119q0 -39 -24.5 -79.5t-70.5 -62.5q60 -27 93.5 -75t32.5 -101q-1 -92 -63 -144t-145 -52zM281 632q-66 0 -106.5 -42
t-40.5 -92q0 -49 41 -89.5t106 -40.5t105 40t40 90t-40 92t-105 42zM281 338q-78 0 -125.5 -49t-47.5 -110q0 -67 46.5 -116t126.5 -48t127.5 50.5t47.5 115.5q0 60 -48 108.5t-127 48.5z" />
    <glyph glyph-name="nine.t_osf" horiz-adv-x="574" 
d="M408 126l-1 2q-59 -49 -126 -49q-107 0 -164 67.5t-57 157.5t59 158t162 68t162 -68t59 -158q0 -76 -37 -135l-216 -345h-37zM281 110q76 0 131 57.5t56 135.5q0 75 -50.5 136t-136.5 61t-137.5 -61.5t-50.5 -135.5q0 -73 51 -133t137 -60z" />
    <glyph glyph-name="dollar.osf" horiz-adv-x="546" 
d="M132 430q1 -25 11 -44.5t21 -30.5t34.5 -20.5t35 -12.5t40.5 -10h3q6 -2 8 -2q30 -7 54 -14.5t51 -21.5t45 -31.5t29.5 -44.5t10.5 -60q0 -60 -53 -102t-129 -42v-76h-32v75q-59 0 -105 29.5t-74 75.5q6 3 16 9.5t13 8.5q33 -48 69 -69.5t97 -20.5q71 1 115.5 30t48.5 82
q1 27 -10 49.5t-26.5 36.5t-40.5 26t-44.5 18t-45.5 12q-32 8 -49.5 13t-45.5 17.5t-43 26.5t-26.5 39t-11.5 56q1 60 47.5 97t117.5 46v69h32v-69q55 -2 100 -25t66 -63q-5 -3 -14 -8t-13 -7q-26 51 -100.5 66.5t-138.5 -14.5t-63 -94z" />
    <glyph glyph-name="cent.osf" horiz-adv-x="551" 
d="M308 -75v89q-105 9 -168.5 84t-63.5 171q1 99 66 171t167 82v89h30v-88q84 -11 133 -49q-4 -4 -18 -25q-57 43 -127 43q-86 0 -150 -63t-65 -161q0 -84 51 -146t128 -73t168 42l18 -23q-56 -43 -139 -53v-90h-30z" />
    <glyph glyph-name="sterling.osf" horiz-adv-x="587" 
d="M518 452l-29 -11q-32 105 -161 105q-60 0 -106.5 -46t-46.5 -118v-106h225v-31h-225v-214h354v-31h-445v31h57v214h-55v31h55v106q0 90 56 143.5t131 53.5q66 0 117.5 -30t72.5 -97z" />
    <glyph glyph-name="yen.osf" horiz-adv-x="591" 
d="M524 521l-143 -242h84v-27h-99l-58 -94h157v-26h-158v-147h-31v147h-158v26h157l-58 94h-99v27h86q-23 38 -70 117.5t-75 124.5h41l192 -332l193 332h39z" />
    <glyph glyph-name="florin.osf" horiz-adv-x="489" 
d="M442 531l-3 -31q-75 -1 -107 -50t-46 -147h118l-7 -29h-116q-56 -291 -60 -319q-10 -77 -61 -119.5t-136 -31.5l6 30q138 -13 158 127l59 313h-101l7 29h100l9 47q28 180 180 181z" />
    <glyph glyph-name="Euro.osf" horiz-adv-x="647" 
d="M73 383h57q28 113 111 180t214 67q58 0 124 -26l-16 -30q-49 23 -108 23q-113 -2 -188.5 -57t-103.5 -157h302l-7 -27h-299q-4 -47 0 -76h279l-7 -28h-271q24 -105 101.5 -166t193.5 -61q64 0 127 30l17 -28q-67 -33 -144 -33q-136 0 -220 70t-108 188h-65l7 28h56
q-5 38 0 76h-60z" />
    <glyph glyph-name="zero.numerator" horiz-adv-x="440" 
d="M93 553v-133q0 -61 35.5 -91t91.5 -30q55 0 91 30t36 91v133q0 62 -36.5 93t-91.5 31t-90.5 -31t-35.5 -93zM60 420v133q0 77 46 115.5t113 38.5q65 0 113 -40.5t48 -113.5v-133q0 -71 -48 -111.5t-113 -40.5q-66 0 -114 41.5t-45 110.5z" />
    <glyph glyph-name="one.numerator" horiz-adv-x="302" 
d="M138 284v388h-64v27h95v-415h-31z" />
    <glyph glyph-name="two.numerator" horiz-adv-x="418" 
d="M296 491l-185 -178h245v-30h-283q-2 5 -12 25q36 33 107.5 102t106.5 102q38 35 38 74.5t-30.5 65t-75.5 26.5q-76 3 -113 -54l-23 16q43 69 135 69q43 0 78 -22t50 -54t6.5 -71t-44.5 -71z" />
    <glyph glyph-name="three.numerator" horiz-adv-x="408" 
d="M348 391q-1 -57 -44.5 -93t-100.5 -36q-39 0 -78.5 20.5t-62.5 53.5l24 16q47 -58 119 -58q43 0 77.5 27.5t34.5 70.5q0 44 -32 70t-75 26h-25v29h25q38 0 65 20.5t27 58.5q0 39 -29 62t-69 23q-67 0 -98 -43l-24 14q39 59 121 59q53 0 91.5 -31.5t38.5 -83.5
q0 -33 -18 -59.5t-46 -33.5v-1q37 -7 58.5 -41.5t20.5 -69.5z" />
    <glyph glyph-name="four.numerator" horiz-adv-x="406" 
d="M306 701v-298h39v-28h-39v-99h-30v99h-211l-25 31l225 295h41zM74 403h202v265z" />
    <glyph glyph-name="five.numerator" horiz-adv-x="440" 
d="M343 672h-192l-30 -156q41 21 87 23t82.5 -13.5t60.5 -48.5t24 -76q0 -63 -47 -102t-113 -38q-99 2 -144 75q9 4 25 13q20 -27 53 -42.5t67 -15.5q58 -1 93 30t35 80t-38.5 79t-88.5 30q-63 0 -118 -33l-13 3l40 219h217v-27z" />
    <glyph glyph-name="six.numerator" horiz-adv-x="434" 
d="M283 700l-136 -182l1 -1q33 20 72.5 22t72.5 -12.5t55 -47t22 -76.5q0 -60 -45.5 -100t-105.5 -40t-105.5 40.5t-45.5 100.5q0 43 23 78l12 20l143 198h37zM219 511q-49 0 -84.5 -29t-35.5 -77q0 -51 34.5 -82t85.5 -31q49 0 85 32t36 80q-1 49 -36 78t-85 29z" />
    <glyph glyph-name="seven.numerator" horiz-adv-x="344" 
d="M82 278l201 393h-216v29h237l16 -23l-206 -399h-32z" />
    <glyph glyph-name="eight.numerator" horiz-adv-x="412" 
d="M81 590q0 43 25.5 72t61.5 36t72 0t61.5 -36t25.5 -72q0 -60 -58 -92q76 -22 76 -110q-1 -49 -30 -82t-70 -41t-82 0t-70 41t-30 82q-1 36 19 68.5t52 41.5q-53 31 -53 92zM204 676q-44 0 -69.5 -26.5t-25.5 -59.5q0 -32 25 -55t70 -23t70 23t25 55q0 33 -25.5 59.5
t-69.5 26.5zM204 485q-49 0 -80 -24.5t-31 -71.5q0 -48 35 -75t76.5 -27t76.5 27.5t35 74.5t-31.5 71.5t-80.5 24.5z" />
    <glyph glyph-name="nine.numerator" horiz-adv-x="430" 
d="M154 266l136 181l-1 1q-34 -20 -73 -21t-71.5 13.5t-54 47.5t-21.5 77q0 60 46 99.5t106 38.5t105.5 -41.5t44.5 -101.5q-2 -49 -22 -80v1l-160 -215h-35zM219 455q49 0 84.5 28.5t36.5 76.5q0 50 -34.5 82t-84.5 32q-49 1 -85.5 -31t-36.5 -80q1 -49 36 -78.5t84 -29.5z
" />
    <glyph glyph-name="zero.denominator" horiz-adv-x="444" 
d="M98 282v-133q0 -46 26 -77.5t63.5 -39t75 0t63.5 39t26 77.5v133q0 59 -39.5 92.5t-87.5 34t-87.5 -33.5t-39.5 -93zM65 149v133q0 44 17.5 78t46 51t62.5 25t68 -0.5t62.5 -26t46 -51.5t17.5 -76v-133q0 -42 -18 -75.5t-46.5 -50.5t-63 -24.5t-68.5 0.5t-62 25t-45.5 50
t-16.5 75z" />
    <glyph glyph-name="one.denominator" horiz-adv-x="291" 
d="M138 -1v388h-64v27h95v-415h-31z" />
    <glyph glyph-name="two.denominator" horiz-adv-x="419" 
d="M294 210l-185 -180h245v-30h-283q-2 5 -12 25q36 33 107.5 103t106.5 103q38 35 38 74t-30.5 64.5t-75.5 26.5q-76 3 -113 -54l-23 16q43 69 135 69q43 0 78 -22t50 -53.5t6.5 -70.5t-44.5 -71z" />
    <glyph glyph-name="three.denominator" horiz-adv-x="408" 
d="M347 116q-1 -57 -44.5 -93t-100.5 -36q-39 0 -78.5 20.5t-62.5 53.5l24 16q47 -58 119 -58q43 0 77.5 27.5t34.5 70.5q0 44 -32 70t-75 26h-25v29h25q38 0 65 20.5t27 58.5q0 39 -29 62t-69 23q-67 0 -98 -43l-24 14q39 59 121 59q53 0 91.5 -31.5t38.5 -83.5
q0 -33 -18 -59.5t-46 -33.5v-1q37 -7 58.5 -41.5t20.5 -69.5z" />
    <glyph glyph-name="four.denominator" horiz-adv-x="406" 
d="M307 420v-298h39v-28h-39v-99h-30v99h-211l-25 31l225 295h41zM75 122h202v265z" />
    <glyph glyph-name="five.denominator" horiz-adv-x="442" 
d="M343 411h-192l-30 -156q41 21 87 23t82.5 -13.5t60.5 -48.5t24 -76q0 -63 -47 -102t-113 -38q-99 2 -144 75q9 4 25 13q20 -27 53 -42.5t67 -15.5q58 -1 93 30t35 80t-38.5 79t-88.5 30q-63 0 -118 -33l-12 3q6 35 19.5 109t19.5 110h217v-27z" />
    <glyph glyph-name="six.denominator" horiz-adv-x="433" 
d="M283 433l-136 -182l1 -1q33 20 72.5 22t72.5 -12.5t55 -47t22 -76.5q0 -60 -45.5 -100t-105.5 -40t-105.5 40.5t-45.5 100.5q0 43 23 78l12 20l143 198h37zM219 244q-49 0 -84.5 -29t-35.5 -77q0 -51 34.5 -82t85.5 -31q49 0 85 32t36 80q-1 49 -36 78t-85 29z" />
    <glyph glyph-name="seven.denominator" horiz-adv-x="374" 
d="M85 1l201 393h-216v29h237l16 -23l-206 -399h-32z" />
    <glyph glyph-name="eight.denominator" horiz-adv-x="412" 
d="M81 323q0 43 25.5 72t61.5 36t72 0t61.5 -36t25.5 -72q0 -60 -58 -92q76 -22 76 -110q-1 -49 -30 -82t-70 -41t-82 0t-70 41t-30 82q-1 36 19 68.5t52 41.5q-53 31 -53 92zM204 409q-44 0 -69.5 -26.5t-25.5 -59.5q0 -32 25 -55t70 -23t70 23t25 55q0 33 -25.5 59.5
t-69.5 26.5zM204 218q-49 0 -80 -24.5t-31 -71.5q0 -48 35 -75t76.5 -27t76.5 27.5t35 74.5t-31.5 71.5t-80.5 24.5z" />
    <glyph glyph-name="nine.denominator" horiz-adv-x="428" 
d="M152 1l138 182l-1 1q-34 -20 -73 -21t-71.5 13.5t-54 47.5t-21.5 77q0 60 46 99.5t106 38.5t105.5 -41.5t44.5 -101.5q-2 -49 -22 -80v1l-160 -216h-37zM219 191q49 0 84.5 28.5t36.5 76.5q0 50 -34.5 82t-84.5 32q-49 1 -85.5 -31t-36.5 -80q1 -49 36 -78.5t84 -29.5z
" />
    </font>
</defs>
</svg>
