<?xml version="1.0" standalone="no"?>
<!DOCTYPE svg PUBLIC "-//W3C//DTD SVG 1.1//EN" "http://www.w3.org/Graphics/SVG/1.1/DTD/svg11.dtd" >
<svg xmlns="http://www.w3.org/2000/svg" xmlns:xlink="http://www.w3.org/1999/xlink" version="1.1">
<metadata>
Created by FontForge 20161003 at Sat Apr  8 12:23:38 2017
 By www-data
Copyright (c) 2011 By Svetoslav Simov (c) Fontfabric, LLC. All rights reserved.
</metadata>
<defs>
<font id="SolomonSansBold" horiz-adv-x="606" >
  <font-face 
    font-family="SolomonSansBold"
    font-weight="700"
    font-stretch="normal"
    units-per-em="1000"
    panose-1="2 0 0 0 0 0 0 0 0 0"
    ascent="750"
    descent="-250"
    x-height="507"
    cap-height="700"
    bbox="-172 -228.531 1671 945"
    underline-thickness="50"
    underline-position="-150"
    unicode-range="U+0020-FB04"
  />
<missing-glyph horiz-adv-x="585" 
d="M17 0v700h524v-700h-524zM279 454l90 134h-181l28 -40zM127 218l89 132l-89 133v-265zM188 112h181q-16 25 -36 53l-55 80l-29 -44q-59 -86 -61 -89zM344 350l89 -132v265z" />
    <glyph glyph-name="f_f" unicode="ff" horiz-adv-x="604" 
d="M588 701v-106q-42 3 -65.5 -12t-23.5 -41v-35h89v-110h-89v-397h-138v397h-158v-397h-138v397h-51v110h51v35q-3 92 65.5 133.5t161.5 25.5v-106q-42 3 -65.5 -12t-23.5 -41v-35h158v35q-3 92 65.5 133.5t161.5 25.5z" />
    <glyph glyph-name="fi" unicode="fi" horiz-adv-x="551" 
d="M286 701v-106q-42 3 -65.5 -12t-23.5 -41v-35h281v-507h-137v397h-144v-397h-138v397h-51v110h51v35q-3 92 65.5 133.5t161.5 25.5zM341 577h136v126h-136v-126z" />
    <glyph glyph-name="fl" unicode="fl" horiz-adv-x="575" 
d="M285 701v-106q-42 3 -64 -12t-22 -41v-35h80v-110h-80v-397h-138v397h-51v110h51v35q-3 92 64 133.5t160 25.5zM553 111v-112q-92 -15 -149.5 24t-57.5 139v538h137v-538q0 -57 70 -51z" />
    <glyph glyph-name="f_f_i" unicode="ffi" horiz-adv-x="858" 
d="M503 401v-401h-138v401h-158v-401h-138v401h-51v106h51v35q-3 92 65.5 133.5t161.5 25.5v-106q-42 3 -65.5 -12t-23.5 -41v-35h158v35q-3 92 65.5 133.5t161.5 25.5v-106q-42 3 -65.5 -12t-23.5 -41v-35h281v-507h-137v401h-144zM650 577h134v126h-134v-126z" />
    <glyph glyph-name="f_f_l" unicode="ffl" horiz-adv-x="884" 
d="M595 701v-106q-42 3 -65.5 -12t-23.5 -41v-35h89v-106h-89v-401h-138v401h-158v-401h-138v401h-51v106h51v35q-3 92 65.5 133.5t161.5 25.5v-106q-42 3 -65.5 -12t-23.5 -41v-35h158v35q-3 92 65.5 133.5t161.5 25.5zM860 -1v112q-70 -6 -70 51v538h-137v-538
q0 -100 57.5 -139t149.5 -24z" />
    <glyph glyph-name="f_j" unicode="fj" horiz-adv-x="569" 
d="M286 -187v107q67 -6 67 56v421h-144v-397h-138v397h-51v110h51v35q-3 92 63.5 133.5t159.5 25.5v-106q-42 3 -63.5 -12t-21.5 -41v-35h280v-531q0 -100 -55.5 -139t-147.5 -24zM356 578h133v122h-133v-122z" />
    <glyph glyph-name=".notdef" horiz-adv-x="585" 
d="M17 0v700h524v-700h-524zM279 454l90 134h-181l28 -40zM127 218l89 132l-89 133v-265zM188 112h181q-16 25 -36 53l-55 80l-29 -44q-59 -86 -61 -89zM344 350l89 -132v265z" />
    <glyph glyph-name=".null" horiz-adv-x="0" 
 />
    <glyph glyph-name="nonmarkingreturn" horiz-adv-x="333" 
 />
    <glyph glyph-name="space" unicode=" " horiz-adv-x="257" 
 />
    <glyph glyph-name="exclam" unicode="!" horiz-adv-x="309" 
d="M215 176h-140l-7 524h153zM218 0h-144v134h144v-134z" />
    <glyph glyph-name="quotedbl" unicode="&#x22;" horiz-adv-x="362" 
d="M32 452v248h118v-248h-118zM199 452v248h117v-248h-117z" />
    <glyph glyph-name="numbersign" unicode="#" 
d="M562 498v-115h-83l-14 -83h64l1 -122h-84l-27 -178h-127l27 178h-86l-28 -178h-128l27 178h-74l-2 122h93l14 83h-75l1 115h93l30 202h130l-31 -202h84l32 202h129l-31 -202h65zM359 389h-97l-17 -95h96z" />
    <glyph glyph-name="dollar" unicode="$" horiz-adv-x="556" 
d="M199 -90v82q-124 26 -182 161l110 63q24 -51 61.5 -76.5t72.5 -25.5q41 -1 67.5 22.5t28.5 58.5q3 45 -29.5 69.5t-80.5 37.5q-210 53 -208 210q1 79 46 129t114 67v81h113v-77q105 -19 161 -126l-108 -62q-34 61 -99 61q-34 1 -59 -17t-27 -55q-1 -24 17.5 -43t38 -27.5
t46.5 -16.5q47 -12 82 -27.5t69 -42.5t51.5 -69.5t15.5 -99.5q-4 -82 -57 -132.5t-131 -64.5v-80h-113z" />
    <glyph glyph-name="percent" unicode="%" horiz-adv-x="879" 
d="M372 535q0 -72 -53 -123.5t-126 -51.5t-125.5 51.5t-52.5 123.5q0 73 52.5 124.5t125.5 51.5t126 -51.5t53 -124.5zM561 711h148l-440 -744h-146zM258 535q0 30 -19 49t-45 19q-27 0 -45.5 -19t-18.5 -49q0 -27 19 -46t45 -19t45 18.5t19 46.5zM832 165q0 -72 -53 -123.5
t-126 -51.5t-125.5 51.5t-52.5 123.5q0 73 52.5 124.5t125.5 51.5t126 -51.5t53 -124.5zM718 165q0 30 -19 49t-45 19q-27 0 -45.5 -19t-18.5 -49q0 -27 19 -46t45 -19t45 18.5t19 46.5z" />
    <glyph glyph-name="ampersand" unicode="&#x26;" horiz-adv-x="650" 
d="M352 355l83 -92l52 59l85 -78l-58 -68q56 -60 136 -153h-156l-54 56q-78 -90 -190 -90q-93 0 -156.5 60t-63.5 155q0 112 115 181q-21 21 -37 57.5t-16 67.5q0 82 53.5 128t127.5 47q73 1 126.5 -44t53.5 -126q0 -97 -101 -160zM355 163l-115 133q-36 -13 -55.5 -40
t-20.5 -57q0 -45 34.5 -69.5t80.5 -15.5t76 49zM277 581q-25 0 -44 -16t-19 -45q0 -40 44 -82q75 40 75 90q0 20 -17 36.5t-39 16.5z" />
    <glyph glyph-name="quotesingle" unicode="'" horiz-adv-x="195" 
d="M24 456v244h120v-244h-120z" />
    <glyph glyph-name="parenleft" unicode="(" horiz-adv-x="391" 
d="M180 345q0 -111 48.5 -203.5t139.5 -143.5v-146q-159 71 -241 206t-82 287t83 288.5t240 204.5v-146q-92 -45 -140 -136.5t-48 -210.5z" />
    <glyph glyph-name="parenright" unicode=")" horiz-adv-x="394" 
d="M196 345q0 119 -48 210.5t-140 136.5v146q157 -68 240 -204.5t83 -288.5t-82 -287t-241 -206v146q91 51 139.5 143.5t48.5 203.5z" />
    <glyph glyph-name="asterisk" unicode="*" horiz-adv-x="460" 
d="M404 534l-115 -34l81 -94l-94 -68l-68 98l-68 -98l-91 69l77 92l-115 32l33 106l110 -40l-3 115h114l-6 -115l111 40z" />
    <glyph glyph-name="plus" unicode="+" horiz-adv-x="640" 
d="M59 258v127h174v180h136v-180h174v-127h-174v-185h-136v185h-174z" />
    <glyph glyph-name="comma" unicode="," horiz-adv-x="264" 
d="M-5 -133l76 254h154l-111 -254h-119z" />
    <glyph glyph-name="hyphen" unicode="-" horiz-adv-x="448" 
d="M59 241v130h303v-130h-303z" />
    <glyph glyph-name="period" unicode="." horiz-adv-x="254" 
d="M182 -2h-143v136h143v-136z" />
    <glyph glyph-name="slash" unicode="/" horiz-adv-x="429" 
d="M417 743l-271 -800h-144l273 800h142z" />
    <glyph glyph-name="zero" unicode="0" horiz-adv-x="601" 
d="M179 206q0 -39 30.5 -62.5t71.5 -23.5t71.5 23.5t30.5 62.5v288q0 39 -31.5 62.5t-73.5 22.5q-40 -1 -69.5 -24t-29.5 -61v-288zM39 494q0 101 70 157.5t168 56.5q99 2 172.5 -54.5t73.5 -159.5v-288q0 -93 -62 -150q-68 -65 -180 -65q-111 -2 -181 65q-61 59 -61 150
v288z" />
    <glyph glyph-name="one" unicode="1" horiz-adv-x="316" 
d="M95 571h-79v129h220v-700h-141v571z" />
    <glyph glyph-name="two" unicode="2" horiz-adv-x="559" 
d="M191 118l1 -3l135 16h163v-131h-437l-35 91l296 334q27 31 32.5 70t-17.5 68.5t-70 31.5q-31 2 -63 -18.5t-52 -55.5l-108 60q36 71 95.5 105.5t132.5 32.5q97 -3 158.5 -62t63.5 -141q0 -95 -78 -179l-124 -135z" />
    <glyph glyph-name="three" unicode="3" horiz-adv-x="549" 
d="M25 127l103 64q44 -75 121 -78q41 -2 70 23t29 73q0 43 -27.5 71.5t-64.5 28.5h-80v121h82q49 0 69 40t-3 79.5t-78 39.5q-65 0 -100 -54l-97 61q73 117 198 117q90 0 154 -50.5t63 -153.5q-1 -38 -19 -77.5t-53 -59.5q90 -51 90 -164q-1 -102 -72 -160t-164 -58
q-63 0 -123 36t-98 101z" />
    <glyph glyph-name="four" unicode="4" horiz-adv-x="601" 
d="M481 700v-453h66v-124h-66v-123h-136v123h-268l-79 99l316 478h167zM367 565l-6 2l-69 -127l-128 -193h181v180z" />
    <glyph glyph-name="five" unicode="5" horiz-adv-x="568" 
d="M32 124l104 64q22 -35 55 -53t65 -18q51 0 82.5 34.5t31.5 81.5q0 65 -44 94.5t-100 20.5t-96 -46h-82l54 398h361v-125h-255l-17 -123q125 37 220.5 -27t95.5 -192q0 -97 -68.5 -172t-184.5 -75q-67 0 -125 34.5t-97 103.5z" />
    <glyph glyph-name="six" unicode="6" horiz-adv-x="592" 
d="M280 -10q-115 0 -180.5 72t-65.5 170q0 72 41 137v-1q35 59 206 333h155l-162 -259q59 13 108.5 -1t80 -47.5t47.5 -75.5t17 -86q0 -98 -65.5 -170t-181.5 -72zM280 340q-46 0 -77.5 -30.5t-31.5 -77.5q0 -45 29 -79.5t80 -34.5q52 0 81.5 34.5t29.5 79.5t-29.5 76.5
t-81.5 31.5z" />
    <glyph glyph-name="seven" unicode="7" horiz-adv-x="481" 
d="M292 568h-292v132h396l70 -87l-308 -613h-157z" />
    <glyph glyph-name="eight" unicode="8" horiz-adv-x="577" 
d="M268 -17q-95 0 -164.5 58.5t-70.5 161.5q0 48 27 95t71 73q-38 22 -55.5 63.5t-17.5 78.5q0 92 62.5 146.5t147.5 54.5q84 0 146.5 -54.5t62.5 -146.5q0 -40 -18 -81t-49 -59q93 -50 92 -170q-1 -102 -70.5 -161t-163.5 -59zM268 595q-36 0 -57 -24.5t-21 -54.5
q0 -31 21 -56t57 -25t57 25t21 58q0 30 -21 53.5t-57 23.5zM268 306q-46 0 -72.5 -32t-26.5 -72q0 -38 26.5 -67.5t72.5 -28.5q46 0 73 30t27 68q0 39 -27 70.5t-73 31.5z" />
    <glyph glyph-name="nine" unicode="9" horiz-adv-x="595" 
d="M281 711q115 0 180.5 -72t65.5 -170q0 -72 -41 -137v1q-35 -59 -206 -333h-155l162 259q-59 -13 -108.5 1t-80 47.5t-47.5 75.5t-17 86q0 98 65.5 170t181.5 72zM281 361q46 0 77.5 30.5t31.5 77.5q0 45 -29 79.5t-80 34.5q-52 0 -81.5 -34.5t-29.5 -79.5t29.5 -76.5
t81.5 -31.5z" />
    <glyph glyph-name="colon" unicode=":" horiz-adv-x="292" 
d="M208 -2h-148v136h148v-136zM208 364h-148v136h148v-136z" />
    <glyph glyph-name="semicolon" unicode=";" horiz-adv-x="303" 
d="M218 364h-148v136h148v-136zM-3 -133l76 254h154l-111 -254h-119z" />
    <glyph glyph-name="less" unicode="&#x3c;" horiz-adv-x="474" 
d="M410 550v-154l-229 -114q75 -37 229 -114v-150l-391 218v92z" />
    <glyph glyph-name="equal" unicode="=" horiz-adv-x="603" 
d="M69 317v126l431 1v-126zM69 124v126h431v-126h-431z" />
    <glyph glyph-name="greater" unicode="&#x3e;" horiz-adv-x="475" 
d="M35 394v154l386 -220v-92l-386 -218v150l228 113z" />
    <glyph glyph-name="question" unicode="?" horiz-adv-x="520" 
d="M101 528l-94 76q86 109 203 109q98 0 170.5 -61.5t70.5 -171.5q-1 -84 -48.5 -141t-133.5 -68l-7 -103h-129l-5 195q178 3 181 118q1 48 -30.5 74t-71.5 26q-61 0 -106 -53zM268 0h-140v130h140v-130z" />
    <glyph glyph-name="at" unicode="@" horiz-adv-x="803" 
d="M626 296q1 53 -19.5 92t-56.5 59t-74 28.5t-81 8.5q-112 0 -183 -81.5t-73 -188.5q-3 -114 48.5 -175.5t141.5 -61.5q53 0 90 15l44 -89q-83 -27 -138 -27q-135 0 -221 96.5t-81 244.5q2 71 29.5 138t74.5 120t117 85t151 32q96 0 173.5 -32.5t124.5 -102.5t41 -166
q-7 -123 -76.5 -202.5t-158.5 -79.5q-26 0 -48.5 13t-25.5 46q-15 -25 -42 -39.5t-50 -14.5q-65 0 -109 48t-46 121q-2 78 34 143t99 95q38 20 92 13t74 -41l22 33l73 -25l-53 -284q52 10 79 64.5t28 114.5zM292 176q3 -19 16.5 -31.5t28.5 -15.5q36 -7 67 36.5t30 116.5
q-1 21 -11 35.5t-27 15.5q-52 4 -82 -48t-22 -109z" />
    <glyph glyph-name="A" unicode="A" horiz-adv-x="649" 
d="M487 0l-59 188h-241l-59 -188h-154l238 707h188l242 -707h-155zM309 603h-2l-38 -156l-40 -126h157l-38 122z" />
    <glyph glyph-name="B" unicode="B" horiz-adv-x="612" 
d="M212 430h89q38 2 59 23.5t21 54.5q0 31 -20.5 53.5t-59.5 22.5h-89v-154zM301 308h-89v-181h89q52 0 79.5 24.5t27.5 64.5q0 39 -28.5 65.5t-78.5 26.5zM437 376v-3q54 -20 81.5 -64t27.5 -96q0 -76 -36.5 -125.5t-89.5 -68.5t-121 -19h-228v704h230q94 0 155.5 -52.5
t61.5 -145.5q0 -36 -19.5 -72.5t-61.5 -57.5z" />
    <glyph glyph-name="C" unicode="C" horiz-adv-x="719" 
d="M658 587l-93 -82q-80 84 -181 81q-101 -2 -158.5 -71.5t-57.5 -166.5q0 -98 58 -165t158 -67q112 0 191 93l99 -77q-122 -148 -290 -148q-112 0 -195 52.5t-123 134t-40 177.5q0 97 40 179.5t123 136.5t195 54q165 0 274 -131z" />
    <glyph glyph-name="D" unicode="D" horiz-adv-x="715" 
d="M300 705q168 1 262.5 -104t94.5 -249q0 -67 -22.5 -129.5t-65.5 -112.5t-112.5 -80t-155.5 -30h-231v705h230zM300 128q102 -1 158 66t55 158q-1 57 -23.5 106.5t-72 83t-115.5 34.5h-87v-448h85z" />
    <glyph glyph-name="E" unicode="E" horiz-adv-x="543" 
d="M469 704v-128h-266v-160h262v-129h-262v-157h266v-129h-410v703h410z" />
    <glyph glyph-name="F" unicode="F" horiz-adv-x="520" 
d="M466 701v-132h-266v-161h262v-132h-262v-276h-144v701h410z" />
    <glyph glyph-name="G" unicode="G" horiz-adv-x="804" 
d="M386 718q91 0 161 -33t132 -110l-104 -75q-72 86 -189 86q-66 0 -116 -37t-73.5 -90t-23.5 -110q0 -88 59 -158.5t157 -70.5q167 0 193 140h-266v126h413q11 -187 -84 -293t-259 -106q-112 0 -195 53.5t-122.5 134t-40.5 174.5q0 96 40 178.5t123 136.5t195 54z" />
    <glyph glyph-name="H" unicode="H" horiz-adv-x="678" 
d="M433 0v284h-219v-284h-146v703h146v-287h219v287h146v-703h-146z" />
    <glyph glyph-name="I" unicode="I" horiz-adv-x="290" 
d="M57 0v703h145v-703h-145z" />
    <glyph glyph-name="J" unicode="J" horiz-adv-x="552" 
d="M2 192l128 35q10 -38 24 -62t31.5 -33.5t28.5 -11.5t28 -2q33 0 60 25t27 70v366h-121v121h265v-487q0 -105 -69 -164.5t-161 -59.5q-204 0 -241 203z" />
    <glyph glyph-name="K" unicode="K" horiz-adv-x="635" 
d="M55 703h145v-275l239 275h173l-269 -323l271 -380h-168l-207 281l-39 -39v-242h-145v703z" />
    <glyph glyph-name="L" unicode="L" horiz-adv-x="493" 
d="M443 134v-134h-389v700h145v-566h244z" />
    <glyph glyph-name="M" unicode="M" horiz-adv-x="875" 
d="M364 108l-120 254l-62 191h-8l28 -198v-355h-141v704h185l175 -416l176 416h185v-704h-141v355l28 200h-8l-62 -193l-120 -254h-115z" />
    <glyph glyph-name="N" unicode="N" horiz-adv-x="735" 
d="M68 704h184l209 -419l56 -142l9 1l-27 182v378h143v-704h-184l-207 419l-54 147l-9 -1l25 -188v-377h-145v704z" />
    <glyph glyph-name="O" unicode="O" horiz-adv-x="810" 
d="M385 717q151 0 256 -104t105 -264q0 -162 -105 -265t-256 -103t-256 102.5t-105 265.5q0 162 105 265t256 103zM170 349q0 -111 64.5 -174.5t150.5 -63.5q87 0 151 62.5t64 175.5q0 111 -64.5 175t-151.5 63q-86 -1 -150 -64.5t-64 -173.5z" />
    <glyph glyph-name="P" unicode="P" horiz-adv-x="602" 
d="M209 231v-231h-142v703h225q117 0 182.5 -71t65.5 -167t-65 -165t-182 -69h-84zM292 359q47 0 75.5 33.5t28.5 72.5q0 41 -28.5 76.5t-75.5 35.5h-83v-218h83z" />
    <glyph glyph-name="Q" unicode="Q" horiz-adv-x="822" 
d="M396 244l90 89l91 -93q28 38 28 108q0 111 -66 171.5t-155 59.5q-86 0 -149 -60t-63 -171q0 -105 64.5 -168.5t149.5 -63.5q64 0 106 32zM676 138l65 -64l-88 -87l-62 65q-41 -41 -87.5 -54.5t-117.5 -13.5q-150 0 -254 103.5t-104 260.5q0 162 103.5 262.5t254.5 100.5
q152 0 256 -101t104 -262q0 -134 -70 -210z" />
    <glyph glyph-name="R" unicode="R" horiz-adv-x="621" 
d="M405 267l175 -267h-164l-167 258h-36v-258h-145v701h237q113 0 181.5 -55t69.5 -169q1 -86 -39.5 -139t-111.5 -71zM213 383h93q48 0 77 25.5t29 68.5q0 44 -29.5 70.5t-76.5 26.5h-93v-191z" />
    <glyph glyph-name="S" unicode="S" horiz-adv-x="550" 
d="M464 586l-108 -62q-34 61 -99 61q-34 1 -59 -17t-27 -55q-1 -24 17.5 -43t38 -27.5t46.5 -16.5q47 -12 82 -27.5t69 -42.5t51.5 -69.5t15.5 -99.5q-3 -66 -40.5 -113t-90 -68t-111.5 -21q-71 0 -136 38t-105 130l110 63q24 -51 61.5 -76.5t72.5 -25.5q41 -1 67.5 22.5
t28.5 58.5q3 45 -29.5 69.5t-80.5 37.5q-210 53 -208 210q2 99 69.5 151.5t158.5 52.5q139 0 206 -130z" />
    <glyph glyph-name="T" unicode="T" horiz-adv-x="489" 
d="M5 702h461v-124h-157v-578h-146v578h-158v124z" />
    <glyph glyph-name="U" unicode="U" horiz-adv-x="645" 
d="M58 700h146v-486q0 -50 30.5 -77.5t72.5 -27.5t73 27.5t31 77.5v486h145v-486q-1 -110 -75.5 -171.5t-175.5 -61.5t-174 61.5t-73 171.5v486z" />
    <glyph glyph-name="V" unicode="V" horiz-adv-x="675" 
d="M321 99h7l19 116l161 489h154l-243 -707h-188l-247 707h155l160 -489z" />
    <glyph glyph-name="W" unicode="W" horiz-adv-x="992" 
d="M474 495l-18 -141l-92 -357h-194l-181 705h150l113 -462l17 -138h6l17 138l99 382h172l99 -382l17 -138h6l17 138l113 462h150l-181 -705h-194l-92 357l-18 141h-6z" />
    <glyph glyph-name="X" unicode="X" horiz-adv-x="633" 
d="M631 700l-221 -350l223 -349h-169l-158 260l-157 -260h-170l223 349q-37 55 -111.5 176.5t-109.5 173.5h167l158 -254l157 254h168z" />
    <glyph glyph-name="Y" unicode="Y" horiz-adv-x="582" 
d="M278 381h3l32 84l123 240h163l-250 -448v-257h-144v257l-248 448h162l127 -240z" />
    <glyph glyph-name="Z" unicode="Z" horiz-adv-x="566" 
d="M42 0v145l303 437l-105 -3h-191v126h453v-113l-324 -465l90 3h236v-130h-462z" />
    <glyph glyph-name="bracketleft" unicode="[" horiz-adv-x="301" 
d="M279 801v-113h-79v-678h79v-123h-214l1 914h213z" />
    <glyph glyph-name="backslash" unicode="\" horiz-adv-x="397" 
d="M247 -57l-273 800h138l273 -800h-138z" />
    <glyph glyph-name="bracketright" unicode="]" horiz-adv-x="302" 
d="M-1 688v113h213v-914h-213v123h79v678h-79z" />
    <glyph glyph-name="asciicircum" unicode="^" horiz-adv-x="558" 
d="M21 353l205 352h86l202 -352h-147l-98 187l-101 -187h-147z" />
    <glyph glyph-name="underscore" unicode="_" horiz-adv-x="553" 
d="M8 29h514v-114h-514v114z" />
    <glyph glyph-name="grave" unicode="`" horiz-adv-x="499" 
d="M220 668l-113 154h154l86 -154h-127z" />
    <glyph glyph-name="a" unicode="a" horiz-adv-x="552" 
d="M150 169q-1 -43 36 -60.5t83 -8t72 36.5v80q-41 18 -89 18q-43 0 -72 -16.5t-30 -49.5zM476 0h-109l-18 45q-45 -56 -122 -56q-96 0 -150 50.5t-54 125.5q0 82 66 127.5t154 43.5q51 -1 97 -20q-2 50 -29.5 73.5t-70.5 24.5q-38 1 -77.5 -10.5t-61.5 -30.5l-46 85
q80 65 197 65q95 0 159.5 -53t64.5 -157v-313z" />
    <glyph glyph-name="b" unicode="b" horiz-adv-x="578" 
d="M522 251q0 -110 -62 -184.5t-161 -74.5q-88 0 -135 60l-12 -52h-101v700h137l-1 -213q35 28 90 28q112 0 178.5 -76.5t66.5 -187.5zM188 376v-229q30 -38 76 -38q57 0 89 39t32 103q0 72 -35 108.5t-95 36.5q-39 0 -67 -20z" />
    <glyph glyph-name="c" unicode="c" horiz-adv-x="516" 
d="M467 440l-77 -85q-45 42 -105 44q-57 2 -98 -37.5t-42 -109.5q-1 -60 37.5 -100.5t92.5 -43.5q67 -3 119 51l78 -80q-41 -51 -87.5 -71t-107.5 -20q-123 0 -194.5 78t-71.5 187q1 109 73 188t193 80q56 0 100 -18t90 -63z" />
    <glyph glyph-name="d" unicode="d" horiz-adv-x="575" 
d="M24 251q0 111 66.5 187.5t178.5 76.5q55 0 90 -28l-1 213h137v-700h-101l-12 52q-47 -60 -135 -60q-99 0 -161 74.5t-62 184.5zM358 147v229q-28 20 -67 20q-60 0 -95 -36.5t-35 -108.5q0 -64 32 -103t89 -39q46 0 76 38z" />
    <glyph glyph-name="e" unicode="e" horiz-adv-x="589" 
d="M404 153l77 -68q-86 -95 -202 -95q-122 0 -191 79t-68 186q0 106 69 184t189 79q112 1 181.5 -68t68.5 -182q0 -36 -14 -68h-357q11 -48 54.5 -72.5t97.5 -17.5t95 43zM157 305h238q-8 49 -40.5 72t-75.5 23q-44 0 -79 -23.5t-43 -71.5z" />
    <glyph glyph-name="f" unicode="f" horiz-adv-x="303" 
d="M291 701v-103q-49 8 -75.5 -7t-26.5 -49v-35h102v-107h-100v-400h-138v400h-70v107h70v35q-3 92 68.5 134t169.5 25z" />
    <glyph glyph-name="g" unicode="g" horiz-adv-x="583" 
d="M364 11v15q-16 -17 -44.5 -25.5t-50.5 -8.5q-112 0 -178.5 76.5t-66.5 187.5q0 110 62 184.5t161 74.5q88 0 135 -60l12 52h101v-501q0 -98 -65.5 -149.5t-160.5 -51.5q-134 0 -224 90l64 81q32 -35 92.5 -51.5t111.5 4t51 82.5zM358 131v229q-30 38 -76 38
q-57 0 -89 -39t-32 -103q0 -72 35 -108.5t95 -36.5q39 0 67 20z" />
    <glyph glyph-name="h" unicode="h" horiz-adv-x="596" 
d="M51 700h137v-213q51 34 130 27q85 -8 140 -70t55 -156v-288h-137v287q0 71 -63 100.5t-125 -11.5v-376h-137v700z" />
    <glyph glyph-name="i" unicode="i" horiz-adv-x="253" 
d="M178 564h-136v135h136v-135zM42 507h137v-507h-137v507z" />
    <glyph glyph-name="j" unicode="j" horiz-adv-x="273" 
d="M-19 -201v112q66 -6 66 51v544h137v-544q0 -100 -55.5 -139t-147.5 -24zM184 565h-136v135h136v-135z" />
    <glyph glyph-name="k" unicode="k" horiz-adv-x="508" 
d="M501 0v7v-7zM501 7v-7h-146l-149 221l-33 -34v-187h-133v700h133v-368l170 176h150v-8l-191 -205z" />
    <glyph glyph-name="l" unicode="l" horiz-adv-x="291" 
d="M244 111v-112q-92 -15 -149.5 24t-57.5 139v538h137v-538q0 -57 70 -51z" />
    <glyph glyph-name="m" unicode="m" horiz-adv-x="885" 
d="M192 462q29 37 80.5 48t99 -7t65.5 -60q29 43 65.5 56.5t83.5 13.5q213 0 213 -215v-298h-130v299q0 50 -24 73.5t-61 23.5t-61.5 -25t-24.5 -73v-298h-127v295q0 70 -60.5 93t-113.5 -22v-366h-137v507h112z" />
    <glyph glyph-name="n" unicode="n" 
d="M51 507h112l20 -45q43 57 135 52q86 -5 144.5 -65.5t58.5 -155.5v-293h-137v287q0 49 -32.5 80.5t-76 32.5t-87.5 -24v-376h-137v507z" />
    <glyph glyph-name="o" unicode="o" horiz-adv-x="617" 
d="M159 253q0 -65 41.5 -103.5t92.5 -38.5q52 0 92 38t40 104q0 69 -39.5 105.5t-92.5 36.5q-51 0 -92.5 -37.5t-41.5 -104.5zM560 253q0 -116 -76 -191.5t-191 -75.5t-191.5 75.5t-76.5 191.5q0 119 76.5 193.5t191.5 74.5q116 0 191.5 -74.5t75.5 -193.5z" />
    <glyph glyph-name="p" unicode="p" horiz-adv-x="580" 
d="M522 256q0 -111 -66.5 -187.5t-178.5 -76.5q-56 0 -91 28v-210h-135v697h101l12 -52q47 60 135 60q99 0 161 -74.5t62 -184.5zM188 360v-232q72 -41 134.5 -3.5t62.5 131.5q0 64 -32 103t-89 39q-46 0 -76 -38z" />
    <glyph glyph-name="q" unicode="q" horiz-adv-x="580" 
d="M19 256q0 110 62 184.5t161 74.5q88 0 135 -60l12 52h101v-697h-135v210q-35 -28 -91 -28q-112 0 -178.5 76.5t-66.5 187.5zM353 128v232q-30 38 -76 38q-57 0 -89 -39t-32 -103q0 -94 62.5 -131.5t134.5 3.5z" />
    <glyph glyph-name="r" unicode="r" horiz-adv-x="410" 
d="M47 512h111l11 -53q44 55 114 58t119 -42l-58 -103q-48 34 -105 18.5t-57 -74.5v-316h-135v512z" />
    <glyph glyph-name="s" unicode="s" horiz-adv-x="432" 
d="M185 320q6 -2 16.5 -4t11.5 -2q76 -13 127.5 -53.5t51.5 -110.5q0 -43 -19 -76t-49 -51t-63 -27t-67 -9q-118 0 -193 99l73 78q48 -56 122 -59q22 -1 41.5 12.5t19.5 32.5q0 34 -50 44q-3 1 -10 2l-5 1q-70 13 -119.5 54.5t-50.5 109.5q0 74 56 117t134 43q95 0 171 -79
l-73 -74q-49 37 -99 37q-20 0 -40 -13.5t-20 -35.5q0 -12 10 -22t24 -14z" />
    <glyph glyph-name="t" unicode="t" horiz-adv-x="303" 
d="M273 116v-116q-63 -11 -114 2t-81.5 54.5t-28.5 106.5v235h-76v109h76v132l133 15v-147h91v-109h-91v-232q0 -26 24.5 -41t66.5 -9z" />
    <glyph glyph-name="u" unicode="u" horiz-adv-x="605" 
d="M515 0l-112 1l-21 46q-43 -58 -134 -53q-88 5 -145.5 61.5t-57.5 150.5v301h137v-295q0 -49 32 -77.5t78 -28.5q47 0 86 26v375h137v-507z" />
    <glyph glyph-name="v" unicode="v" horiz-adv-x="498" 
d="M226 87h7l20 136l88 287h146l-173 -512h-171l-172 512h146l87 -285z" />
    <glyph glyph-name="w" unicode="w" horiz-adv-x="800" 
d="M451 507l72 -254l18 -159h7l19 162l54 254h144l-130 -510h-181l-59 244l-18 149h-5l-18 -149l-60 -244h-181l-126 510h141l54 -254l19 -162h7l18 159l71 254h154z" />
    <glyph glyph-name="x" unicode="x" horiz-adv-x="516" 
d="M246 341l103 169h155l-164 -255l166 -255h-155l-105 171l-105 -171h-158l167 254l-164 256h159z" />
    <glyph glyph-name="y" unicode="y" horiz-adv-x="545" 
d="M259 142h5l24 111l90 254h148l-229 -594q-27 -69 -93.5 -91.5t-138.5 -8.5v103q66 -7 90 11t39 84q-29 72 -103.5 245t-106.5 251h148l104 -255z" />
    <glyph glyph-name="z" unicode="z" horiz-adv-x="455" 
d="M27 0v100l143 200l85 93l-1 4l-59 -6h-160v116h362v-91l-151 -212l-75 -91l1 -3l48 5h178v-115h-371z" />
    <glyph glyph-name="braceleft" unicode="{" horiz-adv-x="302" 
d="M282 820v-106h-12h-12t-10.5 -0.5t-10 -2.5t-7.5 -5t-7 -7.5t-3.5 -11.5t-1.5 -16v-204q0 -92 -77 -129q77 -37 77 -131v-165q0 -24 15 -34.5t49 -10.5v-121h-72q-62 0 -97 39.5t-35 112.5v162q0 82 -59 82v129q59 0 59 83v193q0 63 35.5 103t96.5 40h72z" />
    <glyph glyph-name="bar" unicode="|" horiz-adv-x="275" 
d="M61 -146v901h134v-901h-134z" />
    <glyph glyph-name="braceright" unicode="}" horiz-adv-x="302" 
d="M0 714v106h72q61 0 96.5 -40t35.5 -103v-193q0 -83 59 -83v-129q-59 0 -59 -82v-162q0 -73 -35 -112.5t-97 -39.5h-72v121q34 0 49 10.5t15 34.5v165q0 94 77 131q-77 37 -77 129v204q0 10 -1.5 17.5t-6 12.5t-6.5 7.5t-11.5 4t-11 1.5h-14h-13.5z" />
    <glyph glyph-name="asciitilde" unicode="~" horiz-adv-x="582" 
d="M450 386l72 -67q-19 -34 -43.5 -59.5t-58.5 -42t-79 -8.5t-95 43q-42 30 -80.5 23.5t-64.5 -48.5l-77 65q53 81 123.5 102t141.5 -27q26 -18 44 -26.5t39.5 -11.5t40.5 11.5t37 45.5z" />
    <glyph glyph-name="uni00A0" unicode="&#xa0;" horiz-adv-x="257" 
 />
    <glyph glyph-name="exclamdown" unicode="&#xa1;" horiz-adv-x="281" 
d="M61 329h140l7 -523h-153zM58 506h144v-134h-144v134z" />
    <glyph glyph-name="cent" unicode="&#xa2;" horiz-adv-x="555" 
d="M238 -1v79q-100 17 -156 91t-56 170q1 95 57.5 170t154.5 93v84h110v-84q68 -12 134 -76l-77 -85q-33 31 -76 40t-80 -3.5t-62.5 -49.5t-26.5 -90q-1 -64 40.5 -105.5t101.5 -39.5t107 52l78 -80q-59 -73 -139 -87v-79h-110z" />
    <glyph glyph-name="sterling" unicode="&#xa3;" horiz-adv-x="582" 
d="M521 527l-125 -20q-8 38 -36.5 58t-59 18t-54.5 -24.5t-24 -59.5v-111h192v-112h-192v-156h305v-120h-502v120h60v156h-58v112h58v111q0 100 63.5 154.5t153.5 54.5q78 0 136.5 -42.5t82.5 -138.5z" />
    <glyph glyph-name="yen" unicode="&#xa5;" horiz-adv-x="622" 
d="M70 306v104h67l-163 295h162l127 -240l32 -84h3l32 84l123 240h163l-165 -295h67v-104h-125l-24 -44h148v-95h-151v-167h-144v167h-152v95h149l-25 44h-124z" />
    <glyph glyph-name="brokenbar" unicode="&#xa6;" horiz-adv-x="262" 
d="M60 -138v417h137v-417h-137zM197 755v-412h-137v412h137z" />
    <glyph glyph-name="section" unicode="&#xa7;" horiz-adv-x="462" 
d="M143 347q4 -22 28.5 -31.5t59.5 -15t49 -12.5q12 12 12 33q-1 28 -25 39.5t-60.5 16t-49.5 11.5q-16 -14 -14 -41zM28 345q0 61 45 93q-32 35 -32 90q0 64 42 108.5t98.5 57.5t117.5 -7t96 -74l-76 -65q-19 29 -57.5 38t-69.5 -7t-31 -48q0 -33 74 -46q172 -29 172 -160
q0 -58 -44 -91q30 -35 30 -85q0 -44 -18 -77t-47.5 -51.5t-62.5 -27.5t-67 -9q-117 0 -193 106l76 73q52 -60 117 -60q27 -1 50 10t23 36q0 29 -72 46q-3 1 -5 1q-75 12 -120.5 45.5t-45.5 103.5z" />
    <glyph glyph-name="dieresis" unicode="&#xa8;" horiz-adv-x="499" 
d="M213 705h-124v114h124v-114zM426 705h-124v114h124v-114z" />
    <glyph glyph-name="copyright" unicode="&#xa9;" horiz-adv-x="821" 
d="M46 344q0 149 102 253t247 104q147 0 249.5 -104t102.5 -253t-102 -253.5t-250 -104.5q-145 0 -247 104.5t-102 253.5zM138 344q0 -116 74 -195t183 -79q111 0 186 79t75 195q0 115 -75 194t-186 79q-109 0 -183 -79t-74 -194zM557 489l-52 -63q-37 36 -100 36
q-41 0 -70.5 -24t-37.5 -58.5t-2 -69t36 -58.5t75 -24q52 0 97 38l58 -65q-69 -69 -155 -69q-99 0 -155 62.5t-56 148.5q1 85 58 148t153 64q85 0 151 -66z" />
    <glyph glyph-name="ordfeminine" unicode="&#xaa;" horiz-adv-x="476" 
d="M295 300l-15 47q-25 -38 -73.5 -46t-81.5 11q-47 21 -76 71.5t-29 114.5q0 90 61.5 146t147.5 59q89 5 171 -35v-368h-105zM400 254v-109h-362v109h362zM273 424v171q-53 8 -92 -19.5t-39 -75.5t38.5 -72.5t92.5 -3.5z" />
    <glyph glyph-name="guillemotleft" unicode="&#xab;" horiz-adv-x="575" 
d="M183 67l-170 211l170 212h148l-169 -213l169 -210h-148zM400 67l-170 211l170 212h148l-169 -213l169 -210h-148z" />
    <glyph glyph-name="logicalnot" unicode="&#xac;" horiz-adv-x="614" 
d="M37 310v120h484v-298h-122v178h-362z" />
    <glyph glyph-name="uni00AD" unicode="&#xad;" horiz-adv-x="431" 
d="M41 225v120h323v-120h-323z" />
    <glyph glyph-name="registered" unicode="&#xae;" horiz-adv-x="821" 
d="M46 344q0 149 102 253t247 104q147 0 249.5 -104t102.5 -253t-102 -253.5t-250 -104.5q-145 0 -247 104.5t-102 253.5zM138 344q0 -116 74 -195t183 -79q111 0 186 79t75 195q0 115 -75 194t-186 79q-109 0 -183 -79t-74 -194zM344 361h54q66 0 66 51q0 18 -15.5 32
t-50.5 14h-54v-97zM561 413q0 -52 -25.5 -85.5t-63.5 -38.5q12 -16 35 -49.5t40 -59.5l17 -26h-102l-96 130h-22v-130h-92v390h145q67 0 115.5 -31t48.5 -100z" />
    <glyph glyph-name="macron" unicode="&#xaf;" horiz-adv-x="499" 
d="M87 670v114h292v-114h-292z" />
    <glyph glyph-name="degree" unicode="&#xb0;" horiz-adv-x="390" 
d="M179 411q-66 0 -111 44t-45 107q0 66 45 109t111 43q65 0 110.5 -42.5t45.5 -109.5q0 -63 -46 -107t-110 -44zM179 504q24 0 40 16.5t16 41.5t-16 42t-40 17t-40.5 -17t-16.5 -42t16.5 -41.5t40.5 -16.5z" />
    <glyph glyph-name="plusminus" unicode="&#xb1;" horiz-adv-x="681" 
d="M74 125h488v-129h-488v129zM71 350v131h182v173h132v-173h174v-131h-174v-177h-132v177h-182z" />
    <glyph glyph-name="twosuperior" unicode="&#xb2;" horiz-adv-x="400" 
d="M244 431l-71 -45l1 -4l91 12h95v-115h-284l-52 88l189 192q23 23 10 49.5t-48 26.5q-34 0 -60 -43l-89 43q54 117 160 116q75 -1 121.5 -42t46.5 -112q0 -57 -58 -115z" />
    <glyph glyph-name="threesuperior" unicode="&#xb3;" horiz-adv-x="415" 
d="M27 364l82 59q16 -20 40 -30.5t42 -10.5q29 0 41.5 20.5t1.5 41.5t-38 21h-48v95h46q15 0 25 11t10 23q0 25 -21 36t-46 4.5t-36 -26.5l-86 50q53 89 151 89q68 0 115.5 -38t47.5 -109q0 -22 -12 -45.5t-36 -35.5q30 -13 47.5 -42t17.5 -58q-1 -74 -54.5 -113.5
t-125.5 -39.5q-105 0 -164 98z" />
    <glyph glyph-name="acute" unicode="&#xb4;" horiz-adv-x="499" 
d="M364 820l-113 -154h-127l86 154h154z" />
    <glyph glyph-name="mu" unicode="&#xb5;" horiz-adv-x="525" 
d="M339 52q-11 -37 -42.5 -50.5t-61.5 -0.5t-38 45l-4 -1v-204h-137v666h137v-301q0 -46 36.5 -65t72.5 0.5t36 65.5v300h133l2 -514h-118z" />
    <glyph glyph-name="mu" unicode="&#x3bc;" horiz-adv-x="525" 
d="M339 52q-11 -37 -42.5 -50.5t-61.5 -0.5t-38 45l-4 -1v-204h-137v666h137v-301q0 -46 36.5 -65t72.5 0.5t36 65.5v300h133l2 -514h-118z" />
    <glyph glyph-name="paragraph" unicode="&#xb6;" horiz-adv-x="631" 
d="M202 -70v339q-88 6 -137.5 69t-49.5 142q0 89 65.5 155t178.5 66h289v-771h-137v646h-79v-646h-130z" />
    <glyph glyph-name="periodcentered" unicode="&#xb7;" horiz-adv-x="275" 
d="M51 216v147h148v-147h-148z" />
    <glyph glyph-name="cedilla" unicode="&#xb8;" horiz-adv-x="499" 
d="M279 30l-32 -65q28 -1 47 -11.5t24.5 -24.5t8 -28.5t-1.5 -22.5q-9 -49 -52 -74t-98 -18t-97 41l27 63q61 -38 102 -20q24 12 17 31q-10 28 -75 23q-7 0 -14 -1l52 107h92z" />
    <glyph glyph-name="onesuperior" unicode="&#xb9;" horiz-adv-x="300" 
d="M78 271v347h-60v116h193v-463h-133z" />
    <glyph glyph-name="ordmasculine" unicode="&#xba;" horiz-adv-x="467" 
d="M218 342q-75 0 -126 48.5t-51 123.5q0 72 51 120.5t125 48.5q75 0 126 -48.5t51 -120.5q0 -75 -50.5 -123.5t-125.5 -48.5zM218 445q25 0 43.5 19.5t18.5 49.5q0 29 -18.5 48t-43.5 19q-26 0 -44.5 -19t-18.5 -48q0 -30 18.5 -49.5t44.5 -19.5zM43 174v122h341v-122h-341
z" />
    <glyph glyph-name="guillemotright" unicode="&#xbb;" horiz-adv-x="548" 
d="M362 489l170 -211l-170 -212h-148l169 213l-169 210h148zM145 489l170 -211l-170 -212h-148l169 213l-169 210h148z" />
    <glyph glyph-name="onequarter" unicode="&#xbc;" horiz-adv-x="957" 
d="M314 -28h-140l357 751h140zM840 454v-271h48v-111h-48v-72h-120v72h-161l-72 98l174 284h179zM732 349l-7 2l-107 -171h103v81zM112 588v-334h133v450h-193v-116h60z" />
    <glyph glyph-name="onehalf" unicode="&#xbd;" horiz-adv-x="960" 
d="M296 -28h-140l358 751h140zM685 104l71 45l52 51q58 58 58 115q0 71 -46.5 112t-121.5 42q-106 1 -160 -116l89 -43q26 43 60 43q35 0 48 -26.5t-10 -49.5l-189 -192l52 -86h284v113h-95l-91 -12zM100 589v-331h128v446h-190v-115h62z" />
    <glyph glyph-name="threequarters" unicode="&#xbe;" horiz-adv-x="1036" 
d="M393 -28h-140l358 751h140zM920 454v-271h48v-111h-48v-72h-120v72h-161l-72 98l174 284h179zM812 349l-7 2l-107 -171h103v81zM105 387l-81 -60q57 -95 163 -95q72 0 125.5 39.5t54.5 113.5q0 29 -17.5 58t-47.5 42q24 12 36 35.5t12 45.5q0 71 -47.5 109t-115.5 38
q-98 0 -151 -89l77 -44q11 20 38 26t50.5 -6.5t23.5 -39.5q0 -12 -9.5 -21.5t-25.5 -9.5h-46v-95h48q27 0 38 -21.5t-1.5 -43t-41.5 -21.5q-51 0 -82 39z" />
    <glyph glyph-name="questiondown" unicode="&#xbf;" horiz-adv-x="507" 
d="M379 -20l94 -76q-86 -109 -203 -109q-98 0 -170.5 61t-70.5 171q1 84 48.5 141t133.5 68l7 103h129l5 -195q-178 -3 -181 -118q-1 -48 30.5 -73.5t71.5 -25.5q61 0 106 53zM212 507h140v-130h-140v130z" />
    <glyph glyph-name="Agrave" unicode="&#xc0;" horiz-adv-x="649" 
d="M487 0l-59 188h-241l-59 -188h-154l238 707h188l242 -707h-155zM309 603h-2l-38 -156l-40 -126h157l-38 122zM258 770l-113 154h154l86 -154h-127z" />
    <glyph glyph-name="Aacute" unicode="&#xc1;" horiz-adv-x="649" 
d="M487 0l-59 188h-241l-59 -188h-154l238 707h188l242 -707h-155zM309 603h-2l-38 -156l-40 -126h157l-38 122zM466 923l-113 -154h-127l86 154h154z" />
    <glyph glyph-name="Acircumflex" unicode="&#xc2;" horiz-adv-x="649" 
d="M487 0l-59 188h-241l-59 -188h-154l238 707h188l242 -707h-155zM309 603h-2l-38 -156l-40 -126h157l-38 122zM141 762l112 142h115l110 -142h-118l-51 67l-56 -67h-112z" />
    <glyph glyph-name="Atilde" unicode="&#xc3;" horiz-adv-x="649" 
d="M487 0l-59 188h-241l-59 -188h-154l238 707h188l242 -707h-155zM309 603h-2l-38 -156l-40 -126h157l-38 122zM401 898l64 -49q-44 -86 -105 -84q-17 0 -39.5 12.5t-38.5 22t-37.5 3.5t-41.5 -36l-66 52q53 84 120 84q18 0 39.5 -11t36 -20.5t33 -4.5t35.5 31z" />
    <glyph glyph-name="Adieresis" unicode="&#xc4;" horiz-adv-x="649" 
d="M487 0l-59 188h-241l-59 -188h-154l238 707h188l242 -707h-155zM309 603h-2l-38 -156l-40 -126h157l-38 122zM265 781h-124v114h124v-114zM478 781h-124v114h124v-114z" />
    <glyph glyph-name="Aring" unicode="&#xc5;" horiz-adv-x="649" 
d="M309 603h-2l-38 -156l-40 -126h157l-38 122zM256 775q0 -16 14.5 -28.5t34.5 -12.5t34 12.5t14 30.5q0 17 -14 29t-34 12t-34.5 -12.5t-14.5 -30.5zM487 0l-59 188h-241l-59 -188h-154l238 707h9q-27 27 -27 69q0 46 32 73.5t79 27.5q46 0 78.5 -27.5t32.5 -73.5
q0 -42 -29 -69h13l242 -707h-155z" />
    <glyph glyph-name="AE" unicode="&#xc6;" horiz-adv-x="895" 
d="M-24 0l357 706h496v-128h-270v-161h268v-130h-268v-159h270v-128h-408v187h-193l-93 -187h-159zM421 326l1 111l13 179h-3l-136 -290h125z" />
    <glyph glyph-name="Ccedilla" unicode="&#xc7;" horiz-adv-x="719" 
d="M658 587l-93 -82q-80 84 -181 81q-101 -2 -158.5 -71.5t-57.5 -166.5q0 -98 58 -165t158 -67q112 0 191 93l99 -77q-109 -134 -258 -146l-14 -34q28 -1 47 -11.5t24.5 -24.5t8 -28.5t-1.5 -22.5q-9 -49 -52 -74t-98 -18t-97 41l27 63q55 -39 93 -20q23 11 16 31
q-10 28 -68 23q-5 0 -11 -1l36 78q-141 19 -220.5 121.5t-79.5 238.5q0 97 40 179.5t123 136.5t195 54q165 0 274 -131z" />
    <glyph glyph-name="Egrave" unicode="&#xc8;" horiz-adv-x="543" 
d="M469 704v-128h-266v-160h262v-129h-262v-157h266v-129h-410v703h410zM238 765l-113 154h154l86 -154h-127z" />
    <glyph glyph-name="Eacute" unicode="&#xc9;" horiz-adv-x="543" 
d="M469 704v-128h-266v-160h262v-129h-262v-157h266v-129h-410v703h410zM440 917l-113 -154h-127l86 154h154z" />
    <glyph glyph-name="Ecircumflex" unicode="&#xca;" horiz-adv-x="543" 
d="M469 704v-128h-266v-160h262v-129h-262v-157h266v-129h-410v703h410zM107 770l112 142h115l110 -142h-118l-51 67l-56 -67h-112z" />
    <glyph glyph-name="Edieresis" unicode="&#xcb;" horiz-adv-x="543" 
d="M469 704v-128h-266v-160h262v-129h-262v-157h266v-129h-410v703h410zM226 783h-124v114h124v-114zM439 783h-124v114h124v-114z" />
    <glyph glyph-name="Igrave" unicode="&#xcc;" horiz-adv-x="290" 
d="M57 0v703h145v-703h-145zM88 769l-113 154h154l86 -154h-127z" />
    <glyph glyph-name="Iacute" unicode="&#xcd;" horiz-adv-x="290" 
d="M57 0v703h145v-703h-145zM292 921l-113 -154h-127l86 154h154z" />
    <glyph glyph-name="Icircumflex" unicode="&#xce;" horiz-adv-x="290" 
d="M57 0v703h145v-703h-145zM-39 768l112 142h115l110 -142h-118l-51 67l-56 -67h-112z" />
    <glyph glyph-name="Idieresis" unicode="&#xcf;" horiz-adv-x="290" 
d="M57 0v703h145v-703h-145zM86 775h-124v114h124v-114zM299 775h-124v114h124v-114z" />
    <glyph glyph-name="Eth" unicode="&#xd0;" horiz-adv-x="721" 
d="M14 292v113h56v300h230q77 0 141 -23.5t105.5 -64.5t70.5 -94t35.5 -111.5t0.5 -117t-35 -111.5t-70.5 -94t-105.5 -65t-141 -24h-231v292h-56zM300 128q68 0 118 32.5t72 82t22 107.5t-22.5 107.5t-71.5 83.5t-116 35h-89v-171h124v-113h-124v-164h87z" />
    <glyph glyph-name="Ntilde" unicode="&#xd1;" horiz-adv-x="735" 
d="M68 704h184l209 -419l56 -142l9 1l-27 182v378h143v-704h-184l-207 419l-54 147l-9 -1l25 -188v-377h-145v704zM457 909l64 -49q-44 -86 -105 -84q-17 0 -39.5 12.5t-38.5 22t-37.5 3.5t-41.5 -36l-66 52q53 84 120 84q18 0 39.5 -11t36 -20.5t33 -4.5t35.5 31z" />
    <glyph glyph-name="Ograve" unicode="&#xd2;" horiz-adv-x="810" 
d="M385 717q151 0 256 -104t105 -264q0 -162 -105 -265t-256 -103t-256 102.5t-105 265.5q0 162 105 265t256 103zM170 349q0 -111 64.5 -174.5t150.5 -63.5q87 0 151 62.5t64 175.5q0 111 -64.5 175t-151.5 63q-86 -1 -150 -64.5t-64 -173.5zM341 791l-113 154h154l86 -154
h-127z" />
    <glyph glyph-name="Oacute" unicode="&#xd3;" horiz-adv-x="810" 
d="M385 717q151 0 256 -104t105 -264q0 -162 -105 -265t-256 -103t-256 102.5t-105 265.5q0 162 105 265t256 103zM170 349q0 -111 64.5 -174.5t150.5 -63.5q87 0 151 62.5t64 175.5q0 111 -64.5 175t-151.5 63q-86 -1 -150 -64.5t-64 -173.5zM545 937l-113 -154h-127
l86 154h154z" />
    <glyph glyph-name="Ocircumflex" unicode="&#xd4;" horiz-adv-x="810" 
d="M385 717q151 0 256 -104t105 -264q0 -162 -105 -265t-256 -103t-256 102.5t-105 265.5q0 162 105 265t256 103zM170 349q0 -111 64.5 -174.5t150.5 -63.5q87 0 151 62.5t64 175.5q0 111 -64.5 175t-151.5 63q-86 -1 -150 -64.5t-64 -173.5zM219 775l112 142h115l110 -142
h-118l-51 67l-56 -67h-112z" />
    <glyph glyph-name="Otilde" unicode="&#xd5;" horiz-adv-x="810" 
d="M385 717q151 0 256 -104t105 -264q0 -162 -105 -265t-256 -103t-256 102.5t-105 265.5q0 162 105 265t256 103zM170 349q0 -111 64.5 -174.5t150.5 -63.5q87 0 151 62.5t64 175.5q0 111 -64.5 175t-151.5 63q-86 -1 -150 -64.5t-64 -173.5zM485 910l64 -49
q-44 -86 -105 -84q-17 0 -39.5 12.5t-38.5 22t-37.5 3.5t-41.5 -36l-66 52q53 84 120 84q18 0 39.5 -11t36 -20.5t33 -4.5t35.5 31z" />
    <glyph glyph-name="Odieresis" unicode="&#xd6;" horiz-adv-x="810" 
d="M385 717q151 0 256 -104t105 -264q0 -162 -105 -265t-256 -103t-256 102.5t-105 265.5q0 162 105 265t256 103zM170 349q0 -111 64.5 -174.5t150.5 -63.5q87 0 151 62.5t64 175.5q0 111 -64.5 175t-151.5 63q-86 -1 -150 -64.5t-64 -173.5zM343 784h-124v114h124v-114z
M556 784h-124v114h124v-114z" />
    <glyph glyph-name="multiply" unicode="&#xd7;" horiz-adv-x="529" 
d="M36 402l90 91l121 -122l117 117l88 -89l-117 -116l115 -117l-89 -88l-115 115l-119 -119l-89 90l119 118z" />
    <glyph glyph-name="Oslash" unicode="&#xd8;" horiz-adv-x="810" 
d="M385 712q77 0 139 -24l41 67h142l-83 -136q57 -53 90.5 -123.5t33.5 -146.5q0 -157 -106 -259t-257 -102q-77 0 -131 22l-48 -77h-144l88 145q-127 112 -127 271q0 156 106 259.5t256 103.5zM166 349q0 -86 59 -154q5 8 26 45t69.5 119.5t126.5 211.5q-32 8 -63 8
q-87 -1 -152.5 -61t-65.5 -169zM605 349q0 77 -59 157q-40 -66 -112 -191t-109 -186q36 -8 60 -8q89 0 154.5 59t65.5 169z" />
    <glyph glyph-name="Ugrave" unicode="&#xd9;" horiz-adv-x="645" 
d="M58 700h146v-486q0 -50 30.5 -77.5t72.5 -27.5t73 27.5t31 77.5v486h145v-486q-1 -110 -75.5 -171.5t-175.5 -61.5t-174 61.5t-73 171.5v486zM270 765l-113 154h154l86 -154h-127z" />
    <glyph glyph-name="Uacute" unicode="&#xda;" horiz-adv-x="645" 
d="M58 700h146v-486q0 -50 30.5 -77.5t72.5 -27.5t73 27.5t31 77.5v486h145v-486q-1 -110 -75.5 -171.5t-175.5 -61.5t-174 61.5t-73 171.5v486zM459 912l-113 -154h-127l86 154h154z" />
    <glyph glyph-name="Ucircumflex" unicode="&#xdb;" horiz-adv-x="645" 
d="M58 700h146v-486q0 -50 30.5 -77.5t72.5 -27.5t73 27.5t31 77.5v486h145v-486q-1 -110 -75.5 -171.5t-175.5 -61.5t-174 61.5t-73 171.5v486zM133 781l112 142h115l110 -142h-118l-51 67l-56 -67h-112z" />
    <glyph glyph-name="Udieresis" unicode="&#xdc;" horiz-adv-x="645" 
d="M58 700h146v-486q0 -50 30.5 -77.5t72.5 -27.5t73 27.5t31 77.5v486h145v-486q-1 -110 -75.5 -171.5t-175.5 -61.5t-174 61.5t-73 171.5v486zM266 778h-124v114h124v-114zM479 778h-124v114h124v-114z" />
    <glyph glyph-name="Yacute" unicode="&#xdd;" horiz-adv-x="582" 
d="M278 381h3l32 84l123 240h163l-250 -448v-257h-144v257l-248 448h162l127 -240zM428 926l-113 -154h-127l86 154h154z" />
    <glyph glyph-name="Thorn" unicode="&#xde;" horiz-adv-x="590" 
d="M211 129v-129h-144v700h144v-103h80q117 0 182.5 -70.5t65.5 -166.5q0 -95 -65 -163t-182 -68h-81zM291 254q48 0 76 33t28 73q0 42 -28.5 79t-75.5 37h-80v-222h80z" />
    <glyph glyph-name="germandbls" unicode="&#xdf;" horiz-adv-x="571" 
d="M190 501v-501h-141v501q0 91 62.5 146t149.5 55q89 0 149.5 -51.5t60.5 -145.5q0 -40 -18.5 -77.5t-62.5 -53.5q66 -21 95.5 -69t29.5 -91q2 -80 -40.5 -137t-110 -77t-140.5 -2l1 128q49 -24 96.5 5t47.5 82q0 37 -28 65t-75 28h-41v118h41q32 0 51 26.5t17 54.5
q-3 45 -38.5 61.5t-70.5 -3t-35 -62.5z" />
    <glyph glyph-name="agrave" unicode="&#xe0;" horiz-adv-x="552" 
d="M150 169q-1 -43 36 -60.5t83 -8t72 36.5v80q-41 18 -89 18q-43 0 -72 -16.5t-30 -49.5zM476 0h-109l-18 45q-45 -56 -122 -56q-96 0 -150 50.5t-54 125.5q0 82 66 127.5t154 43.5q51 -1 97 -20q-2 50 -29.5 73.5t-70.5 24.5q-38 1 -77.5 -10.5t-61.5 -30.5l-46 85
q80 65 197 65q95 0 159.5 -53t64.5 -157v-313zM233 601l-106 145h145l81 -145h-120z" />
    <glyph glyph-name="aacute" unicode="&#xe1;" horiz-adv-x="552" 
d="M150 169q-1 -43 36 -60.5t83 -8t72 36.5v80q-41 18 -89 18q-43 0 -72 -16.5t-30 -49.5zM476 0h-109l-18 45q-45 -56 -122 -56q-96 0 -150 50.5t-54 125.5q0 82 66 127.5t154 43.5q51 -1 97 -20q-2 50 -29.5 73.5t-70.5 24.5q-38 1 -77.5 -10.5t-61.5 -30.5l-46 85
q80 65 197 65q95 0 159.5 -53t64.5 -157v-313zM417 746l-113 -154h-127l86 154h154z" />
    <glyph glyph-name="acircumflex" unicode="&#xe2;" horiz-adv-x="552" 
d="M150 169q-1 -43 36 -60.5t83 -8t72 36.5v80q-41 18 -89 18q-43 0 -72 -16.5t-30 -49.5zM476 0h-109l-18 45q-45 -56 -122 -56q-96 0 -150 50.5t-54 125.5q0 82 66 127.5t154 43.5q51 -1 97 -20q-2 50 -29.5 73.5t-70.5 24.5q-38 1 -77.5 -10.5t-61.5 -30.5l-46 85
q80 65 197 65q95 0 159.5 -53t64.5 -157v-313zM94 604l112 142h115l110 -142h-118l-51 67l-56 -67h-112z" />
    <glyph glyph-name="atilde" unicode="&#xe3;" horiz-adv-x="552" 
d="M150 169q-1 -43 36 -60.5t83 -8t72 36.5v80q-41 18 -89 18q-43 0 -72 -16.5t-30 -49.5zM476 0h-109l-18 45q-45 -56 -122 -56q-96 0 -150 50.5t-54 125.5q0 82 66 127.5t154 43.5q51 -1 97 -20q-2 50 -29.5 73.5t-70.5 24.5q-38 1 -77.5 -10.5t-61.5 -30.5l-46 85
q80 65 197 65q95 0 159.5 -53t64.5 -157v-313zM362 739l64 -49q-44 -86 -105 -84q-17 0 -39.5 12.5t-38.5 22t-37.5 3.5t-41.5 -36l-66 52q53 84 120 84q18 0 39.5 -11t36 -20.5t33 -4.5t35.5 31z" />
    <glyph glyph-name="adieresis" unicode="&#xe4;" horiz-adv-x="552" 
d="M150 169q-1 -43 36 -60.5t83 -8t72 36.5v80q-41 18 -89 18q-43 0 -72 -16.5t-30 -49.5zM476 0h-109l-18 45q-45 -56 -122 -56q-96 0 -150 50.5t-54 125.5q0 82 66 127.5t154 43.5q51 -1 97 -20q-2 50 -29.5 73.5t-70.5 24.5q-38 1 -77.5 -10.5t-61.5 -30.5l-46 85
q80 65 197 65q95 0 159.5 -53t64.5 -157v-313zM218 610h-124v114h124v-114zM431 610h-124v114h124v-114z" />
    <glyph glyph-name="aring" unicode="&#xe5;" horiz-adv-x="552" 
d="M150 169q-1 -43 36 -60.5t83 -8t72 36.5v80q-41 18 -89 18q-43 0 -72 -16.5t-30 -49.5zM476 0h-109l-18 45q-45 -56 -122 -56q-96 0 -150 50.5t-54 125.5q0 82 66 127.5t154 43.5q51 -1 97 -20q-2 50 -29.5 73.5t-70.5 24.5q-38 1 -77.5 -10.5t-61.5 -30.5l-46 85
q80 65 197 65q95 0 159.5 -53t64.5 -157v-313zM257 572q-46 0 -78.5 28t-32.5 73q0 46 32 73.5t79 27.5q46 0 78.5 -27.5t32.5 -73.5q0 -45 -33 -73t-78 -28zM208 672q0 -16 14.5 -28.5t34.5 -12.5t34 12.5t14 30.5q0 17 -14 29t-34 12t-34.5 -12.5t-14.5 -30.5z" />
    <glyph glyph-name="ae" unicode="&#xe6;" horiz-adv-x="939" 
d="M734 153l77 -68q-86 -95 -202 -95q-125 0 -183 78q-23 -28 -50 -46t-56.5 -24t-44 -7.5t-38.5 -1.5q-95 0 -149.5 50.5t-54.5 120.5q0 54 32 94t80 57t105.5 20.5t108.5 -15.5q0 45 -33.5 68.5t-76.5 23.5q-66 0 -136 -39l-46 84q86 69 195 69q53 0 99.5 -22t71.5 -64
q63 80 175 82q110 1 180.5 -71.5t70.5 -180.5q0 -15 -6 -63h-373q10 -52 55.5 -77t101.5 -17t97 44zM262 101q23 0 56 10.5t56 31.5q-13 30 -17 80q-37 11 -80.5 13t-79.5 -16t-37 -51q-1 -28 27 -48t75 -20zM480 303h245q-8 49 -40.5 73t-75.5 24q-45 0 -83 -25t-46 -72z
" />
    <glyph glyph-name="ccedilla" unicode="&#xe7;" horiz-adv-x="516" 
d="M467 440l-77 -85q-33 31 -76 40t-80 -3.5t-62.5 -49.5t-26.5 -90q-1 -64 40.5 -105.5t101.5 -39.5t107 52l78 -80q-65 -81 -164 -89l-15 -29q28 -1 46 -10.5t23.5 -22.5t8 -25.5t-1.5 -19.5q-8 -45 -50.5 -67t-96 -16t-94.5 37l26 56q61 -35 100 -17q24 10 17 27
q-12 27 -80 21q-3 -1 -7 -1l37 70q-98 17 -154 91t-56 169q1 109 73 188t193 80q56 0 100 -18t90 -63z" />
    <glyph glyph-name="egrave" unicode="&#xe8;" horiz-adv-x="589" 
d="M404 153l77 -68q-86 -95 -202 -95q-122 0 -191 79t-68 186q0 106 69 184t189 79q112 1 181.5 -68t68.5 -182q0 -36 -14 -68h-357q11 -48 54.5 -72.5t97.5 -17.5t95 43zM157 305h238q-8 49 -40.5 72t-75.5 23q-44 0 -79 -23.5t-43 -71.5zM240 597l-113 154h154l86 -154
h-127z" />
    <glyph glyph-name="eacute" unicode="&#xe9;" horiz-adv-x="589" 
d="M404 153l77 -68q-86 -95 -202 -95q-122 0 -191 79t-68 186q0 106 69 184t189 79q112 1 181.5 -68t68.5 -182q0 -36 -14 -68h-357q11 -48 54.5 -72.5t97.5 -17.5t95 43zM157 305h238q-8 49 -40.5 72t-75.5 23q-44 0 -79 -23.5t-43 -71.5zM433 731l-113 -154h-127l86 154
h154z" />
    <glyph glyph-name="ecircumflex" unicode="&#xea;" horiz-adv-x="589" 
d="M404 153l77 -68q-86 -95 -202 -95q-122 0 -191 79t-68 186q0 106 69 184t189 79q112 1 181.5 -68t68.5 -182q0 -36 -14 -68h-357q11 -48 54.5 -72.5t97.5 -17.5t95 43zM157 305h238q-8 49 -40.5 72t-75.5 23q-44 0 -79 -23.5t-43 -71.5zM117 585l112 142h115l110 -142
h-118l-51 67l-56 -67h-112z" />
    <glyph glyph-name="edieresis" unicode="&#xeb;" horiz-adv-x="589" 
d="M404 153l77 -68q-86 -95 -202 -95q-122 0 -191 79t-68 186q0 106 69 184t189 79q112 1 181.5 -68t68.5 -182q0 -36 -14 -68h-357q11 -48 54.5 -72.5t97.5 -17.5t95 43zM157 305h238q-8 49 -40.5 72t-75.5 23q-44 0 -79 -23.5t-43 -71.5zM238 604h-124v114h124v-114z
M451 604h-124v114h124v-114z" />
    <glyph glyph-name="igrave" unicode="&#xec;" horiz-adv-x="254" 
d="M42 507h137v-507h-137v507zM66 578l-113 154h154l86 -154h-127z" />
    <glyph glyph-name="iacute" unicode="&#xed;" horiz-adv-x="254" 
d="M42 507h137v-507h-137v507zM271 727l-113 -154h-127l86 154h154z" />
    <glyph glyph-name="icircumflex" unicode="&#xee;" horiz-adv-x="254" 
d="M42 507h137v-507h-137v507zM-57 586l112 142h115l110 -142h-118l-51 67l-56 -67h-112z" />
    <glyph glyph-name="idieresis" unicode="&#xef;" horiz-adv-x="254" 
d="M42 507h137v-507h-137v507zM66 612h-124v114h124v-114zM279 612h-124v114h124v-114z" />
    <glyph glyph-name="eth" unicode="&#xf0;" horiz-adv-x="607" 
d="M312 672l64 63l66 -67l-46 -43q145 -112 137 -389v1q-2 -103 -68.5 -175t-188.5 -72q-123 0 -190.5 74t-65.5 172q2 93 70 160.5t164 67.5q69 2 125 -31q-24 63 -79 102l-61 -57l-63 62l35 34q-54 14 -112 11l10 118q119 2 203 -31zM276 347q-55 0 -85 -34.5t-32 -78.5
q-1 -47 29 -82t88 -35t90.5 35.5t30.5 81.5q-2 47 -33.5 80t-87.5 33z" />
    <glyph glyph-name="ntilde" unicode="&#xf1;" 
d="M51 507h112l20 -45q43 57 135 52q86 -5 144.5 -65.5t58.5 -155.5v-293h-137v287q0 49 -32.5 80.5t-76 32.5t-87.5 -24v-376h-137v507zM377 732l64 -49q-44 -86 -105 -84q-17 0 -39.5 12.5t-38.5 22t-37.5 3.5t-41.5 -36l-66 52q53 84 120 84q18 0 39.5 -11t36 -20.5
t33 -4.5t35.5 31z" />
    <glyph glyph-name="ograve" unicode="&#xf2;" horiz-adv-x="617" 
d="M159 253q0 -65 41.5 -103.5t92.5 -38.5q52 0 92 38t40 104q0 69 -39.5 105.5t-92.5 36.5q-51 0 -92.5 -37.5t-41.5 -104.5zM560 253q0 -116 -76 -191.5t-191 -75.5t-191.5 75.5t-76.5 191.5q0 119 76.5 193.5t191.5 74.5q116 0 191.5 -74.5t75.5 -193.5zM256 576
l-113 154h154l86 -154h-127z" />
    <glyph glyph-name="oacute" unicode="&#xf3;" horiz-adv-x="617" 
d="M159 253q0 -65 41.5 -103.5t92.5 -38.5q52 0 92 38t40 104q0 69 -39.5 105.5t-92.5 36.5q-51 0 -92.5 -37.5t-41.5 -104.5zM560 253q0 -116 -76 -191.5t-191 -75.5t-191.5 75.5t-76.5 191.5q0 119 76.5 193.5t191.5 74.5q116 0 191.5 -74.5t75.5 -193.5zM450 727
l-113 -154h-127l86 154h154z" />
    <glyph glyph-name="ocircumflex" unicode="&#xf4;" horiz-adv-x="617" 
d="M159 253q0 -65 41.5 -103.5t92.5 -38.5q52 0 92 38t40 104q0 69 -39.5 105.5t-92.5 36.5q-51 0 -92.5 -37.5t-41.5 -104.5zM560 253q0 -116 -76 -191.5t-191 -75.5t-191.5 75.5t-76.5 191.5q0 119 76.5 193.5t191.5 74.5q116 0 191.5 -74.5t75.5 -193.5zM128 585l112 142
h115l110 -142h-118l-51 67l-56 -67h-112z" />
    <glyph glyph-name="otilde" unicode="&#xf5;" horiz-adv-x="617" 
d="M159 253q0 -65 41.5 -103.5t92.5 -38.5q52 0 92 38t40 104q0 69 -39.5 105.5t-92.5 36.5q-51 0 -92.5 -37.5t-41.5 -104.5zM560 253q0 -116 -76 -191.5t-191 -75.5t-191.5 75.5t-76.5 191.5q0 119 76.5 193.5t191.5 74.5q116 0 191.5 -74.5t75.5 -193.5zM388 725l64 -49
q-44 -86 -105 -84q-17 0 -39.5 12.5t-38.5 22t-37.5 3.5t-41.5 -36l-66 52q53 84 120 84q18 0 39.5 -11t36 -20.5t33 -4.5t35.5 31z" />
    <glyph glyph-name="odieresis" unicode="&#xf6;" horiz-adv-x="617" 
d="M159 253q0 -65 41.5 -103.5t92.5 -38.5q52 0 92 38t40 104q0 69 -39.5 105.5t-92.5 36.5q-51 0 -92.5 -37.5t-41.5 -104.5zM560 253q0 -116 -76 -191.5t-191 -75.5t-191.5 75.5t-76.5 191.5q0 119 76.5 193.5t191.5 74.5q116 0 191.5 -74.5t75.5 -193.5zM262 609h-124
v114h124v-114zM475 609h-124v114h124v-114z" />
    <glyph glyph-name="divide" unicode="&#xf7;" horiz-adv-x="605" 
d="M214 436v121h124v-121h-124zM41 259v126h480v-126h-480zM214 87v121h124v-121h-124z" />
    <glyph glyph-name="oslash" unicode="&#xf8;" horiz-adv-x="613" 
d="M556 253q0 -116 -76 -191.5t-191 -75.5q-48 0 -96 16l-39 -64h-119l71 115q-85 77 -85 200q0 119 76.5 193.5t191.5 74.5q50 0 96 -16l40 64h119l-71 -116q83 -76 83 -200zM155 253q0 -48 24 -83l137 222q-14 3 -27 3q-51 0 -92.5 -37.5t-41.5 -104.5zM421 253
q0 48 -21 82l-137 -221q12 -3 26 -3q52 0 92 38t40 104z" />
    <glyph glyph-name="ugrave" unicode="&#xf9;" horiz-adv-x="605" 
d="M515 0l-112 1l-21 46q-43 -58 -134 -53q-88 5 -145.5 61.5t-57.5 150.5v301h137v-295q0 -49 32 -77.5t78 -28.5q47 0 86 26v375h137v-507zM234 571l-113 154h154l86 -154h-127z" />
    <glyph glyph-name="uacute" unicode="&#xfa;" horiz-adv-x="605" 
d="M515 0l-112 1l-21 46q-43 -58 -134 -53q-88 5 -145.5 61.5t-57.5 150.5v301h137v-295q0 -49 32 -77.5t78 -28.5q47 0 86 26v375h137v-507zM438 724l-113 -154h-127l86 154h154z" />
    <glyph glyph-name="ucircumflex" unicode="&#xfb;" horiz-adv-x="605" 
d="M515 0l-112 1l-21 46q-43 -58 -134 -53q-88 5 -145.5 61.5t-57.5 150.5v301h137v-295q0 -49 32 -77.5t78 -28.5q47 0 86 26v375h137v-507zM118 585l112 142h115l110 -142h-118l-51 67l-56 -67h-112z" />
    <glyph glyph-name="udieresis" unicode="&#xfc;" horiz-adv-x="605" 
d="M515 0l-112 1l-21 46q-43 -58 -134 -53q-88 5 -145.5 61.5t-57.5 150.5v301h137v-295q0 -49 32 -77.5t78 -28.5q47 0 86 26v375h137v-507zM238 610h-124v114h124v-114zM451 610h-124v114h124v-114z" />
    <glyph glyph-name="yacute" unicode="&#xfd;" horiz-adv-x="545" 
d="M259 142h5l24 111l90 254h148l-229 -594q-27 -69 -93.5 -91.5t-138.5 -8.5v103q66 -7 90 11t39 84q-29 72 -103.5 245t-106.5 251h148l104 -255zM417 724l-113 -154h-127l86 154h154z" />
    <glyph glyph-name="thorn" unicode="&#xfe;" horiz-adv-x="577" 
d="M51 -190v890h134v-223q44 38 114 38q99 0 161 -74.5t62 -184.5q0 -111 -66.5 -187.5t-178.5 -76.5q-56 0 -91 28v-210h-135zM188 360v-232q72 -41 134.5 -3.5t62.5 131.5q0 64 -32 103t-89 39q-46 0 -76 -38z" />
    <glyph glyph-name="ydieresis" unicode="&#xff;" horiz-adv-x="545" 
d="M259 142h5l24 111l90 254h148l-229 -594q-27 -69 -93.5 -91.5t-138.5 -8.5v103q66 -7 90 11t39 84q-29 72 -103.5 245t-106.5 251h148l104 -255zM218 607h-124v114h124v-114zM431 607h-124v114h124v-114z" />
    <glyph glyph-name="Amacron" unicode="&#x100;" horiz-adv-x="650" 
d="M154 752v110h298v-110h-298zM487 0l-59 188h-241l-59 -188h-154l238 707h188l242 -707h-155zM312 603h-8l-21 -114l-54 -168h157l-53 168z" />
    <glyph glyph-name="amacron" unicode="&#x101;" horiz-adv-x="552" 
d="M112 577v90h271v-90h-271zM252 101q45 0 89 36v80q-34 15 -77.5 17t-78 -14.5t-35.5 -50.5q-1 -28 27 -48t75 -20zM476 0h-109l-18 45q-45 -56 -122 -56q-95 0 -149.5 50.5t-54.5 120.5q0 44 20 79t53.5 55.5t74.5 31.5t85 9.5t84 -14.5q0 45 -29 66t-72 21
q-66 0 -136 -39l-46 84q86 69 195 69q94 0 159 -56.5t65 -161.5v-304z" />
    <glyph glyph-name="Abreve" unicode="&#x102;" horiz-adv-x="650" 
d="M487 0l-59 188h-241l-59 -188h-154l238 707h188l242 -707h-155zM312 603h-8l-21 -114l-54 -168h157l-53 168zM163 870h95q2 -18 16 -28.5t30 -10t29.5 10.5t15.5 29h96q0 -42 -21.5 -72.5t-52.5 -44.5t-67.5 -14t-67.5 13.5t-52 44t-21 72.5z" />
    <glyph glyph-name="abreve" unicode="&#x103;" horiz-adv-x="552" 
d="M252 101q45 0 89 36v80q-34 15 -77.5 17t-78 -14.5t-35.5 -50.5q-1 -28 27 -48t75 -20zM476 0h-109l-18 45q-45 -56 -122 -56q-95 0 -149.5 50.5t-54.5 120.5q0 44 20 79t53.5 55.5t74.5 31.5t85 9.5t84 -14.5q0 45 -29 66t-72 21q-66 0 -136 -39l-46 84q86 69 195 69
q94 0 159 -56.5t65 -161.5v-304zM113 693h95q2 -18 16 -28.5t30 -10t29.5 10.5t15.5 29h96q0 -42 -21.5 -72.5t-52.5 -44.5t-67.5 -14t-67.5 13.5t-52 44t-21 72.5z" />
    <glyph glyph-name="Aogonek" unicode="&#x104;" horiz-adv-x="649" 
d="M585 -180q-47 -5 -85 11t-56.5 44t-9.5 65.5t49 72.5l-55 175h-241l-59 -188h-154l238 707h188l242 -707q-56 -10 -71 -45q-13 -30 19 -45q16 -6 39 -7zM312 603h-8l-21 -114l-54 -168h157l-53 168z" />
    <glyph glyph-name="aogonek" unicode="&#x105;" horiz-adv-x="552" 
d="M310 -75q-2 22 13.5 44.5t41.5 34.5l-16 41q-45 -56 -122 -56q-95 0 -149.5 50.5t-54.5 120.5q0 44 20 79t53.5 55.5t74.5 31.5t85 9.5t84 -14.5q0 45 -29 66t-72 21q-66 0 -136 -39l-46 84q86 69 195 69q94 0 159 -56.5t65 -161.5v-304q-25 -12 -35 -28t2.5 -30
t48.5 -16l-40 -71q-1 1 -13.5 0t-33 3t-40.5 9.5t-36 21t-19 36.5zM252 101q45 0 89 36v80q-34 15 -77.5 17t-78 -14.5t-35.5 -50.5q-1 -28 27 -48t75 -20z" />
    <glyph glyph-name="Cacute" unicode="&#x106;" horiz-adv-x="719" 
d="M658 587l-93 -82q-80 84 -181 81q-101 -2 -158.5 -71.5t-57.5 -166.5q0 -98 58 -165t158 -67q112 0 191 93l99 -77q-122 -148 -290 -148q-112 0 -195 52.5t-123 134t-40 177.5q0 97 40 179.5t123 136.5t195 54q165 0 274 -131zM550 918l-113 -154h-127l86 154h154z" />
    <glyph glyph-name="cacute" unicode="&#x107;" horiz-adv-x="516" 
d="M467 440l-77 -85q-33 31 -76 40t-80 -3.5t-62.5 -49.5t-26.5 -90q-1 -64 40.5 -105.5t101.5 -39.5t107 52l78 -80q-41 -51 -87.5 -71t-107.5 -20q-123 0 -194.5 78t-71.5 187q1 109 73 188t193 80q56 0 100 -18t90 -63zM426 705l-107 -142h-115l80 142h142z" />
    <glyph glyph-name="Ccircumflex" unicode="&#x108;" horiz-adv-x="719" 
d="M658 587l-93 -82q-80 84 -181 81q-101 -2 -158.5 -71.5t-57.5 -166.5q0 -98 58 -165t158 -67q112 0 191 93l99 -77q-122 -148 -290 -148q-112 0 -195 52.5t-123 134t-40 177.5q0 97 40 179.5t123 136.5t195 54q165 0 274 -131zM213 758l112 142h115l110 -142h-116l-53 57
l-55 -57h-113z" />
    <glyph glyph-name="ccircumflex" unicode="&#x109;" horiz-adv-x="516" 
d="M467 440l-77 -85q-33 31 -76 40t-80 -3.5t-62.5 -49.5t-26.5 -90q-1 -64 40.5 -105.5t101.5 -39.5t107 52l78 -80q-41 -51 -87.5 -71t-107.5 -20q-123 0 -194.5 78t-71.5 187q1 109 73 188t193 80q56 0 100 -18t90 -63zM106 564l110 137h112l108 -137h-114l-52 55
l-53 -55h-111z" />
    <glyph glyph-name="Cdotaccent" unicode="&#x10a;" horiz-adv-x="719" 
d="M319 759v115h126v-115h-126zM658 587l-93 -82q-80 84 -181 81q-101 -2 -158.5 -71.5t-57.5 -166.5q0 -98 58 -165t158 -67q112 0 191 93l99 -77q-122 -148 -290 -148q-112 0 -195 52.5t-123 134t-40 177.5q0 97 40 179.5t123 136.5t195 54q165 0 274 -131z" />
    <glyph glyph-name="cdotaccent" unicode="&#x10b;" horiz-adv-x="516" 
d="M209 575v119h127v-119h-127zM467 440l-77 -85q-33 31 -76 40t-80 -3.5t-62.5 -49.5t-26.5 -90q-1 -64 40.5 -105.5t101.5 -39.5t107 52l78 -80q-41 -51 -87.5 -71t-107.5 -20q-123 0 -194.5 78t-71.5 187q1 109 73 188t193 80q56 0 100 -18t90 -63z" />
    <glyph glyph-name="Ccaron" unicode="&#x10c;" horiz-adv-x="719" 
d="M658 587l-93 -82q-80 84 -181 81q-101 -2 -158.5 -71.5t-57.5 -166.5q0 -98 58 -165t158 -67q112 0 191 93l99 -77q-122 -148 -290 -148q-112 0 -195 52.5t-123 134t-40 177.5q0 97 40 179.5t123 136.5t195 54q165 0 274 -131zM550 904l-112 -142h-115l-110 142h116
l53 -57l55 57h113z" />
    <glyph glyph-name="ccaron" unicode="&#x10d;" horiz-adv-x="516" 
d="M467 440l-77 -85q-33 31 -76 40t-80 -3.5t-62.5 -49.5t-26.5 -90q-1 -64 40.5 -105.5t101.5 -39.5t107 52l78 -80q-41 -51 -87.5 -71t-107.5 -20q-123 0 -194.5 78t-71.5 187q1 109 73 188t193 80q56 0 100 -18t90 -63zM440 704l-112 -142h-115l-110 142h114l55 -60
l57 60h111z" />
    <glyph glyph-name="Dcaron" unicode="&#x10e;" horiz-adv-x="718" 
d="M300 705q168 1 262.5 -104t94.5 -249q0 -67 -22.5 -129.5t-65.5 -112.5t-112.5 -80t-155.5 -30h-231v705h230zM300 131q101 -2 157 63.5t56 154.5q0 90 -56 157.5t-155 67.5h-87v-443h85zM488 894l-112 -142h-115l-110 142h116l53 -57l55 57h113z" />
    <glyph glyph-name="dcaron" unicode="&#x10f;" horiz-adv-x="628" 
d="M545 699h116q4 -33 5.5 -62.5t-10.5 -66.5t-39 -73h-79q20 66 22 101.5t-15 100.5zM23 251q0 111 66.5 187.5t178.5 76.5q55 0 90 -28l-1 213h137v-700h-101l-12 52q-47 -60 -135 -60q-99 0 -161 74.5t-62 184.5zM357 147v229q-28 20 -67 20q-60 0 -95 -36.5t-35 -108.5
q0 -64 32 -103t89 -39q46 0 76 38z" />
    <glyph glyph-name="Dcroat" unicode="&#x110;" horiz-adv-x="721" 
d="M20 288v125h54v292h230q168 1 262.5 -104t94.5 -249q0 -67 -22.5 -129.5t-65.5 -112.5t-112.5 -80t-155.5 -30h-231v288h-54zM304 130q101 -2 157 64t56 155q0 90 -56 157.5t-155 67.5h-87v-161h119v-125h-119v-158h85z" />
    <glyph glyph-name="dcroat" unicode="&#x111;" horiz-adv-x="585" 
d="M24 251q0 111 66.5 187.5t178.5 76.5q55 0 90 -28v82h-89v83h89v48h136v-48h69v-83h-69v-569h-101l-12 52q-47 -60 -135 -60q-99 0 -161 74.5t-62 184.5zM358 147v229q-28 20 -67 20q-60 0 -95 -36.5t-35 -108.5q0 -64 32 -103t89 -39q46 0 76 38z" />
    <glyph glyph-name="Emacron" unicode="&#x112;" horiz-adv-x="521" 
d="M127 754v99h298v-99h-298zM475 704v-128h-266v-160h262v-129h-262v-157h266v-129h-410v703h410z" />
    <glyph glyph-name="emacron" unicode="&#x113;" horiz-adv-x="590" 
d="M137 577v104h288v-104h-288zM404 153l77 -68q-86 -95 -202 -95q-122 0 -191 79t-68 186q0 106 69 184t189 79q110 1 180.5 -71.5t70.5 -180.5q0 -37 -6 -68h-366q11 -48 54.5 -72t97.5 -16.5t95 43.5zM157 303h238q-8 49 -40.5 73t-75.5 24q-44 0 -79 -24.5t-43 -72.5z
" />
    <glyph glyph-name="Ebreve" unicode="&#x114;" horiz-adv-x="521" 
d="M474 704v-128h-266v-160h262v-129h-262v-157h266v-129h-410v703h410zM139 877h95q2 -18 16 -28.5t30 -10t29.5 10.5t15.5 29h96q0 -42 -21.5 -72.5t-52.5 -44.5t-67.5 -14t-67.5 13.5t-52 44t-21 72.5z" />
    <glyph glyph-name="ebreve" unicode="&#x115;" horiz-adv-x="589" 
d="M404 153l77 -68q-86 -95 -202 -95q-122 0 -191 79t-68 186q0 106 69 184t189 79q110 1 180.5 -71.5t70.5 -180.5q0 -37 -6 -68h-366q11 -48 54.5 -72t97.5 -16.5t95 43.5zM157 303h238q-8 49 -40.5 73t-75.5 24q-44 0 -79 -24.5t-43 -72.5zM136 696h95q2 -18 16 -28.5
t30 -10t29.5 10.5t15.5 29h96q0 -42 -21.5 -72.5t-52.5 -44.5t-67.5 -14t-67.5 13.5t-52 44t-21 72.5z" />
    <glyph glyph-name="Edotaccent" unicode="&#x116;" horiz-adv-x="521" 
d="M213 750v116h128v-116h-128zM474 704v-128h-266v-160h262v-129h-262v-157h266v-129h-410v703h410z" />
    <glyph glyph-name="edotaccent" unicode="&#x117;" horiz-adv-x="589" 
d="M216 573v117h127v-117h-127zM404 153l77 -68q-86 -95 -202 -95q-122 0 -191 79t-68 186q0 106 69 184t189 79q110 1 180.5 -71.5t70.5 -180.5q0 -37 -6 -68h-366q11 -48 54.5 -72t97.5 -16.5t95 43.5zM157 303h238q-8 49 -40.5 73t-75.5 24q-44 0 -79 -24.5t-43 -72.5z
" />
    <glyph glyph-name="Eogonek" unicode="&#x118;" horiz-adv-x="521" 
d="M475 704v-128h-266v-160h262v-129h-262v-157h266v-129q-35 -14 -44.5 -34t7.5 -33t48 -10l-42 -69q-49 -10 -88 4t-50 44q-17 50 41 98h-282v703h410z" />
    <glyph glyph-name="eogonek" unicode="&#x119;" horiz-adv-x="589" 
d="M404 153l77 -68q-44 -48 -95 -73q-22 -26 -7 -49t58 -18l-27 -70q-44 -17 -88.5 -7.5t-59 40.5t19.5 82h-3q-122 0 -191 79t-68 186q0 106 69 184t189 79q110 1 180.5 -71.5t70.5 -180.5q0 -37 -6 -68h-366q11 -48 54.5 -72t97.5 -16.5t95 43.5zM157 303h238
q-8 49 -40.5 73t-75.5 24q-44 0 -79 -24.5t-43 -72.5z" />
    <glyph glyph-name="Ecaron" unicode="&#x11a;" horiz-adv-x="521" 
d="M475 704v-128h-266v-160h262v-129h-262v-157h266v-129h-410v703h410zM443 895l-112 -142h-115l-110 142h116l53 -57l55 57h113z" />
    <glyph glyph-name="ecaron" unicode="&#x11b;" horiz-adv-x="589" 
d="M404 153l77 -68q-86 -95 -202 -95q-122 0 -191 79t-68 186q0 106 69 184t189 79q110 1 180.5 -71.5t70.5 -180.5q0 -37 -6 -68h-366q11 -48 54.5 -72t97.5 -16.5t95 43.5zM157 303h238q-8 49 -40.5 73t-75.5 24q-44 0 -79 -24.5t-43 -72.5zM444 698l-109 -138h-112
l-107 138h113l51 -55l54 55h110z" />
    <glyph glyph-name="Gcircumflex" unicode="&#x11c;" horiz-adv-x="809" 
d="M386 718q91 0 161 -33t132 -110l-104 -75q-72 86 -189 86q-66 0 -116 -37t-73.5 -90t-23.5 -110q0 -88 59 -158.5t157 -70.5q167 0 193 140h-266v126h413q11 -187 -84 -293t-259 -106q-112 0 -195 53.5t-122.5 134t-40.5 174.5q0 96 40 178.5t123 136.5t195 54zM217 758
l112 142h115l110 -142h-116l-53 57l-55 -57h-113z" />
    <glyph glyph-name="gcircumflex" unicode="&#x11d;" horiz-adv-x="583" 
d="M125 562l109 137h113l107 -137h-113l-52 54l-54 -54h-110zM364 11v15q-16 -17 -44.5 -25.5t-50.5 -8.5q-112 0 -178.5 76.5t-66.5 187.5q0 110 62 184.5t161 74.5q88 0 135 -60l12 52h101v-501q0 -98 -65.5 -149.5t-160.5 -51.5q-134 0 -224 90l64 81q32 -35 92.5 -51.5
t111.5 4t51 82.5zM358 131v229q-30 38 -76 38q-57 0 -89 -39t-32 -103q0 -72 35 -108.5t95 -36.5q39 0 67 20z" />
    <glyph glyph-name="Gbreve" unicode="&#x11e;" horiz-adv-x="809" 
d="M386 718q91 0 161 -33t132 -110l-104 -75q-72 86 -189 86q-66 0 -116 -37t-73.5 -90t-23.5 -110q0 -88 59 -158.5t157 -70.5q167 0 193 140h-266v126h413q11 -187 -84 -293t-259 -106q-112 0 -195 53.5t-122.5 134t-40.5 174.5q0 96 40 178.5t123 136.5t195 54zM242 890
h95q2 -18 16 -28.5t30 -10t29.5 10.5t15.5 29h96q0 -42 -21.5 -72.5t-52.5 -44.5t-67.5 -14t-67.5 13.5t-52 44t-21 72.5z" />
    <glyph glyph-name="gbreve" unicode="&#x11f;" horiz-adv-x="583" 
d="M156 697h95q2 -18 16 -28.5t30 -10t29.5 10.5t15.5 29h96q0 -42 -21.5 -72.5t-52.5 -44.5t-67.5 -14t-67.5 13.5t-52 44t-21 72.5zM366 11v15q-16 -17 -44.5 -25.5t-50.5 -8.5q-112 0 -178.5 76.5t-66.5 187.5q0 110 62 184.5t161 74.5q88 0 135 -60l12 52h101v-501
q0 -98 -65.5 -149.5t-160.5 -51.5q-134 0 -224 90l64 81q32 -35 92.5 -51.5t111.5 4t51 82.5zM360 131v229q-30 38 -76 38q-57 0 -89 -39t-32 -103q0 -72 35 -108.5t95 -36.5q39 0 67 20z" />
    <glyph glyph-name="Gdotaccent" unicode="&#x120;" horiz-adv-x="809" 
d="M317 759v117h131v-117h-131zM386 718q91 0 161 -33t132 -110l-104 -75q-72 86 -189 86q-66 0 -116 -37t-73.5 -90t-23.5 -110q0 -88 59 -158.5t157 -70.5q167 0 193 140h-266v126h413q11 -187 -84 -293t-259 -106q-112 0 -195 53.5t-122.5 134t-40.5 174.5q0 96 40 178.5
t123 136.5t195 54z" />
    <glyph glyph-name="gdotaccent" unicode="&#x121;" horiz-adv-x="583" 
d="M225 573v121h130v-121h-130zM364 11v15q-16 -17 -44.5 -25.5t-50.5 -8.5q-112 0 -178.5 76.5t-66.5 187.5q0 110 62 184.5t161 74.5q88 0 135 -60l12 52h101v-501q0 -98 -65.5 -149.5t-160.5 -51.5q-139 0 -226 87l66 84q32 -35 92.5 -51.5t111.5 4t51 82.5zM358 131v229
q-30 38 -76 38q-57 0 -89 -39t-32 -103q0 -72 35 -108.5t95 -36.5q39 0 67 20z" />
    <glyph glyph-name="Gcommaaccent" unicode="&#x122;" horiz-adv-x="809" 
d="M438 -216l-114 1q17 54 17.5 90.5t-16.5 77.5h130q22 -90 -17 -169zM386 718q91 0 161 -33t132 -110l-104 -75q-72 86 -189 86q-66 0 -116 -37t-73.5 -90t-23.5 -110q0 -88 59 -158.5t157 -70.5q167 0 193 140h-266v126h413q11 -187 -84 -293t-259 -106q-112 0 -195 53.5
t-122.5 134t-40.5 174.5q0 96 40 178.5t123 136.5t195 54z" />
    <glyph glyph-name="gcommaaccent" unicode="&#x123;" horiz-adv-x="583" 
d="M233 713h106q-29 -86 3 -158h-130q-11 41 -7 79t28 79zM364 11v15q-16 -17 -44.5 -25.5t-50.5 -8.5q-112 0 -178.5 76.5t-66.5 187.5q0 110 62 184.5t161 74.5q88 0 135 -60l12 52h101v-501q0 -98 -65.5 -149.5t-160.5 -51.5q-134 0 -224 90l64 81q32 -35 92.5 -51.5
t111.5 4t51 82.5zM358 131v229q-30 38 -76 38q-57 0 -89 -39t-32 -103q0 -72 35 -108.5t95 -36.5q39 0 67 20z" />
    <glyph glyph-name="Hcircumflex" unicode="&#x124;" horiz-adv-x="678" 
d="M433 0v282h-219v-282h-146v700h146v-284h219v284h146v-700h-146zM155 751l112 142h115l110 -142h-116l-53 57l-55 -57h-113z" />
    <glyph glyph-name="hcircumflex" unicode="&#x125;" horiz-adv-x="596" 
d="M-46 751l112 142h115l110 -142h-116l-53 57l-55 -57h-113zM51 700h137v-213q51 34 130 27q85 -8 140 -70t55 -156v-288h-137v287q0 71 -63 100.5t-125 -11.5v-376h-137v700z" />
    <glyph glyph-name="Hbar" unicode="&#x126;" horiz-adv-x="678" 
d="M15 493v107h53v103h146v-103h219v103h146v-103h54v-107h-54v-493h-146v282h-219v-282h-146v493h-53zM214 416h219v77h-219v-77z" />
    <glyph glyph-name="hbar" unicode="&#x127;" horiz-adv-x="596" 
d="M51 700h137v-62h105v-86h-105v-65q51 34 130 27q85 -8 140 -70t55 -156v-288h-137v287q0 71 -63 100.5t-125 -11.5v-376h-137v552h-51v86h51v62z" />
    <glyph glyph-name="Itilde" unicode="&#x128;" horiz-adv-x="274" 
d="M53 0v703h145v-703h-145zM223 880l64 -49q-44 -86 -105 -84q-17 0 -39.5 12.5t-38.5 22t-37.5 3.5t-41.5 -36l-66 52q53 84 120 84q19 0 40.5 -12t35 -21.5t32 -4.5t36.5 33z" />
    <glyph glyph-name="itilde" unicode="&#x129;" horiz-adv-x="253" 
d="M42 507h137v-507h-137v507zM199 693l60 -46q-41 -82 -98 -80q-16 0 -37 11.5t-35.5 21t-34.5 3.5t-39 -34l-62 49q50 80 112 80q18 0 38 -11.5t32.5 -20.5t29.5 -4.5t34 31.5z" />
    <glyph glyph-name="Imacron" unicode="&#x12a;" horiz-adv-x="274" 
d="M-22 753v104h301v-104h-301zM53 0v703h145v-703h-145z" />
    <glyph glyph-name="imacron" unicode="&#x12b;" horiz-adv-x="253" 
d="M-23 577v106h266v-106h-266zM42 507h137v-507h-137v507z" />
    <glyph glyph-name="Ibreve" unicode="&#x12c;" horiz-adv-x="274" 
d="M53 0v703h145v-703h-145zM-14 877h95q2 -18 16 -28.5t30 -10t29.5 10.5t15.5 29h96q0 -42 -21.5 -72.5t-52.5 -44.5t-67.5 -14t-67.5 13.5t-52 44t-21 72.5z" />
    <glyph glyph-name="ibreve" unicode="&#x12d;" horiz-adv-x="253" 
d="M42 507h137v-507h-137v507zM-30 694h95q2 -18 16 -28.5t30 -10t29.5 10.5t15.5 29h96q0 -42 -21.5 -72.5t-52.5 -44.5t-67.5 -14t-67.5 13.5t-52 44t-21 72.5z" />
    <glyph glyph-name="Iogonek" unicode="&#x12e;" horiz-adv-x="274" 
d="M53 703h145v-704q-47 -13 -55 -41q-8 -25 23 -34q23 -7 60 1l-59 -84q-11 -3 -36 -1t-51 6t-47.5 22t-24.5 47q-8 50 45 90v698z" />
    <glyph glyph-name="iogonek" unicode="&#x12f;" horiz-adv-x="252" 
d="M38 539v147h141v-147h-141zM42 507h137v-508q-30 -13 -39.5 -32.5t8.5 -31.5t57 -6l-50 -85q-44 -5 -80.5 8t-54 36.5t-13.5 54t35 57.5v507z" />
    <glyph glyph-name="Idotaccent" unicode="&#x130;" horiz-adv-x="274" 
d="M53 757v133h146v-133h-146zM53 0v703h145v-703h-145z" />
    <glyph glyph-name="dotlessi" unicode="&#x131;" horiz-adv-x="254" 
d="M42 507h137v-507h-137v507z" />
    <glyph glyph-name="IJ" unicode="&#x132;" horiz-adv-x="613" 
d="M249 -5v132q145 -5 145 84v366h-120v123h266v-489q0 -112 -80.5 -168.5t-210.5 -47.5zM53 0v703h145v-703h-145z" />
    <glyph glyph-name="ij" unicode="&#x133;" horiz-adv-x="524" 
d="M188 0h-137v512h137v-512zM237 -187v112q66 -6 66 51v530h137v-530q0 -100 -55.5 -139t-147.5 -24zM440 565h-136v135h136v-135zM187 565h-136v135h136v-135z" />
    <glyph glyph-name="Jcircumflex" unicode="&#x134;" horiz-adv-x="535" 
d="M-14 201l131 35q13 -50 34.5 -78t38 -34t36.5 -6q33 0 60 25t27 70v356h-121v131h265v-487q0 -105 -69 -164.5t-161 -59.5q-203 0 -241 212zM137 751l112 142h115l110 -142h-116l-53 57l-55 -57h-113z" />
    <glyph glyph-name="jcircumflex" unicode="&#x135;" horiz-adv-x="273" 
d="M-19 -187v112q66 -6 66 51v530h137v-530q0 -100 -55.5 -139t-147.5 -24zM-51 559l112 142h115l110 -142h-116l-53 57l-55 -57h-113z" />
    <glyph glyph-name="Kcommaaccent" unicode="&#x136;" horiz-adv-x="620" 
d="M255 1h122q10 -50 4.5 -98t-32.5 -95h-102q37 97 8 193zM55 703h145v-275l239 275h173l-269 -323l271 -380h-168l-207 281l-39 -39v-242h-145v703z" />
    <glyph glyph-name="kcommaaccent" unicode="&#x137;" horiz-adv-x="507" 
d="M201 -18h122q8 -45 1.5 -88.5t-33.5 -91.5h-101q17 53 20 85.5t-9 94.5zM40 700h133v-366l164 174h163l-205 -215l211 -293h-151l-149 210l-33 -34v-176h-133v700z" />
    <glyph glyph-name="kgreenlandic" unicode="&#x138;" horiz-adv-x="507" 
d="M40 506h133v-172l164 174h163l-205 -215l211 -293h-151l-149 210l-33 -34v-176h-133v506z" />
    <glyph glyph-name="Lacute" unicode="&#x139;" horiz-adv-x="469" 
d="M443 134v-134h-389v700h145v-566h244zM304 904l-113 -154h-127l86 154h154z" />
    <glyph glyph-name="lacute" unicode="&#x13a;" horiz-adv-x="277" 
d="M244 111v-112q-92 -15 -149.5 24t-57.5 139v538h137v-538q0 -57 70 -51zM279 904l-113 -154h-120l86 154h147z" />
    <glyph glyph-name="Lcommaaccent" unicode="&#x13b;" horiz-adv-x="469" 
d="M178 -34h124q9 -54 3.5 -93t-31.5 -83h-108q19 51 22 81t-10 95zM443 134v-134h-389v700h145v-566h244z" />
    <glyph glyph-name="lcommaaccent" unicode="&#x13c;" horiz-adv-x="277" 
d="M244 111v-112q-92 -15 -149.5 24t-57.5 139v538h137v-538q0 -57 70 -51zM97 -32h119q10 -54 4 -94t-32 -84h-103q20 53 23 81.5t-11 96.5z" />
    <glyph glyph-name="Lcaron" unicode="&#x13d;" horiz-adv-x="469" 
d="M275 700h122q27 -95 -22 -192h-107q21 60 22.5 96t-15.5 96zM443 134v-134h-389v700h145v-566h244z" />
    <glyph glyph-name="lcaron" unicode="&#x13e;" horiz-adv-x="308" 
d="M244 111v-112q-92 -15 -149.5 24t-57.5 139v538h137v-538q0 -57 70 -51zM216 700h115q27 -95 -22 -192h-100q36 100 7 192z" />
    <glyph glyph-name="Ldot" unicode="&#x13f;" horiz-adv-x="468" 
d="M273 330v127h125v-127h-125zM443 134v-134h-389v700h145v-566h244z" />
    <glyph glyph-name="ldot" unicode="&#x140;" horiz-adv-x="339" 
d="M244 111v-112q-92 -15 -149.5 24t-57.5 139v538h137v-538q0 -57 70 -51zM216 336v121h114v-121h-114z" />
    <glyph glyph-name="Lslash" unicode="&#x141;" horiz-adv-x="468" 
d="M-1 232v117l55 31v320h145v-237l106 60v-117l-106 -60v-212h244v-134h-389v263z" />
    <glyph glyph-name="lslash" unicode="&#x142;" horiz-adv-x="277" 
d="M-9 225v116l46 26v333h137v-254l75 43v-116l-75 -43v-168q0 -57 70 -51v-112q-92 -15 -149.5 24t-57.5 139v89z" />
    <glyph glyph-name="Nacute" unicode="&#x143;" horiz-adv-x="746" 
d="M68 704h184l209 -419l56 -142l9 1l-27 182v378h143v-704h-184l-207 419l-54 147l-9 -1l25 -188v-377h-145v704zM525 907l-113 -154h-127l86 154h154z" />
    <glyph glyph-name="nacute" unicode="&#x144;" 
d="M429 707l-104 -142h-120l79 142h145zM51 507h112l20 -45q43 57 135 52q86 -5 144.5 -65.5t58.5 -155.5v-293h-137v287q0 49 -32.5 80.5t-76 32.5t-87.5 -24v-376h-137v507z" />
    <glyph glyph-name="Ncommaaccent" unicode="&#x145;" horiz-adv-x="746" 
d="M68 704h184l209 -419l56 -142l9 1l-27 182v378h143v-704h-184l-207 419l-54 147l-9 -1l25 -188v-377h-145v704zM296 -27h124q16 -101 -28 -176h-108q19 51 22 81t-10 95z" />
    <glyph glyph-name="ncommaaccent" unicode="&#x146;" 
d="M226 -21h124q16 -101 -28 -176h-108q19 51 22 81t-10 95zM51 507h112l20 -45q43 57 135 52q86 -5 144.5 -65.5t58.5 -155.5v-293h-137v287q0 49 -32.5 80.5t-76 32.5t-87.5 -24v-376h-137v507z" />
    <glyph glyph-name="Ncaron" unicode="&#x147;" horiz-adv-x="746" 
d="M68 704h184l209 -419l56 -142l9 1l-27 182v378h143v-704h-184l-207 419l-54 147l-9 -1l25 -188v-377h-145v704zM529 895l-112 -142h-115l-110 142h116l53 -57l55 57h113z" />
    <glyph glyph-name="ncaron" unicode="&#x148;" 
d="M452 708l-112 -142h-115l-110 142h116l53 -57l55 57h113zM51 507h112l20 -45q43 57 135 52q86 -5 144.5 -65.5t58.5 -155.5v-293h-137v287q0 49 -32.5 80.5t-76 32.5t-87.5 -24v-376h-137v507z" />
    <glyph glyph-name="napostrophe" unicode="&#x149;" horiz-adv-x="653" 
d="M-26 702h126q16 -59 12 -99t-31 -93l-107 -2q41 105 0 194zM99 507h112l20 -45q43 57 135 52q86 -5 144.5 -65.5t58.5 -155.5v-293h-137v287q0 49 -32.5 80.5t-76 32.5t-87.5 -24v-376h-137v507z" />
    <glyph glyph-name="Eng" unicode="&#x14a;" horiz-adv-x="742" 
d="M68 704h184l209 -383l61 -155l6 1l-29 195v342h140v-725q0 -99 -67.5 -141.5t-165.5 -25.5v109q48 -7 68.5 11t22.5 45v23h-6l-240 419l-54 147l-9 -1l25 -188v-377h-145v704z" />
    <glyph glyph-name="eng" unicode="&#x14b;" 
d="M51 507h112l20 -45q43 57 135 52q86 -5 144.5 -65.5t58.5 -155.5v-310q0 -81 -47.5 -126.5t-128.5 -45.5q-16 0 -47 3v101q86 -10 86 68v304q0 49 -32.5 80.5t-76 32.5t-87.5 -24v-376h-137v507z" />
    <glyph glyph-name="Omacron" unicode="&#x14c;" horiz-adv-x="811" 
d="M234 764v108h302v-108h-302zM385 717q151 0 256 -104t105 -264q0 -162 -105 -265t-256 -103t-256 102.5t-105 265.5q0 162 105 265t256 103zM170 349q0 -111 64.5 -174.5t150.5 -63.5q87 0 151 62.5t64 175.5q0 111 -64.5 175t-151.5 63q-86 -1 -150 -64.5t-64 -173.5z
" />
    <glyph glyph-name="omacron" unicode="&#x14d;" horiz-adv-x="613" 
d="M140 580v107h291v-107h-291zM155 253q0 -65 41.5 -103.5t92.5 -38.5q52 0 92 38t40 104q0 69 -39.5 105.5t-92.5 36.5q-51 0 -92.5 -37.5t-41.5 -104.5zM556 253q0 -116 -76 -191.5t-191 -75.5t-191.5 75.5t-76.5 191.5q0 119 76.5 193.5t191.5 74.5q116 0 191.5 -74.5
t75.5 -193.5z" />
    <glyph glyph-name="Obreve" unicode="&#x14e;" horiz-adv-x="811" 
d="M385 717q151 0 256 -104t105 -264q0 -162 -105 -265t-256 -103t-256 102.5t-105 265.5q0 162 105 265t256 103zM170 349q0 -111 64.5 -174.5t150.5 -63.5q87 0 151 62.5t64 175.5q0 111 -64.5 175t-151.5 63q-86 -1 -150 -64.5t-64 -173.5zM243 890h95q2 -18 16 -28.5
t30 -10t29.5 10.5t15.5 29h96q0 -42 -21.5 -72.5t-52.5 -44.5t-67.5 -14t-67.5 13.5t-52 44t-21 72.5z" />
    <glyph glyph-name="obreve" unicode="&#x14f;" horiz-adv-x="613" 
d="M155 253q0 -65 41.5 -103.5t92.5 -38.5q52 0 92 38t40 104q0 69 -39.5 105.5t-92.5 36.5q-51 0 -92.5 -37.5t-41.5 -104.5zM556 253q0 -116 -76 -191.5t-191 -75.5t-191.5 75.5t-76.5 191.5q0 119 76.5 193.5t191.5 74.5q116 0 191.5 -74.5t75.5 -193.5zM145 694h95
q2 -18 16 -28.5t30 -10t29.5 10.5t15.5 29h96q0 -42 -21.5 -72.5t-52.5 -44.5t-67.5 -14t-67.5 13.5t-52 44t-21 72.5z" />
    <glyph glyph-name="Ohungarumlaut" unicode="&#x150;" horiz-adv-x="811" 
d="M238 761l80 141h129l-101 -141h-108zM385 717q151 0 256 -104t105 -264q0 -162 -105 -265t-256 -103t-256 102.5t-105 265.5q0 162 105 265t256 103zM170 349q0 -111 64.5 -174.5t150.5 -63.5q87 0 151 62.5t64 175.5q0 111 -64.5 175t-151.5 63q-86 -1 -150 -64.5
t-64 -173.5zM409 761l80 141h130l-101 -141h-109z" />
    <glyph glyph-name="ohungarumlaut" unicode="&#x151;" horiz-adv-x="613" 
d="M155 253q0 -65 41.5 -103.5t92.5 -38.5q52 0 92 38t40 104q0 69 -39.5 105.5t-92.5 36.5q-51 0 -92.5 -37.5t-41.5 -104.5zM556 253q0 -116 -76 -191.5t-191 -75.5t-191.5 75.5t-76.5 191.5q0 119 76.5 193.5t191.5 74.5q116 0 191.5 -74.5t75.5 -193.5zM143 563l80 141
h129l-101 -141h-108zM314 563l80 141h130l-101 -141h-109z" />
    <glyph glyph-name="OE" unicode="&#x152;" horiz-adv-x="956" 
d="M400 715q37 0 92 -15h369v-124h-274v-160h271v-129h-271l-1 -157h275v-129l-363 1q-127 -28 -234 1.5t-173.5 119.5t-66.5 226q0 113 53.5 198t138 126.5t184.5 41.5zM456 103v491q-118 23 -203 -46t-85 -199q0 -133 84.5 -200.5t203.5 -45.5z" />
    <glyph glyph-name="oe" unicode="&#x153;" horiz-adv-x="1036" 
d="M818 151l77 -68q-86 -95 -202 -95q-126 0 -192 96q-78 -100 -199 -100q-115 0 -191.5 75.5t-76.5 191.5q0 119 76.5 193.5t191.5 74.5q129 0 200 -99q68 96 190 96q110 1 180.5 -71.5t70.5 -180.5q0 -20 -6 -68h-370q12 -50 56 -76t98.5 -17.5t96.5 48.5zM168 251
q0 -65 41.5 -103.5t92.5 -38.5q54 0 96 37.5t42 104.5q0 71 -41.5 106.5t-96.5 35.5q-51 0 -92.5 -37.5t-41.5 -104.5zM567 301h242q-8 49 -40.5 73t-75.5 24q-44 0 -81 -25t-45 -72z" />
    <glyph glyph-name="Racute" unicode="&#x154;" 
d="M405 267l198 -267h-164l-190 258h-36v-258h-145v701h237q113 0 181.5 -55t69.5 -169q1 -86 -39.5 -139t-111.5 -71zM213 383h93q48 0 77 25.5t29 68.5q0 44 -29.5 70.5t-76.5 26.5h-93v-191zM438 905l-113 -154h-127l86 154h154z" />
    <glyph glyph-name="racute" unicode="&#x155;" horiz-adv-x="410" 
d="M47 512h111l11 -53q44 55 114 58t119 -42l-58 -103q-48 34 -105 18.5t-57 -74.5v-316h-135v512zM368 701l-102 -143h-113l77 143h138z" />
    <glyph glyph-name="Rcommaaccent" unicode="&#x156;" 
d="M260 -6h123q14 -61 9.5 -100.5t-30.5 -88.5h-109q20 58 21 95.5t-14 93.5zM405 267l198 -267h-164l-190 258h-36v-258h-145v701h237q113 0 181.5 -55t69.5 -169q1 -86 -39.5 -139t-111.5 -71zM213 383h93q48 0 77 25.5t29 68.5q0 44 -29.5 70.5t-76.5 26.5h-93v-191z" />
    <glyph glyph-name="rcommaaccent" unicode="&#x157;" horiz-adv-x="410" 
d="M47 512h111l11 -53q44 55 114 58t119 -42l-58 -103q-48 34 -105 18.5t-57 -74.5v-316h-135v512zM54 -26h122q10 -53 4.5 -89t-29.5 -82h-109q35 89 12 171z" />
    <glyph glyph-name="Rcaron" unicode="&#x158;" 
d="M405 267l198 -267h-164l-190 258h-36v-258h-145v701h237q113 0 181.5 -55t69.5 -169q1 -86 -39.5 -139t-111.5 -71zM213 383h93q48 0 77 25.5t29 68.5q0 44 -29.5 70.5t-76.5 26.5h-93v-191zM464 892l-112 -142h-115l-110 142h116l53 -57l55 57h113z" />
    <glyph glyph-name="rcaron" unicode="&#x159;" horiz-adv-x="410" 
d="M47 512h111l11 -53q44 55 114 58t119 -42l-58 -103q-48 34 -105 18.5t-57 -74.5v-316h-135v512zM377 693l-105 -131h-107l-103 131h106l52 -54l53 54h104z" />
    <glyph glyph-name="Sacute" unicode="&#x15a;" horiz-adv-x="550" 
d="M464 586l-108 -62q-34 61 -99 61q-34 1 -59 -17t-27 -55q-1 -24 17.5 -43t38 -27.5t46.5 -16.5q47 -12 82 -27.5t69 -42.5t51.5 -69.5t15.5 -99.5q-3 -66 -40.5 -113t-90 -68t-111.5 -21q-71 0 -136 38t-105 130l110 63q24 -51 61.5 -76.5t72.5 -25.5q41 -1 67.5 22.5
t28.5 58.5q3 45 -29.5 69.5t-80.5 37.5q-210 53 -208 210q2 99 69.5 151.5t158.5 52.5q139 0 206 -130zM412 908l-107 -146h-121l82 146h146z" />
    <glyph glyph-name="sacute" unicode="&#x15b;" horiz-adv-x="429" 
d="M182 320q6 -2 16.5 -4t11.5 -2q76 -13 127.5 -53.5t51.5 -110.5q0 -43 -19 -76t-49 -51t-63 -27t-67 -9q-118 0 -193 99l75 78q46 -54 120 -57q22 -1 41.5 11.5t19.5 31.5q0 34 -50 44q-3 1 -10 2l-5 1q-70 13 -119.5 54.5t-50.5 109.5q0 74 56 117t134 43q95 0 171 -79
l-73 -74q-45 34 -99 34q-21 0 -40.5 -12t-19.5 -34q0 -12 10 -22t24 -14zM351 700l-100 -136h-113l77 136h136z" />
    <glyph glyph-name="Scircumflex" unicode="&#x15c;" horiz-adv-x="549" 
d="M464 586l-108 -62q-34 61 -99 61q-34 1 -59 -17t-27 -55q-1 -24 17.5 -43t38 -27.5t46.5 -16.5q47 -12 82 -27.5t69 -42.5t51.5 -69.5t15.5 -99.5q-3 -66 -40.5 -113t-90 -68t-111.5 -21q-71 0 -136 38t-105 130l110 63q24 -51 61.5 -76.5t72.5 -25.5q41 -1 67.5 22.5
t28.5 58.5q3 45 -29.5 69.5t-80.5 37.5q-210 53 -208 210q2 99 69.5 151.5t158.5 52.5q139 0 206 -130zM92 759l112 142h115l110 -142h-116l-53 57l-55 -57h-113z" />
    <glyph glyph-name="scircumflex" unicode="&#x15d;" horiz-adv-x="429" 
d="M182 320q6 -2 16.5 -4t11.5 -2q76 -13 127.5 -53.5t51.5 -110.5q0 -43 -19 -76t-49 -51t-63 -27t-67 -9q-118 0 -193 99l75 78q46 -54 120 -57q22 -1 41.5 11.5t19.5 31.5q0 34 -50 44q-3 1 -10 2l-5 1q-70 13 -119.5 54.5t-50.5 109.5q0 74 56 117t134 43q95 0 171 -79
l-73 -74q-45 34 -99 34q-21 0 -40.5 -12t-19.5 -34q0 -12 10 -22t24 -14zM45 564l108 138h112l106 -138h-110l-53 58l-57 -58h-106z" />
    <glyph glyph-name="Scedilla" unicode="&#x15e;" horiz-adv-x="550" 
d="M464 586l-108 -62q-34 61 -99 61q-34 1 -59 -17t-27 -55q-1 -24 17.5 -43t38 -27.5t46.5 -16.5q47 -12 82 -27.5t69 -42.5t51.5 -69.5t15.5 -99.5q-4 -81 -56.5 -131.5t-128.5 -64.5l-16 -32q28 -1 46.5 -11t24 -23.5t8 -27.5t-1.5 -21q-9 -47 -52 -70t-97.5 -17
t-95.5 39l27 60q59 -36 99 -19q25 9 19 28q-8 26 -68 24l-20 -2l34 68q-141 17 -205 166l110 63q24 -51 61.5 -76.5t72.5 -25.5q41 -1 67.5 22.5t28.5 58.5q3 45 -29.5 69.5t-80.5 37.5q-210 53 -208 210q2 99 69.5 151.5t158.5 52.5q139 0 206 -130z" />
    <glyph glyph-name="scedilla" unicode="&#x15f;" horiz-adv-x="429" 
d="M182 320q6 -2 16.5 -4t11.5 -2q76 -13 127.5 -53.5t51.5 -110.5q0 -67 -42 -106t-103 -51l-13 -26q21 -2 35.5 -9.5t20 -16.5t7.5 -20.5t2 -16t-1 -9.5q-12 -62 -84 -74.5t-127 32.5l21 54q55 -33 90 -17q21 10 11 25q-13 22 -72 14l29 60q-102 12 -165 97l75 78
q46 -54 120 -57q22 -1 41.5 11.5t19.5 31.5q0 34 -50 44q-3 1 -10 2l-5 1q-70 13 -119.5 54.5t-50.5 109.5q0 74 56 117t134 43q95 0 171 -79l-73 -74q-45 34 -99 34q-21 0 -40.5 -12t-19.5 -34q0 -12 10 -22t24 -14z" />
    <glyph glyph-name="Scaron" unicode="&#x160;" horiz-adv-x="550" 
d="M464 586l-108 -62q-34 61 -99 61q-34 1 -59 -17t-27 -55q-1 -24 17.5 -43t38 -27.5t46.5 -16.5q47 -12 82 -27.5t69 -42.5t51.5 -69.5t15.5 -99.5q-3 -66 -40.5 -113t-90 -68t-111.5 -21q-71 0 -136 38t-105 130l110 63q24 -51 61.5 -76.5t72.5 -25.5q41 -1 67.5 22.5
t28.5 58.5q3 45 -29.5 69.5t-80.5 37.5q-210 53 -208 210q2 99 69.5 151.5t158.5 52.5q139 0 206 -130zM422 924l-111 -140h-113l-109 140h110l57 -66l58 66h108z" />
    <glyph glyph-name="scaron" unicode="&#x161;" horiz-adv-x="432" 
d="M185 320q6 -2 16.5 -4t11.5 -2q76 -13 127.5 -53.5t51.5 -110.5q0 -43 -19 -76t-49 -51t-63 -27t-67 -9q-118 0 -193 99l73 78q48 -56 122 -59q22 -1 41.5 12.5t19.5 32.5q0 34 -50 44q-3 1 -10 2l-5 1q-70 13 -119.5 54.5t-50.5 109.5q0 74 56 117t134 43q95 0 171 -79
l-73 -74q-49 37 -99 37q-20 0 -40 -13.5t-20 -35.5q0 -12 10 -22t24 -14zM382 729l-111 -140h-113l-109 140h110l57 -66l58 66h108z" />
    <glyph glyph-name="Tcommaaccent" unicode="&#x162;" horiz-adv-x="485" 
d="M5 702h461v-133h-157l-1 -604q35 -14 47.5 -41.5t10.5 -50.5q-9 -49 -56 -72.5t-105 -16t-100 42.5l27 63q63 -40 109 -19q28 12 22 32q-8 27 -72 21q-5 0 -11 -1l16 77h-33v569h-158v133z" />
    <glyph glyph-name="tcommaaccent" unicode="&#x163;" horiz-adv-x="303" 
d="M212 -3l-13 -27q33 -1 52.5 -18t23 -34.5t0.5 -30.5q-7 -46 -47.5 -68.5t-91 -15.5t-88.5 39l24 58q56 -37 93 -20q23 10 15 28q-14 27 -81 22l39 82q-93 39 -89 151v234h-56v110h56v193h133v-193h91v-110h-91v-231q0 -26 24.5 -40.5t66.5 -9.5v-116q-31 -4 -61 -3z" />
    <glyph glyph-name="Tcaron" unicode="&#x164;" horiz-adv-x="479" 
d="M5 702h461v-133h-157v-569h-146v569h-158v133zM404 893l-112 -142h-115l-110 142h116l53 -57l55 57h113z" />
    <glyph glyph-name="tcaron" unicode="&#x165;" horiz-adv-x="308" 
d="M236 716h113q8 -28 9.5 -53t-2.5 -46.5t-9.5 -36t-14.5 -33.5h-105q35 75 9 169zM273 0v116q-42 -5 -66.5 9.5t-24.5 40.5v231h91v110h-91v193h-133v-193h-56v-110h56v-234q-2 -64 30.5 -105.5t83 -54t110.5 -3.5z" />
    <glyph glyph-name="Tbar" unicode="&#x166;" horiz-adv-x="479" 
d="M5 702h461v-133h-157v-181h117v-113h-117v-275h-146v275h-117v113h117v181h-158v133z" />
    <glyph glyph-name="tbar" unicode="&#x167;" horiz-adv-x="297" 
d="M273 116v-116q-60 -9 -110.5 3.5t-83 54t-30.5 105.5v46h-47v91h47v97h-56v110h56v193h133v-193h91v-110h-91v-97h82v-91h-82v-43q0 -26 24.5 -40.5t66.5 -9.5z" />
    <glyph glyph-name="Utilde" unicode="&#x168;" horiz-adv-x="645" 
d="M58 700h146v-486q0 -50 32.5 -78.5t71 -28t71 29t32.5 77.5v486h145v-486q0 -50 -17.5 -92t-46 -69t-66 -46t-79 -23t-82.5 0t-78.5 23t-66 46t-45.5 69t-17 92v486zM408 876l63 -48q-41 -85 -101 -85q-17 0 -38.5 11.5t-37 20.5t-36 3t-39.5 -36l-65 51q49 83 115 85
q17 0 38 -10.5t35 -19t32 -3.5t34 31z" />
    <glyph glyph-name="utilde" unicode="&#x169;" horiz-adv-x="605" 
d="M380 703l63 -47q-41 -82 -101 -82q-17 0 -38.5 11t-36.5 20t-35.5 3t-39.5 -35l-65 50q49 80 115 82q17 0 37.5 -10t34.5 -18.5t32 -4t34 30.5zM515 0l-112 1l-21 46q-43 -58 -134 -53q-88 5 -145.5 61.5t-57.5 150.5v301h137v-295q0 -49 32 -78t75.5 -28t88.5 26v375
h137v-507z" />
    <glyph glyph-name="Umacron" unicode="&#x16a;" horiz-adv-x="644" 
d="M159 751v102h302v-102h-302zM58 700h146v-486q0 -50 32.5 -78.5t71 -28t71 29t32.5 77.5v486h145v-486q0 -50 -17.5 -92t-46 -69t-66 -46t-79 -23t-82.5 0t-78.5 23t-66 46t-45.5 69t-17 92v486z" />
    <glyph glyph-name="umacron" unicode="&#x16b;" horiz-adv-x="605" 
d="M143 587v107h287v-107h-287zM515 0l-112 1l-21 46q-43 -58 -134 -53q-88 5 -145.5 61.5t-57.5 150.5v301h137v-295q0 -49 32 -78t75.5 -28t88.5 26v375h137v-507z" />
    <glyph glyph-name="Ubreve" unicode="&#x16c;" horiz-adv-x="645" 
d="M58 700h146v-486q0 -50 32.5 -78.5t71 -28t71 29t32.5 77.5v486h145v-486q0 -50 -17.5 -92t-46 -69t-66 -46t-79 -23t-82.5 0t-78.5 23t-66 46t-45.5 69t-17 92v486zM164 877h95q2 -18 16 -28.5t30 -10t29.5 10.5t15.5 29h96q0 -42 -21.5 -72.5t-52.5 -44.5t-67.5 -14
t-67.5 13.5t-52 44t-21 72.5z" />
    <glyph glyph-name="ubreve" unicode="&#x16d;" horiz-adv-x="604" 
d="M145 694h95q2 -18 16 -28.5t30 -10t29.5 10.5t15.5 29h96q0 -42 -21.5 -72.5t-52.5 -44.5t-67.5 -14t-67.5 13.5t-52 44t-21 72.5zM515 0l-112 1l-21 46q-43 -58 -134 -53q-88 5 -145.5 61.5t-57.5 150.5v301h137v-295q0 -49 32 -78t75.5 -28t88.5 26v375h137v-507z" />
    <glyph glyph-name="Uring" unicode="&#x16e;" horiz-adv-x="645" 
d="M58 700h146v-486q0 -50 32.5 -78.5t71 -28t71 29t32.5 77.5v486h145v-486q0 -50 -17.5 -92t-46 -69t-66 -46t-79 -23t-82.5 0t-78.5 23t-66 46t-45.5 69t-17 92v486zM307 737q-46 0 -78.5 28t-32.5 73q0 46 32 73.5t79 27.5q46 0 78.5 -27.5t32.5 -73.5q0 -45 -33 -73
t-78 -28zM268 837q0 -13 11.5 -23t27.5 -10t27 10t11 25q0 14 -11 23.5t-27 9.5t-27.5 -10t-11.5 -25z" />
    <glyph glyph-name="uring" unicode="&#x16f;" horiz-adv-x="605" 
d="M282 528q-46 0 -77.5 26t-31.5 68q0 43 31 68.5t78 25.5q46 0 78 -25.5t32 -68.5q0 -42 -32 -68t-78 -26zM247 621q0 -12 10 -20.5t25 -8.5q16 0 25.5 8.5t9.5 22.5q0 12 -10 20.5t-25 8.5t-25 -9t-10 -22zM515 0l-112 1l-21 46q-43 -58 -134 -53q-88 5 -145.5 61.5
t-57.5 150.5v301h137v-295q0 -49 32 -78t75.5 -28t88.5 26v375h137v-507z" />
    <glyph glyph-name="Uhungarumlaut" unicode="&#x170;" horiz-adv-x="645" 
d="M58 700h146v-486q0 -50 32.5 -79t71 -29t71 28.5t32.5 79.5v486h145v-486q0 -50 -17.5 -92t-46 -69t-66 -46t-79 -23t-82.5 0t-78.5 23t-66 46t-45.5 69t-17 92v486zM164 749l80 141h129l-101 -141h-108zM331 749l80 141h130l-101 -141h-109z" />
    <glyph glyph-name="uhungarumlaut" unicode="&#x171;" horiz-adv-x="605" 
d="M130 562l78 138h126l-99 -138h-105zM293 562l78 138h127l-99 -138h-106zM515 0l-112 1l-21 46q-43 -58 -134 -53q-88 5 -145.5 61.5t-57.5 150.5v301h137v-295q0 -49 32 -78t75.5 -28t88.5 26v375h137v-507z" />
    <glyph glyph-name="Uogonek" unicode="&#x172;" horiz-adv-x="645" 
d="M58 700h146v-486q0 -50 32.5 -78.5t71 -28t71 29t32.5 77.5v486h145v-486q-1 -70 -33 -122t-86 -80l1 1q-37 -35 -21.5 -57.5t71.5 -10.5l-35 -95q-67 -19 -118 2t-51 74q0 35 28 55q-65 -1 -122 23.5t-94.5 79.5t-37.5 130v486z" />
    <glyph glyph-name="uogonek" unicode="&#x173;" horiz-adv-x="604" 
d="M515 0h-1q-27 -8 -37.5 -28t3.5 -36t51 -15l-24 -79q-61 -10 -100.5 15t-37.5 67t49 76h-15l-21 47q-43 -58 -134 -53q-88 5 -145.5 61.5t-57.5 150.5v301h137v-295q0 -49 32 -78t75.5 -28t88.5 26v375h137v-507z" />
    <glyph glyph-name="Wcircumflex" unicode="&#x174;" horiz-adv-x="985" 
d="M474 495l-18 -141l-92 -357h-194l-181 705h150l113 -462l17 -138h6l17 138l99 382h172l99 -382l17 -138h6l17 138l113 462h150l-181 -705h-194l-92 357l-18 141h-6zM306 744l112 142h115l110 -142h-116l-53 57l-55 -57h-113z" />
    <glyph glyph-name="wcircumflex" unicode="&#x175;" horiz-adv-x="781" 
d="M455 507l72 -254l18 -159h7l19 162l54 254h144l-130 -510h-181l-59 244l-18 149h-5l-18 -149l-60 -244h-181l-126 510h141l54 -254l19 -162h7l18 159l71 254h154zM210 565l112 142h115l110 -142h-116l-53 57l-55 -57h-113z" />
    <glyph glyph-name="Ycircumflex" unicode="&#x176;" horiz-adv-x="598" 
d="M287 381h3l32 84l123 240h163l-250 -448v-257h-144v257l-248 448h162l127 -240zM115 755l112 142h115l110 -142h-116l-53 57l-55 -57h-113z" />
    <glyph glyph-name="ycircumflex" unicode="&#x177;" horiz-adv-x="536" 
d="M264 142h5l23 111l90 254h148l-229 -594q-26 -67 -93 -89t-139 -8v103q66 -6 89 8.5t39 82.5l-209 497h148l104 -255zM94 563l112 142h115l110 -142h-116l-53 57l-55 -57h-113z" />
    <glyph glyph-name="Ydieresis" unicode="&#x178;" horiz-adv-x="579" 
d="M275 381h3l32 84l123 240h163l-250 -448v-257h-144v257l-248 448h162l127 -240zM229 756h-124v114h124v-114zM442 756h-124v114h124v-114z" />
    <glyph glyph-name="Zacute" unicode="&#x179;" horiz-adv-x="558" 
d="M501 705v-124l-194 -289l-129 -167l1 -5l95 8h236v-128h-471v132l209 309l113 143l-1 3l-114 -8h-191v126h446zM442 909l-113 -154h-127l86 154h154z" />
    <glyph glyph-name="zacute" unicode="&#x17a;" horiz-adv-x="458" 
d="M30 0v107l189 243l50 44l-1 4l-59 -6h-167v116h324l51 -83l-204 -272l-50 -44l1 -3l60 9h188v-115h-382zM375 702l-104 -141h-113l79 141h138z" />
    <glyph glyph-name="Zdotaccent" unicode="&#x17b;" horiz-adv-x="558" 
d="M221 794v108h123v-108h-123zM42 0v145l303 437l-105 -3h-190v126h452v-113l-324 -465l90 3h236v-130h-462z" />
    <glyph glyph-name="zdotaccent" unicode="&#x17c;" horiz-adv-x="458" 
d="M174 586v107h116v-107h-116zM33 0v100l143 200l85 93l-1 4l-59 -6h-160v116h362v-91l-151 -212l-75 -91l1 -3l48 5h178v-115h-371z" />
    <glyph glyph-name="Zcaron" unicode="&#x17d;" horiz-adv-x="558" 
d="M459 886l-111 -130h-114l-110 130h113l55 -58l59 58h108zM361 584l-1 3l-114 -8h-191v126h415l51 -94l-255 -379l-88 -107l1 -5l95 8h236v-128h-436l-64 89l286 424z" />
    <glyph glyph-name="zcaron" unicode="&#x17e;" horiz-adv-x="461" 
d="M33 0v100l143 200l85 93l-1 4l-59 -6h-160v116h362v-91l-151 -212l-75 -91l1 -3l48 5h178v-115h-371zM404 736l-111 -140h-113l-109 140h110l57 -66l58 66h108z" />
    <glyph glyph-name="longs" unicode="&#x17f;" horiz-adv-x="260" 
d="M280 685v-121q-89 6 -89 -38v-526h-138v387h-51v120h51v19q0 79 48.5 121t130.5 42q8 0 48 -4z" />
    <glyph glyph-name="florin" unicode="&#x192;" horiz-adv-x="514" 
d="M503 707l-21 -120q-91 12 -111 -84h94l-18 -113h-96l-82 -429q-9 -54 -37 -92.5t-67.5 -55.5t-87.5 -18.5t-95 18.5l21 105q47 -17 79.5 -2t45.5 68v-1q16 89 79 407h-82l20 113h84l7 33v-1q12 75 64 126t138 51q25 0 65 -5z" />
    <glyph glyph-name="Scommaaccent" unicode="&#x218;" horiz-adv-x="550" 
d="M464 586l-108 -62q-34 61 -99 61q-34 1 -59 -17t-27 -55q-1 -24 17.5 -43t38 -27.5t46.5 -16.5q47 -12 82 -27.5t69 -42.5t51.5 -69.5t15.5 -99.5q-3 -66 -40.5 -113t-90 -68t-111.5 -21q-71 0 -136 38t-105 130l110 63q24 -51 61.5 -76.5t72.5 -25.5q41 -1 67.5 22.5
t28.5 58.5q3 45 -29.5 69.5t-80.5 37.5q-210 53 -208 210q2 99 69.5 151.5t158.5 52.5q139 0 206 -130zM197 -44h120q16 -91 -25 -157h-108q18 45 20.5 75.5t-7.5 81.5z" />
    <glyph glyph-name="scommaaccent" unicode="&#x219;" horiz-adv-x="429" 
d="M182 320q6 -2 16.5 -4t11.5 -2q76 -13 127.5 -53.5t51.5 -110.5q0 -43 -19 -76t-49 -51t-63 -27t-67 -9q-118 0 -193 99l75 78q46 -54 120 -57q22 -1 41.5 11.5t19.5 31.5q0 34 -50 44q-3 1 -10 2l-5 1q-70 13 -119.5 54.5t-50.5 109.5q0 74 56 117t134 43q95 0 171 -79
l-73 -74q-45 34 -99 34q-21 0 -40.5 -12t-19.5 -34q0 -12 10 -22t24 -14zM144 -41h113q16 -88 -24 -153h-101q17 45 19.5 74t-7.5 79z" />
    <glyph glyph-name="uni021A" unicode="&#x21a;" horiz-adv-x="478" 
d="M5 702h461v-133h-157v-569h-146v569h-158v133zM178 -34h120q17 -99 -25 -167h-108q18 45 21 81t-8 86z" />
    <glyph glyph-name="uni021B" unicode="&#x21b;" horiz-adv-x="303" 
d="M273 116v-116q-60 -9 -110.5 3.5t-83 54t-30.5 105.5v234h-56v110h56v193h133v-193h91v-110h-91v-231q0 -26 24.5 -40.5t66.5 -9.5zM111 -36h120q17 -97 -25 -165h-108q18 45 20.5 80t-7.5 85z" />
    <glyph glyph-name="circumflex" unicode="&#x2c6;" horiz-adv-x="499" 
d="M65 728l112 142h115l110 -142h-118l-51 67l-56 -67h-112z" />
    <glyph glyph-name="caron" unicode="&#x2c7;" horiz-adv-x="499" 
d="M401 839l-111 -140h-113l-109 140h110l57 -66l58 66h108z" />
    <glyph glyph-name="breve" unicode="&#x2d8;" horiz-adv-x="499" 
d="M92 827h95q3 -29 24.5 -40t43 0.5t23.5 40.5h96q-1 -49 -30 -82.5t-70 -41.5t-82.5 -0.5t-70.5 41t-29 82.5z" />
    <glyph glyph-name="dotaccent" unicode="&#x2d9;" horiz-adv-x="500" 
d="M170 692v126h127v-126h-127z" />
    <glyph glyph-name="ring" unicode="&#x2da;" horiz-adv-x="500" 
d="M234 644q-46 0 -78.5 28t-32.5 73q0 46 32 73.5t79 27.5q46 0 78.5 -27.5t32.5 -73.5q0 -45 -33 -73t-78 -28zM185 744q0 -16 14.5 -28.5t34.5 -12.5t34 12.5t14 30.5q0 17 -14 29t-34 12t-34.5 -12.5t-14.5 -30.5z" />
    <glyph glyph-name="ogonek" unicode="&#x2db;" horiz-adv-x="499" 
d="M130 -61q-4 24 3 46.5t20 37t26.5 26t23.5 17.5l10 5l81 -27q-34 -28 -44 -56.5t13.5 -45t77.5 -8.5l-40 -78q-14 -5 -40.5 -2.5t-53.5 8t-49.5 26t-27.5 51.5z" />
    <glyph glyph-name="tilde" unicode="&#x2dc;" horiz-adv-x="480" 
d="M326 832l64 -49q-44 -86 -105 -84q-17 0 -39.5 12.5t-38.5 22t-37.5 3.5t-41.5 -36l-66 52q53 84 120 84q18 0 39.5 -11t36 -20.5t33 -4.5t35.5 31z" />
    <glyph glyph-name="hungarumlaut" unicode="&#x2dd;" horiz-adv-x="481" 
d="M60 660l80 141h129l-101 -141h-108zM231 660l80 141h130l-101 -141h-109z" />
    <glyph glyph-name="tonos" unicode="&#x384;" horiz-adv-x="499" 
d="M364 820l-113 -154h-127l86 154h154z" />
    <glyph glyph-name="dieresistonos" unicode="&#x385;" horiz-adv-x="499" 
d="M328 760l-76 -135h-96l54 135h118zM135 635h-113v114h113v-114zM462 635h-121v114h121v-114z" />
    <glyph glyph-name="Alphatonos" unicode="&#x386;" horiz-adv-x="649" 
d="M487 0l-59 188h-241l-59 -188h-154l238 707h188l242 -707h-155zM312 603h-8l-21 -114l-54 -168h157l-53 168zM163 711l-107 -149h-112l74 149h145z" />
    <glyph glyph-name="Epsilontonos" unicode="&#x388;" horiz-adv-x="637" 
d="M585 704v-128h-266v-160h262v-129h-262v-157h266v-129h-410v703h410zM45 555l107 149h-145l-74 -149h112z" />
    <glyph glyph-name="Etatonos" unicode="&#x389;" horiz-adv-x="793" 
d="M548 0v284h-219v-284h-146v703h146v-287h219v287h146v-703h-146zM49 554l107 149h-145l-74 -149h112z" />
    <glyph glyph-name="Iotatonos" unicode="&#x38a;" horiz-adv-x="400" 
d="M179 0v703h145v-703h-145zM160 704l-107 -149h-112l74 149h145z" />
    <glyph glyph-name="Omicrontonos" unicode="&#x38c;" horiz-adv-x="844" 
d="M419 717q151 0 256 -104t105 -264q0 -162 -105 -265t-256 -103t-256 102.5t-105 265.5q0 162 105 265t256 103zM204 349q0 -111 64.5 -174.5t150.5 -63.5q87 0 151 62.5t64 175.5q0 111 -64.5 175t-151.5 63q-86 -1 -150 -64.5t-64 -173.5zM50 562l109 149h-145l-74 -149
h110z" />
    <glyph glyph-name="Upsilontonos" unicode="&#x38e;" horiz-adv-x="789" 
d="M485 381h3l32 84l123 240h163l-250 -448v-257h-144v257l-248 448h162l127 -240zM43 555l109 149h-145l-74 -149h110z" />
    <glyph glyph-name="Omegatonos" unicode="&#x38f;" horiz-adv-x="816" 
d="M401 579q-95 0 -156.5 -64t-61.5 -159q0 -89 45 -155.5t129 -99.5l-12 -101h-321v121h138q-55 31 -87.5 100t-32.5 135q0 154 100.5 254t258.5 100t257.5 -100t99.5 -254q0 -66 -32 -133.5t-90 -102.5h142v-120h-317l-11 100q169 78 169 256q0 95 -61.5 159t-156.5 64z
M154 711l-109 -149h-110l74 149h145z" />
    <glyph glyph-name="iotadieresistonos" unicode="&#x390;" horiz-adv-x="290" 
d="M247 108v-107q-95 -7 -142.5 22.5t-48.5 121.5v362h137v-360q0 -39 54 -39zM219 713l-76 -135h-96l54 135h118zM35 588h-107v114h107v-114zM337 588h-105v114h105v-114z" />
    <glyph glyph-name="Alpha" unicode="&#x391;" horiz-adv-x="649" 
d="M487 0l-59 188h-241l-59 -188h-154l238 707h188l242 -707h-155zM312 603h-8l-21 -114l-54 -168h157l-53 168z" />
    <glyph glyph-name="Beta" unicode="&#x392;" horiz-adv-x="599" 
d="M208 430h89q50 3 71 41.5t0.5 75.5t-71.5 37h-89v-154zM297 308h-89v-181h89q51 0 79.5 28.5t28 62t-29.5 62t-78 28.5zM433 376v-3q53 -19 81.5 -67t27.5 -93q0 -107 -71 -160t-176 -53h-228v704h230q94 0 155.5 -52.5t61.5 -145.5q0 -36 -19.5 -72.5t-61.5 -57.5z" />
    <glyph glyph-name="Gamma" unicode="&#x393;" horiz-adv-x="508" 
d="M471 700v-121h-265v-579h-144v700h409z" />
    <glyph glyph-name="Delta" unicode="&#x394;" horiz-adv-x="649" 
d="M642 0h-668l238 707h188zM283 489l-122 -363h291l-119 363l-21 114h-8z" />
    <glyph glyph-name="Epsilon" unicode="&#x395;" horiz-adv-x="521" 
d="M469 704v-128h-266v-160h262v-129h-262v-157h266v-129h-410v703h410z" />
    <glyph glyph-name="Zeta" unicode="&#x396;" horiz-adv-x="558" 
d="M45 0v145l303 437l-105 -3h-191v126h453v-113l-324 -465l90 3h236v-130h-462z" />
    <glyph glyph-name="Eta" unicode="&#x397;" horiz-adv-x="678" 
d="M433 0v284h-219v-284h-146v703h146v-287h219v287h146v-703h-146z" />
    <glyph glyph-name="Theta" unicode="&#x398;" horiz-adv-x="810" 
d="M385 717q151 0 256 -104t105 -264q0 -162 -105 -265t-256 -103t-256 102.5t-105 265.5q0 162 105 265t256 103zM170 349q0 -111 64.5 -174.5t150.5 -63.5q87 0 151 62.5t64 175.5q0 111 -64.5 175t-151.5 63q-86 -1 -150 -64.5t-64 -173.5zM225 283v132h325v-132h-325z
" />
    <glyph glyph-name="Iota" unicode="&#x399;" horiz-adv-x="274" 
d="M53 0v703h145v-703h-145z" />
    <glyph glyph-name="Kappa" unicode="&#x39a;" horiz-adv-x="620" 
d="M55 703h145v-296l50 74l189 222h173l-269 -323l271 -380h-168l-207 284l-39 -39v-245h-145v703z" />
    <glyph glyph-name="Lambda" unicode="&#x39b;" horiz-adv-x="675" 
d="M325 605h-7l-19 -116l-161 -489h-154l243 707h188l247 -707h-155l-160 489z" />
    <glyph glyph-name="Mu" unicode="&#x39c;" horiz-adv-x="852" 
d="M364 108l-120 254l-62 191h-8l28 -198v-355h-141v704h185l175 -416l176 416h185v-704h-141v355l28 200h-8l-62 -193l-120 -254h-115z" />
    <glyph glyph-name="Nu" unicode="&#x39d;" horiz-adv-x="746" 
d="M68 704h184l209 -419l56 -142l9 1l-27 182v378h143v-704h-184l-207 419l-54 147l-9 -1l25 -188v-377h-145v704z" />
    <glyph glyph-name="Xi" unicode="&#x39e;" horiz-adv-x="522" 
d="M10 128h475v-128h-475v128zM480 572h-464v128h464v-128zM50 283v129h403v-129h-403z" />
    <glyph glyph-name="Omicron" unicode="&#x39f;" horiz-adv-x="810" 
d="M385 717q151 0 256 -104t105 -264q0 -162 -105 -265t-256 -103t-256 102.5t-105 265.5q0 162 105 265t256 103zM170 349q0 -111 64.5 -174.5t150.5 -63.5q87 0 151 62.5t64 175.5q0 111 -64.5 175t-151.5 63q-86 -1 -150 -64.5t-64 -173.5z" />
    <glyph glyph-name="Pi" unicode="&#x3a0;" horiz-adv-x="643" 
d="M553 0h-146v581h-197v-581h-144v700h487v-700z" />
    <glyph glyph-name="Rho" unicode="&#x3a1;" horiz-adv-x="573" 
d="M209 231v-231h-142v703h225q117 0 182.5 -71t65.5 -167t-65 -165t-182 -69h-84zM292 359q47 0 75.5 33.5t28.5 72.5q0 41 -28.5 76.5t-75.5 35.5h-83v-218h83z" />
    <glyph glyph-name="Sigma" unicode="&#x3a3;" horiz-adv-x="536" 
d="M340 376v-32l-163 -221h327v-123h-450l-57 69l194 289l-186 270l51 72h441v-122h-308z" />
    <glyph glyph-name="Tau" unicode="&#x3a4;" horiz-adv-x="489" 
d="M5 702h461v-124h-157v-578h-146v578h-158v124z" />
    <glyph glyph-name="Upsilon" unicode="&#x3a5;" horiz-adv-x="582" 
d="M278 377h3l32 84l123 240h163l-250 -448v-253h-144v253l-248 448h162l127 -240z" />
    <glyph glyph-name="Phi" unicode="&#x3a6;" horiz-adv-x="793" 
d="M311 638v72h143v-72q131 -4 204.5 -88.5t73.5 -196.5q0 -71 -30 -135t-95 -108t-153 -45v-72h-143v72q-67 0 -122 25.5t-89 67t-52 91.5t-18 102q0 71 30.5 134t96 106.5t154.5 46.5zM450 527v-351q67 -1 102 52t35 122q0 65 -37.5 120.5t-99.5 56.5zM174 352
q0 -67 36.5 -121t103.5 -55v351q-65 -2 -102.5 -56t-37.5 -119z" />
    <glyph glyph-name="Chi" unicode="&#x3a7;" horiz-adv-x="633" 
d="M631 700l-221 -350l223 -349h-169l-158 260l-157 -260h-170l223 349q-37 55 -111.5 176.5t-109.5 173.5h167l158 -254l157 254h168z" />
    <glyph glyph-name="Psi" unicode="&#x3a8;" horiz-adv-x="761" 
d="M297 257v443h143v-444q60 0 92.5 43.5t32.5 110.5v290h142v-290q0 -70 -27 -130.5t-89.5 -102.5t-150.5 -42v-135h-143v135q-87 0 -150.5 42t-91.5 102.5t-29 129.5v291h142v-290q0 -66 34.5 -109.5t94.5 -43.5z" />
    <glyph glyph-name="Omega" unicode="&#x3a9;" horiz-adv-x="797" 
d="M382 579q-95 0 -156.5 -64t-61.5 -159q0 -89 45 -155.5t129 -99.5l-12 -101h-321v121h138q-55 31 -87.5 100t-32.5 135q0 154 100.5 254t258.5 100t257.5 -100t99.5 -254q0 -66 -32 -133.5t-90 -102.5h142v-120h-317l-11 100q169 78 169 256q0 95 -61.5 159t-156.5 64z
" />
    <glyph glyph-name="Iotadieresis" unicode="&#x3aa;" horiz-adv-x="274" 
d="M53 0v703h145v-703h-145zM82 754h-124v114h124v-114zM295 754h-124v114h124v-114z" />
    <glyph glyph-name="Upsilondieresis" unicode="&#x3ab;" horiz-adv-x="582" 
d="M278 377h3l32 84l123 240h163l-250 -448v-253h-144v253l-248 448h162l127 -240zM231 748h-124v114h124v-114zM444 748h-124v114h124v-114z" />
    <glyph glyph-name="alphatonos" unicode="&#x3ac;" horiz-adv-x="566" 
d="M490 507v-507h-101l-12 52q-47 -60 -135 -60q-99 0 -162.5 76t-63.5 186t63.5 185.5t162.5 75.5q88 0 135 -60l12 52h101zM277 398q-59 0 -91.5 -38t-32.5 -106t33 -106.5t91 -38.5q46 0 76 38v213q-30 38 -76 38zM427 702l-109 -135h-123l83 135h149z" />
    <glyph glyph-name="epsilontonos" unicode="&#x3ad;" horiz-adv-x="419" 
d="M341 142l54 -94q-82 -58 -175 -58q-80 0 -139.5 34.5t-66.5 108.5q-5 41 19 76.5t67 51.5q-35 9 -53 41t-18 58q0 76 58 116.5t139 40.5q89 0 155 -54l-55 -82q-41 27 -101 27q-44 0 -63 -24t-1.5 -47.5t64.5 -23.5h98v-106h-99q-54 3 -77 -23t-1.5 -52.5t75.5 -25.5
q68 0 120 36zM370 702l-103 -127h-115l78 127h140z" />
    <glyph glyph-name="etatonos" unicode="&#x3ae;" 
d="M51 507h112l20 -45q43 57 135 52q86 -5 144.5 -65.5t58.5 -155.5v-293h-137v287q0 49 -32.5 80.5t-76 32.5t-87.5 -24v-376h-137v507zM441 702l-103 -127h-115l78 127h140z" />
    <glyph glyph-name="iotatonos" unicode="&#x3af;" horiz-adv-x="246" 
d="M231 1v107q-54 0 -54 39v360h-137v-362q1 -92 48.5 -121.5t142.5 -22.5zM258 702l-103 -127h-115l78 127h140z" />
    <glyph glyph-name="upsilondieresistonos" unicode="&#x3b0;" horiz-adv-x="567" 
d="M358 211v296h135v-292q1 -99 -61.5 -160.5t-162.5 -61.5q-95 0 -156.5 62t-60.5 160v292h135v-296q0 -37 17.5 -61.5t42 -30t49.5 1t43 31t19 59.5zM360 712l-76 -135h-96l54 135h118zM167 587h-113v114h113v-114zM494 587h-121v114h121v-114z" />
    <glyph glyph-name="alpha" unicode="&#x3b1;" horiz-adv-x="566" 
d="M490 507v-507h-101l-12 52q-47 -60 -135 -60q-99 0 -162.5 76t-63.5 186t63.5 185.5t162.5 75.5q88 0 135 -60l12 52h101zM277 398q-59 0 -91.5 -38t-32.5 -106t33 -106.5t91 -38.5q46 0 76 38v213q-30 38 -76 38z" />
    <glyph glyph-name="beta" unicode="&#x3b2;" horiz-adv-x="571" 
d="M190 509v-699h-141v699q0 91 62 142t150 51q89 0 149.5 -51.5t60.5 -145.5q0 -40 -18.5 -77.5t-62.5 -53.5q47 -11 77.5 -43.5t39 -61t8.5 -55.5q2 -80 -40 -137t-108.5 -77t-139.5 -2v128q48 -24 95 5t47 82q0 37 -28 65t-75 28h-39v118h39q32 0 51 26.5t17 54.5
q-3 51 -38.5 71.5t-70.5 1t-35 -68.5z" />
    <glyph glyph-name="gamma" unicode="&#x3b3;" horiz-adv-x="504" 
d="M248 162h4l20 80l92 265h136l-186 -482v-212h-130v212l-132 347q-5 16 -16.5 24t-39.5 8v103q89 2 124 -15t53 -76l59 -174z" />
    <glyph glyph-name="delta" unicode="&#x3b4;" horiz-adv-x="589" 
d="M536 240q0 -107 -72.5 -176.5t-185.5 -69.5q-108 0 -183.5 65t-75.5 179q0 54 40 111t116 71q-45 7 -76.5 43t-27.5 89q6 76 68 115t147 38q57 0 112 -17.5t92 -47.5l-59 -95q-19 16 -62.5 30.5t-82.5 14.5q-33 0 -57.5 -14t-25.5 -38q-2 -24 27 -40t60 -18
q108 -16 164 -65q82 -71 82 -175zM402 240q0 49 -35.5 85.5t-88.5 36.5q-50 0 -86.5 -35t-36.5 -87q0 -53 34 -87.5t89 -34.5q56 0 90 34t34 88z" />
    <glyph glyph-name="epsilon" unicode="&#x3b5;" horiz-adv-x="419" 
d="M341 142l54 -93q-82 -58 -175 -58q-81 0 -140 34t-66 108q-5 41 19 77t67 52q-36 10 -53.5 40t-17.5 62q0 76 57.5 114.5t139.5 38.5q92 0 155 -52l-55 -81q-41 25 -101 25q-44 0 -63 -23.5t-1.5 -47.5t64.5 -24h98v-106h-99q-54 3 -77 -22.5t-1.5 -52t75.5 -25.5
q70 0 120 34z" />
    <glyph glyph-name="zeta" unicode="&#x3b6;" horiz-adv-x="445" 
d="M437 700v-104q-43 -38 -70.5 -63.5t-74.5 -74t-74.5 -86t-49 -84t-19.5 -83.5q1 -27 8 -39.5t43 -31.5t115 -46q50 -21 73 -53t19 -69.5t-24.5 -76.5t-56.5 -79l-104 61q69 79 26 103q-65 17 -112 42t-70.5 47.5t-36.5 51t-15 45.5t-2 40q0 93 73.5 202t198.5 187h-256
v111h409z" />
    <glyph glyph-name="eta" unicode="&#x3b7;" 
d="M51 507h112l20 -45q43 57 135 52q86 -5 144.5 -65.5t58.5 -155.5v-293h-137v287q0 49 -32.5 80.5t-76 32.5t-87.5 -24v-376h-137v507z" />
    <glyph glyph-name="theta" unicode="&#x3b8;" horiz-adv-x="598" 
d="M545 347q0 -59 -15 -118.5t-44.5 -113.5t-81.5 -88t-118 -34q-65 0 -116.5 31t-83 82t-47.5 113t-16 128t16 127.5t47 113.5t82.5 83t115.5 31q82 0 143 -51.5t89.5 -131t28.5 -172.5zM408 304h-247q4 -77 35 -131t88 -54t87.5 52.5t36.5 132.5zM165 424h239
q-10 66 -39 110.5t-81 44.5q-51 0 -83 -47.5t-36 -107.5z" />
    <glyph glyph-name="iota" unicode="&#x3b9;" horiz-adv-x="257" 
d="M231 108v-107q-95 -7 -142.5 22.5t-48.5 121.5v362h137v-360q0 -39 54 -39z" />
    <glyph glyph-name="kappa" unicode="&#x3ba;" horiz-adv-x="508" 
d="M501 0v7v-7zM501 7v-7h-146l-149 209l-34 -34v-175h-132v507h132v-196l169 196h152v-8l-191 -216z" />
    <glyph glyph-name="lambda" unicode="&#x3bb;" horiz-adv-x="494" 
d="M57 593v106q94 4 136 -17t62 -71l170 -473q7 -16 17 -21.5t38 -5.5v-114q-58 -3 -93 7.5t-52.5 31.5t-32.5 61l-43 114l-28 118l-25 -107l-87 -222h-144l191 456l-27 95q-8 24 -25.5 33.5t-56.5 8.5z" />
    <glyph glyph-name="nu" unicode="&#x3bd;" horiz-adv-x="498" 
d="M226 89h7l20 134l91 284h143l-173 -507h-171l-172 507h143l90 -282z" />
    <glyph glyph-name="xi" unicode="&#x3be;" horiz-adv-x="436" 
d="M255 -25q-49 18 -77.5 30.5t-64 33.5t-54 42.5t-32 53.5t-13.5 72q0 102 102 152q-85 41 -85 135q1 89 62 151t156 62q115 0 181 -70l-71 -83q-32 33 -79 40.5t-83.5 -17.5t-36.5 -79q0 -35 20 -60t56 -25h126v-112h-137q-37 0 -56.5 -23t-19.5 -59q0 -29 12.5 -50.5
t35.5 -35.5t44.5 -22.5t51 -18t43.5 -15.5q60 -28 72 -77.5t-13 -98t-72 -92.5l-88 64q78 80 20 102z" />
    <glyph glyph-name="omicron" unicode="&#x3bf;" horiz-adv-x="613" 
d="M155 253q0 -42 14.5 -75.5t38 -51t52 -25.5t57 0t52 25.5t38 50.5t14.5 76q0 73 -41.5 113.5t-91.5 39.5t-91.5 -41.5t-41.5 -111.5zM556 253q0 -116 -76 -191.5t-191 -75.5t-191.5 75.5t-76.5 191.5q0 119 76.5 193.5t191.5 74.5q116 0 191.5 -74.5t75.5 -193.5z" />
    <glyph glyph-name="pi" unicode="&#x3c0;" horiz-adv-x="548" 
d="M48 507h427v-507h-137v395h-154v-395h-136v507z" />
    <glyph glyph-name="rho" unicode="&#x3c1;" horiz-adv-x="601" 
d="M318 -4q-42 -3 -81 12.5t-56 52.5l2 -104v-147h-133v449q2 103 65.5 178.5t177.5 76.5q115 -1 178.5 -75t64.5 -180q2 -105 -55 -181t-163 -82zM401 252q2 93 -52 129.5t-109.5 -2.5t-55.5 -129q0 -36 12 -65t30.5 -44t41.5 -22.5t46 -1t42.5 21.5t31.5 45t13 68z" />
    <glyph glyph-name="sigma1" unicode="&#x3c2;" horiz-adv-x="516" 
d="M467 440l-77 -85q-33 31 -76 40t-80 -3.5t-62.5 -49.5t-26.5 -90q-1 -64 40.5 -105.5t101.5 -39.5t107 52l78 -80q-41 -51 -87.5 -71t-107.5 -20q-123 0 -194.5 78t-71.5 187q1 109 73 188t193 80q56 0 100 -18t90 -63z" />
    <glyph glyph-name="sigma" unicode="&#x3c3;" horiz-adv-x="613" 
d="M556 253q0 -123 -74.5 -194t-192.5 -71q-115 0 -191.5 74.5t-76.5 190.5q0 118 76 190.5t192 72.5h308v-112h-118q36 -22 56.5 -62.5t20.5 -88.5zM155 253q0 -65 41.5 -102.5t92.5 -37.5q54 0 93 35.5t39 104.5q0 68 -39.5 105t-92.5 37q-51 0 -92.5 -37.5t-41.5 -104.5z
" />
    <glyph glyph-name="tau" unicode="&#x3c4;" horiz-adv-x="354" 
d="M305 105v-109q-214 -8 -220 154v256h-95v101h339v-101h-107v-255q0 -51 83 -46z" />
    <glyph glyph-name="upsilon" unicode="&#x3c5;" horiz-adv-x="567" 
d="M358 211v296h135v-292q1 -99 -61.5 -160.5t-162.5 -61.5q-95 0 -156.5 62t-60.5 160v292h135v-296q0 -37 17.5 -61.5t42 -30t49.5 1t43 31t19 59.5z" />
    <glyph glyph-name="phi" unicode="&#x3c6;" horiz-adv-x="654" 
d="M247 106v405q157 15 257 -51.5t100 -207.5q0 -108 -62.5 -177.5t-168.5 -76.5v-188h-124v186q-112 8 -172 80t-60 178q0 71 28 126.5t109 101.5l62 -83q-42 -26 -57.5 -60.5t-17.5 -84.5q-2 -53 25.5 -96t80.5 -52zM372 387v-281q41 3 69.5 32.5t36 70t1.5 80.5t-35 68.5
t-72 29.5z" />
    <glyph glyph-name="chi" unicode="&#x3c7;" horiz-adv-x="516" 
d="M246 330l107 177h148l-164 -252l166 -255h-155l-105 189l-113 -189h-150l167 254l-161 254h159z" />
    <glyph glyph-name="psi" unicode="&#x3c8;" horiz-adv-x="735" 
d="M283 108v417h133v-417q51 0 79 38t28 100v261h133v-260q0 -106 -66.5 -177.5t-173.5 -71.5v-161h-133v161q-103 0 -172.5 70t-69.5 179v260h135v-260q-1 -64 27.5 -101.5t79.5 -37.5z" />
    <glyph glyph-name="omega" unicode="&#x3c9;" horiz-adv-x="739" 
d="M435 415l26 99q110 -17 161.5 -89.5t51.5 -169.5q0 -112 -52.5 -185.5t-150.5 -74.5q-87 0 -121 76q-37 -76 -118 -76q-99 1 -151 73.5t-52 186.5q0 98 53 168.5t160 92.5l23 -99q-105 -25 -105 -162q0 -64 18.5 -99.5t53.5 -36.5q27 0 43.5 17.5t16.5 48.5v183h117v-182
q0 -64 62 -64q34 0 52.5 34.5t18.5 96.5q0 144 -107 162z" />
    <glyph glyph-name="iotadieresis" unicode="&#x3ca;" horiz-adv-x="246" 
d="M231 1v107q-54 0 -54 39v360h-137v-362q1 -92 48.5 -121.5t142.5 -22.5zM64 587h-117v114h117v-114zM265 587h-117v114h117v-114z" />
    <glyph glyph-name="upsilondieresis" unicode="&#x3cb;" horiz-adv-x="567" 
d="M358 211q-1 -35 -19 -59.5t-43 -31t-49.5 -1t-42 30t-17.5 61.5v296h-135v-292q-1 -98 60.5 -160t156.5 -62q100 0 162.5 61.5t61.5 160.5v292h-135v-296zM226 587h-124v114h124v-114zM439 587h-124v114h124v-114z" />
    <glyph glyph-name="omicrontonos" unicode="&#x3cc;" horiz-adv-x="613" 
d="M155 253q0 -42 14.5 -75.5t38 -51t52 -25.5t57 0t52 25.5t38 50.5t14.5 76q0 73 -41.5 113.5t-91.5 39.5t-91.5 -41.5t-41.5 -111.5zM556 253q0 -116 -76 -191.5t-191 -75.5t-191.5 75.5t-76.5 191.5q0 119 76.5 193.5t191.5 74.5q116 0 191.5 -74.5t75.5 -193.5z
M447 702l-109 -135h-123l83 135h149z" />
    <glyph glyph-name="upsilontonos" unicode="&#x3cd;" horiz-adv-x="567" 
d="M358 211v296h135v-292q1 -99 -61.5 -160.5t-162.5 -61.5q-95 0 -156.5 62t-60.5 160v292h135v-296q0 -37 17.5 -61.5t42 -30t49.5 1t43 31t19 59.5zM421 703l-100 -128h-113l76 128h137z" />
    <glyph glyph-name="omegatonos" unicode="&#x3ce;" horiz-adv-x="739" 
d="M435 415l26 99q110 -17 161.5 -89.5t51.5 -169.5q0 -112 -52.5 -185.5t-150.5 -74.5q-87 0 -121 76q-37 -76 -118 -76q-99 1 -151 73.5t-52 186.5q0 98 53 168.5t160 92.5l23 -99q-105 -25 -105 -162q0 -64 18.5 -99.5t53.5 -36.5q27 0 43.5 17.5t16.5 48.5v183h117v-182
q0 -64 62 -64q34 0 52.5 34.5t18.5 96.5q0 144 -107 162zM501 701l-98 -131h-112l76 131h134z" />
    <glyph glyph-name="afii10023" unicode="&#x401;" horiz-adv-x="521" 
d="M469 704v-128h-266v-160h262v-129h-262v-157h266v-129h-410v703h410zM226 756h-124v114h124v-114zM439 756h-124v114h124v-114z" />
    <glyph glyph-name="afii10051" unicode="&#x402;" horiz-adv-x="714" 
d="M2 702h461v-113h-157v-110q51 34 130 27q85 -8 140 -70t55 -156v-297q0 -81 -47.5 -126.5t-128.5 -45.5q-16 0 -47 3v101q47 -6 68 14t21 54v296q0 71 -64.5 100.5t-126.5 -11.5v-368h-146v589h-158v113z" />
    <glyph glyph-name="afii10052" unicode="&#x403;" horiz-adv-x="508" 
d="M471 700v-121h-265v-579h-144v700h409zM421 896l-104 -144h-112l78 144h138z" />
    <glyph glyph-name="afii10053" unicode="&#x404;" horiz-adv-x="704" 
d="M489 407v-116h-319q17 -85 73.5 -127.5t140.5 -42.5q122 0 193 105l98 -73q-59 -79 -134.5 -120t-156.5 -41q-161 0 -259.5 103.5t-98.5 251.5q0 149 96.5 255.5t261.5 106.5q158 0 271 -137l-92 -77q-47 49 -85 68t-94 19q-84 0 -140.5 -44.5t-70.5 -130.5h316z" />
    <glyph glyph-name="afii10054" unicode="&#x405;" horiz-adv-x="550" 
d="M464 586l-108 -59q-33 58 -99 58q-34 1 -59 -17t-27 -55q-1 -24 17.5 -43t38 -27.5t46.5 -16.5q47 -12 82 -27.5t69 -42.5t51.5 -69.5t15.5 -99.5q-3 -66 -40.5 -113t-90 -68t-111.5 -21q-71 0 -136 38t-105 130l110 63q24 -51 61.5 -76.5t72.5 -25.5q41 -1 67.5 22.5
t28.5 58.5q3 45 -29.5 69.5t-80.5 37.5q-210 53 -208 210q2 99 69.5 151.5t158.5 52.5q139 0 206 -130z" />
    <glyph glyph-name="afii10055" unicode="&#x406;" horiz-adv-x="274" 
d="M53 0v701h145v-701h-145z" />
    <glyph glyph-name="afii10056" unicode="&#x407;" horiz-adv-x="274" 
d="M53 0v700h145v-700h-145zM79 755h-121v114h121v-114zM290 755h-121v114h121v-114z" />
    <glyph glyph-name="afii10057" unicode="&#x408;" horiz-adv-x="535" 
d="M-14 193l122 35q8 -31 20.5 -53t24 -32.5t27 -16.5t24.5 -7t22 -1q33 0 60 24t27 69v372h-121v117h265v-489q0 -105 -69 -163.5t-161 -58.5q-204 0 -241 204z" />
    <glyph glyph-name="afii10058" unicode="&#x409;" horiz-adv-x="878" 
d="M505 700v-257h72q114 0 178 -66t64 -155t-64.5 -155.5t-178.5 -66.5h-210v591h-119q0 -37 -0.5 -114.5t-1.5 -114.5q-3 -115 -12 -157q-28 -122 -158 -202q-17 -10 -36 -20l-58 100q43 27 69.5 53.5t38.5 60.5t16 62t5 77v105q0 105 3 259h392zM576 326h-71v-208h71
q49 0 76.5 32.5t28 71.5t-27 71.5t-77.5 32.5z" />
    <glyph glyph-name="afii10059" unicode="&#x40a;" horiz-adv-x="909" 
d="M533 700v-274h74q115 0 178 -61.5t63 -148.5t-64 -151.5t-178 -64.5h-214v306h-177v-306h-143v700h143v-274h177v274h141zM606 306h-73v-185h73q41 0 69.5 19t35 46.5t-0.5 54.5t-35 46t-69 19z" />
    <glyph glyph-name="afii10060" unicode="&#x40b;" horiz-adv-x="714" 
d="M2 702h461v-119h-157v-104q51 34 130 27q85 -8 140 -70t55 -156v-280h-137v279q0 71 -63 100.5t-125 -11.5v-368h-146v583h-158v119z" />
    <glyph glyph-name="afii10061" unicode="&#x40c;" horiz-adv-x="620" 
d="M55 703h145v-275l239 275h173l-269 -323l271 -380h-168l-207 281l-39 -39v-242h-145v703zM457 877l-99 -129h-112l74 129h137z" />
    <glyph glyph-name="afii10062" unicode="&#x40e;" horiz-adv-x="549" 
d="M126 700l147 -318l130 318h154l-263 -598q-27 -61 -59.5 -81.5t-105.5 -20.5h-70v117h60q24 0 41 20.5t43 92.5l-236 470h159zM124 864h95q3 -29 24.5 -40t43 0.5t23.5 40.5h96q-1 -49 -30 -82.5t-70 -41.5t-82.5 -0.5t-70.5 41t-29 82.5z" />
    <glyph glyph-name="afii10145" unicode="&#x40f;" horiz-adv-x="642" 
d="M248 -116v116h-182v700h144v-580h200v580h143v-700h-169v-116h-136z" />
    <glyph glyph-name="bgA" unicode="&#x410;" horiz-adv-x="649" 
d="M487 0l-59 188h-241l-59 -188h-154l238 707h188l242 -707h-155zM312 603h-8l-21 -114l-54 -168h157l-53 168z" />
    <glyph glyph-name="afii10018" unicode="&#x411;" horiz-adv-x="581" 
d="M206 577v-126h72q67 0 120 -24.5t80 -64t39.5 -87.5t-0.5 -96.5t-40.5 -88.5t-80 -65t-118.5 -25h-216v700h405v-123h-261zM278 327h-72v-202h72q47 1 73.5 32.5t26.5 70.5t-26.5 69t-73.5 30z" />
    <glyph glyph-name="afii10019" unicode="&#x412;" horiz-adv-x="599" 
d="M208 430h89q50 3 71 41.5t0.5 75.5t-71.5 37h-89v-154zM297 308h-89v-181h89q51 0 79.5 28.5t28 62t-29.5 62t-78 28.5zM433 376v-3q53 -19 81.5 -67t27.5 -93q0 -107 -71 -160t-176 -53h-228v704h230q94 0 155.5 -52.5t61.5 -145.5q0 -36 -19.5 -72.5t-61.5 -57.5z" />
    <glyph glyph-name="afii10020" unicode="&#x413;" horiz-adv-x="508" 
d="M471 700v-121h-265v-579h-144v700h409z" />
    <glyph glyph-name="afii10021" unicode="&#x414;" horiz-adv-x="673" 
d="M572 124h49v-259h-134v135h-356v-135h-131v242l61 15q46 50 54 217l25 361h432v-576zM197 124h232v460h-159l-12 -231q-3 -58 -6 -90.5t-17 -74t-38 -64.5z" />
    <glyph glyph-name="afii10022" unicode="&#x415;" horiz-adv-x="521" 
d="M464 701v-125h-269v-160h265v-129h-265v-157h269v-129h-410v700h410z" />
    <glyph glyph-name="afii10024" unicode="&#x416;" horiz-adv-x="848" 
d="M474 0h-137v272l7 58l-4 2l-32 -57l-179 -275h-167l255 390l-251 310h174l167 -222l30 -49l5 1l-7 51v219h141v-219l-7 -51l5 -1l30 49l168 222h174l-252 -310l255 -390h-167l-179 275l-32 57l-4 -2l7 -58v-272z" />
    <glyph glyph-name="afii10025" unicode="&#x417;" horiz-adv-x="534" 
d="M-4 145l96 64q27 -46 67.5 -70t83.5 -23t73 29t30 76q0 35 -26 61.5t-60 27.5h-121v115h121q25 0 47.5 23t23.5 53q-2 43 -32.5 65.5t-72.5 20.5q-34 -2 -65 -21t-47 -50l-95 66q48 71 102 99.5t125 28.5q91 0 159.5 -55t68.5 -152q0 -39 -22.5 -79t-69.5 -54
q54 -18 81.5 -60.5t27.5 -93.5q0 -104 -70.5 -165t-173.5 -61q-171 2 -251 155z" />
    <glyph glyph-name="afii10026" unicode="&#x418;" horiz-adv-x="743" 
d="M461 704h184v-704h-145v377l25 188l-9 1l-54 -147l-207 -419h-184v704h143v-378l-27 -182l9 -1l56 142z" />
    <glyph glyph-name="afii10027" unicode="&#x419;" horiz-adv-x="744" 
d="M645 701h-184l-209 -416l-56 -142l-9 1l27 182v375h-143v-701h184l207 419l54 144l9 -1l-25 -185v-377h145v701zM221 871h98q3 -29 23.5 -40t41.5 0.5t23 40.5h96q-1 -49 -30 -82.5t-70 -41.5t-82.5 -0.5t-70.5 41t-29 82.5z" />
    <glyph glyph-name="afii10028" unicode="&#x41a;" horiz-adv-x="620" 
d="M55 700h145v-277l239 277h173l-266 -312l268 -388h-168l-207 296l-39 -39v-257h-145v700z" />
    <glyph glyph-name="afii10029" unicode="&#x41b;" horiz-adv-x="627" 
d="M101 332l17 369h420v-701h-145v576h-138l-10 -246q-7 -287 -208 -339l-59 98q42 17 68 41.5t36.5 57.5t14 61t4.5 70v13z" />
    <glyph glyph-name="afii10030" unicode="&#x41c;" horiz-adv-x="852" 
d="M364 108l-120 254l-62 191h-8l28 -198v-355h-141v704h185l175 -416l176 416h185v-704h-141v355l28 200h-8l-62 -193l-120 -254h-115z" />
    <glyph glyph-name="afii10031" unicode="&#x41d;" horiz-adv-x="678" 
d="M433 0v284h-219v-284h-146v703h146v-287h219v287h146v-703h-146z" />
    <glyph glyph-name="afii10032" unicode="&#x41e;" horiz-adv-x="810" 
d="M385 712q151 0 256 -102t105 -261q0 -162 -104.5 -261t-256.5 -99t-256.5 99t-104.5 261q0 161 104.5 262t256.5 101zM170 349q0 -111 64 -170.5t151 -59.5q88 0 151.5 59t63.5 171q0 111 -64.5 172.5t-151.5 60.5q-86 -1 -150 -62t-64 -171z" />
    <glyph glyph-name="afii10033" unicode="&#x41f;" horiz-adv-x="643" 
d="M553 0h-146v581h-197v-581h-144v700h487v-700z" />
    <glyph glyph-name="afii10034" unicode="&#x420;" horiz-adv-x="573" 
d="M209 231v-231h-142v703h225q117 0 182.5 -71t65.5 -167t-65 -165t-182 -69h-84zM292 359q47 0 75.5 33.5t28.5 72.5q0 41 -28.5 76.5t-75.5 35.5h-83v-218h83z" />
    <glyph glyph-name="afii10035" unicode="&#x421;" horiz-adv-x="719" 
d="M658 584l-93 -82q-80 84 -181 81q-101 -2 -158.5 -70t-57.5 -165t57.5 -162.5t158.5 -65.5q112 0 191 93l99 -77q-122 -148 -290 -148q-112 0 -195 51.5t-123 132t-40 176.5q0 150 96 258.5t262 108.5q165 0 274 -131z" />
    <glyph glyph-name="afii10036" unicode="&#x422;" horiz-adv-x="489" 
d="M5 700h461v-122h-157v-578h-146v578h-158v122z" />
    <glyph glyph-name="afii10037" unicode="&#x423;" horiz-adv-x="549" 
d="M126 700l147 -318l130 318h154l-263 -598q-27 -61 -59.5 -81.5t-105.5 -20.5h-70v117h60q24 0 41 20.5t43 92.5l-236 470h159z" />
    <glyph glyph-name="afii10038" unicode="&#x424;" horiz-adv-x="793" 
d="M311 638v72h143v-72q131 -4 204.5 -88.5t73.5 -196.5q0 -71 -30 -135t-95 -108t-153 -45v-72h-143v72q-67 0 -122 25.5t-89 67t-52 91.5t-18 102q0 71 30.5 134t96 106.5t154.5 46.5zM450 527v-351q67 -1 102 52t35 122q0 65 -37.5 120.5t-99.5 56.5zM174 352
q0 -67 36.5 -121t103.5 -55v351q-65 -2 -102.5 -56t-37.5 -119z" />
    <glyph glyph-name="afii10039" unicode="&#x425;" horiz-adv-x="633" 
d="M631 700l-221 -350l223 -349h-168l-159 259l-157 -259h-170l223 349l-221 350h167l163 -259l157 259h163z" />
    <glyph glyph-name="afii10040" unicode="&#x426;" horiz-adv-x="657" 
d="M553 126h62v-260h-130v134h-419v700h145v-574h195v574h147v-574z" />
    <glyph glyph-name="afii10041" unicode="&#x427;" horiz-adv-x="619" 
d="M529 700v-700h-144v235q-33 -9 -70 -9q-116 0 -195.5 58t-79.5 173v243h145v-243q0 -47 33 -76.5t77.5 -33t89.5 7.5v345h144z" />
    <glyph glyph-name="afii10042" unicode="&#x428;" horiz-adv-x="955" 
d="M70 700h145v-579h173v579h145v-579h173v579h146v-700h-782v700z" />
    <glyph glyph-name="afii10043" unicode="&#x429;" horiz-adv-x="967" 
d="M75 700h146v-580h173v580h144v-580h173v580h147v-580h64v-254h-138v134h-709v700z" />
    <glyph glyph-name="afii10044" unicode="&#x42a;" horiz-adv-x="636" 
d="M267 700v-250h70q119 0 181 -63t62 -163q0 -92 -64.5 -158t-179.5 -66h-213v585h-123v115h267zM441 227q0 42 -26.5 72.5t-78.5 30.5h-69v-204h69q53 0 79 28.5t26 72.5z" />
    <glyph glyph-name="afii10045" unicode="&#x42b;" horiz-adv-x="881" 
d="M278 328h-70v-204h70q46 1 72 33t26 69t-26 69t-72 33zM208 700v-248h71q52 0 95.5 -15.5t71.5 -41.5t47.5 -60t23.5 -71.5t0 -74.5t-24 -71t-48 -60.5t-71.5 -42t-95.5 -15.5h-214v700h144zM636 0v700h147v-700h-147z" />
    <glyph glyph-name="afii10046" unicode="&#x42c;" horiz-adv-x="570" 
d="M278 328h-70v-204h70q46 1 72 33t26 69t-26 69t-72 33zM208 700v-248h71q52 0 95.5 -15.5t71.5 -41.5t47.5 -60t23.5 -71.5t0 -74.5t-24 -71t-48 -60.5t-71.5 -42t-95.5 -15.5h-214v700h144z" />
    <glyph glyph-name="afii10047" unicode="&#x42d;" horiz-adv-x="707" 
d="M184 291v122h315q-10 77 -67 121t-133 46q-56 1 -108 -23t-84 -70l-91 81q66 71 130.5 106t143.5 35q111 0 193.5 -51t123 -132t40.5 -179q0 -148 -98.5 -251.5t-258.5 -103.5q-176 0 -289 158l103 77q45 -60 90 -81t96 -21q85 0 143 43t69 123h-318z" />
    <glyph glyph-name="afii10048" unicode="&#x42e;" horiz-adv-x="1086" 
d="M656 710q159 -2 258.5 -104t99.5 -258q0 -112 -55 -199q-49 -74 -136 -120q-73 -39 -165 -39q-136 0 -231.5 81.5t-122.5 213.5h-87v-285h-147v700h147v-286h88q21 132 115 214t236 82zM656 582q-97 0 -152 -66.5t-59 -166.5q2 -54 13 -83q22 -63 74.5 -104.5
t123.5 -42.5q69 -2 123.5 36t78.5 108v-1q12 41 12 86q0 99 -60 166.5t-154 67.5z" />
    <glyph glyph-name="afii10049" unicode="&#x42f;" horiz-adv-x="626" 
d="M27 0l171 267q-71 18 -111.5 71t-39.5 139q1 114 69.5 169t181.5 55h237v-701h-145v258h-53l-153 -258h-157zM293 375h97v203h-93q-75 0 -105.5 -51t-0.5 -101.5t102 -50.5z" />
    <glyph glyph-name="bga" unicode="&#x430;" horiz-adv-x="552" 
d="M150 169q-1 -43 36 -60.5t83 -8t72 36.5v80q-34 15 -77.5 18t-78 -14t-35.5 -52zM476 0h-109l-18 45q-45 -56 -122 -56q-96 0 -150 50.5t-54 125.5q0 54 32 95t79.5 58.5t103 20.5t102.5 -19q0 45 -29.5 67.5t-71.5 22.5q-66 0 -136 -39l-46 82q86 69 195 69
q94 0 159 -56.5t65 -161.5v-304z" />
    <glyph glyph-name="afii10066" unicode="&#x431;" horiz-adv-x="615" 
d="M176 253q0 -46 18 -80t45.5 -49.5t59 -15.5t59 15.5t45.5 49.5t18 80q0 38 -14 68t-35.5 45.5t-47.5 22.5t-52 -0.5t-47.5 -23t-35 -45t-13.5 -67.5zM312 508q107 0 177 -64t71 -191q0 -116 -74 -189t-188 -71q-82 1 -146 39t-89 115q-22 82 -25 158.5t16 144.5t58 118
t106 79t156 29q13 0 22.5 8.5t5.5 29.5h112q10 -73 -29.5 -115.5t-93.5 -40.5q-91 3 -155.5 -32t-91.5 -105l12 -4q24 42 65.5 66.5t90.5 24.5z" />
    <glyph glyph-name="afii10067" unicode="&#x432;" horiz-adv-x="533" 
d="M57 0v507h210q84 0 139 -33t55 -107q0 -36 -16 -66t-51 -40q43 -9 64.5 -37t23.5 -62q3 -89 -51 -125.5t-150 -36.5h-224zM271 399h-83v-86h86q27 0 41 12.5t15 28.5q1 17 -14 31t-45 14zM274 211h-86v-98h87q69 0 69 50q0 22 -19 35t-51 13z" />
    <glyph glyph-name="afii10068" unicode="&#x433;" horiz-adv-x="476" 
d="M64 0v507h363v-118h-225v-389h-138z" />
    <glyph glyph-name="afii10069" unicode="&#x434;" horiz-adv-x="601" 
d="M505 507v-392h57v-220h-120v109h-317v-109h-124v220h58q30 30 30 117v275h416zM197 115h172v282h-148v-174q0 -71 -24 -108z" />
    <glyph glyph-name="afii10070" unicode="&#x435;" horiz-adv-x="589" 
d="M404 153l77 -68q-86 -95 -202 -95q-122 0 -191 79t-68 186q0 106 69 184t189 79q110 1 180.5 -71.5t70.5 -180.5q0 -33 -7 -69h-365q11 -48 54.5 -72t97.5 -16t95 44zM157 304h238q-8 49 -40.5 72.5t-75.5 23.5q-44 0 -79 -24t-43 -72z" />
    <glyph glyph-name="afii10072" unicode="&#x436;" horiz-adv-x="741" 
d="M290 0v174l2 52l-2 1l-24 -48l-135 -179h-148v9l196 265l-194 226v7h160l108 -138l37 -52h3l-3 53v137h137v-137l-3 -53h3l37 52l108 138h160v-7l-194 -226l197 -265v-9h-149l-135 179l-24 48l-2 -1l2 -52v-174h-137z" />
    <glyph glyph-name="afii10073" unicode="&#x437;" horiz-adv-x="445" 
d="M390 364q0 -26 -17 -57.5t-48 -41.5q37 -15 57 -43t22 -60q2 -49 -15 -85.5t-48 -55.5t-66 -27.5t-76 -8.5q-113 0 -200 82l64 84q25 -23 51.5 -35.5t44.5 -14.5t45 -2q28 0 47.5 15.5t16.5 44.5v-1q-2 27 -32.5 38t-65.5 11h-73v105h76q34 -1 58.5 10.5t23.5 37.5
q-1 51 -69 51q-33 0 -58.5 -8.5t-54.5 -37.5l-60 73q79 84 181 84q80 0 137.5 -40t58.5 -118z" />
    <glyph glyph-name="afii10074" unicode="&#x438;" horiz-adv-x="626" 
d="M192 179l37 67l166 261h153v-507h-135v256l4 75h-5l-35 -64l-167 -267h-152v507h135v-250l-7 -78h6z" />
    <glyph glyph-name="afii10075" unicode="&#x439;" horiz-adv-x="626" 
d="M192 179l37 67l166 261h153v-507h-135v256l4 75h-5l-35 -64l-167 -267h-152v507h135v-250l-7 -78h6zM160 697h95q3 -29 24.5 -40t43 0.5t23.5 40.5h96q-1 -49 -30 -82.5t-70 -41.5t-82.5 -0.5t-70.5 41t-29 82.5z" />
    <glyph glyph-name="afii10076" unicode="&#x43a;" horiz-adv-x="508" 
d="M501 0h-146l-149 221l-33 -34v-187h-133v507h133v-175l170 175h150v-8l-191 -204l199 -288v-7z" />
    <glyph glyph-name="afii10077" unicode="&#x43b;" horiz-adv-x="534" 
d="M210 231q0 -39 -4.5 -67.5t-18.5 -63t-45.5 -65.5t-80.5 -58l-65 88q19 13 33.5 26t23 28t14 25t7.5 26.5t2.5 22.5t0 24t-0.5 20v270h386v-507h-137v390h-115v-159z" />
    <glyph glyph-name="afii10078" unicode="&#x43c;" horiz-adv-x="702" 
d="M339 258l133 249h158v-507h-133v241l3 76h-6l-28 -74l-88 -161h-78l-88 161l-28 74h-6l3 -76v-241h-133v507h158z" />
    <glyph glyph-name="afii10079" unicode="&#x43d;" horiz-adv-x="548" 
d="M48 507h136v-195h154v195h137v-507h-137v195h-154v-195h-136v507z" />
    <glyph glyph-name="afii10080" unicode="&#x43e;" horiz-adv-x="619" 
d="M161 253q0 -66 42 -107t92 -41q51 0 91.5 41t40.5 107q0 70 -39.5 108t-92.5 38q-51 0 -92.5 -39.5t-41.5 -106.5zM562 253q0 -116 -76 -191.5t-191 -75.5t-191.5 75.5t-76.5 191.5q0 119 76.5 193.5t191.5 74.5q116 0 191.5 -74.5t75.5 -193.5z" />
    <glyph glyph-name="afii10081" unicode="&#x43f;" horiz-adv-x="548" 
d="M48 507h427v-507h-137v391h-154v-391h-136v507z" />
    <glyph glyph-name="afii10082" unicode="&#x440;" horiz-adv-x="580" 
d="M522 256q0 -111 -66.5 -187.5t-178.5 -76.5q-56 0 -91 28v-210h-135v697h101l12 -52q47 60 135 60q99 0 161 -74.5t62 -184.5zM188 360v-232q72 -41 134.5 -3.5t62.5 131.5q0 64 -32 103t-89 39q-46 0 -76 -38z" />
    <glyph glyph-name="afii10083" unicode="&#x441;" horiz-adv-x="516" 
d="M467 440l-77 -85q-33 31 -76 40t-80 -3.5t-62.5 -49.5t-26.5 -90q-1 -64 40.5 -105.5t101.5 -39.5t107 52l78 -80q-41 -51 -87.5 -71t-107.5 -20q-123 0 -194.5 78t-71.5 187q1 109 73 188t193 80q56 0 100 -18t90 -63z" />
    <glyph glyph-name="afii10084" unicode="&#x442;" horiz-adv-x="434" 
d="M-4 392v115h423v-115h-143v-392h-137v392h-143z" />
    <glyph glyph-name="afii10085" unicode="&#x443;" horiz-adv-x="531" 
d="M259 142h5l24 111l90 254h148l-229 -594q-27 -69 -93.5 -91.5t-138.5 -8.5v103q66 -7 90 11t39 84q-29 72 -103.5 245t-106.5 251h148l104 -255z" />
    <glyph glyph-name="afii10086" unicode="&#x444;" horiz-adv-x="688" 
d="M264 -189v184q-103 0 -170.5 75.5t-67.5 182.5q0 103 68 179.5t170 76.5v193h131v-193q102 0 170 -76.5t68 -179.5q0 -107 -67.5 -182.5t-170.5 -75.5v-184h-131zM505 248q0 57 -26.5 103t-85.5 46v-295q54 0 83 46.5t29 99.5zM154 248q0 -53 29 -99.5t83 -46.5v295
q-59 0 -85.5 -46t-26.5 -103z" />
    <glyph glyph-name="afii10087" unicode="&#x445;" horiz-adv-x="516" 
d="M246 331l104 179h154l-164 -255l166 -255h-154l-106 181l-111 -181h-152l167 254l-164 256h152z" />
    <glyph glyph-name="afii10088" unicode="&#x446;" horiz-adv-x="572" 
d="M347 507h136v-391h63v-221h-122v105h-370v507h135v-391h158v391z" />
    <glyph glyph-name="afii10089" unicode="&#x447;" horiz-adv-x="528" 
d="M455 0h-137v152q-54 -16 -106.5 -8t-93.5 31t-66.5 70.5t-25.5 111.5v150h135v-150q1 -68 44.5 -92.5t112.5 -2.5v245h137v-507z" />
    <glyph glyph-name="afii10090" unicode="&#x448;" horiz-adv-x="814" 
d="M460 117h127v390h141v-507h-672v507h140v-390h130v390h134v-390z" />
    <glyph glyph-name="afii10091" unicode="&#x449;" horiz-adv-x="830" 
d="M461 117h127v390h141v-387h58v-225h-121v105h-609v507h140v-390h130v390h134v-390z" />
    <glyph glyph-name="afii10092" unicode="&#x44a;" horiz-adv-x="576" 
d="M243 507v-170h84q84 0 141.5 -41.5t57.5 -127.5q0 -85 -57.5 -126.5t-141.5 -41.5h-219v400h-105v107h240zM327 227h-84v-114h84q26 0 45.5 15.5t19.5 40.5t-19.5 41t-45.5 17z" />
    <glyph glyph-name="afii10093" unicode="&#x44b;" horiz-adv-x="764" 
d="M185 507v-172h84q86 0 142.5 -39.5t56.5 -127.5q0 -85 -57 -126.5t-142 -41.5h-218v507h134zM269 229h-84v-115h84q33 0 50 18t16 41q-1 22 -18 39t-48 17zM558 0v507h134v-507h-134z" />
    <glyph glyph-name="afii10094" unicode="&#x44c;" horiz-adv-x="514" 
d="M185 507v-172h84q86 0 142.5 -39.5t56.5 -127.5q0 -85 -57 -126.5t-142 -41.5h-218v507h134zM269 229h-84v-115h84q33 0 50 18t16 41q-1 22 -18 39t-48 17z" />
    <glyph glyph-name="afii10095" unicode="&#x44d;" horiz-adv-x="502" 
d="M81 344l-76 72q80 100 198 100q111 -1 182.5 -77t71.5 -189q0 -110 -71 -183.5t-183 -74.5q-118 0 -206 94l75 80q53 -52 124 -52q45 0 80 22t46 68h-228v101h229q-9 43 -43.5 67t-77.5 24q-74 0 -121 -52z" />
    <glyph glyph-name="afii10096" unicode="&#x44e;" horiz-adv-x="834" 
d="M387 252q0 -59 33.5 -99t90.5 -40t90 40t33 99q0 58 -34.5 98t-88.5 40q-53 0 -88.5 -39.5t-35.5 -98.5zM190 192v-192h-131v507h131v-192h70q24 87 90 142.5t161 55.5q109 0 183 -76t74 -185q0 -67 -30.5 -125.5t-88.5 -96.5q-66 -37 -138 -37q-93 0 -162 54t-89 145
h-70z" />
    <glyph glyph-name="bgq" unicode="&#x44f;" horiz-adv-x="512" 
d="M7 0v6l134 194q-113 30 -113 145q0 83 54 122.5t138 39.5h221v-507h-134v187h-33l-121 -187h-146zM225 290h82v102h-82q-33 0 -50 -14t-16 -38q2 -50 66 -50z" />
    <glyph glyph-name="afii10071" unicode="&#x451;" horiz-adv-x="589" 
d="M234 585h-115v112h115v-112zM431 585h-114v112h114v-112zM404 153l77 -68q-86 -95 -202 -95q-122 0 -191 79t-68 186q0 106 69 184t189 79q110 1 180.5 -71.5t70.5 -180.5q0 -37 -6 -68h-366q11 -48 54.5 -72t97.5 -16.5t95 43.5zM157 303h238q-8 49 -40.5 73t-75.5 24
q-44 0 -79 -24.5t-43 -72.5z" />
    <glyph glyph-name="afii10099" unicode="&#x452;" horiz-adv-x="596" 
d="M51 700h137v-62h105v-86h-105v-65q51 34 130 27q85 -8 140 -70t55 -156v-305q0 -81 -47.5 -126.5t-128.5 -45.5q-16 0 -47 3v101q47 -6 69.5 14t22.5 54v304q0 46 -32 77.5t-75 34t-87 -22.5v-376h-137v552h-51v86h51v62z" />
    <glyph glyph-name="afii10100" unicode="&#x453;" horiz-adv-x="475" 
d="M64 0v507h363v-118h-225v-389h-138zM393 703l-95 -129h-108l71 129h132z" />
    <glyph glyph-name="afii10101" unicode="&#x454;" horiz-adv-x="502" 
d="M473 416l-76 -72q-47 52 -121 52q-44 0 -78 -22.5t-43 -65.5h229v-106h-228q11 -46 45.5 -67t80.5 -21q71 0 124 52l75 -80q-88 -94 -206 -94q-112 1 -183 74.5t-71 183.5q0 113 71.5 189t182.5 77q118 0 198 -100z" />
    <glyph glyph-name="afii10102" unicode="&#x455;" horiz-adv-x="429" 
d="M182 320q6 -2 16.5 -4t11.5 -2q76 -13 127.5 -53.5t51.5 -110.5q0 -43 -19 -76t-49 -51t-63 -27t-67 -9q-118 0 -193 99l73 78q48 -56 122 -59q22 -1 41.5 12.5t19.5 32.5q0 34 -50 44q-3 1 -10 2l-5 1q-70 13 -119.5 54.5t-50.5 109.5q0 74 56 117t134 43q95 0 171 -79
l-73 -74q-49 37 -99 37q-20 0 -40 -13.5t-20 -35.5q0 -12 10 -22t24 -14z" />
    <glyph glyph-name="afii10103" unicode="&#x456;" horiz-adv-x="253" 
d="M185 564h-136v135h136v-135zM49 507h137v-507h-137v507z" />
    <glyph glyph-name="afii10104" unicode="&#x457;" horiz-adv-x="253" 
d="M49 507h137v-507h-137v507zM73 584h-117v116h117v-116zM274 584h-117v116h117v-116z" />
    <glyph glyph-name="afii10105" unicode="&#x458;" horiz-adv-x="255" 
d="M-19 -187v112q66 -6 66 51v530h137v-530q0 -100 -55.5 -139t-147.5 -24zM184 565h-136v135h136v-135z" />
    <glyph glyph-name="afii10106" unicode="&#x459;" horiz-adv-x="777" 
d="M74 507h356v-176h85q88 0 144.5 -37.5t56.5 -125.5q0 -85 -58 -126.5t-143 -41.5h-215v405h-95v-181q0 -81 -31.5 -135.5t-120.5 -107.5l-67 90q30 15 48.5 33t26.5 39.5t10.5 38.5t2.5 43v282zM515 233h-85v-124h85q46 0 65 31t0 62t-65 31z" />
    <glyph glyph-name="afii10107" unicode="&#x45a;" horiz-adv-x="801" 
d="M323 507h133v-183h84q200 0 200 -158q0 -59 -29.5 -97.5t-72.5 -53.5t-98 -15h-217v226h-129v-226h-134v507h134v-181h129v181zM541 231h-85v-122h85q46 0 65 30.5t0 61t-65 30.5z" />
    <glyph glyph-name="afii10108" unicode="&#x45b;" horiz-adv-x="596" 
d="M51 700h137v-62h105v-86h-105v-65q51 34 130 27q85 -8 140 -70t55 -156v-288h-137v287q0 71 -63 100.5t-125 -11.5v-376h-137v552h-51v86h51v62z" />
    <glyph glyph-name="afii10109" unicode="&#x45c;" horiz-adv-x="508" 
d="M501 0h-146l-149 221l-33 -34v-187h-133v507h133v-175l170 176h150v-8l-191 -205l199 -288v-7zM394 703l-95 -129h-108l71 129h132z" />
    <glyph glyph-name="afii10110" unicode="&#x45e;" horiz-adv-x="531" 
d="M259 142h5l24 111l90 254h148l-229 -594q-27 -69 -93.5 -91.5t-138.5 -8.5v103q66 -7 90 11t39 84q-29 72 -103.5 245t-106.5 251h148l104 -255zM124 697h95q3 -29 24.5 -40t43 0.5t23.5 40.5h96q-1 -49 -30 -82.5t-70 -41.5t-82.5 -0.5t-70.5 41t-29 82.5z" />
    <glyph glyph-name="afii10193" unicode="&#x45f;" horiz-adv-x="550" 
d="M206 -97v97h-154v506h137v-393h154v393h136v-506h-149v-97h-124z" />
    <glyph glyph-name="afii10050" unicode="&#x490;" horiz-adv-x="508" 
d="M471 799v-220h-265v-579h-144v700h293v99h116z" />
    <glyph glyph-name="afii10098" unicode="&#x491;" horiz-adv-x="476" 
d="M64 0v507h247v94h116v-212h-225v-389h-138z" />
    <glyph glyph-name="uni1E9E" unicode="&#x1e9e;" horiz-adv-x="571" 
d="M190 501v-501h-141v501q0 91 62.5 146t149.5 55q89 0 149.5 -51.5t60.5 -145.5q0 -40 -18.5 -77.5t-62.5 -53.5q66 -21 95.5 -69t29.5 -91q2 -80 -40.5 -137t-110 -77t-140.5 -2l1 128q49 -24 96.5 5t47.5 82q0 37 -28 65t-75 28h-41v118h41q32 0 51 26.5t17 54.5
q-3 45 -38.5 61.5t-70.5 -3t-35 -62.5z" />
    <glyph glyph-name="thinspace" unicode="&#x2009;" horiz-adv-x="14" 
 />
    <glyph glyph-name="endash" unicode="&#x2013;" horiz-adv-x="619" 
d="M35 227v119h512v-119h-512z" />
    <glyph glyph-name="emdash" unicode="&#x2014;" horiz-adv-x="755" 
d="M0 228v119h668v-119h-668z" />
    <glyph glyph-name="afii00208" unicode="&#x2015;" horiz-adv-x="755" 
d="M0 228v119h668v-119h-668z" />
    <glyph glyph-name="quoteleft" unicode="&#x2018;" horiz-adv-x="251" 
d="M231 699l-64 -241h-151l89 241h126z" />
    <glyph glyph-name="quoteright" unicode="&#x2019;" horiz-adv-x="250" 
d="M21 472l62 229h153l-91 -229h-124z" />
    <glyph glyph-name="quotesinglbase" unicode="&#x201a;" horiz-adv-x="253" 
d="M-5 -133l76 254h154l-111 -254h-119z" />
    <glyph glyph-name="quotedblleft" unicode="&#x201c;" horiz-adv-x="434" 
d="M234 699l-72 -241h-151l97 241h126zM419 699l-64 -241h-151l89 241h126z" />
    <glyph glyph-name="quotedblright" unicode="&#x201d;" horiz-adv-x="435" 
d="M198 457l72 241h151l-97 -241h-126zM11 457l64 241h151l-89 -241h-126z" />
    <glyph glyph-name="quotedblbase" unicode="&#x201e;" horiz-adv-x="455" 
d="M-5 -133l76 254h154l-111 -254h-119zM197 -133l76 254h154l-111 -254h-119z" />
    <glyph glyph-name="dagger" unicode="&#x2020;" horiz-adv-x="419" 
d="M120 -44v431h-115v119h115v175h133v-175h121v-119h-121v-431h-133z" />
    <glyph glyph-name="daggerdbl" unicode="&#x2021;" horiz-adv-x="435" 
d="M20 140v120h118v136h-118v118h118v175h130v-175h121v-118h-121v-136h121v-120h-121v-194h-130v194h-118z" />
    <glyph glyph-name="bullet" unicode="&#x2022;" horiz-adv-x="424" 
d="M192 139q-63 0 -106 43t-43 105t43 104t106 42t106 -42t43 -104t-43 -105t-106 -43z" />
    <glyph glyph-name="ellipsis" unicode="&#x2026;" horiz-adv-x="701" 
d="M195 -2h-143v136h143v-136zM605 -2h-143v136h143v-136zM401 -2h-143v136h143v-136z" />
    <glyph glyph-name="perthousand" unicode="&#x2030;" horiz-adv-x="1264" 
d="M372 535q0 -72 -53 -123.5t-126 -51.5t-125.5 51.5t-52.5 123.5q0 73 52.5 124.5t125.5 51.5t126 -51.5t53 -124.5zM561 711h148l-440 -744h-146zM258 535q0 30 -19 49t-45 19q-27 0 -45.5 -19t-18.5 -49q0 -27 19 -46t45 -19t45 18.5t19 46.5zM832 165q0 -73 -50.5 -124
t-128.5 -51q-73 0 -125.5 51.5t-52.5 123.5q0 73 52.5 124.5t125.5 51.5t126 -51.5t53 -124.5zM718 165q0 30 -19 49t-45 19q-27 0 -45.5 -19t-18.5 -49q0 -27 19 -46t45 -19t45 18.5t19 46.5zM1225 165q0 -73 -50.5 -124t-128.5 -51q-73 0 -125.5 51.5t-52.5 123.5
q0 73 52.5 124.5t125.5 51.5t126 -51.5t53 -124.5zM1111 165q0 30 -19 49t-45 19q-27 0 -45.5 -19t-18.5 -49q0 -27 19 -46t45 -19t45 18.5t19 46.5z" />
    <glyph glyph-name="guilsinglleft" unicode="&#x2039;" horiz-adv-x="357" 
d="M177 67l-170 211l170 212h166l-169 -213q28 -35 89 -111t80 -99h-166z" />
    <glyph glyph-name="guilsinglright" unicode="&#x203a;" horiz-adv-x="346" 
d="M-17 67l166 211q-55 69 -59 74l-109 138h166l170 -212l-170 -211h-164z" />
    <glyph glyph-name="fraction" unicode="&#x2044;" horiz-adv-x="168" 
d="M-36 -41h-136l347 728h136z" />
    <glyph glyph-name="zerosuperior" unicode="&#x2070;" horiz-adv-x="428" 
d="M134 538q0 -30 19 -47t46 -17t46 17t19 47v104q0 30 -19.5 47.5t-46.5 17.5q-26 0 -45 -17.5t-19 -47.5v-104zM7 642q0 85 57 132.5t135 47.5q77 0 134.5 -48t57.5 -132v-104q0 -82 -57.5 -131.5t-135.5 -49.5q-77 0 -134.5 51t-56.5 130v104z" />
    <glyph glyph-name="foursuperior" unicode="&#x2074;" horiz-adv-x="429" 
d="M354 816v-271h48v-111h-48v-72h-120v72h-161l-72 98l174 284h179zM246 711l-7 2l-107 -171h103v81z" />
    <glyph glyph-name="fivesuperior" unicode="&#x2075;" horiz-adv-x="428" 
d="M19 431l90 51q18 -29 54 -37.5t66 9.5t31 56q1 33 -28 50.5t-68.5 12t-65.5 -33.5h-70l39 276h289l1 -100h-201l-12 -64q39 18 81.5 15t78 -19t58.5 -52.5t23 -84.5q0 -81 -58 -128.5t-136 -47.5q-50 0 -96.5 23.5t-75.5 73.5z" />
    <glyph glyph-name="sixsuperior" unicode="&#x2076;" horiz-adv-x="435" 
d="M334 828l-121 -167q44 10 81.5 -2.5t58.5 -41t29.5 -64t-2.5 -74t-40 -68.5q-52 -52 -136 -52t-135 52q-48 48 -48 116q0 48 30 94l144 207h139zM204 578q-28 0 -44.5 -17.5t-16.5 -38.5t16.5 -38t44.5 -17q27 0 43 18t16 40q0 21 -15.5 37t-43.5 16z" />
    <glyph glyph-name="sevensuperior" unicode="&#x2077;" horiz-adv-x="359" 
d="M12 367l182 335h-180v113h291l43 -67l-196 -381h-140z" />
    <glyph glyph-name="eightsuperior" unicode="&#x2078;" horiz-adv-x="401" 
d="M14 507q-1 24 14.5 52t45.5 46q-20 11 -31.5 35t-11.5 43q0 64 44.5 100.5t113.5 36.5q67 0 112 -36t45 -101q0 -53 -43 -78q30 -15 45 -43.5t15 -54.5q-1 -72 -52.5 -112.5t-122.5 -40.5q-70 0 -121.5 40.5t-52.5 112.5zM188 733q-21 0 -33 -12.5t-12 -30.5
q0 -28 22.5 -39.5t45 0t22.5 39.5q0 17 -12.5 30t-32.5 13zM188 561q-23 0 -38 -15t-15 -38q0 -21 15 -35t38 -14q24 0 38.5 14t14.5 35q0 23 -15 38t-38 15z" />
    <glyph glyph-name="ninesuperior" unicode="&#x2079;" horiz-adv-x="419" 
d="M73 361l117 167q-44 -10 -81.5 2.5t-58 41t-28.5 64t3 74t40 68.5q52 52 136 52t135 -52q48 -48 48 -116q0 -48 -30 -94l-144 -207h-137zM201 611q28 0 44.5 17.5t16.5 38.5t-16.5 38t-44.5 17q-27 0 -43 -18t-16 -40q0 -21 15.5 -37t43.5 -16z" />
    <glyph glyph-name="zeroinferior" unicode="&#x2080;" horiz-adv-x="422" 
d="M134 37q0 -30 19 -47t46 -17t46 17t19 47v104q0 31 -19.5 48t-46.5 17q-26 0 -45 -17t-19 -48v-104zM7 141q0 85 57 132.5t135 47.5q77 0 134.5 -48t57.5 -132v-104q0 -82 -57.5 -131.5t-135.5 -49.5q-77 0 -134.5 51t-56.5 130v104z" />
    <glyph glyph-name="oneinferior" unicode="&#x2081;" horiz-adv-x="279" 
d="M83 -137v320h-55v121h188v-441h-133z" />
    <glyph glyph-name="twoinferior" unicode="&#x2082;" horiz-adv-x="405" 
d="M238 10l-71 -45l1 -4l91 12h95v-113h-284l-52 86l189 192q23 22 10 49t-48 27q-34 0 -60 -43l-89 43q54 117 160 116q75 -1 121.5 -42t46.5 -112q0 -57 -58 -115z" />
    <glyph glyph-name="threeinferior" unicode="&#x2083;" horiz-adv-x="394" 
d="M17 -60l77 60q16 -20 42 -31.5t44 -11.5q29 0 41.5 22.5t1.5 45t-38 22.5h-48v95h46q15 0 25 11t10 24q0 27 -23.5 38.5t-50.5 4.5t-38 -27l-77 44q53 89 151 89q68 0 115.5 -38t47.5 -109q0 -22 -12 -45.5t-36 -35.5q30 -13 47.5 -42t17.5 -58q-1 -74 -54.5 -113.5
t-125.5 -39.5q-106 0 -163 95z" />
    <glyph glyph-name="fourinferior" unicode="&#x2084;" horiz-adv-x="430" 
d="M354 318v-271h48v-111h-48v-72h-120v72h-161l-72 98l174 284h179zM246 213l-7 2l-107 -171h103v81z" />
    <glyph glyph-name="fiveinferior" unicode="&#x2085;" horiz-adv-x="437" 
d="M32 -67l91 51q17 -29 54.5 -37t68.5 9.5t31 53.5q0 33 -30 51t-70 13t-66 -33h-70l39 276h289l1 -100h-201l-12 -64q39 18 81.5 15t78 -19t58.5 -52.5t23 -84.5q0 -81 -58 -128.5t-136 -47.5q-50 0 -96.5 23.5t-75.5 73.5z" />
    <glyph glyph-name="sixinferior" unicode="&#x2086;" horiz-adv-x="423" 
d="M334 316l-121 -167q44 10 81.5 -2.5t58.5 -41t29.5 -64t-2.5 -74t-40 -68.5q-52 -52 -136 -52t-135 52q-48 48 -48 116q0 48 30 94l144 207h139zM204 66q-28 0 -44.5 -17.5t-16.5 -38.5t16.5 -38t44.5 -17q27 0 43 18t16 40q0 21 -15.5 37t-43.5 16z" />
    <glyph glyph-name="seveninferior" unicode="&#x2087;" horiz-adv-x="360" 
d="M7 -143l182 335h-180v113h291l43 -67l-196 -381h-140z" />
    <glyph glyph-name="eightinferior" unicode="&#x2088;" horiz-adv-x="394" 
d="M16 4q-1 24 14.5 52t45.5 46q-20 11 -31.5 35t-11.5 43q0 64 44.5 100.5t113.5 36.5q67 0 112 -36t45 -101q0 -53 -43 -78q30 -15 45 -43.5t15 -54.5q-1 -72 -52.5 -112.5t-122.5 -40.5q-70 0 -121.5 40.5t-52.5 112.5zM190 230q-21 0 -33 -12.5t-12 -30.5
q0 -28 22.5 -39.5t45 0t22.5 39.5q0 17 -12.5 30t-32.5 13zM190 58q-23 0 -38 -15t-15 -38q0 -21 15 -35t38 -14q24 0 38.5 14t14.5 35q0 23 -15 38t-38 15z" />
    <glyph glyph-name="nineinferior" unicode="&#x2089;" horiz-adv-x="422" 
d="M73 -144l117 167q-44 -10 -81.5 2.5t-58 41t-28.5 64t3 74t40 68.5q52 52 136 52t135 -52q48 -48 48 -116q0 -48 -30 -94l-144 -207h-137zM201 106q28 0 44.5 17.5t16.5 38.5t-16.5 38t-44.5 17q-27 0 -43 -18t-16 -40q0 -21 15.5 -37t43.5 -16z" />
    <glyph glyph-name="Euro" unicode="&#x20ac;" horiz-adv-x="656" 
d="M27 473h57q33 104 117.5 172t209.5 68q92 0 176 -51l-53 -101q-60 33 -118 33t-107.5 -32.5t-73.5 -88.5h244l-20 -98h-257q-5 -23 0 -45h249l-19 -97h-204q17 -57 69.5 -92.5t117 -35.5t130.5 38l62 -99q-86 -59 -196 -59q-128 0 -214 70.5t-117 177.5h-81l20 97h56
q-1 22 0 45h-68z" />
    <glyph glyph-name="afii61352" unicode="&#x2116;" horiz-adv-x="1359" 
d="M68 704h184l209 -419l56 -142l9 1l-27 182v378h143v-704h-184l-207 419l-54 147l-9 -1l25 -188v-377h-145v704zM901 253q0 -65 41.5 -103.5t92.5 -38.5q52 0 92 38t40 104q0 69 -39.5 105.5t-92.5 36.5q-51 0 -92.5 -37.5t-41.5 -104.5zM1302 253q0 -116 -76 -191.5
t-191 -75.5t-191.5 75.5t-76.5 191.5q0 119 76.5 193.5t191.5 74.5q116 0 191.5 -74.5t75.5 -193.5z" />
    <glyph glyph-name="trademark" unicode="&#x2122;" horiz-adv-x="902" 
d="M336 584h-97v-277h-128v277h-97v117h322v-117zM579 349l-90 199l-3 -1l21 -142v-98h-124v393h145l85 -174l86 174h145v-393h-124v98l21 142l-3 1l-90 -199h-69z" />
    <glyph glyph-name="minus" unicode="&#x2212;" horiz-adv-x="562" 
d="M30 220v120h464v-120h-464z" />
    <glyph glyph-name="infinity" unicode="&#x221e;" horiz-adv-x="454" 
d="M204 161q-68 0 -116.5 47.5t-48.5 114.5t48.5 114.5t116.5 47.5t116 -47.5t48 -114.5t-48 -114.5t-116 -47.5z" />
    <glyph glyph-name="approxequal" unicode="&#x2248;" horiz-adv-x="583" 
d="M462 288l52 -73q-28 -27 -48 -41.5t-52.5 -28t-72 -7t-85.5 33.5q-41 25 -82 20t-66 -43l-74 60q51 75 115 92.5t132 -27.5q32 -25 90.5 -22t90.5 36zM462 451l52 -73q-28 -27 -48 -41.5t-52.5 -28t-72 -7t-85.5 33.5q-43 23 -90 14.5t-79 -41.5l-53 64q51 75 118.5 92.5
t135.5 -27.5q35 -27 87 -25t87 39z" />
    <glyph glyph-name="notequal" unicode="&#x2260;" 
d="M92 75l38 57h-73v123h159l34 50h-193v125h280l73 105l88 -47l-41 -58h61v-125h-147l-35 -50h182v-123h-266l-77 -112z" />
    <glyph glyph-name="lessequal" unicode="&#x2264;" horiz-adv-x="492" 
d="M13 135h416v-121h-416v121zM414 636v-131l-215 -100l215 -101v-136l-399 195v83z" />
    <glyph glyph-name="greaterequal" unicode="&#x2265;" horiz-adv-x="539" 
d="M48 135h416v-121h-416v121zM63 505v131l399 -190v-83l-399 -195v136l215 101z" />
    <glyph glyph-name="fontfabric" horiz-adv-x="1730" 
d="M1321 699h350v-176h-14q-22 80 -63.5 121.5t-116.5 41.5h-59v-674h110v-13h-207v700zM725 12h234v-13h-234v13zM1166 699h123v-13v-687h-32l-428 687h-104v13h215l330 -537h6v524h-110v13zM771 491q26 -63 26 -141q0 -68 -26 -131q-39 -78 -71 -110q-58 -58 -113.5 -84
t-132.5 -26h-6v13h6q126 0 182 84q28 38 38 104q13 100 13 150q0 154 -45 232q-43 104 -188 104h-6v13h6q101 0 188.5 -57.5t128.5 -150.5zM228 439q2 7 10.5 29t14.5 43h7v-305h-7q-8 64 -39.5 107.5t-89.5 42.5h-65v13h57q45 -1 71 14.5t41 55.5zM59 699h336v-169h-6
q-20 74 -61 115t-121 41h-148v13z" />
    <glyph glyph-name="zero.tnum" horiz-adv-x="602" 
d="M179 206q0 -39 30.5 -62.5t71.5 -23.5t71.5 23.5t30.5 62.5v286q0 39 -31.5 62.5t-73.5 22.5q-40 -1 -69.5 -24t-29.5 -61v-286zM39 492q0 101 70 157.5t168 56.5q99 2 172.5 -54.5t73.5 -159.5v-286q0 -93 -62 -150q-68 -65 -180 -65q-111 -2 -181 65q-61 59 -61 150
v286z" />
    <glyph glyph-name="one.tnum" horiz-adv-x="326" 
d="M95 571h-79v129h220v-700h-141v571z" />
    <glyph glyph-name="two.tnum" horiz-adv-x="556" 
d="M191 118l1 -3l135 16h163v-131h-437l-35 91l296 334q27 31 32.5 70t-17.5 68.5t-70 31.5q-31 2 -63 -18.5t-52 -55.5l-108 60q36 71 95.5 105.5t132.5 32.5q97 -3 158.5 -62t63.5 -141q0 -95 -78 -179l-124 -135z" />
    <glyph glyph-name="three.tnum" horiz-adv-x="550" 
d="M25 127l101 63q43 -73 123 -77q41 -2 70 23t29 73q0 43 -27.5 71.5t-64.5 28.5h-80v121h82q49 0 69 40t-3 79.5t-78 39.5q-67 0 -100 -51l-97 60q71 115 198 115q90 0 154 -50.5t63 -153.5q-1 -38 -19 -77.5t-53 -59.5q90 -51 90 -164q-1 -102 -72 -160t-164 -58
q-63 0 -123 36t-98 101z" />
    <glyph glyph-name="four.tnum" horiz-adv-x="591" 
d="M479 700v-453h66v-124h-66v-123h-136v123h-268l-79 99l316 478h167zM365 565l-6 2l-69 -127l-128 -193h181v180z" />
    <glyph glyph-name="five.tnum" horiz-adv-x="571" 
d="M33 124l104 64q22 -35 55 -53t65 -18q51 0 82.5 34.5t31.5 81.5q0 65 -44 94.5t-100 20.5t-96 -46h-82l54 398h361v-125h-255l-17 -123q125 37 220.5 -27t95.5 -192q0 -97 -68.5 -172t-184.5 -75q-67 0 -125 34.5t-97 103.5z" />
    <glyph glyph-name="six.tnum" horiz-adv-x="592" 
d="M280 -10q-115 0 -180.5 72t-65.5 170q0 72 41 137v-1q35 59 206 333h155l-162 -259q59 13 108.5 -1t80 -47.5t47.5 -75.5t17 -86q0 -98 -65.5 -170t-181.5 -72zM280 340q-46 0 -77.5 -30.5t-31.5 -77.5q0 -45 29 -79.5t80 -34.5q52 0 81.5 34.5t29.5 79.5t-29.5 76.5
t-81.5 31.5z" />
    <glyph glyph-name="seven.tnum" horiz-adv-x="490" 
d="M292 568h-292v132h396l70 -87l-308 -613h-157z" />
    <glyph glyph-name="eight.tnum" horiz-adv-x="577" 
d="M268 -17q-95 0 -164.5 58.5t-70.5 161.5q0 48 27 95t71 73q-38 22 -55.5 63.5t-17.5 78.5q0 92 62.5 146.5t147.5 54.5q84 0 146.5 -54.5t62.5 -146.5q0 -40 -18 -81t-49 -59q93 -50 92 -170q-1 -102 -70.5 -161t-163.5 -59zM268 595q-36 0 -57 -24.5t-21 -54.5
q0 -31 21 -56t57 -25t57 25t21 58q0 30 -21 53.5t-57 23.5zM268 306q-46 0 -72.5 -32t-26.5 -72q0 -38 26.5 -67.5t72.5 -28.5q46 0 73 30t27 68q0 39 -27 70.5t-73 31.5z" />
    <glyph glyph-name="nine.tnum" horiz-adv-x="595" 
d="M282 711q115 0 180.5 -72t65.5 -170q0 -72 -41 -137v1q-35 -59 -206 -333h-155l162 259q-59 -13 -108.5 1t-80 47.5t-47.5 75.5t-17 86q0 98 65.5 170t181.5 72zM282 361q46 0 77.5 30.5t31.5 77.5q0 45 -29 79.5t-80 34.5q-52 0 -81.5 -34.5t-29.5 -79.5t29.5 -76.5
t81.5 -31.5z" />
    <glyph glyph-name="zero.p_osf" horiz-adv-x="601" 
d="M179 200q0 -39 30.5 -62.5t71.5 -23.5t71.5 23.5t30.5 62.5v115q0 39 -31.5 62.5t-73.5 22.5q-40 -1 -69.5 -24t-29.5 -61v-115zM39 311q0 101 70 157.5t168 56.5q99 2 172.5 -54.5t73.5 -159.5v-107q0 -93 -62 -150q-68 -65 -180 -65q-111 -2 -181 65q-61 59 -61 150
v107z" />
    <glyph glyph-name="one.p_osf" horiz-adv-x="306" 
d="M95 385h-79v123h215v-508h-136v385z" />
    <glyph glyph-name="two.p_osf" horiz-adv-x="514" 
d="M156 371l-103 54q25 59 76.5 89.5t110.5 29.5q51 -1 94 -20t67.5 -51.5t33.5 -70.5t-7 -81t-55 -79l-80 -74l-84 -52l1 -3l113 11h124v-124h-364l-48 90l247 234q31 29 14 65.5t-61 35.5q-43 0 -79 -54z" />
    <glyph glyph-name="three.p_osf" horiz-adv-x="518" 
d="M6 5l93 64q48 -63 128 -67q42 -2 70 16.5t28 60.5q0 38 -27.5 62.5t-63.5 24.5h-79v116h81q49 0 68 34.5t-3.5 69t-76.5 34.5q-69 0 -102 -46l-92 57q74 110 195 110q88 0 151.5 -48.5t62.5 -142.5q-1 -35 -17.5 -70t-51.5 -53q87 -47 87 -149q-1 -92 -71 -144.5
t-162 -52.5q-62 0 -121.5 32.5t-96.5 91.5z" />
    <glyph glyph-name="four.p_osf" horiz-adv-x="560" 
d="M453 517v-389h64v-120h-64v-108h-131v108h-260l-70 88l291 421h170zM344 398l-6 2l-67 -112l-117 -160h168v148z" />
    <glyph glyph-name="five.p_osf" horiz-adv-x="530" 
d="M10 13l103 67q21 -30 54 -46.5t64 -16.5q51 0 81.5 26.5t30.5 67.5q0 58 -43 84.5t-98.5 18t-94.5 -41.5h-81l53 356h357v-120h-252l-17 -91q84 19 153.5 4.5t114 -71t44.5 -139.5q0 -88 -67.5 -154.5t-182.5 -66.5q-141 0 -219 123z" />
    <glyph glyph-name="six.p_osf" horiz-adv-x="584" 
d="M280 -10q-115 0 -180.5 72t-65.5 170q0 72 41 137v-1q35 59 206 333h155l-162 -259q59 13 108.5 -1t80 -47.5t47.5 -75.5t17 -86q0 -98 -65.5 -170t-181.5 -72zM280 340q-46 0 -77.5 -30.5t-31.5 -77.5q0 -45 29 -79.5t80 -34.5q52 0 81.5 34.5t29.5 79.5t-29.5 76.5
t-81.5 31.5z" />
    <glyph glyph-name="seven.p_osf" horiz-adv-x="507" 
d="M290 396h-290v130h402l66 -79l-309 -557h-157z" />
    <glyph glyph-name="eight.p_osf" horiz-adv-x="554" 
d="M263 -17q-94 0 -162.5 53.5t-69.5 147.5q0 45 25 86.5t72 66.5q-36 20 -54 58.5t-18 71.5q0 83 61.5 133t145.5 50q83 0 144.5 -50t61.5 -133q0 -35 -18.5 -73.5t-47.5 -54.5q92 -45 91 -155q-1 -94 -69.5 -147.5t-161.5 -53.5zM263 536q-37 0 -57.5 -21.5t-20 -48
t21.5 -48t56 -21.5t55.5 21.5t21.5 48t-19.5 48t-57.5 21.5zM263 276q-35 0 -60.5 -18t-32 -43.5t-2 -51t30 -43.5t64.5 -17q48 0 74 27t25.5 59.5t-27.5 59.5t-72 27z" />
    <glyph glyph-name="nine.p_osf" horiz-adv-x="560" 
d="M262 541q115 0 180.5 -69t65.5 -162q0 -70 -41 -130q-126 -198 -190 -296h-150l148 226q-61 -14 -109.5 -1t-82 45t-51 73t-17.5 83q0 93 65.5 162t181.5 69zM262 206q46 0 78.5 29.5t32.5 74.5q0 44 -30 77t-81 33q-52 0 -82.5 -33t-30.5 -77q0 -43 30.5 -73.5
t82.5 -30.5z" />
    <glyph glyph-name="zero.t_osf" horiz-adv-x="601" 
d="M178 200q0 -39 30.5 -62.5t71.5 -23.5t71.5 23.5t30.5 62.5v115q0 39 -31.5 62.5t-73.5 22.5q-40 -1 -69.5 -24t-29.5 -61v-115zM38 311q0 101 70 157.5t168 56.5q99 2 172.5 -54.5t73.5 -159.5v-107q0 -93 -62 -150q-68 -65 -180 -65q-111 -2 -181 65q-61 59 -61 150
v107z" />
    <glyph glyph-name="one.t_osf" horiz-adv-x="298" 
d="M95 385h-79v123h215v-508h-136v385z" />
    <glyph glyph-name="two.t_osf" horiz-adv-x="514" 
d="M156 371l-103 54q25 59 76.5 89.5t110.5 29.5q51 -1 94 -20t67.5 -51.5t33.5 -70.5t-7 -81t-55 -79l-80 -74l-84 -52l1 -3l113 11h124v-124h-364l-48 90l247 234q31 29 14 65.5t-61 35.5q-43 0 -79 -54z" />
    <glyph glyph-name="three.t_osf" horiz-adv-x="518" 
d="M7 5l93 64q48 -63 128 -67q42 -2 70 16.5t28 60.5q0 38 -27.5 62.5t-63.5 24.5h-79v116h81q49 0 68 34.5t-3.5 69t-76.5 34.5q-69 0 -102 -46l-92 57q74 110 195 110q88 0 151.5 -48.5t62.5 -142.5q-1 -35 -17.5 -70t-51.5 -53q87 -47 87 -149q-1 -92 -71 -144.5
t-162 -52.5q-62 0 -121.5 32.5t-96.5 91.5z" />
    <glyph glyph-name="four.t_osf" horiz-adv-x="561" 
d="M453 517v-391h64v-118h-64v-108h-131v108h-260l-70 88l291 421h170zM344 398l-6 2l-67 -112l-117 -162h168v150z" />
    <glyph glyph-name="five.t_osf" horiz-adv-x="531" 
d="M10 13l103 67q21 -30 54 -46.5t64 -16.5q51 0 81.5 26.5t30.5 67.5q0 58 -43 84.5t-98.5 18t-94.5 -41.5h-81l53 356h357v-120h-252l-17 -91q84 19 153.5 4.5t114 -71t44.5 -139.5q0 -88 -67.5 -154.5t-182.5 -66.5q-141 0 -219 123z" />
    <glyph glyph-name="six.t_osf" horiz-adv-x="584" 
d="M280 -10q-115 0 -180.5 72t-65.5 170q0 72 41 137v-1q35 59 206 333h155l-162 -259q59 13 108.5 -1t80 -47.5t47.5 -75.5t17 -86q0 -98 -65.5 -170t-181.5 -72zM280 340q-46 0 -77.5 -30.5t-31.5 -77.5q0 -45 29 -79.5t80 -34.5q52 0 81.5 34.5t29.5 79.5t-29.5 76.5
t-81.5 31.5z" />
    <glyph glyph-name="seven.t_osf" horiz-adv-x="507" 
d="M299 396h-290v130h402l66 -79l-309 -557h-157z" />
    <glyph glyph-name="eight.t_osf" horiz-adv-x="554" 
d="M263 -17q-94 0 -162.5 53.5t-69.5 147.5q0 45 25 86.5t72 66.5q-36 20 -54 58.5t-18 71.5q0 83 61.5 133t145.5 50q83 0 144.5 -50t61.5 -133q0 -35 -18.5 -73.5t-47.5 -54.5q92 -45 91 -155q-1 -94 -69.5 -147.5t-161.5 -53.5zM263 536q-37 0 -57.5 -21.5t-20 -48
t21.5 -48t56 -21.5t55.5 21.5t21.5 48t-19.5 48t-57.5 21.5zM263 276q-35 0 -60.5 -18t-32 -43.5t-2 -51t30 -43.5t64.5 -17q48 0 74 27t25.5 59.5t-27.5 59.5t-72 27z" />
    <glyph glyph-name="nine.t_osf" horiz-adv-x="560" 
d="M262 541q115 0 180.5 -69t65.5 -162q0 -70 -41 -130q-126 -198 -190 -296h-150l148 226q-61 -14 -109.5 -1t-82 45t-51 73t-17.5 83q0 93 65.5 162t181.5 69zM262 206q46 0 78.5 29.5t32.5 74.5q0 44 -30 77t-81 33q-52 0 -82.5 -33t-30.5 -77q0 -43 30.5 -73.5
t82.5 -30.5z" />
    <glyph glyph-name="dollar.osf" horiz-adv-x="552" 
d="M448 459l-102 -64q-33 52 -88 54q-73 0 -76 -53q-2 -22 22 -37t52 -21q49 -11 82.5 -23t70 -33.5t54.5 -56.5t15 -82q-4 -67 -49.5 -110.5t-114.5 -48.5v-69h-121v70q-96 26 -149 113l104 70q49 -70 103 -70q39 -1 64 13.5t27 39.5q1 21 -18.5 37.5t-39.5 23t-49 13.5
q-36 8 -66 19.5t-59.5 31.5t-45 52.5t-14.5 74.5q2 60 44.5 103t104.5 57v70h116v-69q86 -24 133 -105z" />
    <glyph glyph-name="cent.osf" horiz-adv-x="558" 
d="M236 -74v76q-100 17 -156 88t-56 163q1 92 57.5 164t154.5 89v81h109v-81q69 -12 134 -73l-77 -82q-45 41 -102 43.5t-99 -36t-43 -106.5q-1 -61 40 -101t101 -38t107 50l78 -77q-59 -70 -139 -84v-76h-109z" />
    <glyph glyph-name="sterling.osf" horiz-adv-x="580" 
d="M497 423l-115 -37q-13 42 -52.5 55t-73.5 -11t-34 -74v-45h184v-105h-184v-85h290v-121h-479v96l58 19v91h-56v105h56v45q0 58 25 104t64 70.5t87 31.5t92.5 -5t82.5 -46.5t55 -87.5z" />
    <glyph glyph-name="yen.osf" horiz-adv-x="577" 
d="M489 220h-122l-21 -35h143v-90h-146v-113h-140v113h-147v90h143l-21 35h-122v97h61l-139 223h163l134 -249l132 249h165l-143 -223h60v-97z" />
    <glyph glyph-name="florin.osf" horiz-adv-x="515" 
d="M485 549l-16 -108q-43 6 -73.5 -16.5t-37.5 -76.5h93l-16 -100h-96l-48 -270q-12 -80 -62.5 -127t-130.5 -47q-38 0 -99 18l20 101q32 -9 52 -9q31 0 51.5 23t27.5 64l44 247h-81l18 100h83v1l1 1v-1q6 41 19.5 76t36.5 66t60.5 48.5t85.5 17.5q25 0 68 -8z" />
    <glyph glyph-name="Euro.osf" horiz-adv-x="625" 
d="M457 330h-232q-3 -21 0 -40h216l-15 -86h-197q20 -48 73 -73t115 -18.5t108 42.5l64 -109q-64 -46 -149.5 -55t-160.5 14.5t-132 76.5t-68 122h-82l21 86h56q-4 22 0 40h-64l17 85h57q16 70 72 122.5t127 75.5t152.5 13t144.5 -58l-56 -105q-48 30 -105.5 36.5
t-108.5 -15.5t-75 -69h238z" />
    <glyph glyph-name="zero.numerator" horiz-adv-x="435" 
d="M134 423q0 -30 19 -47t46 -17t46 17t19 47v104q0 31 -19.5 48t-46.5 17q-26 0 -45 -17t-19 -48v-104zM7 527q0 85 57 132.5t135 47.5q77 0 134.5 -48t57.5 -132v-104q0 -82 -57.5 -131.5t-135.5 -49.5q-77 0 -134.5 51t-56.5 130v104z" />
    <glyph glyph-name="one.numerator" horiz-adv-x="288" 
d="M72 250v336h-59v114h189v-450h-130z" />
    <glyph glyph-name="two.numerator" horiz-adv-x="411" 
d="M235 380l-71 -45l1 -4l91 12h95v-113h-284l-52 86l189 192q23 22 9.5 49t-47.5 27t-60 -43l-89 43q54 117 160 116q75 -1 121.5 -42t46.5 -112q0 -57 -58 -115z" />
    <glyph glyph-name="three.numerator" horiz-adv-x="411" 
d="M16 327l77 60q16 -20 42 -31.5t44 -11.5q29 0 41.5 22.5t1.5 45t-38 22.5h-48v95h46q15 0 25 11t10 24q0 27 -23.5 38.5t-50.5 4.5t-38 -27l-77 44q53 89 151 89q68 0 115.5 -38t47.5 -109q0 -22 -12 -45.5t-36 -35.5q30 -13 47.5 -42t17.5 -58q-1 -74 -54.5 -113.5
t-125.5 -39.5q-106 0 -163 95z" />
    <glyph glyph-name="four.numerator" horiz-adv-x="442" 
d="M354 699v-271h48v-111h-48v-72h-120v72h-161l-72 98l174 284h179zM246 594l-7 2l-107 -171h103v81z" />
    <glyph glyph-name="five.numerator" horiz-adv-x="428" 
d="M20 317l90 51q17 -29 54 -35t67 12t30 51t-29 50.5t-68 12t-65 -33.5h-70l39 276h289l1 -100h-201l-12 -64q39 18 81.5 15t78 -19t58.5 -52.5t23 -84.5q0 -81 -58 -128.5t-136 -47.5q-50 0 -96.5 23.5t-75.5 73.5z" />
    <glyph glyph-name="six.numerator" horiz-adv-x="420" 
d="M328 699l-121 -167q44 10 81.5 -2.5t58.5 -41t29.5 -64t-2.5 -74t-40 -68.5q-52 -52 -136 -52t-135 52q-48 48 -48 116q0 48 30 94l144 207h139zM198 449q-28 0 -44.5 -17.5t-16.5 -38.5t16.5 -38t44.5 -17q27 0 43 18t16 40q0 21 -15.5 37t-43.5 16z" />
    <glyph glyph-name="seven.numerator" horiz-adv-x="355" 
d="M5 252l182 335h-180v113h291l43 -67l-196 -381h-140z" />
    <glyph glyph-name="eight.numerator" horiz-adv-x="403" 
d="M16 396q-1 24 14.5 52t45.5 46q-20 11 -31.5 35t-11.5 43q0 64 44.5 100.5t113.5 36.5q67 0 112 -36t45 -101q0 -53 -43 -78q30 -15 45 -43.5t15 -54.5q-1 -72 -52.5 -112.5t-122.5 -40.5q-70 0 -121.5 40.5t-52.5 112.5zM190 622q-21 0 -33 -12.5t-12 -30.5
q0 -28 22.5 -39.5t45 0t22.5 39.5q0 17 -12.5 30t-32.5 13zM190 450q-23 0 -38 -15t-15 -38q0 -21 15 -35t38 -14q24 0 38.5 14t14.5 35q0 23 -15 38t-38 15z" />
    <glyph glyph-name="nine.numerator" horiz-adv-x="416" 
d="M73 233l117 167q-44 -10 -81.5 2.5t-58 41t-28.5 64t3 74t40 68.5q52 52 136 52t135 -52q48 -48 48 -116q0 -48 -30 -94l-144 -207h-137zM201 483q28 0 44.5 17.5t16.5 38.5t-16.5 38t-44.5 17q-27 0 -43 -18t-16 -40q0 -21 15.5 -37t43.5 -16z" />
    <glyph glyph-name="zero.denominator" horiz-adv-x="444" 
d="M139 171q0 -30 19 -47t46 -17t46 17t19 47v104q0 31 -19.5 48t-46.5 17q-26 0 -45 -17t-19 -48v-104zM12 275q0 85 57 132.5t135 47.5q77 0 134.5 -48t57.5 -132v-104q0 -82 -57.5 -131.5t-135.5 -49.5q-77 0 -134.5 51t-56.5 130v104z" />
    <glyph glyph-name="one.denominator" horiz-adv-x="288" 
d="M75 -8v336h-59v114h189v-450h-130z" />
    <glyph glyph-name="two.denominator" horiz-adv-x="412" 
d="M239 150l-71 -45l1 -4l91 12h95v-113h-284l-52 86l189 192q23 22 9.5 49t-47.5 27t-60 -43l-89 43q54 117 160 116q75 -1 121.5 -42t46.5 -112q0 -57 -58 -115z" />
    <glyph glyph-name="three.denominator" horiz-adv-x="409" 
d="M16 89l81 59q31 -39 82 -39q29 0 41.5 21.5t1.5 43.5t-38 22h-48v95h46q15 0 25 11t10 24q0 27 -23.5 38.5t-50.5 4.5t-38 -27l-77 44q53 89 151 89q68 0 115.5 -38t47.5 -109q0 -22 -12 -45.5t-36 -35.5q30 -13 47.5 -42t17.5 -58q-1 -74 -54.5 -113.5t-125.5 -39.5
q-106 0 -163 95z" />
    <glyph glyph-name="four.denominator" horiz-adv-x="443" 
d="M354 446v-271h48v-111h-48v-72h-120v72h-161l-72 98l174 284h179zM246 341l-7 2l-107 -171h103v81z" />
    <glyph glyph-name="five.denominator" horiz-adv-x="439" 
d="M21 72l90 51q17 -29 54 -35t67 12t30 51t-29 50.5t-68 12t-65 -33.5h-70l39 276h289v-101h-202l-10 -63q39 18 81.5 14.5t78 -20t58.5 -53t23 -84.5q0 -80 -58 -127t-136 -47q-50 0 -96.5 23.5t-75.5 73.5z" />
    <glyph glyph-name="six.denominator" horiz-adv-x="424" 
d="M328 457l-121 -167q44 10 81.5 -2.5t58.5 -41t29.5 -64t-2.5 -74t-40 -68.5q-52 -52 -136 -52t-135 52q-48 48 -48 116q0 48 30 94l144 207h139zM198 207q-28 0 -44.5 -17.5t-16.5 -38.5t16.5 -38t44.5 -17q27 0 43 18t16 40q0 21 -15.5 37t-43.5 16z" />
    <glyph glyph-name="seven.denominator" horiz-adv-x="360" 
d="M5 0l182 335h-180v113h291l43 -67l-196 -381h-140z" />
    <glyph glyph-name="eight.denominator" horiz-adv-x="398" 
d="M12 144q-1 24 14.5 52t45.5 46q-20 11 -31.5 35t-11.5 43q0 64 44 101t113 37q67 0 112.5 -36.5t45.5 -101.5q0 -53 -43 -78q30 -15 45 -43.5t15 -54.5q-1 -72 -52.5 -112.5t-122.5 -40.5q-70 0 -121.5 40.5t-52.5 112.5zM186 370q-21 0 -33 -12.5t-12 -30.5
q0 -28 22.5 -39.5t45 0t22.5 39.5q0 17 -12.5 30t-32.5 13zM186 198q-23 0 -38 -15t-15 -38q0 -21 15 -35t38 -14q24 0 38.5 14t14.5 35q0 23 -15 38t-38 15z" />
    <glyph glyph-name="nine.denominator" horiz-adv-x="422" 
d="M70 0l117 167q-44 -10 -81.5 2.5t-58 41t-28.5 64t3 74t40 68.5q52 52 136 52t135 -52q48 -48 48 -116q0 -48 -30 -94l-144 -207h-137zM198 250q28 0 44.5 17.5t16.5 38.5t-16.5 38t-44.5 17q-27 0 -43 -18t-16 -40q0 -21 15.5 -37t43.5 -16z" />
    </font>
</defs>
</svg>
